<?xml version="1.0" encoding="utf-8"?>
<!-- Generator: Adobe Illustrator 16.0.4, SVG Export Plug-In . SVG Version: 6.00 Build 0)  -->
<!DOCTYPE svg PUBLIC "-//W3C//DTD SVG 1.1//EN" "http://www.w3.org/Graphics/SVG/1.1/DTD/svg11.dtd">
<svg version="1.1" id="Layer_1" xmlns="http://www.w3.org/2000/svg" xmlns:xlink="http://www.w3.org/1999/xlink" x="0px" y="0px"
	 width="257.6px" height="54.9px" viewBox="0 0 257.6 54.9" enable-background="new 0 0 257.6 54.9" xml:space="preserve">
<g>
	<path fill="#FFFFFF" d="M32.9,11.1c-12.1,0-21.9,9.8-21.9,21.9c0,12.1,9.8,21.9,21.9,21.9S54.8,45,54.8,32.9
		C54.8,20.9,45,11.1,32.9,11.1 M32.9,49.3c-9,0-16.4-7.3-16.4-16.4c0-9.1,7.3-16.4,16.4-16.4c9.1,0,16.4,7.3,16.4,16.4
		C49.3,42,42,49.3,32.9,49.3"/>
	<rect x="60.2" y="30.2" fill="#FFFFFF" width="16.4" height="5.5"/>
	<rect x="5" y="-0.5" transform="matrix(0.707 -0.7072 0.7072 0.707 -3.2004 7.7278)" fill="#FFFFFF" width="5.5" height="16.4"/>
</g>
<path fill="#FFFFFF" d="M257.6,45.1c0-0.2-0.3-1.7-0.3-3.9v-12c0-4.8-2.7-9-9.9-9c-5.8,0-9.4,3.7-9.8,7.9l5.1,1.2
	c0.2-2.4,1.9-4.4,4.8-4.4c3.1,0,4.4,1.6,4.4,3.7c0,0.8-0.4,1.5-1.7,1.7l-6,0.9c-4,0.6-7.1,3-7.1,7.3c0,3.8,3,7.3,7.9,7.3
	c3.8,0,6.1-2,7.2-3.8c0,1.9,0.2,2.9,0.2,3.1H257.6z M251.9,35.1c0,4.7-2.7,6.2-5.8,6.2c-2.2,0-3.4-1.5-3.4-3.1c0-2,1.4-3,3.1-3.3
	l6.1-0.9V35.1z M230.7,45.4c2,0,3.1-0.4,3.4-0.5v-4.8c-0.2,0-1.2,0.2-1.9,0.2c-2.1,0-3-0.9-3-3V26.1h4.8V21h-4.8v-7.4h-5v3.6
	c0,2.1-1.1,3.8-3.6,3.8h-1.2v5.1h4.3v12.1C223.7,42.7,226.4,45.4,230.7,45.4 M218.2,33c0-7.1-3.9-12.6-10.8-12.6
	c-3.6,0-6.3,1.7-7.4,3.8V21h-5.4v33.5h5.5V42.4c1.2,1.8,3.7,3.3,7.1,3.3C213.9,45.7,218.2,40.3,218.2,33 M212.7,33
	c0,4.6-2.6,7.6-6.3,7.6c-3.6,0-6.3-3-6.3-7.6c0-4.5,2.6-7.5,6.3-7.5C210.1,25.6,212.7,28.5,212.7,33 M184.3,45.1h5.2
	c0-0.2-0.3-1.7-0.3-3.9v-12c0-4.8-2.7-9-9.9-9c-5.8,0-9.4,3.7-9.8,7.9l5.1,1.2c0.2-2.4,1.9-4.4,4.8-4.4c3.1,0,4.4,1.6,4.4,3.7
	c0,0.8-0.4,1.5-1.7,1.7l-6,0.9c-4,0.6-7.1,3-7.1,7.3c0,3.8,3,7.3,7.9,7.3c3.8,0,6.1-2,7.2-3.8C184.1,44,184.2,45,184.3,45.1
	 M183.7,35.1c0,4.7-2.7,6.2-5.8,6.2c-2.2,0-3.4-1.5-3.4-3.1c0-2,1.4-3,3.1-3.3l6.1-0.9V35.1z M159.3,45.1h5.6V29.9
	c0-5.3-2.7-9.6-8.4-9.6c-2.6,0-5.4,1.1-6.9,3.9V21h-5.4v24.1h5.6V31.2c0-3.2,1.7-5.7,4.8-5.7c3.5,0,4.8,2.4,4.8,5.3V45.1z
	 M126.5,54.9L141.3,21h-5.9l-6.3,15.2L122.4,21h-6.3l10,21.2l-5.6,12.6H126.5z M102.9,27.5c0-1.5,1.4-2.8,3.4-2.8
	c3.1,0,4.1,2.2,4.3,3.6l4.7-1.4c-0.4-2.4-2.5-6.7-9-6.7c-4.8,0-8.6,3.6-8.6,7.8c0,3.3,2.2,6.1,6.3,7l3.5,0.8
	c1.9,0.4,2.7,1.4,2.7,2.7c0,1.5-1.2,2.8-3.5,2.8c-3,0-4.6-1.9-4.8-4.1L97,38.6c0.3,2.7,2.9,7.3,9.6,7.3c6,0,8.8-4.1,8.8-7.7
	c0-3.6-2.3-6.3-6.7-7.3l-3.6-0.7C103.8,29.8,102.9,28.8,102.9,27.5"/>
</svg>
