<svg xmlns="http://www.w3.org/2000/svg" width="160" height="160" viewBox="0 0 160 160">
    <g fill="none" fill-rule="evenodd">
        <circle cx="80" cy="80" r="80" fill="#FFF"/>
        <path fill="#009DE0" fill-opacity=".1" d="M138.968 115.805a1.446 1.446 0 0 0-1.71-1.111l-1.884.399-1.796-8.454 1.883-.399a1.44 1.44 0 0 0 1.113-1.707l-15.161-71.392a1.448 1.448 0 0 0-1.711-1.111l-67.79 14.33c-3.317.702-5.612 3.589-5.71 6.83a1.42 1.42 0 0 0-.053.77l.199.936v.002h.001l1.645 7.75-.942.2a3.825 3.825 0 0 0-2.427 1.664 3.809 3.809 0 0 0-.54 2.888 3.813 3.813 0 0 0 1.668 2.422 3.832 3.832 0 0 0 2.895.54l.942-.198 2.295 10.802-.942.2a3.82 3.82 0 0 0-2.428 1.664 3.809 3.809 0 0 0-.54 2.889 3.812 3.812 0 0 0 1.668 2.42 3.832 3.832 0 0 0 2.895.54l.942-.198 2.294 10.803-.941.198a3.829 3.829 0 0 0-2.428 1.665 3.81 3.81 0 0 0-.54 2.889 3.814 3.814 0 0 0 1.668 2.421 3.84 3.84 0 0 0 2.895.54l.942-.198 3.94 18.55c.016.076.056.138.083.207a7.146 7.146 0 0 0 3.246 5.273 7.193 7.193 0 0 0 5.428 1.014l27.066-5.722h.002l40.72-8.609a1.44 1.44 0 0 0 1.113-1.707z"/>
        <path fill="#23333A" d="M97.139 85.944a1.499 1.499 0 0 1-2.087-.38 12.91 12.91 0 0 0-13.323-5.296 12.913 12.913 0 0 0-10.03 10.244 1.501 1.501 0 0 1-2.947-.56 15.907 15.907 0 0 1 12.355-12.62 15.91 15.91 0 0 1 16.412 6.525 1.5 1.5 0 0 1-.38 2.087zM77.547 60.529a5.581 5.581 0 0 1 4.225.785 5.58 5.58 0 0 1 2.43 3.543 5.62 5.62 0 0 1-4.328 6.656c-3.026.645-6.014-1.3-6.656-4.328a5.62 5.62 0 0 1 4.329-6.656zm1.162 14.107c.589 0 1.188-.06 1.787-.187a8.562 8.562 0 0 0 5.436-3.732 8.552 8.552 0 0 0 1.206-6.481 8.557 8.557 0 0 0-3.731-5.437 8.566 8.566 0 0 0-6.482-1.206 8.562 8.562 0 0 0-5.436 3.732 8.553 8.553 0 0 0-1.206 6.48c.857 4.049 4.444 6.83 8.426 6.83zm-18.246 52.409a4.457 4.457 0 0 1-3.382-.636 4.468 4.468 0 0 1-1.953-2.833 4.506 4.506 0 0 1 3.47-5.335l65.545-13.888 1.865 8.804-34.482 7.307h-.002l-31.061 6.58zm-9.636-23.77l.978-.206a3.976 3.976 0 0 0 2.522-1.733 3.97 3.97 0 0 0 .562-3.01c-.457-2.157-2.586-3.534-4.742-3.083l-.978.207-2.384-11.25.978-.207a3.976 3.976 0 0 0 2.522-1.735 3.964 3.964 0 0 0 .562-3.008 4.009 4.009 0 0 0-4.742-3.084l-.978.207-2.384-11.25.979-.206a3.976 3.976 0 0 0 2.52-1.735 3.965 3.965 0 0 0 .563-3.008 3.972 3.972 0 0 0-1.733-2.522 3.973 3.973 0 0 0-3.01-.562l-.977.207-1.71-8.072a4.505 4.505 0 0 1 3.47-5.334l3.098-.656 15.13 71.414-3.097.656a7.456 7.456 0 0 0-4.088 2.415l-3.061-14.444zm-4.535-2.104a.997.997 0 0 1-.75-.143.993.993 0 0 1-.293-1.379.987.987 0 0 1 .629-.434l4.89-1.037a1.017 1.017 0 0 1 1.186.77.993.993 0 0 1-.142.752.989.989 0 0 1-.628.433h-.001l-4.891 1.038zM42.25 82.093a.988.988 0 0 1-.751-.141.991.991 0 0 1-.292-1.38.988.988 0 0 1 .629-.434l4.89-1.037a1.018 1.018 0 0 1 1.186.772.989.989 0 0 1-.142.75.99.99 0 0 1-.63.434l-4.89 1.036zm-4.042-19.076a.988.988 0 0 1-.751-.141.997.997 0 0 1 .337-1.815l4.89-1.036a.999.999 0 0 1 .751.142.99.99 0 0 1 .292 1.38.995.995 0 0 1-.628.434l-4.891 1.036zm76.766-18.821L101.93 46.96l-3.161-14.918 13.044-2.764 3.16 14.918zm8.084 38.153l-13.044 2.764-3.42-16.141 13.044-2.763 3.42 16.14zm-4.042-19.076l-13.044 2.764-3.42-16.142 13.044-2.764 3.42 16.142zm-55.007 50.754L48.877 42.613l46.958-9.95 15.13 71.416-46.956 9.948zm49.892-10.57l-3.265-15.41 13.044-2.762 3.265 15.408-13.044 2.764zm18.777 9.82a1.502 1.502 0 0 0-1.778-1.156l-1.957.415-1.866-8.804 1.957-.415a1.499 1.499 0 0 0 1.156-1.778l-15.753-74.35a1.504 1.504 0 0 0-1.778-1.157L42.222 40.956c-3.447.73-5.832 3.737-5.934 7.113a1.483 1.483 0 0 0-.055.8l.207.976v.002l1.71 8.072-.978.207a3.975 3.975 0 0 0-2.522 1.734 3.974 3.974 0 0 0-.562 3.008 3.97 3.97 0 0 0 1.734 2.522 3.975 3.975 0 0 0 3.008.563l.979-.207 2.384 11.25-.978.207a3.97 3.97 0 0 0-2.523 1.734 3.974 3.974 0 0 0-.562 3.008 3.97 3.97 0 0 0 1.734 2.52 3.975 3.975 0 0 0 3.008.564l.979-.207 2.383 11.25-.978.207a3.978 3.978 0 0 0-2.522 1.734 3.975 3.975 0 0 0-.562 3.008 3.972 3.972 0 0 0 1.734 2.522 3.983 3.983 0 0 0 3.008.563l.979-.207 4.093 19.319c.017.079.059.143.087.215a7.442 7.442 0 0 0 3.373 5.491 7.462 7.462 0 0 0 5.639 1.056l28.124-5.96h.002l42.31-8.964a1.5 1.5 0 0 0 1.157-1.778z"/>
    </g>
</svg>
