<svg xmlns="http://www.w3.org/2000/svg" width="160" height="160" viewBox="0 0 160 160">
    <g fill="none" fill-rule="evenodd">
        <circle cx="80" cy="80" r="80" fill="#FFF"/>
        <circle cx="80" cy="80" r="80" fill="#009DE0" fill-opacity=".1"/>
        <path fill="#FFF" d="M131 71.88v37.616c0 4.521-3.649 8.199-8.134 8.199h-21.584C97.246 121.009 92.1 123 86.5 123s-10.746-1.99-14.782-5.305H50.134c-4.485 0-8.134-3.678-8.134-8.199V71.88c0-4.52 3.649-8.198 8.134-8.198H66.38C67.426 61.206 70.676 55 76.93 55h19.14c6.254 0 9.504 6.206 10.55 8.68h3.805v-1.446c0-2.924 2.362-5.305 5.263-5.305h.957c2.902 0 5.264 2.38 5.264 5.305v1.447h.957c4.485 0 8.134 3.678 8.134 8.198z"/>
        <path fill="#23333A" d="M89 59c0-.827-.673-1.5-1.5-1.5h-12c-.827 0-1.5.673-1.5 1.5s.673 1.5 1.5 1.5h12c.827 0 1.5-.673 1.5-1.5zm3 0c0 2.481-2.019 4.5-4.5 4.5h-12A4.505 4.505 0 0 1 71 59c0-2.481 2.019-4.5 4.5-4.5h12c2.481 0 4.5 2.019 4.5 4.5zm7 35a1.5 1.5 0 0 0-3 0c0 3.873-1.509 7.514-4.247 10.253a1.5 1.5 0 1 0 2.121 2.121A17.384 17.384 0 0 0 99 94zm26-28.5c0-3.032-2.468-5.5-5.5-5.5h-18a1.5 1.5 0 0 1-1.423-1.025C100.051 58.896 97.322 51 91.5 51h-20c-5.822 0-8.551 7.896-8.578 7.977A1.502 1.502 0 0 1 61.5 60h-18a5.507 5.507 0 0 0-5.5 5.5v4.092c.157-.056.324-.092.5-.092h12a1.5 1.5 0 0 1 0 3h-12c-.176 0-.343-.036-.5-.092V77.5h9a1.5 1.5 0 0 1 0 3h-9v5.092c.157-.056.324-.092.5-.092h9a1.5 1.5 0 0 1 0 3h-9c-.176 0-.343-.036-.5-.092V104.5c0 3.032 2.468 5.5 5.5 5.5h19.47c-3.715-4.296-5.97-9.888-5.97-16 0-13.51 10.99-24.5 24.5-24.5S106 80.49 106 94c0 6.112-2.255 11.704-5.97 16h19.47c3.032 0 5.5-2.468 5.5-5.5v-39zm-43.5 50c5.169 0 9.916-1.835 13.628-4.886a1.49 1.49 0 0 1 .453-.405C100.116 106.265 103 100.469 103 94c0-11.855-9.645-21.5-21.5-21.5S60 82.145 60 94c0 6.469 2.884 12.265 7.419 16.209.178.104.332.241.453.406A21.4 21.4 0 0 0 81.5 115.5zm28-58.5h6v-1.5c0-1.379-1.121-2.5-2.5-2.5h-1a2.502 2.502 0 0 0-2.5 2.5V57zm18.5 8.5v39c0 4.687-3.813 8.5-8.5 8.5H96.946a24.375 24.375 0 0 1-15.446 5.5 24.375 24.375 0 0 1-15.446-5.5H43.5c-4.687 0-8.5-3.813-8.5-8.5v-39c0-4.687 3.813-8.5 8.5-8.5h16.976c1.093-2.566 4.489-9 11.024-9h20c6.535 0 9.931 6.434 11.024 9h3.976v-1.5c0-3.032 2.468-5.5 5.5-5.5h1c3.032 0 5.5 2.468 5.5 5.5V57h1c4.687 0 8.5 3.813 8.5 8.5zM83 78a1.5 1.5 0 0 1-1.5 1.5C73.505 79.5 67 86.005 67 94a1.5 1.5 0 0 1-3 0c0-9.649 7.851-17.5 17.5-17.5A1.5 1.5 0 0 1 83 78z"/>
    </g>
</svg>
