<svg xmlns="http://www.w3.org/2000/svg" width="160" height="160" viewBox="0 0 160 160">
    <g fill="none" fill-rule="evenodd">
        <circle cx="80" cy="80" r="80" fill="#FFF"/>
        <path fill="#009DE0" fill-opacity=".1" d="M79.785 115.54H51.886a.795.795 0 0 1-.796-.79V43.078c0-.436.358-.792.796-.792h36.386l15.735 15.657v31.878c1.826.234 3.606.695 5.316 1.38C117.631 94.522 123 102.42 123 111.324c0 11.952-9.787 21.676-21.815 21.676-10.577 0-19.42-7.519-21.4-17.46z"/>
        <path fill="#23333A" d="M95.804 126.767c-10.558 0-19.146-8.534-19.146-19.024 0-.793.05-1.59.147-2.367 1.184-9.498 9.352-16.66 19-16.66 2.472 0 4.876.461 7.142 1.369 7.291 2.914 12.004 9.845 12.004 17.659 0 10.49-8.59 19.023-19.147 19.023zm-21.38-14.802h-27.97a.796.796 0 0 1-.797-.792v-71.74c0-.437.358-.793.797-.793h36.423v14.352c0 .73.596 1.32 1.33 1.32h14.422V86.28a22.147 22.147 0 0 0-2.826-.202c-10.986 0-20.287 8.158-21.634 18.975a21.511 21.511 0 0 0 .256 6.913zm11.112-71.517L96.75 51.672H85.536V40.448zm18.403 47.187a21.668 21.668 0 0 0-2.652-.846V53.01l-.002-.009.002-.01c0-.388-.176-.73-.447-.971L85.225 36.39c-.248-.25-.589-.39-.943-.39H46.454C44.55 36 43 37.54 43 39.432v71.741c0 1.893 1.55 3.432 3.454 3.432h28.687c2.898 8.59 11.055 14.802 20.662 14.802 12.023 0 21.804-9.718 21.804-21.664 0-8.898-5.366-16.79-13.668-20.108zM89.856 77.24H54.43a1.325 1.325 0 0 1-1.328-1.32c0-.73.594-1.32 1.328-1.32h35.425c.733 0 1.328.59 1.328 1.32 0 .728-.595 1.32-1.328 1.32zm0-14.435H54.43a1.325 1.325 0 0 1-1.328-1.32c0-.73.594-1.32 1.328-1.32h35.425c.733 0 1.328.59 1.328 1.32 0 .728-.595 1.32-1.328 1.32zm0 7.217H54.43a1.324 1.324 0 0 1-1.328-1.32c0-.73.594-1.32 1.328-1.32h35.425c.733 0 1.328.59 1.328 1.32 0 .729-.595 1.32-1.328 1.32zm0 14.433H54.43a1.324 1.324 0 0 1-1.328-1.32c0-.73.594-1.32 1.328-1.32h35.425c.733 0 1.328.59 1.328 1.32 0 .729-.595 1.32-1.328 1.32zm13.025 23.982a1.334 1.334 0 0 1 1.878 0 1.314 1.314 0 0 1 0 1.867l-8.014 7.964c-.036.036-.082.05-.122.08-.096.077-.192.156-.308.204a1.323 1.323 0 0 1-.509.102h-.002c-.02 0-.036-.01-.056-.011a1.314 1.314 0 0 1-.45-.09 1.312 1.312 0 0 1-.439-.293l-8.01-7.958a1.316 1.316 0 0 1 0-1.868 1.335 1.335 0 0 1 1.88 0l5.747 5.71V98.15c0-.729.594-1.32 1.328-1.32.733 0 1.328.591 1.328 1.32v16l5.749-5.712zM75.295 90.352c0 .73-.594 1.32-1.329 1.32H54.432c-.735 0-1.33-.591-1.33-1.32 0-.73.595-1.32 1.33-1.32h19.534c.734 0 1.329.59 1.329 1.32zm-6.376 5.897c.734 0 1.328.591 1.328 1.32 0 .73-.595 1.32-1.328 1.32H54.432c-.734 0-1.33-.59-1.33-1.32 0-.729.596-1.32 1.33-1.32h14.487z"/>
    </g>
</svg>
