<svg xmlns="http://www.w3.org/2000/svg" width="160" height="160" viewBox="0 0 160 160">
    <g fill="none" fill-rule="evenodd">
        <circle cx="80" cy="80" r="80" fill="#FFF"/>
        <path fill="#009DE0" fill-opacity=".1" d="M130.611 75.356l15.156-8.39-31.764-31.633-7.606 15.847 1.847 1.9-3.817-3.803a3.396 3.396 0 0 0-4.789.011l-1.026 1.03a3.395 3.395 0 0 0 .01 4.788l3.428 3.417-27.93 14.466-11.658 45.86 45.81-11.847 14.354-27.987 2.841 2.829a3.395 3.395 0 0 0 4.788-.011l1.027-1.03a3.396 3.396 0 0 0-.01-4.788l-.66-.66z"/>
        <path fill="#23333A" d="M46.107 116.155a1.45 1.45 0 0 1-1.451 1.451H28.451a1.451 1.451 0 1 1 0-2.902h16.205c.802 0 1.451.65 1.451 1.451zM27 73.748c0-.802.65-1.452 1.45-1.452h9.843a1.451 1.451 0 1 1 0 2.903H28.45c-.801 0-1.451-.65-1.451-1.451zm94.745-3.716L99.5 47.98l6.3-13.058 28.816 28.815-12.871 6.294zm-.204 6.898l-1.029 1.028c-.725.725-2.011.726-2.736 0l-26.791-26.79a1.936 1.936 0 0 1 0-2.736l1.03-1.03a1.918 1.918 0 0 1 1.366-.563c.52 0 1.006.2 1.37.563l26.79 26.792c.362.362.563.848.563 1.368 0 .52-.2 1.005-.563 1.368zM76.252 93.55c-.04-.053-.06-.115-.108-.163-.048-.049-.11-.068-.163-.109a4.393 4.393 0 0 1-1.174-2.979 4.43 4.43 0 0 1 4.425-4.425 4.43 4.43 0 0 1 4.425 4.425 4.43 4.43 0 0 1-4.425 4.426 4.397 4.397 0 0 1-2.98-1.176zm22.25 9.318l-40.058 10.27 16.738-16.737a7.292 7.292 0 0 0 4.05 1.226c4.04 0 7.328-3.287 7.328-7.328 0-4.04-3.288-7.327-7.328-7.327-4.04 0-7.328 3.287-7.328 7.327 0 1.497.452 2.888 1.226 4.05l-16.738 16.738 10.271-40.059 26.679-13.306 18.467 18.467-13.307 26.679zm39.603-39.744l-31.698-31.699a1.452 1.452 0 0 0-2.332.396l-6.772 14.03-.5-.5a4.802 4.802 0 0 0-3.422-1.414 4.806 4.806 0 0 0-3.42 1.412l-1.03 1.03a4.843 4.843 0 0 0 .002 6.84l2.307 2.307-26.466 13.201c-.377.188-.653.53-.758.938l-.688 2.68a1.43 1.43 0 0 0-.355-.049H44.768a1.451 1.451 0 1 0 0 2.903h17.829L57.85 93.716a1.436 1.436 0 0 0-.753-.216H28.45a1.452 1.452 0 0 0 0 2.902h28.646c.022 0 .043-.005.065-.006l-4.899 19.105a1.45 1.45 0 0 0 1.766 1.766l45.836-11.753c.408-.105.75-.381.939-.758l13.2-26.465 1.72 1.72a4.8 4.8 0 0 0 3.42 1.413c1.295 0 2.51-.502 3.42-1.414l1.029-1.028a4.801 4.801 0 0 0 1.413-3.42 4.79 4.79 0 0 0-1.286-3.266l13.996-6.843a1.449 1.449 0 0 0 .389-2.33z"/>
    </g>
</svg>
