<svg xmlns="http://www.w3.org/2000/svg" width="160" height="160" viewBox="0 0 160 160">
    <g fill="none" fill-rule="evenodd">
        <circle cx="80" cy="80" r="80" fill="#FFF"/>
        <path fill="#FFF" d="M97.01 96.02l5.316-5.703a4.827 4.827 0 0 1 6.828 0l13.656 10.243a4.829 4.829 0 0 1 0 6.828l-8.535 8.534c-3.769 3.77-10.209 1.92-11.762 1.308-5.886-2.325-20.494-9.666-32.762-21.934C54.14 79.684 47.995 62.71 47.995 62.71c-.612-1.553-2.462-7.992 1.307-11.761l8.536-8.536a4.826 4.826 0 0 1 6.827 0l10.242 13.657a4.827 4.827 0 0 1 0 6.828l-5.897 5.956s9.833 17.5 28 27.165"/>
        <path fill="#009DE0" fill-opacity=".1" d="M97.01 96.02l5.316-5.703a4.827 4.827 0 0 1 6.828 0l13.656 10.243a4.829 4.829 0 0 1 0 6.828l-8.535 8.534c-3.769 3.77-10.209 1.92-11.762 1.308-5.886-2.325-20.494-9.666-32.762-21.934C54.14 79.684 47.995 62.71 47.995 62.71c-.612-1.553-2.462-7.992 1.307-11.761l8.536-8.536a4.826 4.826 0 0 1 6.827 0l10.242 13.657a4.827 4.827 0 0 1 0 6.828l-5.897 5.956s9.833 17.5 28 27.165"/>
        <path fill="#23333A" d="M116.259 106.826l-8.536 8.535c-2.93 2.929-8.321 1.693-10.151.972-6.537-2.581-20.686-10.033-32.252-21.599C50.148 79.562 43.975 62.866 43.9 62.66c-.723-1.83-1.956-7.222.972-10.151l8.535-8.535c1.235-1.235 3.374-1.261 4.637-.067L68.216 57.47l.14.16c.629.629.975 1.464.975 2.353 0 .89-.346 1.725-.981 2.358l-4.431 4.476c-1.603-2.824-2.445-4.682-2.465-4.728a1.499 1.499 0 1 0-2.74 1.223c.223.499 5.568 12.335 15.68 22.448 10.11 10.109 22.117 15.63 22.624 15.86a1.499 1.499 0 0 0 1.986-.745 1.5 1.5 0 0 0-.745-1.986c-.046-.021-1.862-.857-4.63-2.434l4.267-4.579c1.257-1.257 3.448-1.257 4.706 0l13.724 10.312a3.334 3.334 0 0 1-.067 4.638zm-11.616-17.151a6.288 6.288 0 0 0-4.394-1.773c-1.69 0-3.28.658-4.511 1.891l-4.75 5.096c-4.205-2.589-9.61-6.388-14.472-11.25-4.77-4.77-8.474-10.025-11.017-14.154l4.978-5.027a6.287 6.287 0 0 0 1.854-4.475c0-1.652-.63-3.208-1.775-4.393L60.374 42.013C59.04 40.658 57.45 40 55.76 40s-3.28.658-4.474 1.853l-8.535 8.535c-4.906 4.905-1.778 13.029-1.658 13.333.256.706 6.438 17.467 22.106 33.134 11.913 11.914 26.519 19.603 33.272 22.269.194.076 2.868 1.107 6.044 1.107 2.448 0 5.194-.613 7.329-2.749l8.536-8.535a6.337 6.337 0 0 0 0-8.949l-13.737-10.323z"/>
    </g>
</svg>
