<?xml version="1.0" standalone="no"?>
<!DOCTYPE svg PUBLIC "-//W3C//DTD SVG 1.1//EN" "http://www.w3.org/Graphics/SVG/1.1/DTD/svg11.dtd" >
<svg xmlns="http://www.w3.org/2000/svg">
<defs>
  <font id="gent-icons-v6" horiz-adv-x="1042.7083333333335">
    <font-face font-family="gent-icons-v6"
      units-per-em="1001" ascent="1001"
      descent="0" />
    <missing-glyph horiz-adv-x="0" />
    <glyph glyph-name="age"
      unicode="&#xE001;"
      horiz-adv-x="1032.28125" d="M915.492703125 759.091458125C915.492703125 694.5939000000001 863.2060937499999 642.307290625 798.7072843750001 642.307290625C734.211603125 642.307290625 681.92499375 694.5939000000001 681.92499375 759.091458125C681.92499375 823.5893290624999 734.211603125 875.875 798.7072843750001 875.875C863.2060937499999 875.875 915.492703125 823.5893290624999 915.492703125 759.091458125zM740.3020625 759.0905196875C740.3020625 726.841740625 766.44693125 700.69874875 798.6947718749999 700.69874875C830.9426125 700.69874875 857.08748125 726.841740625 857.08748125 759.0905196875C857.08748125 791.3396115625001 830.9426125 817.482290625 798.6947718749999 817.482290625C766.44693125 817.482290625 740.3020625 791.3396115625001 740.3020625 759.0905196875zM471.298953125 440.023959375C531.1900343750001 440.023959375 579.7416625000001 488.572459375 579.7416625000001 548.463540625C579.7416625000001 608.354621875 531.1900343750001 656.90625 471.298953125 656.90625C411.407871875 656.90625 362.85624375 608.354621875 362.85624375 548.463540625C362.85624375 488.572459375 411.407871875 440.023959375 471.298953125 440.023959375zM471.2708 494.240621875C441.325259375 494.240621875 417.04788125 518.518 417.04788125 548.463540625C417.04788125 578.4090812500001 441.325259375 602.68333125 471.2708 602.68333125C501.216340625 602.68333125 525.490590625 578.4090812500001 525.490590625 548.463540625C525.490590625 518.518 501.216340625 494.240621875 471.2708 494.240621875zM471.3083375 358.692709375C416.6036875 358.692709375 370.698453125 328.0902625 331.8940625 263.41315C324.189490625 250.575325 307.536604375 246.4117906250001 294.697528125 254.1163625000001C281.858451875 261.81780625 277.6955431250001 278.4719437500001 285.39886375 291.30976875C333.3455125 371.2239781250001 395.8829875 412.915628125 471.3083375 412.915628125C546.7336875000001 412.915628125 609.2711625 371.2239781250001 657.2190625000001 291.30976875C664.92050625 278.4719437500001 660.756971875 261.81780625 647.919146875 254.1163625000001C635.081321875 246.4117906250001 618.427184375 250.575325 610.7257406250001 263.41315C571.9182218750001 328.0902625 526.0129875 358.692709375 471.3083375 358.692709375zM798.719796875 554.719790625C739.80781875 554.719790625 690.37093125 521.761865625 648.5791812499999 452.1110343749999C640.28339375 438.284721875 622.349853125 433.80211875 608.523540625 442.09790625C594.6972281249999 450.39369375 590.211496875 468.327234375 598.5072843749999 482.153546875C650.146371875 568.214521875 717.4917750000001 613.1125 798.719796875 613.1125C879.94781875 613.1125 947.293221875 568.214521875 998.92918125 482.153546875C1007.22496875 468.327234375 1002.742365625 450.39369375 988.916053125 442.09790625C975.089740625 433.80211875 957.1562 438.284721875 948.8604125 452.1110343749999C907.0686625 521.761865625 857.631775 554.719790625 798.719796875 554.719790625zM41.505839375 135.96708125C73.4874765625 189.27033125 111.32121 214.492403125 156.40625 214.492403125C201.49129 214.492403125 239.3250234375 189.27033125 271.306660625 135.96708125C277.655503125 125.3846343749999 291.3801515625 121.95308125 301.9613471875 128.303175C312.5425428125 134.6501406250001 315.975034375 148.376353125 309.624940625 158.9556718749999C270.1082759375 224.8183437500001 218.568975625 259.17766875 156.40625 259.17766875C94.243524375 259.17766875 42.7042240625 224.8183437500001 3.18746553125 158.9556718749999C-3.1613456875 148.376353125 0.2697970275 134.6501406250001 10.85112153125 128.303175C21.4324735625 121.95308125 35.156996875 125.3846343749999 41.505839375 135.96708125zM156.4215778125 281.5187375000001C205.7808878125 281.5187375000001 245.7946115625 321.5337125 245.7946115625 370.8923968750001C245.7946115625 420.254209375 205.7808878125 460.26605625 156.4215778125 460.26605625C107.0622678125 460.26605625 67.0485440625 420.254209375 67.0485440625 370.8923968750001C67.0485440625 321.5337125 107.0622678125 281.5187375000001 156.4215778125 281.5187375000001zM156.4253315625 326.210259375C131.7456765625 326.210259375 111.7388146875 346.2177468750001 111.7388146875 370.895525C111.7388146875 395.5764312500001 131.7456765625 415.58391875 156.4253315625 415.58391875C181.1049865625 415.58391875 201.1118484375 395.5764312500001 201.1118484375 370.895525C201.1118484375 346.2177468750001 181.1049865625 326.210259375 156.4253315625 326.210259375z" />
    <glyph glyph-name="arrow-down"
      unicode="&#xE002;"
      horiz-adv-x="1001" d="M482.9199375 170.1700000000001L295.26371875 357.8575000000001A46.76546875 46.76546875 0 0 0 281.53125 391.015625A46.921875 46.921875 0 0 0 361.6112500000001 424.17375L469.21875 316.59753125V766.42190625A46.921875 46.921875 0 1 0 563.0625 766.42190625V316.59753125L670.6700000000001 424.2050312500001A46.921875 46.921875 0 1 0 736.98625 357.82621875L549.3300312500002 170.1700000000001C544.9506562500001 165.790625 539.7266875000001 162.3496875000001 534.0022187500001 159.94103125L533.2201875000002 159.7220625C527.9023750000001 157.6262187499999 522.1779062500002 156.4062499999999 516.1406250000002 156.4062499999999C510.0720625000002 156.4062499999999 504.3475937500003 157.6574999999999 499.0297812500002 159.7220625L498.2790312500002 159.94103125A47.672625 47.672625 0 0 0 482.9512187500002 170.1700000000001z" />
    <glyph glyph-name="arrow-left"
      unicode="&#xE003;"
      horiz-adv-x="1001" d="M201.45125 518.0800624999999L389.10746875 705.73628125A46.76546875 46.76546875 0 0 0 422.296875 719.46875A46.921875 46.921875 0 0 0 455.455 639.38875L347.8787812500001 531.78125H797.671875A46.921875 46.921875 0 1 0 797.671875 437.9375H347.8787812500001L455.455 330.3612812500001A46.921875 46.921875 0 1 0 389.10746875 264.0137500000001L201.45125 451.66996875C197.071875 456.04934375 193.6309375 461.2733125 191.22228125 467.0290625L191.0033125 467.7798125A46.39009375 46.39009375 0 0 0 187.6875 484.859375C187.6875 490.9279375 188.90746875 496.65240625 191.0033125 501.97021875L191.22228125 502.72096875C193.6309375 508.47671875 197.071875 513.7006875 201.45125 518.0800624999999z" />
    <glyph glyph-name="arrow-right-top"
      unicode="&#xE004;"
      horiz-adv-x="1042.7083333333335" d="M749.4320166666666 699.5413424999999V434.1545541666667C749.4320166666666 421.1916041666666 744.168425 409.4715625 735.6766083333334 400.975575C727.2014750000001 392.5046125 715.4814333333334 387.2410208333333 702.5184833333333 387.2410208333333C676.5925833333334 387.2410208333333 655.60495 408.2328250000001 655.60495 434.1545541666667L655.579925 586.3132275L337.5292754166668 268.2596583333333C319.2147291666667 249.9455291666666 289.5088029166667 249.924675 271.1717341666667 268.2596583333333C252.8571879166667 286.5779583333332 252.8571879166667 316.3034875 271.1717341666667 334.6176166666667L589.2219666666667 652.67076875L437.08665 652.67076875C411.1640866666667 652.67076875 390.1731166666667 673.6621558333334 390.1731166666667 699.5855533333333C390.1731166666667 725.5093679166666 411.1640866666667 746.5003379166667 437.08665 746.5003379166667L702.4726041666668 746.5003379166667C708.6662916666667 746.5003379166667 714.7932458333333 745.239495 720.5656791666667 742.8729641666666C720.8117583333334 742.7624370833333 721.0077875000001 742.6076991666666 721.2538666666667 742.496755C726.4966041666668 740.2186458333333 731.4056750000001 737.0333804166667 735.6766083333334 732.7645325C739.9642249999999 728.4731620833334 743.1507416666666 723.56284 745.4280166666666 718.3205195833334C745.5406291666667 718.07736 745.69495 717.87841125 745.8033916666667 717.6348345833333C748.172425 711.8619841666666 749.4320166666666 705.73503 749.4320166666666 699.5413424999999z" />
    <glyph glyph-name="arrow-right"
      unicode="&#xE005;"
      horiz-adv-x="1001" d="M830.8299999999999 451.66996875L643.17378125 263.98246875A46.76546875 46.76546875 0 0 0 609.984375 250.25A46.921875 46.921875 0 0 0 576.8262500000001 330.33L684.40246875 437.9375H234.609375A46.921875 46.921875 0 1 0 234.609375 531.78125H684.4024687499999L576.82625 639.38875A46.921875 46.921875 0 1 0 643.1737812499999 705.7049999999999L830.8299999999998 518.0800624999999C835.2093749999999 513.7006875 838.6503124999998 508.4767187499999 841.0589687499998 502.6896874999999L841.2779374999999 501.9389375C843.37378125 496.6211249999999 844.59375 490.9279375 844.59375 484.8593749999999C844.59375 478.7908124999999 843.37378125 473.0663437499999 841.2779374999999 467.7485312499998L841.0589687499998 467.0290624999999A47.672625 47.672625 0 0 0 830.8299999999998 451.6699687499998" />
    <glyph glyph-name="arrow-up"
      unicode="&#xE006;"
      horiz-adv-x="1001" d="M549.3613125 799.5487499999999L737.01753125 611.89253125C746.1829375 602.727125 750.75 590.715125 750.75 578.73440625A46.921875 46.921875 0 0 0 670.6700000000001 545.57628125L563.0625 653.0899375V203.328125A46.921875 46.921875 0 1 0 469.21875 203.328125V653.1525L361.6112500000001 545.5450000000001A46.921875 46.921875 0 1 0 295.295 611.89253125L482.95121875 799.58003125C487.33059375 803.95940625 492.5545625 807.40034375 498.27903125 809.7777187500001L499.0610625 809.9966875C504.3788750000001 812.0925312500001 510.1033437500001 813.3125 516.140625 813.3125C522.2091875 813.3125 527.93365625 812.0925312500001 533.2514687500001 809.9966875L534.00221875 809.7777187500001C539.75796875 807.3690625 544.9506562500001 803.928125 549.33003125 799.54875z" />
    <glyph glyph-name="arrows-left-right"
      unicode="&#xE007;"
      horiz-adv-x="1001" d="M291.9583333333334 166.8333333333333L83.4166666666667 375.375L291.9583333333334 583.9166666666666L350.35 524.4822916666666L242.9510416666667 417.0833333333333H542.2083333333334V333.6666666666667H242.9510416666667L350.35 226.2677083333333L291.9583333333334 166.8333333333333zM709.0416666666667 417.0833333333333L650.65 476.5177083333333L758.0489583333334 583.9166666666666H458.7916666666667V667.3333333333333H758.0489583333334L650.65 774.7322916666667L709.0416666666667 834.1666666666666L917.5833333333334 625.625L709.0416666666667 417.0833333333333z" />
    <glyph glyph-name="basket"
      unicode="&#xE008;"
      horiz-adv-x="1032.28125" d="M503.6281250000001 828.953125C631.8812500000001 828.953125 738.2375000000001 722.596875 738.2375000000001 594.34375H863.3625000000001C894.6437500000001 594.34375 916.540625 563.0625 907.15625 534.909375L810.1843749999999 190.8156250000001C803.928125 172.046875 785.159375 156.40625 766.390625 156.40625H240.865625C218.96875 156.40625 200.2 168.9187499999999 197.071875 190.8156250000001L100.1 534.9093750000001C90.715625 563.0625 112.6125 594.34375 143.89375 594.34375H269.01875C269.01875 722.596875 372.246875 828.953125 503.6281250000001 828.953125zM362.8625 594.34375H644.3937500000001C644.3937500000001 672.546875 581.8312500000001 735.109375 503.6281250000001 735.109375C425.425 735.109375 362.8625 672.546875 362.8625 594.34375zM275.2750000000001 250.25H728.853125L800.8000000000001 500.5H206.4562500000001L275.2750000000001 250.25zM566.1906250000001 375.375C566.1906250000001 340.965625 538.0375000000001 312.8125 503.6281250000001 312.8125C469.2187500000001 312.8125 441.0656250000001 340.965625 441.0656250000001 375.375S469.2187500000001 437.9375 503.6281250000001 437.9375C538.0375 437.9375 566.1906250000001 409.7843750000001 566.1906250000001 375.375z" />
    <glyph glyph-name="bluesky"
      unicode="&#xE009;"
      horiz-adv-x="1001" d="M270.144875 798.26621875C363.363 731.01153125 463.68196875 594.594 500.5 521.3958749999999C537.31803125 594.594 637.6057187499999 730.98025 730.855125 798.2349375C798.14109375 846.846 907.15625 884.3835 907.15625 764.889125C907.15625 741.02153125 892.9232812500001 564.3763125 884.5711875 535.69140625C855.5421875 435.9980625 749.749 410.56640625 655.655 425.9567812500001C820.1318125 399.0549062500001 861.986125 309.934625 771.61459375 220.8456250000001C599.974375 51.6140625 524.9306562500001 263.2942812500001 505.72396875 317.5359687500001C502.1891875000001 327.4834062500002 500.5312812500001 332.1443125000001 500.5 328.1715937500001C500.5 332.1755937500001 498.8420937499999 327.4834062500002 495.3073125 317.5359687500001C476.06934375 263.2942812500001 401.025625 51.58278125 229.38540625 220.8456250000001C139.013875 309.934625 180.8681875 399.0549062500001 345.345 425.9567812500002C251.251 410.5664062500001 145.4578125 435.9980625000002 116.4288125 535.6914062500001C108.07671875 564.34503125 93.84375 740.9902500000001 93.84375 764.85784375C93.84375 884.35221875 202.85890625 846.81471875 270.144875 798.26621875z" />
    <glyph glyph-name="broken-link"
      unicode="&#xE00A;"
      horiz-adv-x="1001" d="M722.0338125000001 800.674875A46.921875 46.921875 0 0 0 734.8591250000001 738.89440625L732.4191875 735.1406562500001L360.1723125000001 222.6599375000001A46.921875 46.921875 0 0 0 281.7502187500001 274.0550312500001L284.2527187500001 277.8087812500002L656.49959375 790.2895000000001A46.921875 46.921875 0 0 0 722.0338125000001 800.6748750000002zM731.19921875 629.53515625A184.02759375 184.02759375 0 0 0 914.82015625 452.6396874999999L914.9765625 445.7578125V437.9375A184.02759375 184.02759375 0 0 0 738.0810937499999 254.3165624999999L731.19921875 254.16015625H656.90625V254.3165624999999H563.0625A46.921875 46.921875 0 0 0 558.5580000000001 347.9413437499999L563.0625 348.1603124999999H703.828125L707.5818750000001 348.00390625H731.19921875A90.09 90.09 0 0 1 820.9764062500001 432.65096875L821.1328125 437.9375V445.7578125A90.05871875 90.05871875 0 0 1 731.19921875 535.69140625A46.921875 46.921875 0 1 0 731.19921875 629.53515625zM344.09375 750.75H453.578125A46.921875 46.921875 0 0 0 458.082625 657.1252187499999L453.578125 656.90625H277.62109375A90.05871875 90.05871875 0 0 1 187.6875 566.97265625V559.15234375A90.05871875 90.05871875 0 0 1 277.62109375 469.21875A46.921875 46.921875 0 1 0 277.62109375 375.375A183.9963125 183.9963125 0 0 0 93.84375 559.15234375V566.97265625A183.9963125 183.9963125 0 0 0 277.62109375 750.75H344.09375z" />
    <glyph glyph-name="calendar"
      unicode="&#xE00B;"
      horiz-adv-x="1001" d="M563.0625 310.1848750000001A46.921875 46.921875 0 0 0 516.140625 263.2630000000001H359.734375A46.921875 46.921875 0 1 0 359.734375 357.1067500000001H516.140625A46.921875 46.921875 0 0 0 563.0625 310.1848750000001zM703.828125 469.21875A46.921875 46.921875 0 0 0 656.90625 422.296875H359.734375A46.921875 46.921875 0 1 0 359.734375 516.140625H656.90625A46.921875 46.921875 0 0 0 703.828125 469.21875zM782.03125 203.328125H250.25C233.2955625 203.328125 218.96875 217.68621875 218.96875 234.609375V578.703125H813.3125V234.609375C813.3125 217.68621875 798.9856875 203.328125 782.03125 203.328125zM218.96875 735.109375C218.96875 752.0638125 233.2955625 766.390625 250.25 766.390625H312.8125A46.921875 46.921875 0 1 1 406.65625 766.390625H641.265625A46.921875 46.921875 0 1 1 735.109375 766.390625H782.03125C798.9856875 766.390625 813.3125 752.0638125 813.3125 735.109375V672.546875H218.96875V735.109375zM782.03125 860.234375H735.109375A46.921875 46.921875 0 1 1 641.265625 860.234375H406.65625A46.921875 46.921875 0 1 1 312.8125 860.234375H250.25C181.43125 860.234375 125.125 803.928125 125.125 735.109375V234.609375C125.125 165.790625 181.43125 109.484375 250.25 109.484375H782.03125C850.85 109.484375 907.15625 165.790625 907.15625 234.609375V735.109375C907.15625 803.928125 850.85 860.234375 782.03125 860.234375z" />
    <glyph glyph-name="car-charger"
      unicode="&#xE00C;"
      horiz-adv-x="1001" d="M312.8125 208.5416666666666L417.0833333333334 375.375H354.5208333333334V500.5L250.25 333.6666666666667H312.8125V208.5416666666666zM208.5416666666667 583.9166666666666H458.7916666666667V792.4583333333333H208.5416666666667V583.9166666666666zM208.5416666666667 208.5416666666666H458.7916666666667V500.5H208.5416666666667V208.5416666666666zM125.125 125.125V792.4583333333333C125.125 815.3979166666667 133.2927429166667 835.03545125 149.6286458333333 851.3713541666666C165.96454875 867.7072570833334 185.6020833333334 875.875 208.5416666666667 875.875H458.7916666666667C481.73125 875.875 501.3675333333333 867.7072570833334 517.7046875 851.3713541666666C534.0418416666666 835.03545125 542.2083333333334 815.3979166666667 542.2083333333334 792.4583333333333V500.5H594.34375C614.5013875000001 500.5 631.706075 493.3762166666667 645.9578125 479.1244791666667C660.20955 464.8727416666666 667.3333333333334 447.6680541666666 667.3333333333334 427.5104166666667V234.609375C667.3333333333334 222.7934041666666 672.2006958333334 212.0159708333333 681.9312500000001 202.2854166666667C691.6618041666668 192.5548625 702.4392375 187.6875 714.2552083333334 187.6875C726.7677083333334 187.6875 737.7161458333334 192.5548625 747.1005208333335 202.2854166666667C756.4848958333333 212.0159708333333 761.1770833333334 222.7934041666666 761.1770833333334 234.609375V625.625H750.75C738.9340291666667 625.625 729.0283 629.6219095833333 721.0328125000001 637.6161458333333C713.037325 645.6103820833333 709.0416666666667 655.51611125 709.0416666666667 667.3333333333333V750.75H729.8958333333334V813.3125H771.6041666666667V750.75H813.3125V813.3125H855.0208333333334V750.75H875.875V667.3333333333333C875.875 655.51611125 871.8793416666667 645.6103820833333 863.8838541666667 637.6161458333333C855.8883666666668 629.6219095833333 845.9826375000001 625.625 834.1666666666667 625.625H823.7395833333334V234.609375C823.7395833333334 205.4135416666667 813.137325 179.8671875 791.9369791666668 157.9703125C770.7366333333333 136.0734375 744.8399291666667 125.125 714.2552083333334 125.125C684.3628458333334 125.125 658.6454875000001 136.0734375 637.0947916666668 157.9703125C615.5440958333334 179.8671875 604.7708333333334 205.4135416666667 604.7708333333334 234.609375V427.5104166666667C604.7708333333334 430.9847208333333 603.9033000000001 433.5914916666666 602.1640625 435.3307291666667C600.424825 437.0699666666667 597.8180541666667 437.9375 594.34375 437.9375H542.2083333333334V125.125H125.125z" />
    <glyph glyph-name="cart"
      unicode="&#xE00D;"
      horiz-adv-x="1032.28125" d="M96.0393809375 813.3125C78.7633721875 813.3125 64.7581309375 799.30725875 64.7581309375 782.03125C64.7581309375 764.75524125 78.7633721875 750.75 96.0393809375 750.75H229.0885471875L340.943728125 373.24161875C348.814090625 346.67758125 373.219721875 328.453125 400.9286531250001 328.453125H752.94594375C770.2225781249999 328.453125 784.22719375 342.4577406250001 784.22719375 359.734375C784.22719375 377.011009375 770.2225781249999 391.015625 752.94594375 391.015625H400.9286531250001L391.66001875 422.296875H759.80279375C788.509596875 422.296875 813.534596875 441.8351437500001 820.497803125 469.684840625L867.419678125 657.3723406250001C877.292040625 696.8592881249999 847.4278312499999 735.109375 806.72466875 735.109375H298.9739878125L289.0734721875001 768.523380625C281.20217125 795.088669375 256.7956015625001 813.3125 229.0885471875 813.3125H96.0393809375zM384.92829375 484.859375L326.27595 672.546875H806.72466875L759.80279375 484.859375H384.92829375zM346.28969375 250.25A62.5625 62.5625 0 0 1 471.41469375 250.25A62.5625 62.5625 0 0 1 346.28969375 250.25M659.10219375 250.25A62.5625 62.5625 0 0 1 784.22719375 250.25A62.5625 62.5625 0 0 1 659.10219375 250.25" />
    <glyph glyph-name="chat-round"
      unicode="&#xE00E;"
      horiz-adv-x="1001" d="M524.8993750000001 618.743125C524.8993750000001 588.713125 549.51771875 564.3450312499999 579.8605312500001 564.3450312499999C610.20334375 564.3450312499999 634.79040625 588.713125 634.79040625 618.71184375C634.79040625 648.7418437499999 610.20334375 673.07865625 579.8605312500001 673.07865625S524.9306562500001 648.7418437499999 524.9306562500001 618.71184375M367.3670000000002 618.71184375C367.3670000000002 588.68184375 391.9540625000001 564.3450312499999 422.2968750000001 564.3450312499999S477.2267500000001 588.713125 477.2267500000001 618.71184375C477.2267500000001 648.7418437499999 452.6396875000002 673.07865625 422.2968750000001 673.07865625S367.3670000000002 648.7418437499999 367.3670000000002 618.71184375M264.7645000000001 673.07865625C234.3904062500002 673.07865625 209.8033437500001 648.7418437499999 209.8033437500001 618.71184375S234.3904062500002 564.3450312499999 264.7332187500002 564.3450312499999S319.6630937500002 588.713125 319.6630937500002 618.71184375C319.6630937500002 648.7418437499999 295.0760312500002 673.07865625 264.7332187500002 673.07865625M422.296875 911.535625C239.3015625 911.535625 90.4028125 783.2825 90.4028125 625.625C90.4028125 531.9689375 143.9563125 444.0686249999999 233.608375 390.48384375C244.21271875 384.16503125 251.7515 373.8109375 254.379125 361.83021875L272.7099375 279.4666875000001L343.8435 333.5206875000001C353.2278750000001 340.6528125000001 365.02090625 343.8435000000001 376.7826562500001 342.4671250000001C392.2668750000001 340.6215312500001 407.5946875 339.6830937500002 422.2968750000001 339.6830937500002C605.2921875000001 339.6830937500002 754.1909375 467.9362187500001 754.1909375 625.5937187500001C754.1909375 783.2512187500001 605.2921875000001 911.5043437500002 422.296875 911.5043437500002M243.868625 156.40625C238.6446562500001 156.40625 233.4206875 157.31340625 228.38440625 159.12771875A44.8573125 44.8573125 0 0 0 199.6995 191.5038125L170.1074375 324.449125C63.21940625 395.17603125 0 506.4434375 0 625.625C0 832.58175 189.43925 1001 422.296875 1001S844.59375 832.58175 844.59375 625.625C844.59375 418.63696875 655.1545 250.2187187500001 422.296875 250.2187187500001C410.00334375 250.2187187500001 397.42828125 250.7505000000001 384.72809375 251.7827812500001L271.396125 165.6655000000001A45.5455 45.5455 0 0 0 243.868625 156.4062500000001" />
    <glyph glyph-name="chat"
      unicode="&#xE00F;"
      horiz-adv-x="1001" d="M656.90625 563.0625A62.5625 62.5625 0 1 1 656.93753125 437.90621875A62.5625 62.5625 0 0 1 656.90625 563.0625M500.5 563.0625A62.5625 62.5625 0 1 1 500.5312812500001 437.90621875A62.5625 62.5625 0 0 1 500.5 563.0625M344.09375 563.0625A62.5625 62.5625 0 1 1 344.12503125 437.90621875A62.5625 62.5625 0 0 1 344.09375 563.0625M782.03125 813.3125H218.96875C150.15 813.3125 93.84375 757.00625 93.84375 688.1875V344.09375C93.84375 275.275 150.15 218.96875 218.96875 218.96875H375.375L498.5605625 123.1542812500001L622.6845625 218.96875H782.03125C850.85 218.96875 907.15625 275.275 907.15625 344.09375V688.1875C907.15625 757.00625 850.85 813.3125 782.03125 813.3125M782.03125 719.46875C798.9856875 719.46875 813.3125 705.1419375 813.3125 688.1875V344.09375C813.3125 327.1393125 798.9856875 312.8125 782.03125 312.8125H590.6838437499999L565.34603125 293.26171875L498.77953125 241.866625L432.9950625 293.04275L407.56340625 312.8125H218.96875C202.0143125 312.8125 187.6875 327.1393125 187.6875 344.09375V688.1875C187.6875 705.1419375 202.0143125 719.46875 218.96875 719.46875H782.03125" />
    <glyph glyph-name="checkmark-checkbox"
      unicode="&#xE010;"
      horiz-adv-x="1001" d="M453.7658125 470.5325625L651.2130625000001 701.0753750000001C674.6114375000001 725.4434687500001 711.86740625 725.4434687500001 734.38990625 702.0763750000001C756.0678125000001 679.5538750000001 756.0678125000001 643.67428125 735.109375 621.9963750000001L455.61140625 302.3958437500001L266.51625 498.498A58.3708125 58.3708125 0 0 0 266.51625 579.36003125A57.08828125 57.08828125 0 0 0 348.81721875 579.36003125L453.7658125 470.50128125z" />
    <glyph glyph-name="checkmark-circle"
      unicode="&#xE011;"
      horiz-adv-x="1001" d="M471.095625 342.2168750000001L721.345625 592.4668750000001A46.921875 46.921875 0 1 1 655.0293750000001 658.7831250000002L437.9375 441.7538125L345.9706250000001 533.658125A46.921875 46.921875 0 1 1 279.654375 467.3418750000001L404.779375 342.2168750000001A46.76546875 46.76546875 0 0 1 471.12690625 342.2168750000001M500.4374375 938.4375C258.6959375 938.4375 62.5625 742.366625 62.5625 500.5S258.6959375 62.5625 500.5 62.5625C742.366625 62.5625 938.4375 258.633375 938.4375 500.5S742.39790625 938.4375 500.5 938.4375M500.5 844.59375C690.2520625 844.59375 844.59375 690.2520625 844.59375 500.5S690.28334375 156.40625 500.5 156.40625C310.7479375 156.40625 156.40625 310.7479375000001 156.40625 500.5S310.7792187500001 844.59375 500.5 844.59375" />
    <glyph glyph-name="checkmark"
      unicode="&#xE012;"
      horiz-adv-x="1001" d="M416.0406250000001 305.9306250000001L232.7325 489.23875A46.921875 46.921875 0 1 0 299.0487500000001 555.5550000000001L416.0406250000001 438.59440625L683.1825 705.73628125A46.921875 46.921875 0 1 0 749.5613125 639.38875L416.0406250000001 305.9306250000001z" />
    <glyph glyph-name="chevron-down"
      unicode="&#xE013;"
      horiz-adv-x="1001" d="M491.115625 318.443125L232.7325 576.82625A46.921875 46.921875 0 1 0 299.04875 643.1424999999999L491.115625 451.1381875L683.1825 643.1737812499998A46.921875 46.921875 0 1 0 749.53003125 576.8262499999998L491.14690625 318.4431249999999z" />
    <glyph glyph-name="chevron-left"
      unicode="&#xE014;"
      horiz-adv-x="1001" d="M635.66628125 237.7375000000001C623.65428125 237.7375000000001 611.64228125 242.3045625000001 602.5081562500001 251.46996875L344.09375 509.85309375L602.476875 768.29878125A46.921875 46.921875 0 0 0 668.8244062499999 701.95125L476.7575312499999 509.884375L668.8244062499999 317.8175A46.9844375 46.9844375 0 0 0 635.6662812499999 237.7375000000001" />
    <glyph glyph-name="chevron-right"
      unicode="&#xE015;"
      horiz-adv-x="1001" d="M391.015625 782.03125C403.027625 782.03125 415.039625 777.4641875 424.1737500000001 768.29878125L682.556875 509.884375L424.1737500000001 251.46996875A46.921875 46.921875 0 0 0 357.82621875 317.8175L549.89309375 509.884375L357.82621875 701.91996875A46.9844375 46.9844375 0 0 0 390.98434375 782.03125z" />
    <glyph glyph-name="chevron-up"
      unicode="&#xE016;"
      horiz-adv-x="1001" d="M491.115625 688.1875L749.53003125 429.8043750000001A46.921875 46.921875 0 1 0 683.2137812499999 363.4881250000001L491.1469062499999 555.4924375L299.0800312499999 363.45684375A46.921875 46.921875 0 1 0 232.7012187499999 429.804375L491.115625 688.1875z" />
    <glyph glyph-name="civil-affairs"
      unicode="&#xE017;"
      horiz-adv-x="1032.28125" d="M502.5395375000001 406.65625C592.332365625 406.65625 663.7943812499999 479.4789999999999 663.7943812499999 569.3187499999999C663.7943812499999 659.1585 591.0029125 731.98125 502.5395375000001 731.98125C412.746709375 731.98125 341.28469375 659.1585 341.28469375 569.3187499999999C339.8770375 479.5415624999999 412.76235 406.65625 502.5395375000001 406.65625zM502.5395375000001 656.90625C550.790865625 656.90625 590.064475 617.617 590.064475 569.3187499999999C590.064475 521.0205000000001 550.7126625 481.7312499999999 502.5395375000001 481.7312499999999C454.3664125 481.7312499999999 414.9520375 520.98921875 414.9520375 569.3187499999999C414.9520375 617.64828125 454.21000625 656.90625 502.5395375000001 656.90625zM802.99594375 656.90625C872.096225 656.90625 928.12094375 712.93096875 928.12094375 782.03125C928.12094375 851.13153125 872.12750625 907.15625 802.99594375 907.15625C733.8956625000001 907.15625 677.87094375 851.13153125 677.87094375 782.03125C677.87094375 712.93096875 733.8643812500001 656.90625 802.99594375 656.90625zM580.7426625 356.60625H424.649225C301.8700059375001 356.60625 202.3956309375 263.2317187500001 202.3956309375 148.11671875C202.3956309375 124.9685937500001 222.2592246875 106.3562499999999 246.8150059375 106.3562499999999H758.57656875C783.13235 106.3562499999999 802.99594375 124.9685937500001 802.99594375 148.11671875C802.99594375 263.2317187500001 703.52156875 356.60625 580.7426625 356.60625zM280.7551621875 181.43125C297.1308965625 238.9261875000001 354.829475 281.53125 423.30413125 281.53125H580.7426625C649.201678125 281.53125 706.8999437499999 238.9261875000001 723.29131875 181.43125H280.7551621875zM865.4020375 606.85625H768.6804125C748.6604125 606.85625 729.7665375 602.1046281250001 712.59313125 593.9683749999999C713.5315687499999 585.74140625 715.09563125 577.7646875 715.09563125 569.3187499999999C715.09563125 516.5942031249999 695.1069125 468.890296875 663.23131875 431.68125H975.5746C990.83985 431.68125 1003.19594375 444.8193749999999 1003.19594375 460.92921875C1003.19594375 541.4784375 941.57188125 606.85625 865.4020375 606.85625zM289.8267246875 569.3187499999999C289.8267246875 577.842890625 291.3632596875001 585.944734375 292.34330125 594.2029843749999C275.2809434375 603.57171875 256.5121934375 606.85625 236.6485996875 606.85625H139.9582559375C63.8822559375 606.85625 2.19564345 541.4784375 2.19564345 460.92921875C2.19564345 444.8193749999999 14.531391875 431.68125 29.7544121875 431.68125H341.78519375C309.8467246875 468.9059374999999 289.8267246875 516.60984375 289.8267246875 569.3187499999999zM202.3956309375 656.90625C271.4959121875 656.90625 327.52094375 712.93096875 327.52094375 782.03125C327.52094375 851.13153125 271.5271934375 907.15625 202.3956309375 907.15625C133.2953496875 907.15625 77.2706309375 851.13153125 77.2706309375 782.03125C77.2706309375 712.93096875 133.2953496875 656.90625 202.3956309375 656.90625z" />
    <glyph glyph-name="clock"
      unicode="&#xE018;"
      horiz-adv-x="1001" d="M643.1424999999999 424.17375A46.921875 46.921875 0 1 0 576.82625 357.8575L467.3731562499999 467.2480312499999A46.89059375 46.89059375 0 0 0 457.1129062499999 482.6696874999999L456.9252187499999 483.3891562499998A46.57778125 46.57778125 0 0 0 453.578125 500.5V719.46875A46.921875 46.921875 0 1 0 547.421875 719.46875V519.92565625L643.1424999999999 424.2050312500001zM500.5 156.40625C310.71665625 156.40625 156.40625 310.7479375000001 156.40625 500.5S310.71665625 844.59375 500.5 844.59375S844.59375 690.2520625 844.59375 500.5S690.2520625 156.40625 500.5 156.40625zM500.5 938.4375C258.60209375 938.4375 62.5625 742.366625 62.5625 500.5C62.5625 258.60209375 258.633375 62.5625 500.5 62.5625C742.39790625 62.5625 938.4375 258.60209375 938.4375 500.5C938.4375 742.366625 742.39790625 938.4375 500.5 938.4375z" />
    <glyph glyph-name="contact"
      unicode="&#xE019;"
      horiz-adv-x="1032.28125" d="M650.8126625 356.60625H367.091725C251.9764121875 356.60625 158.6018809375 263.2317187500001 158.6018809375 148.11671875C158.6018809375 124.9685937500001 177.2767871875 106.3562499999999 200.2997871875 106.3562499999999H817.541725C840.68985 106.3562499999999 859.3021937499999 124.9685937500001 859.3021937499999 148.11671875C859.3021937499999 263.2317187500001 765.9276625 356.60625 650.8126625 356.60625zM237.8998496875 181.43125C252.7553153125 238.9261875000001 305.0763340625 281.53125 367.1542875 281.53125H650.71881875C712.796459375 281.53125 765.11435 238.9261875000001 779.97294375 181.43125H237.8998496875zM508.95219375 731.98125C577.942990625 731.98125 634.07719375 675.8470468749999 634.07719375 606.85625C634.07719375 576.5290781250001 622.7877906250001 549.0485 604.7666625 527.37059375C610.9009156249999 521.2269562500001 616.1780625 514.398259375 620.56369375 506.834453125L634.07719375 506.75625C660.8383031249999 506.75625 684.1584750000001 520.973578125 697.4530062499999 542.1040625C704.46000625 562.59328125 709.15219375 584.0209375 709.15219375 606.85625C709.15219375 717.24778125 619.343725 807.05625 508.95219375 807.05625C398.5606625 807.05625 308.7518809375 717.24778125 308.7518809375 606.85625C308.7518809375 543.6524843750001 338.65706875 487.940578125 384.405896875 451.247671875C384.2964125 453.10890625 383.8271937500001 454.829375 383.8271937500001 456.7062500000001C383.8271937500001 484.2650312500001 395.0321375 509.25875 413.122084375 527.386234375C395.08844375 549.14234375 383.8271937500001 576.5134375 383.8271937500001 606.85625C383.8271937500001 675.83140625 439.9770375000001 731.98125 508.95219375 731.98125zM233.6768809375 556.8062500000001C247.5657559375 556.8062500000001 258.7018809375 567.91109375 258.7018809375 581.83125V606.85625C258.7018809375 744.884765625 370.923678125 857.10625 508.95219375 857.10625C646.9807093750001 857.10625 759.20219375 744.884765625 759.20219375 606.85625V581.83125C759.20219375 512.85609375 703.05235 456.7062500000001 634.07719375 456.7062500000001H584.02719375C584.02719375 484.2650312500001 561.535975 506.75625 533.97719375 506.75625H483.92719375C456.3684125 506.75625 433.87719375 484.2650312500001 433.87719375 456.7062500000001C433.87719375 429.1474687500001 456.3684125 406.65625 483.92719375 406.65625H634.07719375C730.86138125 406.85019375 809.0957875 485.062703125 809.2521937500001 581.83125V606.85625C809.2521937500001 772.49046875 674.539490625 907.15625 508.95219375 907.15625C343.364896875 907.15625 208.6518809375 772.443546875 208.6518809375 606.85625V581.83125C208.6518809375 567.91109375 219.8036465625 556.8062500000001 233.6768809375 556.8062500000001z" />
    <glyph glyph-name="cross-circle"
      unicode="&#xE01A;"
      horiz-adv-x="1001" d="M500.5 860.234375C301.8237096875 860.234375 140.765625 699.1762903125 140.765625 500.5C140.765625 301.8233968750001 301.8237096875 140.765625 500.5 140.765625C699.1766031249999 140.765625 860.234375 301.8233968750001 860.234375 500.5C860.234375 699.1762903125 699.1766031249999 860.234375 500.5 860.234375zM62.5625 500.5C62.5625 742.366625 258.633375 938.4375 500.5 938.4375C742.366625 938.4375 938.4375 742.366625 938.4375 500.5C938.4375 258.633375 742.366625 62.5625 500.5 62.5625C258.633375 62.5625 62.5625 258.633375 62.5625 500.5zM377.2706437500001 690.0972203125C358.955471875 708.4102025 329.24766875 708.3967515625 310.9278046875 690.1066046875C292.599181875 671.77735625 292.5907359375001 642.0539125 310.9190459375 623.7230999999999L434.158725 500.503128125L310.9181075 377.2800281250001C292.5897975 358.9523437500001 292.5897975 329.2382843749999 310.9181075 310.907471875C320.08851875 301.7389375 332.1318 297.171875 344.103134375 297.171875C356.090109375 297.171875 368.1052375 301.74519375 377.2706437500001 310.907471875L500.509384375 434.1493406250001L623.72935625 310.907471875C632.90101875 301.7389375 644.9443 297.171875 656.915634375 297.171875C668.902609375 297.171875 680.9177375 301.74519375 690.08314375 310.907471875C708.410828125 329.2382843749999 708.410828125 358.9523437500001 690.08314375 377.2800281250001L566.86004375 500.503128125L690.08314375 623.726228125C708.410828125 642.0539125 708.410828125 671.7679718750001 690.08314375 690.0972203125C671.7679718750001 708.4102025 642.0507843749999 708.38642875 623.72935625 690.0962818749999L500.509384375 566.8537875L377.2706437500001 690.0972203125z" />
    <glyph glyph-name="cross"
      unicode="&#xE01B;"
      horiz-adv-x="1001" d="M566.84753125 500.5L768.29878125 701.91996875A46.921875 46.921875 0 0 1 701.91996875 768.29878125L500.5 566.84753125L299.04875 768.29878125A46.95315625 46.95315625 0 0 1 232.7325 701.91996875L434.1837500000001 500.5L232.7325 299.0800312500001A46.921875 46.921875 0 0 1 299.0487500000001 232.70121875L500.5 434.1524687500001L701.9512500000001 232.70121875C711.0853750000001 223.5358125 723.0973749999999 218.96875 735.109375 218.96875S759.10209375 223.5358125 768.2674999999999 232.70121875A46.921875 46.921875 0 0 1 768.2674999999999 299.0800312500001L566.84753125 500.5z" />
    <glyph glyph-name="culture"
      unicode="&#xE01C;"
      horiz-adv-x="1032.28125" d="M702.8959437499999 832.08125C702.8959437499999 790.617953125 669.2686 757.00625 627.82094375 757.00625C586.3732875000001 757.00625 552.74594375 790.617953125 552.74594375 832.08125C552.74594375 873.544546875 586.3732875000001 907.15625 627.82094375 907.15625C669.2686 907.15625 702.8959437499999 873.544546875 702.8959437499999 832.08125zM402.59594375 306.55625C402.59594375 195.97703125 312.9751625 106.3562499999999 202.3956309375 106.3562499999999C91.8320528125 106.3562499999999 2.19564345 195.97703125 2.19564345 306.55625C2.19564345 417.13546875 91.8320528125 506.75625 202.3956309375 506.75625C312.9751625 506.75625 402.59594375 417.13546875 402.59594375 306.55625zM202.3956309375 181.43125C271.5271934375 181.43125 327.52094375 237.4246875 327.52094375 306.55625C327.52094375 375.6878125000001 271.5271934375 431.68125 202.3956309375 431.68125C133.2953496875 431.68125 77.2706309375 375.6878125000001 77.2706309375 306.55625C77.2706309375 237.4246875 133.2953496875 181.43125 202.3956309375 181.43125zM1003.19594375 306.55625C1003.19594375 195.97703125 913.5751625 106.3562499999999 802.99594375 106.3562499999999C692.416725 106.3562499999999 602.79594375 195.97703125 602.79594375 306.55625C602.79594375 417.13546875 692.416725 506.75625 802.99594375 506.75625C913.5751625 506.75625 1003.19594375 417.13546875 1003.19594375 306.55625zM802.99594375 181.43125C872.12750625 181.43125 928.12094375 237.4246875 928.12094375 306.55625C928.12094375 375.6878125000001 872.12750625 431.68125 802.99594375 431.68125C733.8643812500001 431.68125 677.87094375 375.6878125000001 677.87094375 306.55625C677.87094375 237.4246875 733.8643812500001 181.43125 802.99594375 181.43125zM419.48781875 587.1490625C404.47281875 576.04421875 406.5061 553.0525 423.24156875 544.6065625L531.9439125 490.33359375C544.769225 483.9209374999999 552.74594375 470.93921875 552.74594375 456.7062500000001V256.50625C552.74594375 235.70421875 536.010475 218.96875 515.2084437499999 218.96875C494.4064125 218.96875 477.67094375 235.70421875 477.67094375 256.50625V433.558125L389.614225 477.50828125C322.6723500000001 510.97921875 314.8520375000001 603.25890625 375.06844375 647.67828125L491.74750625 733.70171875C529.59781875 761.557671875 582.77594375 754.5819531249999 610.7726625 717.9046874999999L670.8326625 645.80140625H752.94594375C773.747975 645.80140625 790.48344375 627.65828125 790.48344375 608.26390625C790.48344375 586.05421875 773.747975 570.72640625 752.94594375 570.72640625H652.8459437500001C641.4282875 570.72640625 630.63625625 574.4801562499999 623.5979749999999 584.80296875L553.527975 670.9828124999999C549.3050062499999 676.1442187499999 541.6411 677.2390625 536.3232875 673.1725L419.48781875 587.1490625z" />
    <glyph glyph-name="district09"
      unicode="&#xE01D;"
      horiz-adv-x="1001" d="M289.3626275540001 821.131007571875A142.3271983133 141.3399874699312 0 0 1 147.0479179169 679.7910201019438H147.054162255V609.6078069143563C147.05291338738 609.4476654158079 147.0479179169 609.2885966947717 147.0479179169 609.1281947531281V609.1219937270469C147.0479179169 608.9608662653516 147.05291338738 608.8008239832207 147.054162255 608.6399569646209V538.4567437770334V538.4505427509521A142.3271983133 141.3399874699312 0 0 1 289.3688718921 397.1167563071022A142.3271983133 141.3399874699312 0 0 1 289.3751162302001 397.1167563071022H431.6960702054V538.4505427509521A142.3271983133 141.3399874699312 0 0 1 431.6960702054 538.4590381566834H289.3813605683V679.7928246005334H431.7023145435V538.4528371306021V397.1190506867522C510.3060425463 397.1190506867522 574.0295128568 460.3695167155022 574.0295128568 538.4528371306022V679.7928246005335C574.0295128568 757.8513409113085 510.3060425463 821.1328120704648 431.7023145435 821.1328120704648H289.3751162302001A142.3271983133 141.3399874699312 0 0 1 289.3605044790461 821.1328120704648zM716.3504668320002 821.131007571875C637.7404944911 821.131007571875 574.0232685187 757.8495364127187 574.0232685187 679.7910201019438V538.4572336580937V538.4510326320126C574.0232685187 460.3925163212375 637.7155171387001 397.1172461881626 716.3442224939 397.1172461881626H716.35171569962V397.1110451620813H858.67266967482V185.1103654963064C937.27639767762 185.1103654963064 1000.99986798812 248.3608315250564 1000.99986798812 326.4441519401564V538.4510326320125H858.67891401292H858.67266967482H716.35171569962V679.7910201019438H858.67266967482V538.4572336580937H1000.99986798812V679.7972211280251C1000.99362365002 757.8557374388 937.2701533395202 821.131007571875 858.6726696748201 821.131007571875H716.3517156996201zM99.9843416572 318.9409103818437Q121.6459505261 302.8864538574875 121.6521948642 260.0683687664562Q121.6521948642 217.9013914139562 100.53384341 200.7555542992999Q79.4154919558 183.6097171846436 45.7585095968 183.6097171846436H0V334.970562801875H42.46149908Q78.3102441121 334.970562801875 99.9843416572 318.9409103818438zM36.0797855418 309.0192686518436V209.6168205694062H47.9440279318Q65.7716132073 209.6168205694062 75.0069892572 220.6546469940311Q84.2423653071 231.6924734186561 84.2486096452 260.0807708186186Q84.2486096452 279.5333896354998 79.6215551131 290.2301596256561Q74.994500581 300.9269296158124 67.0891685464 304.9761996468685Q59.1651034975 309.0192686518435 47.5069242648 309.0192686518435zM183.3524996303 355.2107119310749Q189.1784670776 349.6297884579499 189.1909557538 341.1219806744749Q189.20344443 332.614172891 183.3524996303 327.0270483917937Q177.526532183 321.4461249186686 168.5097079666 321.4461249186686Q159.4928837502 321.4461249186686 153.7668257125 327.0270483917937Q148.053256351 332.6079718649187 148.053256351 341.1219806744749Q148.053256351 349.6359894840313 153.7668257125 355.2107119310749Q159.4928837502 360.7916354042 168.5097079666 360.7916354042Q177.526532183 360.7916354042 183.3524996303 355.2107119310749zM186.08127538 299.6247141387501V183.6221192368063H151.3502668678V299.6247141387501zM286.8586479759 299.6247141387501A62.068720714 61.638199247625 0 0 0 306.2160960859 289.1387790353563L293.4838907 269.6799591923938Q279.12191307 278.6342408537188 264.6350486780001 278.6404418798001Q257.8162314728 278.6404418798001 254.1820266986001 276.3460622297376A7.2933869008 7.2427984629 0 0 1 250.5603106006 269.9031961313188A8.4798111398 8.4209934183375 0 0 1 252.2025715209 264.5455095971188Q253.8635654555001 262.4743668859814 258.9152349784001 260.2916057053813Q263.9669045013001 258.1088445247813 274.5260802284001 255.0455376406439Q292.7782804947001 249.8056706019876 301.6889509634001 241.4032802618938Q310.5996214321001 233.0008899218 310.5996214321001 218.1370304050437Q310.5996214321001 206.3550808506688 303.787048565 197.6736443369188Q296.9744756979 188.9922078231688 285.054034265 184.4654587838563Q273.1897918750001 179.8704984576501 258.6592171163 179.8704984576501A79.1657184318 78.6166086580875 0 0 0 231.2653058716 184.4654587838563Q218.6205212191 189.0418160318188 209.8222488362 197.1341550678501L226.794359792 215.910862041875Q241.5372420461001 204.5443812349438 257.8162314728 204.5505822610251Q265.7402965217 204.5505822610251 270.2487086299 207.3906522062375A9.116733626 9.053498078625 0 0 1 274.7571207381 215.4519861118626C274.7571207381 218.2176437441001 274.1701529567 220.4128069768625 272.9962173939 222.0002696536625C271.8222818311 223.5877323304626 269.5493427627 225.1007826942876 266.1711558506 226.4836115104063C262.7929689385 227.8664403265251 257.4290825106 229.5841245510313 250.1169625955 231.6118600796001Q232.7452140013 236.6905004401438 224.17173779 245.675787231875Q215.5982615787 254.6610740236062 215.5795285644 267.9374708635625A30.1101983182 29.9013477637875 0 0 0 221.4117403498 285.9824567599999Q227.2377077971001 293.9631773265686 238.1278334435001 298.6511530439937Q249.0179590899 303.3391287614186 263.3174933389 303.3453297874999A72.7402945269 72.2357528204812 0 0 0 286.8586479759 299.6247141387498zM410.4840536797001 189.072821162225A50.2357000145 49.8872548236563 0 0 0 395.6350176779 182.3013006814999A61.1070926466 60.6832412311125 0 0 0 378.8127708365 179.8953025619749Q340.5224896073001 180.1123384748187 340.5287339454001 221.8452440016312V275.5833360217438H324.0311926852V299.6247141387501H340.5287339454V324.7388697678125L375.28471981 328.670320303325V299.6247141387501H402.13537364L398.38877078 275.5957380739063H375.28471981V222.2669137751564Q375.28471981 214.2055798695313 377.9198304882001 210.6957991075439Q380.5549411664001 207.1860183455564 386.2809992041 207.1922193716376Q392.2256090753001 207.1922193716376 398.8196301089 210.9128350203877zM505.9537388906001 301.3610014415L500.4587213626 267.9374708635625A49.2615832709 48.9198947549813 0 0 1 489.8995456355001 269.46292327955Q479.5526774038001 269.46292327955 474.1638136235001 262.3689494426Q468.7749498432 255.27497560565 465.6964911599001 241.062223827425V183.6097171846437H430.9405052953V299.6247141387501H461.3004771375L464.1603839873 277.1211904898937Q468.1192943427 289.1387790353563 476.1432688012 296.0219179855437Q484.1672432597 302.9050569357312 494.2955596579 302.8988559096499A41.6122690984 41.32363780545 0 0 0 505.9537388906001 301.3610014415zM559.9547747794 355.2107119310749Q565.7807422267001 349.6297884579499 565.7869865648 341.1219806744749Q565.7932309029001 332.614172891 559.9547747794 327.0270483917937Q554.1288073321 321.4461249186686 545.1119831157001 321.4461249186686Q536.0951588993 321.4461249186686 530.3628565235001 327.0270483917937Q524.6555315001001 332.6079718649187 524.6555315001001 341.1219806744749Q524.6555315001001 349.6359894840313 530.3628565235001 355.2107119310749Q536.0951588993001 360.7916354042 545.1119831157002 360.7916354042Q554.1288073321002 360.7916354042 559.9547747794002 355.2107119310749zM562.7022835434001 299.6123120865874V183.6097171846436H527.9525420169V299.6247141387501zM671.1414589880001 299.8293479994313A59.94564576 59.52985038 0 0 0 689.4061479305 289.1263769831937L674.4197364905001 268.5947796281751Q663.4234570964 276.8855514988063 652.1961371926001 276.8917525248875Q640.5442022980001 276.8917525248875 634.6058367649001 268.37154268925Q628.6674712318 259.8513328536126 628.6612268937001 240.8451879145813Q628.6612268937001 222.4901507140812 634.6058367649001 214.8504865819813Q640.5504466361001 207.2108224498813 651.7652778637001 207.1984203977188A29.6730946512 29.4672759381 0 0 1 662.5430054243001 209.0587282220938A75.0257222715 74.5053283662188 0 0 1 674.2011846570001 215.0675224948251L689.3811705781001 193.66158046235Q671.9844446315002 179.9015035880564 650.0043745195001 179.895302561975Q632.1830335821002 179.895302561975 619.2010546722 187.4295492506938A51.20357242 50.84841386625 0 0 0 599.1879510617001 208.6246563964063Q592.1443376849 222.2669137751564 592.1443376849 240.6343530278188Q592.1443376849 259.0017922804813 599.1879510617001 273.1773379022188A53.2829370073 52.9133555513062 0 0 0 619.2010546722 295.3522071687687Q632.2080109345001 303.3453297875 649.3924293857001 303.3453297875Q661.4689792711001 303.3453297875 671.1414589880001 299.8293479994312zM786.2121214948 189.072821162225A50.2731660431 49.9244609801438 0 0 0 771.3568411549 182.3013006814999A61.0446492656 60.6212309703 0 0 0 754.5345943135002 179.8953025619749Q716.2568017605001 180.1123384748187 716.2568017605001 221.8452440016312V275.5833360217438H699.7592605003001V299.6247141387501H716.2568017605001V324.7388697678125L751.0190319632002 328.670320303325V299.6247141387501H777.8696857932001L774.1230829332001 275.5957380739063H751.0190319632002V222.2669137751564Q751.0190319632002 214.2055798695313 753.6541426414002 210.6957991075439Q756.2892533196001 207.1860183455564 762.0153113573002 207.1922193716376Q767.9536768904002 207.1922193716376 774.5476979240002 210.9128350203877z" />
    <glyph glyph-name="document"
      unicode="&#xE01E;"
      horiz-adv-x="1001" d="M682.96353125 813.3125C737.45546875 813.3125 782.03125 767.8295625000001 782.03125 712.2740625V257.4446875C782.03125 201.9204687500001 737.45546875 156.40625 682.96353125 156.40625H286.75521875C232.26328125 156.40625 187.6875 201.92046875 187.6875 257.4446875V712.2740625C187.6875 767.79828125 232.26328125 813.3125 286.75521875 813.3125H682.96353125zM682.96353125 737.5180312499999H286.75521875A25.3378125 25.3378125 0 0 1 261.98046875 712.24278125V257.4759687500001A25.3378125 25.3378125 0 0 1 286.75521875 232.2007187500001H682.96353125A25.3378125 25.3378125 0 0 1 707.73828125 257.4759687500001V712.24278125A25.3378125 25.3378125 0 0 1 682.96353125 737.5180312499999zM528.18390625 350.13103125A37.5375 37.5375 0 0 1 491.0530625 388.0126249999999H367.241875A37.5375 37.5375 0 0 1 330.07975 350.13103125A37.5375 37.5375 0 0 1 367.241875 312.21815625H491.0530625A37.5375 37.5375 0 0 1 528.1839062500001 350.13103125zM639.6389999999999 609.0772187499999A37.5375 37.5375 0 0 1 602.476875 646.9900937499999H367.241875A37.5375 37.5375 0 0 1 330.07975 609.0772187499999A37.5375 37.5375 0 0 1 367.241875 571.195625H602.476875A37.5375 37.5375 0 0 1 639.6389999999999 609.0772187499999zM602.476875 440.6589687499999H367.241875A37.5375 37.5375 0 0 0 330.07975 478.5405624999999A37.5375 37.5375 0 0 0 367.241875 516.4534374999998H602.476875A37.5375 37.5375 0 0 0 639.6389999999999 478.5405624999999A37.5375 37.5375 0 0 0 602.476875 440.6589687499999z" />
    <glyph glyph-name="download"
      unicode="&#xE01F;"
      horiz-adv-x="1001" d="M703.828125 218.96875H566.8475312500001L737.0175312500002 389.10746875A46.9844375 46.9844375 0 0 1 737.0175312500002 455.48628125A46.9844375 46.9844375 0 0 1 670.6387187500001 455.48628125L563.0625 347.87878125V766.390625A46.921875 46.921875 0 1 1 469.21875 766.390625V347.8787812500001L361.64253125 455.4862812500002A46.9844375 46.9844375 0 0 1 295.26371875 455.4862812500002A46.9844375 46.9844375 0 0 1 295.26371875 389.1074687500001L465.43371875 218.96875H328.453125A46.921875 46.921875 0 1 1 328.453125 125.125H703.828125A46.921875 46.921875 0 1 1 703.828125 218.96875" />
    <glyph glyph-name="education"
      unicode="&#xE020;"
      horiz-adv-x="1032.28125" d="M659.10219375 782.03125H646.58969375V819.56875C646.58969375 867.867 607.331725 907.15625 559.0021937500001 907.15625H458.90219375C410.5726625 907.15625 371.31469375 867.867 371.31469375 819.56875V782.03125H358.80219375C248.1444590625 782.03125 158.6018809375 692.4886718749999 158.6018809375 581.83125V206.4562500000001C158.6018809375 151.11971875 203.3653496875 106.3562499999999 258.7018809375 106.3562499999999H759.20219375C814.538725 106.3562499999999 859.3021937499999 151.11971875 859.3021937499999 206.4562500000001V581.83125C859.3021937499999 692.566875 769.83781875 782.03125 659.10219375 782.03125zM446.3896937500001 819.56875C446.3896937500001 826.41934375 452.02031875 832.08125 458.90219375 832.08125H559.0021937500001C565.843403125 832.08125 571.51469375 826.4115234375 571.51469375 819.56875V782.03125H446.3896937500001V819.56875zM659.10219375 181.43125H358.80219375V281.53125H659.10219375V181.43125zM659.10219375 356.60625H358.80219375V406.65625C358.80219375 434.2150312500001 381.2934125 456.7062500000001 408.85219375 456.7062500000001H609.0521937499999C636.6109749999999 456.7062500000001 659.10219375 434.2150312500001 659.10219375 406.65625V356.60625zM784.22719375 206.4562500000001C784.22719375 192.57363125 773.081684375 181.43125 759.20219375 181.43125H734.1771937499999V406.65625C734.1771937499999 475.6783281249999 678.0586312500001 531.78125 609.0521937499999 531.78125H408.85219375C339.84575625 531.78125 283.7268809375001 475.6626874999999 283.7268809375001 406.65625V181.43125H258.7018809375C244.82082625 181.43125 233.6768809375 192.57363125 233.6768809375 206.4562500000001V581.83125C233.6768809375 650.80640625 289.7954434375 706.95625 358.80219375 706.95625H659.10219375C728.1242718750001 706.95625 784.22719375 650.8376874999999 784.22719375 581.83125V206.4562500000001zM634.07719375 656.90625H382.4195375C369.9070375 656.90625 358.80219375 645.80140625 358.80219375 633.28890625V606.85625C358.80219375 592.976759375 369.944575 581.83125 383.8271937500001 581.83125H634.07719375C647.99735 581.83125 659.10219375 592.93609375 659.10219375 606.85625V631.8812499999999C659.10219375 645.80140625 647.99735 656.90625 634.07719375 656.90625z" />
    <glyph glyph-name="envelope"
      unicode="&#xE021;"
      horiz-adv-x="1001" d="M765.8275625 574.54271875L674.0170937500001 494.9945000000001L760.4471875 408.5644062500001A46.921875 46.921875 0 1 0 694.0996562500001 342.2168750000001L602.94609375 433.3704375000001L531.2181875000001 371.2145937500002A46.7341875 46.7341875 0 0 0 469.7505312500001 371.2145937500002L398.0226250000001 433.3704375000002L306.8690625000001 342.2168750000001A46.79675 46.79675 0 0 0 240.52153125 342.2168750000001A46.921875 46.921875 0 0 0 240.52153125 408.5644062500001L326.951625 494.9945L235.14115625 574.54271875A46.921875 46.921875 0 1 0 296.6088125 645.4573125L500.5 468.74953125L704.35990625 645.4573125A46.921875 46.921875 0 0 0 765.8275625 574.54271875zM844.59375 281.53125C844.59375 264.5768125 830.2669375 250.25 813.3125 250.25H187.6875C170.7330625 250.25 156.40625 264.5768125 156.40625 281.53125V719.46875C156.40625 736.4231875 170.7330625 750.75 187.6875 750.75H813.3125C830.2669375 750.75 844.59375 736.4231875 844.59375 719.46875V281.53125zM813.3125 844.59375H187.6875C118.83746875 844.59375 62.5625 788.2875 62.5625 719.46875V281.53125C62.5625 212.7125 118.83746875 156.40625 187.6875 156.40625H813.3125C882.13125 156.40625 938.4375 212.7125 938.4375 281.53125V719.46875C938.4375 788.2875 882.13125 844.59375 813.3125 844.59375z" />
    <glyph glyph-name="environment"
      unicode="&#xE022;"
      horiz-adv-x="1032.28125" d="M867.591725 569.3187499999999C857.2032218749999 584.4213374999999 839.21963125 599.2236250000001 823.70413125 610.3753906249999C829.250296875 629.582078125 830.620415625 649.2267031250001 827.736284375 669.07465625C823.213015625 700.215140625 810.0936593749999 727.38290625 788.712925 749.827203125C767.551159375 772.02125 741.525159375 786.87984375 711.338753125 793.965046875C694.2279093750001 798.0707109375 677.1014250000001 799.04825 659.8967375000001 796.7506421875C650.290265625 822.1666578125 634.4807218750001 844.5953140624999 612.615128125 863.7081578125C579.4914125 892.54165 540.54625625 907.15625 496.43969375 907.15625C452.33313125 907.15625 413.387975 892.54165 380.38625625 863.659671875C358.48938125 844.546828125 342.69235 822.10253125 332.9951625000001 796.686515625C315.790475 798.938765625 298.7418809375 798.01596875 281.5371934375 793.902484375C251.3977090625 786.81728125 225.3717090625 771.9586875 204.2099434375 749.8115625C182.8135684375 728.69671875 169.6910840625 700.2307812500001 165.1709434375 668.9495312500001C162.385348125 649.8366874999999 163.680391875 631.021015625 168.9591028125 612.64328125C151.8294903125 601.06921875 137.2367871875 586.67984375 125.3186309375 569.3187499999999C105.8882825 541.00921875 96.0393809375 509.41515625 96.0393809375 475.475C96.0393809375 428.600046875 113.2440684375 388.23159375 147.1685840625 355.433203125C180.7177246875 322.97890625 221.9151309375 306.55625 269.6503184375 306.55625H459.21500625L459.3588999999999 143.8937500000001C459.3714125 123.0917187499999 475.950475 106.3562499999999 496.5961 106.3562499999999C496.571075 106.3562499999999 496.5961 106.3562499999999 496.5961 106.3562499999999C517.319928125 106.3562499999999 534.462053125 123.21684375 534.430771875 143.940671875L534.29000625 306.55625H723.2287562500001C770.96394375 306.55625 812.16135 322.97890625 845.7104906249999 355.433203125C879.6350062500001 388.2003125 896.83969375 429.9607812500001 896.83969375 475.475C896.83969375 509.41515625 886.9861 541.00921875 867.591725 569.3187499999999zM793.4551625 409.31515625C774.21719375 390.7028125 751.225475 381.63125 723.2287562500001 381.63125H534.29000625L534.280621875 391.35971875L623.1350125 480.21098125C637.796534375 494.87563125 637.796534375 518.62435625 623.1350125 533.2952625C608.4703625 547.96616875 584.7216374999999 547.9599125 570.05073125 533.2952625L534.1867781249999 497.431309375L533.97719375 670.82640625C533.95216875 691.550234375 517.14788125 708.316984375 496.424053125 708.316984375C496.424053125 708.316984375 496.449078125 708.316984375 496.424053125 708.316984375C475.700225 708.316984375 458.8709125 691.44075 458.90219375 670.716921875L458.986653125 573.60428125L421.5211 608.4203124999999C406.85645 623.081834375 383.107725 623.081834375 368.43681875 608.4203124999999C353.7659125 593.7556625 353.77216875 570.0069375 368.43681875 555.33603125L457.71350625 466.05934375L459.21500625 381.63125H269.6503184375C241.6692403125 381.63125 218.6931621875 390.72158125 199.3613496875 409.393359375C180.3579903125 427.77109375 171.1143809375 449.35515625 171.1143809375 475.475C171.1143809375 494.24375 176.368066875 511.0105 187.1929434375 526.74496875C197.945873125 542.38559375 212.2961465625 553.631203125 230.9866934375 561.013578125L272.3874278125 577.342390625L249.2862246875 615.4585937500001C240.5900371875 629.6915625 237.3680684375 643.768125 239.4639121875 658.31390625C241.736495 673.95453125 247.9692840625 686.90496875 258.5454746875 698.0098125C269.6503184375 709.61515625 282.7884434375 717.1226562500001 298.8982871875 720.87640625C304.2254840625 722.1473634375 309.5777059375 722.7829984375 314.930240625 722.7829984375C325.021571875 722.7829984375 335.18485 720.5839265625 345.679709375 716.087246875L392.21056875 696.1923718749999L397.756734375 746.4926218749999C400.40625625 770.785640625 410.885475 790.63359375 429.654225 807.15009375C468.020678125 840.68359375 524.71794375 840.68359375 563.0843968749999 807.15009375C581.978271875 790.63359375 592.457490625 770.785640625 595.116396875 746.4488281250001L600.6625625 696.1485781250001L647.193421875 716.043453125C663.2563437499999 722.8862265625 678.5685156249999 724.4502890625 693.9745312499999 720.8326125C709.9748906250001 717.0694781249999 723.1599375 709.59013125 734.249140625 697.96601875C744.8315875000001 686.8705593750001 751.0628125000001 673.9107375 753.330703125 658.2701125C755.482853125 643.41151875 752.50175 628.9908625 744.2403718749999 614.179190625L726.3474968749999 582.115909375L758.05104375 563.487925C776.0846843749999 552.930503125 799.4987 535.6319718750001 805.614184375 526.73245625C816.44688125 510.97921875 821.76469375 494.24375 821.76469375 475.475C821.76469375 449.35515625 812.536725 427.77109375 793.4551625 409.31515625z" />
    <glyph glyph-name="euro"
      unicode="&#xE023;"
      horiz-adv-x="1001" d="M500.5 938.4375C742.366625 938.4375 938.4375 742.366625 938.4375 500.5S742.366625 62.5625 500.5 62.5625S62.5625 258.633375 62.5625 500.5S258.633375 938.4375 500.5 938.4375zM500.5 875.875A375.375 375.375 0 1 1 500.5 125.125A375.375 375.375 0 0 1 500.5 875.875zM527.401875 766.390625A257.131875 257.131875 0 0 0 685.6015833333333 712.2532083333333A46.921875 46.921875 0 0 0 628.2109166666667 638.012375A163.288125 163.288125 0 0 1 527.401875 672.546875C462.336875 672.546875 405.780375 634.4671666666667 378.002625 578.703125H500.5A31.28125 31.28125 0 1 0 500.5 516.140625H360.4017083333334A178.92875 178.92875 0 0 1 360.4017083333334 484.8176666666667L500.5 484.859375A31.28125 31.28125 0 1 0 500.5 422.296875H378.002625C405.8220833333334 366.5328333333333 462.3785833333334 328.453125 527.401875 328.453125A163.288125 163.288125 0 0 1 627.1682083333334 362.236875A46.921875 46.921875 0 1 0 684.0166666666667 287.5372500000001A257.131875 257.131875 0 0 0 527.4435833333333 234.6093750000001C409.6175416666667 234.6093750000001 310.2265833333333 313.6883750000002 277.402125 422.2968750000001H250.25A31.28125 31.28125 0 1 0 250.25 484.8593750000001H266.3494166666667A274.3157083333333 274.3157083333333 0 0 0 266.3494166666667 516.1406250000001H250.25A31.28125 31.28125 0 1 0 250.25 578.7031250000001H277.3604166666667C310.2265833333334 687.2699166666669 409.5758333333334 766.3906250000001 527.401875 766.3906250000001z" />
    <glyph glyph-name="exclamation-circle"
      unicode="&#xE024;"
      horiz-adv-x="1001" d="M563.0625 312.8125A62.5625 62.5625 0 1 0 437.90621875 312.84378125A62.5625 62.5625 0 0 0 563.0625 312.8125M453.578125 453.578125V735.109375A46.921875 46.921875 0 1 0 547.421875 735.109375V453.578125A46.921875 46.921875 0 1 0 453.578125 453.578125M500.5 156.40625C310.7792187500001 156.40625 156.40625 310.77921875 156.40625 500.5S310.7792187500001 844.59375 500.5 844.59375S844.59375 690.2207812500001 844.59375 500.5S690.2207812500001 156.40625 500.5 156.40625M500.5 938.4375C258.633375 938.4375 62.5625 742.366625 62.5625 500.5S258.633375 62.5625 500.5 62.5625S938.4375 258.633375 938.4375 500.5S742.366625 938.4375 500.5 938.4375" />
    <glyph glyph-name="exclamation"
      unicode="&#xE025;"
      horiz-adv-x="1001" d="M516.140625 373.3730000000001A46.921875 46.921875 0 0 0 469.21875 420.2948750000001V828.953125A46.921875 46.921875 0 1 0 563.0625 828.953125V420.2948750000001A46.921875 46.921875 0 0 0 516.140625 373.3730000000001zM594.34375 215.93446875A78.203125 78.203125 0 1 0 437.9375 215.93446875A78.203125 78.203125 0 0 0 594.34375 215.93446875z" />
    <glyph glyph-name="facebook"
      unicode="&#xE026;"
      horiz-adv-x="1001" d="M547.1090624999999 218.96875V475.7878125H639.38875L653.1524999999999 575.8878125H547.1090624999999V639.79540625C547.1090624999999 668.7931249999999 555.7426875 688.53159375 600.1933437499999 688.53159375L656.90625 688.5628750000001V778.0898125A811.2792187499999 811.2792187499999 0 0 1 574.29246875 782.03125C492.52328125 782.03125 436.5611250000001 735.39090625 436.5611250000001 649.7115625V575.8878125H344.09375V475.7878125H436.561125V218.96875H547.1403437499999z" />
    <glyph glyph-name="favicon"
      unicode="&#xE027;"
      horiz-adv-x="1001" d="M934.4335 0H66.5665C30.03 0 0 42.1045625 0 93.84375V906.8434375C0 958.5200625 30.03 1001 66.5665 1001H934.4335C970.97 1001 1001 958.55134375 1001 906.8434375V93.84375C1001 42.1045625 970.97 0 934.4335 0zM548.422875 778.49646875C609.26490625 789.2259375 655.9678124999999 802.3640625 690.53359375 823.16609375L638.98209375 920.92C584.17734375 875.96884375 530.4361562500001 836.11653125 413.9760625 818.5051875C287.5372500000001 796.20165625 211.68021875 709.333625 231.2935625 598.0975000000001C242.71121875 533.4704375000001 277.18315625 493.493 345.9706250000001 470.31359375C313.8760625000001 441.1281875 297.26571875 401.9327812500001 303.6158125 365.83421875C313.0001875 312.5935312500001 364.77065625 274.6493750000001 470.2823125 293.26171875L544.45015625 306.33728125C597.69084375 315.72165625 627.03265625 299.3615625 633.0699375 265.139875C639.4513125 229.0100312499999 619.2749062500001 198.9800312499999 526.0880625 182.557375C430.08590625 165.63421875 405.4675625 182.8701875000001 397.0841875 230.38640625L276.36984375 209.1151562499999C294.13759375 108.3269687499999 355.07346875 57.33853125 539.50771875 89.83975C707.7695624999999 119.494375 785.2532187500001 196.8841875000001 767.3290625000001 298.6108125C752.59559375 382.2568749999999 668.668 430.17975 554.6165625 410.0659062499999L477.57084375 396.4898437499999C428.14646875 387.7936562499999 416.76009375 402.43328125 413.75709375 419.5441249999999C411.37971875 432.8699374999998 416.82265625 446.5398437499998 426.8952187500001 456.1431874999998C445.7578125 454.5791249999997 465.12090625 456.0493437499998 486.9865 459.8969374999998C615.3021875000001 482.5132812499997 681.64971875 567.7234062499998 664.38246875 665.6337187499998C653.1525 729.3223437499998 615.08321875 761.8548437499999 548.422875 778.4964687499998zM365.990625 623.8106875000001C356.26215625 678.9282499999999 381.41228125 719.6564375 432.77609375 728.69671875C488.863375 738.58159375 521.42715625 714.93296875 532.0002187499999 655.029375C542.8860937499999 593.24890625 520.0820624999999 555.89909375 465.9029375 546.3583125C414.6016874999999 537.28675 376.21959375 565.81525 365.990625 623.8106875000001z" />
    <glyph glyph-name="fax"
      unicode="&#xE028;"
      horiz-adv-x="1001" d="M844.59375 418.38671875C844.59375 435.3411562500001 830.2669375 449.66796875 813.3125 449.66796875H797.671875V391.015625A46.921875 46.921875 0 0 0 750.75 344.09375H250.25A46.921875 46.921875 0 0 0 203.328125 391.015625V449.66796875H187.6875C170.7330625 449.66796875 156.40625 435.3411562500001 156.40625 418.38671875V199.41796875C156.40625 182.46353125 170.7330625 168.13671875 187.6875 168.13671875H813.3125C830.2669375 168.13671875 844.59375 182.46353125 844.59375 199.41796875V418.38671875zM297.171875 437.9375H703.828125V844.59375H297.171875V437.9375zM938.4375 418.38671875V199.41796875C938.4375 130.59921875 882.13125 74.29296875 813.3125 74.29296875H187.6875C118.86875 74.29296875 62.5625 130.59921875 62.5625 199.41796875V418.38671875C62.5625 487.20546875 118.86875 543.51171875 187.6875 543.51171875H203.328125V891.515625A46.921875 46.921875 0 0 0 250.25 938.4375H750.75A46.921875 46.921875 0 0 0 797.671875 891.515625V543.51171875H813.3125C882.13125 543.51171875 938.4375 487.20546875 938.4375 418.38671875zM257.10059375 305.96190625A46.921875 46.921875 0 1 1 257.0693125 212.1494375A46.921875 46.921875 0 0 1 257.10059375 305.96190625zM609.984375 615.8339687499999H391.015625A46.921875 46.921875 0 1 1 391.015625 522.0215H609.984375A46.921875 46.921875 0 1 1 609.984375 615.8339687499999zM656.90625 715.55859375A46.921875 46.921875 0 0 0 609.984375 668.63671875H391.015625A46.921875 46.921875 0 1 0 391.015625 762.48046875H609.984375A46.921875 46.921875 0 0 0 656.90625 715.55859375z" />
    <glyph glyph-name="filter"
      unicode="&#xE029;"
      horiz-adv-x="1001" d="M828.953125 750.75H203.328125A46.921875 46.921875 0 1 1 203.328125 656.90625H828.953125A46.921875 46.921875 0 1 1 828.953125 750.75M703.828125 531.78125H328.453125A46.921875 46.921875 0 1 1 328.453125 437.9375H703.828125A46.921875 46.921875 0 1 1 703.828125 531.78125M625.625 265.890625A46.921875 46.921875 0 0 0 578.703125 218.96875H453.578125A46.921875 46.921875 0 1 0 453.578125 312.8125H578.703125A46.921875 46.921875 0 0 0 625.625 265.890625" />
    <glyph glyph-name="flickr"
      unicode="&#xE02A;"
      horiz-adv-x="1001" d="M345.1573125000001 625.625C414.8519375 625.625 471.345875 569.60028125 471.345875 500.5C471.345875 431.3684375000001 414.8519375 375.375 345.1573125000001 375.375C275.4626875 375.375 218.96875 431.3684375000001 218.96875 500.5C218.96875 569.60028125 275.4626875 625.625 345.1573125 625.625zM782.03125 500.5C782.03125 431.3684375000001 725.5373125 375.375 655.8426875 375.375C586.1480625 375.375 529.654125 431.3684375000001 529.654125 500.5C529.654125 569.60028125 586.1480625000002 625.625 655.8426875 625.625C725.5373125 625.625 782.03125 569.60028125 782.03125 500.5z" />
    <glyph glyph-name="for-children"
      unicode="&#xE02B;"
      horiz-adv-x="1001" d="M379.519765625 563.747559375C379.519765625 524.048525 347.325103125 491.856990625 307.6291968750001 491.856990625C267.932039375 491.856990625 235.7395665625 524.048525 235.7395665625 563.747559375C235.7395665625 603.443465625 267.932039375 635.635 307.6291968750001 635.635C347.325103125 635.635 379.519765625 603.45910625 379.519765625 563.747559375zM459.333875 443.668225C447.4845375 461.0480875000001 444.3251312500001 483.167059375 452.223646875 503.70945625L376.385384375 480.0076531249999C362.164928125 475.26854375 347.9444718750001 473.688840625 332.9357281250001 473.688840625H272.8960609375C253.1463309375 473.688840625 234.976616875 466.5786125000001 219.966621875 453.149571875L134.6473253125 374.940190625C122.7973621875 363.879140625 122.0071978125 344.919575 132.277145 333.0702375000001C137.8073571875 326.748296875 146.4972884375 323.588890625 154.3970553125 323.588890625C161.506970625 323.588890625 168.6168859375 325.9600093750001 174.147098125 331.4905343750001L223.9165053125 376.5198937500001L195.4768440625 290.40886875C190.73679625 276.9798281250001 201.0067434375 262.759371875 216.0167384375 262.759371875H233.3966009375L223.12665375 171.912365625C221.5466378125 155.320790625 232.6064365625 141.100334375 249.1964475 139.5206312500001H252.356479375C267.3661615625 139.5206312500001 280.0062890625 150.58168125 281.5859921875 165.5904250000001L292.64610375 259.599965625C292.64610375 261.9710843750001 294.2261196875 262.759371875 296.5959871875001 262.759371875H318.7152718750001C321.086390625 262.759371875 322.66609375 261.17966875 322.66609375 259.599965625L333.72714375 165.5904250000001C335.306846875 149.0019781250001 350.3155906250001 137.940928125 366.11575 139.5206312500001C382.704196875 141.100334375 393.765246875 156.11220625 392.18554375 171.912365625L381.915909375 262.759371875H399.295771875C413.516228125 262.759371875 423.7858625 276.9798281250001 419.8350406250001 290.40886875L377.1768 419.178134375C382.704196875 419.9695500000001 388.234721875 421.549253125 394.5566625 423.920371875L459.333875 443.668225zM868.702209375 512.827940625L779.650746875 655.2452156249999C764.1634 680.526721875 737.833971875 695.6965640625 709.956121875 695.6965640625H651.8762250000001C624.001503125 695.6965640625 597.6720750000001 680.526721875 582.184728125 655.2452156249999L492.357490625 512.827940625C482.28805625 497.6596625 483.06383125 475.750275 496.22698125 463.109521875C512.4901031249999 446.255184375 537.271109375 450.46876875 548.8858375 469.009165625L604.6415375 558.335903125L552.75845625 385.57894375C547.337415625 368.7277343750001 558.95214375 351.028803125 575.9879125 351.028803125H596.8963L588.378415625 166.475684375C587.60576875 147.938415625 598.444721875 129.39801875 615.480490625 126.0259C637.164653125 120.9708500000001 656.52461875 137.8251875 657.297265625 161.420634375L665.81515 347.6598125000001C665.81515 350.1873375 667.3635718749999 351.8733968750001 669.68776875 351.8733968750001H692.920353125C695.241421875 351.8733968750001 696.7898437499999 350.1873375 696.7898437499999 347.6598125000001L705.31085625 161.420634375C706.083503125 141.194178125 721.57085 125.184434375 740.155040625 125.184434375H741.7034625C761.063428125 126.0259 775.778128125 143.72483125 774.2297062499999 164.789625L765.711821875 351.028803125H786.620209375C802.880203125 351.028803125 815.27070625 368.7277343750001 809.849665625 385.57894375L757.9665843749999 558.335903125L813.7222843750001 469.009165625C820.691746875 458.054471875 831.533828125 452.154828125 842.37278125 452.154828125C850.11801875 452.154828125 857.860128125 454.682353125 864.8295906249999 460.581996875C877.99586875 473.2071093750001 879.544290625 496.80255625 868.702209375 512.815428125V512.827940625zM754.77276875 797.66561875C754.77276875 754.46996625 719.759665625 719.4562375 676.5633875 719.4562375C633.3671093749999 719.4562375 598.35400625 754.46996625 598.35400625 797.66561875C598.35400625 840.86127125 633.3671093749999 875.875 676.5633875 875.875C719.759665625 875.875 754.77276875 840.86127125 754.77276875 797.66561875z" />
    <glyph glyph-name="fullscreen-enter"
      unicode="&#xE02C;"
      horiz-adv-x="1032.28125" d="M717.8702781249999 782.03125L532.53825625 596.70235625C514.216828125 578.3778 514.216828125 548.66686875 532.53825625 530.345440625C550.8628125 512.0208843749999 580.57374375 512.0208843749999 598.8983000000001 530.345440625L784.22719375 715.6737087500001V609.984375C784.22719375 584.0709875 805.2356812500001 563.0625 831.14906875 563.0625C857.06245625 563.0625 878.07094375 584.0709875 878.07094375 609.984375V828.953125C878.07094375 835.315105625 876.804053125 841.38179125 874.5111374999999 846.9138803124999C872.2213499999999 852.4481590625 868.827334375 857.6333390625 864.329090625 862.131895625C859.8277187499999 866.630765 854.6444156250001 870.024780625 849.1107625000001 872.314568125C843.5771093750001 874.608735 837.511675 875.875 831.14906875 875.875H612.18031875C586.2669312500001 875.875 565.25844375 854.8674509375 565.25844375 828.953125C565.25844375 803.0387990625 586.2669312500001 782.03125 612.18031875 782.03125H717.8702781249999zM141.0637353125 138.866853125C145.562291875 134.368609375 150.747471875 130.9745937500001 156.2814378125 128.6848062500001C161.7731740625 126.40753125 167.7910609375 125.1437687499999 174.1017403125 125.125C174.1486621875 125.125 174.1955840625 125.125 174.2425059375 125.125H393.21156875C419.1249562500001 125.125 440.13344375 146.1334875 440.13344375 172.046875C440.13344375 197.9602625 419.1249562500001 218.96875 393.21156875 218.96875H287.5219221875L472.850503125 404.29764375C491.175059375 422.6222 491.175059375 452.3331312500001 472.850503125 470.654559375C454.525946875 488.979115625 424.81814375 488.979115625 406.4935875 470.654559375L221.1643809375 285.3256656250001V391.015625C221.1643809375 416.9290125 200.156831875 437.9375 174.2425059375 437.9375C148.32818 437.9375 127.3206309375 416.9290125 127.3206309375 391.015625V172.0719V172.046875C127.3206309375 171.9999531250001 127.3206309375 171.95303125 127.32094375 171.9092375L127.32094375 171.906109375C127.3387740625 165.8531875 128.5205796875 159.8065218749999 130.865735 154.12271875" />
    <glyph glyph-name="fullscreen-exit"
      unicode="&#xE02D;"
      horiz-adv-x="1032.28125" d="M406.4935875 455.476896875C424.81814375 473.798325 454.525946875 473.798325 472.850503125 455.476896875C491.175059375 437.1523406250001 491.175059375 407.4414093749999 472.850503125 389.1168531250001L207.4212765625 123.689190625C189.097033125 105.364634375 159.38797875 105.364634375 141.0637353125 123.689190625C122.739491875 142.0106187499999 122.739491875 171.72155 141.0637353125 190.04610625L406.4935875 455.476896875zM392.751734375 422.296875C392.751734375 448.2102625 413.760221875 469.21875 439.673609375 469.21875C465.590125 469.21875 486.595484375 448.2102625 486.595484375 422.296875V203.328125C486.595484375 177.4147375 465.590125 156.40625 439.673609375 156.40625C413.760221875 156.40625 392.751734375 177.4147375 392.751734375 203.328125V422.296875zM439.673609375 469.21875C465.590125 469.21875 486.595484375 448.2102625 486.595484375 422.296875C486.595484375 396.3834875 465.590125 375.375 439.673609375 375.375H220.706110625C194.7917846875 375.375 173.784235625 396.3834875 173.784235625 422.296875C173.784235625 448.2102625 194.7917846875 469.21875 220.706110625 469.21875H439.673609375zM614.079090625 530.345440625C595.754534375 512.0208843749999 566.04673125 512.0208843749999 547.722175 530.345440625C529.39761875 548.6699968749999 529.39761875 578.3778 547.722175 596.70235625L813.1529656250001 862.1322084375C831.477521875 880.4561390625 861.185325 880.4561390625 879.5098812499999 862.1322084375C897.8344375 843.807965 897.8344375 814.0985978125 879.5098812499999 795.7746671875L614.079090625 530.345440625zM627.82094375 563.5223343749999C627.82094375 537.6089468749999 606.81245625 516.6004593749999 580.89906875 516.6004593749999C554.9856812500001 516.6004593749999 533.97719375 537.6089468749999 533.97719375 563.5223343749999L533.97719375 782.49171C533.97719375 808.4060359375 554.9856812500001 829.413585 580.89906875 829.413585C606.81245625 829.413585 627.82094375 808.4060359375 627.82094375 782.49171L627.82094375 563.5223343749999zM580.89906875 516.6004593749999C554.9856812500001 516.6004593749999 533.97719375 537.6089468749999 533.97719375 563.5223343749999C533.97719375 589.43885 554.9856812500001 610.4442093749999 580.89906875 610.4442093749999L799.86781875 610.4442093749999C825.78120625 610.4442093749999 846.78969375 589.43885 846.78969375 563.5223343749999C846.78969375 537.6089468749999 825.78120625 516.6004593749999 799.86781875 516.6004593749999L580.89906875 516.6004593749999z" />
    <glyph glyph-name="ghent"
      unicode="&#xE02E;"
      horiz-adv-x="1032.28125" d="M383.5832 624.2267281249999C393.2929000000001 568.9652718750001 429.870065625 541.806890625 478.743890625 550.428003125C530.357953125 559.5214625 552.0733968750001 595.0944999999999 541.7161749999999 653.94704375C531.652996875 710.9746393749999 500.609484375 733.514656875 447.199878125 724.098375C398.294771875 715.4766368749999 374.34271875 676.7510749999999 383.5832 624.2267281249999zM557.40059375 771.5329496875C620.842096875 755.6430131249999 657.12521875 724.687088125 667.8046375 664.041503125C684.2836 570.78896875 621.1079874999999 489.664175 498.873375 468.064471875C478.0400625 464.44523125 459.618534375 463.0626 441.60991875 464.53281875C432.015959375 455.41120625 426.8389125000001 442.316875 429.103675 429.6354562500001C431.956525 413.33166875 442.8173750000001 399.3864875000001 489.898784375 407.682275L563.25644375 420.6295843750001C671.896225 439.75806875 751.816690625 394.1468781250001 765.8807406249999 314.4923031249999C782.9477906249999 217.592375 709.117784375 143.909390625 548.8670687499999 115.6624218750001C373.22285 84.6752156250001 315.19613125 133.2299718750001 298.2764159375 229.244640625L413.24408125 249.489865625C421.245825 204.204 444.669225 187.812625 536.094934375 203.9381093750001C624.8429687500001 219.594375 644.08719375 248.16666875 637.996734375 282.56353125C632.259753125 315.139825 604.3037 330.7648093749999 553.60305 321.8496531250001L482.9825 309.399715625C382.4946125 291.68514375 333.1453125 327.7618093750001 324.23015625 378.493740625C318.139696875 412.890603125 333.9711375 450.202878125 364.5423031250001 478.011909375C299.0709596875 500.08083125 266.2319034375 538.15636875 255.37386875 599.714740625C236.688326875 705.6483809375 308.92862 788.39385625 429.2788500000001 809.6097384375C540.214675 826.3824318750001 591.415825 864.3713203125 643.617975 907.15625L692.6982562500001 814.082644375C659.8028937500001 794.2791106249999 615.30844375 781.7434625 557.40059375 771.5329496875z" />
    <glyph glyph-name="globe"
      unicode="&#xE02F;"
      horiz-adv-x="1001" d="M500.5 938.4375C259.6343750000001 938.4375 62.5625 741.3656249999999 62.5625 500.5S259.6343750000001 62.5625 500.5 62.5625S938.4375 259.634375 938.4375 500.5S741.365625 938.4375 500.5 938.4375zM802.676875 675.675H675.6750000000001C662.536875 732.606875 640.64 780.78 614.36375 833.3325C693.1925 802.676875 763.2624999999999 750.124375 802.676875 675.675zM500.5 850.85C535.5350000000001 798.2975 566.1906250000001 741.3656249999999 583.708125 675.6750000000001H417.291875C434.809375 736.9862500000002 465.465 798.2975 500.5 850.85zM163.288125 412.9125C154.529375 439.1887500000001 150.15 469.844375 150.15 500.5C150.15 531.155625 154.529375 561.81125 163.288125 588.0875000000001H312.186875C307.8075 557.431875 307.8075 531.155625 307.8075 500.5C307.8075 469.844375 312.186875 443.568125 312.186875 412.9125H163.288125zM198.323125 325.325H325.325C338.463125 268.393125 360.36 220.22 386.63625 167.6675C307.8075 198.323125 237.7375 250.875625 198.323125 325.325zM325.325 675.675H198.323125C242.116875 750.1243749999999 307.8075 802.6768749999999 386.63625 833.3325C360.36 780.78 338.463125 732.606875 325.325 675.675zM500.5 150.15C465.465 202.7025 434.809375 259.634375 417.291875 325.325H583.708125C566.1906250000001 264.01375 535.5350000000001 202.7024999999999 500.5 150.1499999999999zM601.2256249999999 412.9125000000002H399.7743749999999C395.3949999999999 443.5681250000001 391.015625 469.8443750000001 391.015625 500.5000000000001C391.015625 531.1556250000001 395.395 557.4318750000001 399.7743749999999 588.0875000000001H605.605C609.984375 557.4318750000001 614.36375 531.1556250000001 614.36375 500.5000000000001C614.36375 469.8443750000001 605.605 443.5681250000001 601.2256249999999 412.9125000000002zM614.36375 167.6675000000001C640.64 215.8406250000001 662.536875 268.3931250000001 675.6750000000001 325.3250000000001H802.676875C763.2624999999999 250.8756250000002 693.1925 198.3231250000001 614.36375 167.6675000000001zM693.1925 412.9125000000002C697.571875 443.5681250000001 697.571875 469.8443750000001 697.571875 500.5000000000001C697.571875 531.1556250000001 693.1925 557.4318750000001 693.1925 588.0875000000001H842.0912500000001C850.8500000000001 561.8112500000002 855.2293750000001 531.1556250000001 855.2293750000001 500.5000000000001C855.2293750000001 469.8443750000001 850.8500000000001 439.1887500000002 842.0912500000001 412.9125000000002H693.1925000000001z" />
    <glyph glyph-name="googleplus"
      unicode="&#xE030;"
      horiz-adv-x="1001" d="M738.4251875000001 607.732125C738.1749375 583.958375 737.9246875000001 560.0595000000001 737.7995625000001 536.28575C713.9006875000001 536.0355000000001 690.1582187500001 535.910375 666.38446875 535.81653125V464.589125C690.1582187500001 464.4952812500001 714.0258125 464.3701562499999 737.7995625000001 464.11990625C738.0498125 440.3461562499999 738.0498125 416.57240625 738.2687812500001 392.67353125C761.9486875000001 392.67353125 785.7224375000001 392.79865625 809.4961875000001 392.67353125C809.6213125000002 416.57240625 809.7464375000001 440.3461562500001 809.9654062500001 464.24503125L881.4117812500001 464.589125V535.78525C857.63803125 535.9103749999999 833.7391562500001 536.0355 809.9654062500001 536.25446875L809.4961875000001 607.70084375H738.4251875000001M94.00015625 500.1871874999999C91.84175 395.770375 163.75734375 296.13959375 262.6999375 263.6383749999999C355.8555 232.3571249999999 470.43871875 255.7555 532.43815625 335.58525C577.73340625 391.4848437499999 588.0249375000001 466.0280624999999 583.1137812500001 535.6601249999999C503.3153125000001 536.3795937499999 423.51684375 536.12934375 343.8122187500001 536.00421875C343.6870937500001 507.60084375 343.8122187500001 479.2600312499999 343.9373437500001 450.8566562499999C391.7350937500001 449.5115625 439.5328437500001 450.1371874999999 487.2993125 449.1674687499999C475.2247500000001 407.81365625 447.7598125000001 369.3690000000001 406.0619062500001 354.44784375C325.5439687500001 318.9436249999999 222.8163437500001 365.3024375 197.4785312500001 449.7618125C166.8854687500001 530.655125 216.9354687500001 628.252625 299.6118125000001 651.7761250000001C350.8505 669.82540625 403.68453125 649.5238750000001 447.5095625 622.87225A1131.755625 1131.755625 0 0 1 510.9479375 688.34390625C461.1481874999999 730.0418125000001 397.0841875 755.5985937500001 331.2684375 749.9679687500001C202.10815625 748.4351875000001 89.12028125 629.22234375 94.00015625 500.1871875000001" />
    <glyph glyph-name="gsport"
      unicode="&#xE031;"
      horiz-adv-x="1001" d="M506.75625 938.4375C259.6343750000001 938.4375 62.5625 744.4937500000001 62.5625 500.5C62.5625 256.50625 256.50625 65.6906250000001 491.115625 62.5625C744.4937499999999 56.30625 938.4375 259.634375 941.565625 494.24375C944.69375 738.2375 744.49375 938.4375 506.75625 938.4375zM794.5437499999999 375.375C744.4937499999999 269.0187500000001 660.034375 203.328125 544.2937499999999 187.6875C538.0375 187.6875 534.909375 184.5593749999999 528.6531249999999 184.5593749999999C519.26875 184.5593749999999 513.0124999999999 184.5593749999999 503.628125 184.5593749999999H503.628125C362.8625 181.4312499999999 218.96875 281.53125 190.8156249999999 447.3218749999999C156.40625 622.496875 278.403125 785.159375 453.578125 813.3125C525.525 825.825 594.34375 813.3125 660.0343750000001 775.775C666.290625 772.646875 669.41875 769.51875 663.1625000000001 763.2625C647.5218750000001 738.2375 631.8812500000001 713.2125 616.2406250000001 685.0593749999999C613.1125000000001 678.8031249999999 609.9843750000001 678.8031249999999 603.7281250000001 681.93125C472.346875 750.75 319.06875 675.675 294.04375 531.78125C275.2750000000001 419.16875 356.60625 309.684375 469.21875 294.04375C556.80625 281.53125 622.4968749999999 312.8125 675.6750000000001 384.7593749999999C678.8031250000001 391.0156249999999 681.93125 394.14375 678.8031250000001 403.528125C672.5468750000001 425.425 666.2906250000001 450.4499999999999 663.1625000000001 472.346875C660.0343750000001 481.7312499999999 660.0343750000001 481.7312499999999 650.6500000000001 481.7312499999999C609.9843750000001 472.346875 566.1906250000002 459.834375 525.5250000000001 450.4499999999999C519.2687500000002 447.3218749999999 516.1406250000001 450.4499999999999 513.0125000000002 456.70625C506.7562500000002 484.8593749999999 500.5000000000002 516.140625 491.1156250000002 544.2937499999999C487.9875000000002 550.55 491.1156250000002 553.6781249999999 497.3718750000002 553.6781249999999C575.5750000000002 572.446875 653.7781250000002 591.2156249999999 731.9812500000002 609.984375C738.2375000000002 613.1125 741.3656250000003 609.984375 741.3656250000003 603.7281250000001C760.1343750000002 531.78125 775.7750000000002 456.7062500000001 794.5437500000002 384.759375C794.5437499999999 381.63125 794.5437499999999 378.5031250000001 794.5437499999999 375.375z" />
    <glyph glyph-name="hamburger"
      unicode="&#xE032;"
      horiz-adv-x="1001" d="M828.953125 750.75H203.328125A46.921875 46.921875 0 1 1 203.328125 656.90625H828.953125A46.921875 46.921875 0 1 1 828.953125 750.75M828.953125 531.78125H203.328125A46.921875 46.921875 0 1 1 203.328125 437.9375H828.953125A46.921875 46.921875 0 1 1 828.953125 531.78125M828.953125 312.8125H203.328125A46.921875 46.921875 0 1 1 203.328125 218.96875H828.953125A46.921875 46.921875 0 1 1 828.953125 312.8125" />
    <glyph glyph-name="health"
      unicode="&#xE033;"
      horiz-adv-x="1032.28125" d="M606.54969375 433.0889062499999C590.1583187499999 433.0889062499999 573.626178125 426.20703125 561.3482875 413.31915625L552.6771249999999 404.24759375L544.009090625 413.31915625C531.746840625 426.203903125 515.230340625 433.0889062499999 498.823325 433.0889062499999C464.6016375 433.0889062499999 440.061496875 403.606328125 440.061496875 370.8705000000001C440.061496875 354.8075781250001 445.8985781250001 338.760296875 457.56335625 326.498046875L542.6796375 237.221359375C545.429259375 234.3340999999999 549.0359875 232.88890625 552.64584375 232.88890625C556.252571875 232.88890625 559.8624281250001 234.3340999999999 562.6120500000001 237.221359375L647.72833125 326.498046875C659.42751875 338.760296875 665.2771125 354.82321875 665.2771125 370.90178125C665.35844375 402.276875 640.8026625 433.0889062499999 606.54969375 433.0889062499999zM765.4584437499999 782.03125C759.211578125 782.03125 753.086709375 781.5210528125 747.111990625 780.5372575C732.1188874999999 825.128679375 689.914225 857.3486796875 640.3334437499999 857.3486796875C630.232728125 857.3486796875 620.43856875 856.0104678125 611.11675625 853.5054653125001C591.22188125 885.681671875 555.7176625 907.15625 515.2084437499999 907.15625C474.699225 907.15625 439.0386 885.587828125 419.17500625 853.2899375C409.9470375 855.776796875 400.24985 857.10625 390.23985 857.10625C328.14656875 857.10625 277.4862715625 806.58703125 277.4862715625 744.4937500000001V554.30375C269.2905840625 555.8678125 260.9072090625 556.8062500000001 252.4612715625001 556.8062500000001C252.457205 556.8062500000001 252.465338125 556.8062500000001 252.4612715625001 556.8062500000001C184.2994278125 556.8062500000001 127.3206309375 501.829453125 127.3206309375 431.571765625C127.3206309375 399.8369375 139.1418153125 369.760015625 160.8697715625 346.4085625L287.9498496875 209.95975C349.2614125 144.05015625 436.0668812500001 106.3562499999999 526.000475 106.3562499999999H577.7396625C743.4051625 106.3562499999999 878.07094375 241.02203125 878.07094375 406.65625V669.41875C878.07094375 731.5120312500001 827.551725 782.03125 765.4584437499999 782.03125zM802.99594375 406.65625C802.99594375 282.454046875 701.973146875 181.43125 579.1786 181.43125H526.000475C456.540459375 181.43125 390.192928125 210.30384375 342.84875625 261.135875L218.0988184375 395.066546875C208.4485528125 405.56140625 203.4279121875 419.16875 203.4279121875 432.6196875C203.4279121875 467.201109375 232.3005059375 481.7312499999999 252.4612715625001 481.7312499999999C265.851210625 481.7312499999999 279.2067403125 476.3884125 289.0916153125 465.80909375L330.883678125 420.9361406249999C333.46438125 418.16775 336.73014375 416.925884375 339.9396000000001 416.925884375C346.361640625 416.925884375 352.5522000000001 421.887090625 352.5522000000001 429.463409375V744.4937500000001C352.5522000000001 765.217578125 369.365871875 782.03125 388.68204375 782.03125C407.998215625 782.03125 426.21954375 765.217578125 426.21954375 744.4937500000001V506.75625C426.21954375 492.93619375 437.4244875 481.7312499999999 451.24454375 481.7312499999999C465.0646 481.7312499999999 477.67094375 492.9925000000001 477.67094375 506.75625L477.674071875 794.54375C477.674071875 815.267578125 494.48774375 832.08125 515.211571875 832.08125C535.9354 832.08125 552.749071875 815.267578125 552.749071875 794.54375V506.75625C552.749071875 492.93619375 563.9508875 481.7312499999999 576.366415625 481.7312499999999C590.1896 481.7312499999999 601.375775 492.93619375 601.375775 506.75625L601.3851593750001 744.8065625C601.3851593750001 765.530390625 618.19883125 782.3440625000001 638.922659375 782.3440625000001C659.6464874999999 782.3440625000001 676.460159375 765.530390625 676.460159375 744.8065625V506.75625C676.460159375 492.93619375 687.665103125 481.7312499999999 701.485159375 481.7312499999999C715.3052156250001 481.7312499999999 726.5101593750001 492.93619375 726.5101593750001 506.75625V669.41875C726.5101593750001 690.142578125 743.32383125 706.95625 764.047659375 706.95625C786.260475 706.95625 802.99594375 690.064375 802.99594375 669.41875V406.65625z" />
    <glyph glyph-name="heart"
      unicode="&#xE034;"
      horiz-adv-x="1001" d="M363.39428125 782.03125C317.66109375 782.03125 273.2104375000001 763.35634375 238.2692812500001 729.44746875C206.45625 699.323625 187.6875 650.74384375 187.6875 599.0985000000001V590.5274375C187.6875 537.4744375 218.218 479.5728437499999 278.4656875000001 418.418C335.1785937500001 361.83021875 415.289875 307.1193125000001 516.390875 256.0057500000001C665.19578125 332.3320000000001 743.39890625 400.8692187500001 782.9696875000001 445.28859375C824.10453125 493.27403125 844.3435000000001 539.413875 844.3435000000001 585.7726875V592.43559375C846.7208750000001 646.17678125 828.9218437500001 693.5365937500001 794.2935 727.9459687499999L788.88184375 734.45246875C784.31478125 741.02153125 776.93240625 745.9014062499999 763.1999375 754.6288749999999L757.882125 758.0072499999999C733.0760937499999 773.92940625 703.35890625 782.03125 669.63771875 782.03125C625.1245 782.03125 582.3317499999999 764.388625 549.14234375 732.26278125L515.7339687499999 700.0118125L483.107625 733.107375C464.4639999999999 752.00125 443.9435 762.51175 419.20003125 773.8981249999999C402.12046875 779.653875 385.79165625 782.03125 363.4255625 782.03125zM516.516 150.775625L490.6776875 163.9137500000001A661.2856250000001 661.2856250000001 0 0 1 483.357875 167.5423750000001C369.0561875 224.4742500000001 277.7149375 286.63009375 211.8991875 352.2894375C133.47709375 431.9002187499999 93.84375 511.9489375 93.84375 590.5274375V599.0985000000001C93.84375 677.1452187500001 122.8101875 749.3736250000001 173.298125 797.20265625C225.47525 847.81571875 293.1053125 875.875 363.39428125 875.875C397.0529062500001 875.875 424.4552812500001 871.52690625 452.23303125 861.76715625L456.20575 860.1405312500001C476.0067812500001 851.0689687500001 496.52728125 841.09025 516.7036875 826.98240625A264.3265625 264.3265625 0 0 0 669.6064375 875.875C721.5333125 875.875 768.3300624999999 862.7994375 808.58903125 836.9924062499999L813.59403125 833.80171875C829.8602812499998 823.447625 848.1910937499999 811.77971875 863.2686562499999 791.69715625C915.039125 738.6754375 941.59690625 667.3541875 938.15596875 590.33975V585.7726875C938.15596875 516.9852187500001 909.75259375 448.97978125 853.63403125 383.5706875C786.3793437500001 308.05775 684.1522187500001 235.51653125 549.1110625000001 167.3546875000001L516.516 150.775625z" />
    <glyph glyph-name="home"
      unicode="&#xE035;"
      horiz-adv-x="1001" d="M569.5377187500001 387.8875C569.5377187500001 361.9240625 548.422875 340.7779374999999 522.42815625 340.7779374999999A47.172125 47.172125 0 0 0 522.42815625 435.0283437499999C548.39159375 435.0283437499999 569.5377187500001 413.8509374999999 569.5377187500001 387.91878125zM522.396875 246.96546875A141.10971875 141.10971875 0 0 1 663.3501875 387.9500625000001A141.0784375 141.0784375 0 0 1 522.396875 528.87209375A141.10971875 141.10971875 0 0 1 381.4435625 387.9500625000001A141.141 141.141 0 0 1 522.396875 246.9341875zM689.1885 153.3406875000001H355.60525L287.161875 558.3703125A47.9854375 47.9854375 0 0 1 283.4081250000001 569.944375L516.140625 794.919125L758.3513437500001 560.77896875C758.16365625 559.9656562499999 757.8195625000001 559.21490625 757.6944375 558.3390312500001L689.1885 153.2468437500001zM548.7356875 893.98684375A46.921875 46.921875 0 0 1 483.51428125 893.98684375L108.13928125 531.12434375A46.921875 46.921875 0 1 1 173.3606875 463.68196875L203.077875 492.4294375L269.644375 98.5359374999999A46.921875 46.921875 0 0 1 315.940625 59.4343749999999H728.8531249999999A46.921875 46.921875 0 0 1 775.1180937499998 98.5359374999999L839.9328437499998 481.9189375L858.9205624999998 463.6194062499999C867.9921249999998 454.829375 879.7851562499999 450.4499999999999 891.5156249999999 450.4499999999999A46.921875 46.921875 0 0 1 924.1419687499998 531.0930624999999L548.7669687499998 893.9555624999999z" />
    <glyph glyph-name="image"
      unicode="&#xE036;"
      horiz-adv-x="1001" d="M234.609375 844.59375H797.671875A140.765625 140.765625 0 0 0 938.4375 703.828125V265.890625A140.765625 140.765625 0 0 0 797.671875 125.125H234.609375A140.765625 140.765625 0 0 0 93.84375 265.890625V703.828125A140.765625 140.765625 0 0 0 234.609375 844.59375zM234.609375 750.75A46.921875 46.921875 0 0 1 187.6875 703.828125V265.890625A46.921875 46.921875 0 0 1 234.609375 218.96875H797.671875A46.921875 46.921875 0 0 1 844.59375 265.890625V703.828125A46.921875 46.921875 0 0 1 797.671875 750.75H234.609375zM315.15859375 340.2461562500002A31.28125 31.28125 0 0 0 286.44240625 383.9460625000001L381.005625 602.1640625A31.28125 31.28125 0 0 0 436.310875 606.19934375L546.671125 427.802375A31.2186875 31.2186875 0 0 1 587.1177812499999 416.2283124999999L669.4187499999999 456.8626562499999A31.28125 31.28125 0 0 0 710.8038437499999 443.6306874999999L741.615875 386.3234375A31.28125 31.28125 0 0 0 714.0883749999999 340.24615625H315.1273125zM615.2709062499999 637.1990625000001C625.5311562499999 647.2090625000001 637.7308437499998 652.2140625000002 651.8386874999999 652.2140625000002C666.4783124999999 652.2140625000002 678.7405624999999 647.2090625000001 688.8131249999999 637.1990625000001C698.8231249999999 627.1890625000001 703.8281249999999 614.8642500000001 703.8281249999999 600.2246250000001C703.8281249999999 586.1480625000002 698.8231249999999 573.948375 688.8131249999999 563.65684375A49.64334375 49.64334375 0 0 0 651.8386874999999 548.2351875C637.7308437499998 548.2351875 625.5311562499999 553.3653125000001 615.2396249999999 563.65684375A49.924875 49.924875 0 0 0 599.84925 600.2559062500001C599.84925 614.8642500000001 604.979375 627.15778125 615.2709062499999 637.1990625000001z" />
    <glyph glyph-name="info-circle"
      unicode="&#xE037;"
      horiz-adv-x="1032.28125" d="M502.69594375 140.765625C304.3512346875 140.765625 142.9612559375 302.1549781250001 142.9612559375 500.5C142.9612559375 698.84439625 304.3512346875 860.234375 502.69594375 860.234375C701.040965625 860.234375 862.43031875 698.84439625 862.43031875 500.5C862.43031875 302.1549781250001 701.040965625 140.765625 502.69594375 140.765625zM502.69594375 938.4375C260.8290059375001 938.4375 64.7581309375 742.366625 64.7581309375 500.5C64.7581309375 258.633375 260.8290059375001 62.5625 502.69594375 62.5625C744.56256875 62.5625 940.63344375 258.633375 940.63344375 500.5C940.63344375 742.366625 744.56256875 938.4375 502.69594375 938.4375zM565.25844375 688.1875C565.25844375 653.653 537.23044375 625.625 502.69594375 625.625C468.16144375 625.625 440.13344375 653.653 440.13344375 688.1875C440.13344375 722.722 468.16144375 750.75 502.69594375 750.75C537.23044375 750.75 565.25844375 722.722 565.25844375 688.1875zM455.77406875 520.05078125V261.98046875C455.77406875 238.2098468750001 476.7637875 218.96875 502.69594375 218.96875C528.6281 218.96875 549.61781875 238.2098468750001 549.61781875 261.98046875V520.05078125C549.61781875 543.821403125 528.6281 563.0625 502.69594375 563.0625C476.7637875 563.0625 455.77406875 543.821403125 455.77406875 520.05078125z" />
    <glyph glyph-name="info"
      unicode="&#xE038;"
      horiz-adv-x="1001" d="M516.140625 625.625C542.07278125 625.625 563.0625 606.025535740625 563.0625 581.81099851875L563.0625 200.22025148125C563.0625 176.0057142593751 542.07278125 156.40625 516.140625 156.40625C490.20846875 156.40625 469.21875 176.0057142593751 469.21875 200.22025148125L469.21875 581.81099851875C469.21875 606.025535740625 490.20846875 625.625 516.140625 625.625zM516.140625 844.59375C550.70015 844.59375 578.703125 816.590775 578.703125 782.03125C578.703125 747.471725 550.70015 719.46875 516.140625 719.46875C481.5811 719.46875 453.578125 747.471725 453.578125 782.03125C453.578125 816.590775 481.5811 844.59375 516.140625 844.59375z" />
    </font>
</defs>
</svg>
