<?xml version="1.0" encoding="UTF-8" standalone="no"?>
<svg
   xmlns:dc="http://purl.org/dc/elements/1.1/"
   xmlns:cc="http://creativecommons.org/ns#"
   xmlns:rdf="http://www.w3.org/1999/02/22-rdf-syntax-ns#"
   xmlns:svg="http://www.w3.org/2000/svg"
   xmlns="http://www.w3.org/2000/svg"
   xmlns:sodipodi="http://sodipodi.sourceforge.net/DTD/sodipodi-0.dtd"
   xmlns:inkscape="http://www.inkscape.org/namespaces/inkscape"
   width="199.73601"
   height="38.473915"
   viewBox="0 0 199.73601 38.473915"
   version="1.1"
   id="svg46"
   sodipodi:docname="alethio logo vertical blue.svg"
   inkscape:version="0.92.3 (2405546, 2018-03-11)">
  <metadata
     id="metadata50">
    <rdf:RDF>
      <cc:Work
         rdf:about="">
        <dc:format>image/svg+xml</dc:format>
        <dc:type
           rdf:resource="http://purl.org/dc/dcmitype/StillImage" />
        <dc:title>yellow-back</dc:title>
      </cc:Work>
    </rdf:RDF>
  </metadata>
  <sodipodi:namedview
     pagecolor="#ffffff"
     bordercolor="#666666"
     borderopacity="1"
     objecttolerance="10"
     gridtolerance="10"
     guidetolerance="10"
     inkscape:pageopacity="0"
     inkscape:pageshadow="2"
     inkscape:window-width="2560"
     inkscape:window-height="1343"
     id="namedview48"
     showgrid="false"
     inkscape:zoom="7.6129032"
     inkscape:cx="95.453921"
     inkscape:cy="-17.320886"
     inkscape:window-x="0"
     inkscape:window-y="27"
     inkscape:window-maximized="1"
     inkscape:current-layer="svg46"
     fit-margin-top="0"
     fit-margin-left="0"
     fit-margin-right="0"
     fit-margin-bottom="0" />
  <!-- Generator: Sketch 46.2 (44496) - http://www.bohemiancoding.com/sketch -->
  <title
     id="title2">yellow-back</title>
  <desc
     id="desc4">Created with Sketch.</desc>
  <defs
     id="defs9" />
  <g
     style="fill:#ff2a2a;fill-rule:evenodd;stroke:none;stroke-width:1"
     id="Clip-4"
     transform="translate(48.517575,-5.7318306)" />
  <g
     id="g4715"
     transform="translate(-41.833508,-26.365769)">
    <path
       d="m 67.584227,34.207423 c -0.576289,2.150515 -0.8,4.662886 0.231959,6.449484 l 4.870103,9.546392 c 1.113402,1.927835 3.476288,2.891752 5.470103,3.425773 l -6.983505,4.031959 c 0.576288,-2.151547 0.8,-4.662887 -0.231959,-6.450516 l -4.870103,-9.54536 c -1.113402,-1.928866 -3.476289,-2.891753 -5.470103,-3.425774 z"
       id="Fill-1"
       inkscape:connector-curvature="0"
       style="fill:#1b2460;fill-rule:evenodd;stroke:none;stroke-width:1" />
    <path
       transform="translate(56.329897,26.159175)"
       style="fill:#1b2460;fill-opacity:1;fill-rule:evenodd;stroke:none;stroke-width:1"
       inkscape:connector-curvature="0"
       mask="none"
       id="Fill-3"
       d="M 11.248557,8.0506186 C 10.433093,11.091856 7.3073196,12.89701 4.2650515,12.082577 1.2238144,11.267113 -0.58134021,8.1413402 0.23412371,5.0990722 1.0485567,2.0578351 4.1753608,0.25268041 7.2165979,1.0671134 10.258866,1.8825773 12.064021,5.0093814 11.248557,8.0506186" />
    <path
       d="m 75.204742,64.644227 c -3.041237,-0.815464 -4.846392,-3.941237 -4.031958,-6.983505 0.815463,-3.041238 3.942267,-4.846392 6.983505,-4.031959 3.042268,0.815464 4.847422,3.942268 4.031958,6.983505 -0.815464,3.041237 -3.941237,4.846392 -6.983505,4.031959 z"
       id="Fill-6"
       inkscape:connector-curvature="0"
       style="fill:#1b2460;fill-rule:evenodd;stroke:none;stroke-width:1" />
    <path
       d="m 53.044536,57.660515 c -0.576289,-2.150515 -0.8,-4.662886 0.231959,-6.449484 l 2.576288,-5.351547 c 0.282475,-0.586597 -0.537113,-1.06701 -0.910309,-0.532989 l -3.41134,4.876288 c -1.113402,1.928867 -3.476289,2.891753 -5.470103,3.425774 z"
       id="Fill-8"
       inkscape:connector-curvature="0"
       style="fill:#1b2460;fill-rule:evenodd;stroke:none;stroke-width:1" />
    <path
       d="m 42.029381,60.612268 c 0.815464,3.041237 3.941238,4.846392 6.983506,4.031959 3.041237,-0.815464 4.846391,-3.941237 4.030927,-6.983505 -0.814433,-3.041238 -3.941237,-4.846392 -6.982474,-4.031959 -3.042268,0.815464 -4.847422,3.942268 -4.031959,6.983505"
       id="Fill-10"
       inkscape:connector-curvature="0"
       style="fill:#1b2460;fill-rule:evenodd;stroke:none;stroke-width:1" />
  </g>
  <g
     style="fill:none;fill-rule:evenodd;stroke:none;stroke-width:1"
     id="Clip-13"
     transform="translate(4.1876779,45.814561)" />
  <g
     id="g4708"
     transform="matrix(1.5809239,0,0,1.5809239,23.835406,-115.33874)">
    <path
       transform="translate(12,77.705567)"
       d="m 15.541546,12.339794 c 0,0.194845 -0.157732,0.352577 -0.352577,0.352577 H 7.7889691 c -0.2948454,0 -0.4597938,-0.338144 -0.2783505,-0.570103 L 14.826083,2.7583505 C 15.150825,2.351134 15.541546,2.5057732 15.541546,3.0263918 Z M 15.419897,1.0150515 c -0.369072,0 -0.718557,0.1701031 -0.946392,0.4608248 L 1.6724742,17.785155 c -0.2896907,0.398969 -0.6515464,0.735051 -1.06288657,0.993814 l -0.55360825,0.317526 c -0.13814433,0.198969 -0.0092784,0.273196 0.24845361,0.273196 H 1.3570103 c 0.4309278,0 0.8371134,-0.198969 1.1020619,-0.539176 l 3.7402061,-4.803092 c 0.06701,-0.08557 0.1701031,-0.136083 0.2793815,-0.136083 l 8.7103092,0.01959 c 0.194845,0 0.352577,0.157732 0.352577,0.352577 v 4.564949 c 0,0.298969 0.242268,0.541237 0.541238,0.541237 0.298969,0 0.541237,-0.242268 0.541237,-0.541237 V 2.2191753 c 0,-0.6649485 -0.539176,-1.2041238 -1.204124,-1.2041238 z"
       id="Fill-12"
       mask="none"
       inkscape:connector-curvature="0"
       style="fill:#062e56;fill-rule:evenodd;stroke:none;stroke-width:1" />
    <path
       style="fill:#062e56;fill-rule:evenodd;stroke:none;stroke-width:1"
       inkscape:connector-curvature="0"
       id="Fill-15"
       d="m 37.54268,97.075258 h 0.162887 c 0.298969,0 0.542268,-0.242268 0.542268,-0.541237 V 79.261856 c 0,-0.298969 -0.243299,-0.541237 -0.542268,-0.541237 H 37.54268 c -0.298969,0 -0.541237,0.242268 -0.541237,0.541237 v 17.272165 c 0,0.298969 0.242268,0.541237 0.541237,0.541237" />
    <path
       style="fill:#062e56;fill-rule:evenodd;stroke:none;stroke-width:1"
       inkscape:connector-curvature="0"
       id="Fill-17"
       d="m 55.265258,88.706289 c 0,0.603092 -0.489691,1.092783 -1.092784,1.092783 h -7.254639 c -0.202062,0 -0.352577,-0.168041 -0.352577,-0.370103 0,-0.898969 0.06804,-2.524742 0.215464,-3.050515 0.2,-0.719588 0.760824,-1.279382 1.402061,-1.538145 0.611341,-0.250515 1.583506,-0.371134 2.971134,-0.371134 1.126805,0 1.946392,0.102062 2.503093,0.313402 0.583505,0.22165 1.006186,0.681444 1.25464,1.364949 0.238144,0.659794 0.353608,1.158763 0.353608,2.558763 z m -0.449485,-4.719588 c -0.726804,-0.416495 -1.931959,-0.627835 -3.580412,-0.627835 -1.848454,0 -3.196907,0.221649 -4.006186,0.656701 -0.8,0.430928 -1.296907,1.074227 -1.520618,1.968041 -0.230928,0.923712 -0.348454,2.393815 -0.348454,4.371134 0,1.970103 0.135052,3.447423 0.401031,4.390722 0.258763,0.910309 0.776289,1.546392 1.583505,1.942268 0.82165,0.402062 2.141237,0.605155 3.918557,0.605155 0.892783,0 1.792783,-0.03196 2.673196,-0.09485 0.31134,-0.02165 0.597938,-0.04742 0.860824,-0.07629 0.63299,-0.06907 1.113403,-0.596908 1.113403,-1.234021 v 0 c -0.575258,0.07835 -1.242268,0.145361 -1.984537,0.198969 -0.846391,0.06392 -1.631958,0.09588 -2.335051,0.09588 -1.537114,0 -2.61134,-0.13402 -3.285567,-0.410309 -0.704124,-0.287629 -1.172165,-0.802062 -1.389691,-1.525773 -0.150515,-0.498969 -0.245361,-1.204124 -0.285567,-2.140206 -0.0093,-0.22165 -0.01649,-0.701031 -0.01959,-1.034021 -0.0031,-0.195876 0.15567,-0.354639 0.352577,-0.354639 h 7.836082 c 0.915464,0 1.657732,-0.742268 1.657732,-1.657732 v -0.17732 c 0,-1.996907 -0.1,-2.03402 -0.295876,-2.959793 -0.189691,-0.894846 -0.628866,-1.527836 -1.345361,-1.936083 z" />
    <path
       style="fill:#062e56;fill-rule:evenodd;stroke:none;stroke-width:1"
       inkscape:connector-curvature="0"
       id="Fill-19"
       d="m 64.525051,87.059897 0.0021,-2.017526 c 0,-0.194845 -0.157732,-0.352577 -0.352577,-0.352577 l -1.830928,-0.0031 h -0.129897 c -0.306185,0 -0.554639,-0.248454 -0.554639,-0.554639 v 0 c 0,-0.306186 0.248454,-0.554639 0.554639,-0.554639 h 0.213402 1.745361 c 0.194846,0 0.352577,-0.158763 0.352577,-0.353609 v -3.880412 c 0,-0.343299 0.279382,-0.62268 0.622681,-0.62268 0.34433,0 0.623711,0.279381 0.623711,0.62268 v 3.880412 c 0,0.194846 0.157732,0.353609 0.352578,0.353609 h 2.448453 c 0.306186,0 0.554639,0.248453 0.554639,0.554639 v 0 c 0,0.306185 -0.248453,0.554639 -0.554639,0.554639 h -2.448453 c -0.194846,0 -0.352578,0.157732 -0.352578,0.352577 V 96.45165 c 0,0.344329 -0.279381,0.623711 -0.623711,0.623711 -0.343299,0 -0.622681,-0.279382 -0.622681,-0.623711 v -9.391753" />
    <path
       style="fill:#062e56;fill-rule:evenodd;stroke:none;stroke-width:1"
       inkscape:connector-curvature="0"
       id="Fill-21"
       d="m 81.323299,83.35866 c -3.418557,0.0082 -4.012371,0.547422 -4.446392,0.941237 -0.06598,0.06083 -0.130928,0.118557 -0.198969,0.173196 l -0.339175,0.269072 v -5.397938 c 0,-0.34433 -0.278351,-0.623712 -0.622681,-0.623712 -0.344329,0 -0.623711,0.279382 -0.623711,0.623712 v 17.108247 c 0,0.343299 0.279382,0.622681 0.622681,0.622681 0.34536,0 0.623711,-0.279382 0.623711,-0.622681 V 90.08134 c 0,-1.320618 0.0732,-2.316495 0.223711,-3.045361 0.15567,-0.758762 0.564949,-1.375257 1.216495,-1.83402 0.641237,-0.449485 1.641237,-0.67732 2.971134,-0.67732 1.184536,0 2.025773,0.103093 2.572165,0.313402 0.579382,0.223712 0.974227,0.668041 1.175258,1.320619 0.189691,0.619587 0.281443,1.58969 0.281443,2.96701 v 7.326804 c 0,0.343299 0.278351,0.622681 0.622681,0.622681 0.34536,0 0.624742,-0.279382 0.624742,-0.622681 v -7.9 c 0,-1.335051 -0.116495,-2.384536 -0.346392,-3.117526 -0.219588,-0.703092 -0.646392,-1.21134 -1.302062,-1.552577 -0.671134,-0.348454 -1.702062,-0.5 -3.054639,-0.523711 z" />
    <path
       style="fill:#062e56;fill-rule:evenodd;stroke:none;stroke-width:1"
       inkscape:connector-curvature="0"
       id="Fill-23"
       d="m 93.80567,80.733608 v 0 c 0.396907,0 0.718557,-0.321649 0.718557,-0.718557 v -0.575257 c 0,-0.396907 -0.32165,-0.719588 -0.718557,-0.719588 -0.396907,0 -0.718557,0.322681 -0.718557,0.719588 v 0.575257 c 0,0.396908 0.32165,0.718557 0.718557,0.718557" />
    <path
       style="fill:#062e56;fill-rule:evenodd;stroke:none;stroke-width:1"
       inkscape:connector-curvature="0"
       id="Fill-25"
       d="m 93.792371,97.075258 v 0 c 0.34433,0 0.622681,-0.279382 0.622681,-0.622681 V 84.2 c 0,-0.34433 -0.278351,-0.62268 -0.622681,-0.62268 -0.34433,0 -0.62268,0.27835 -0.62268,0.62268 v 12.252577 c 0,0.343299 0.27835,0.622681 0.62268,0.622681" />
    <path
       transform="translate(99.628866,82.860206)"
       d="m 10.590206,9.0476289 c 0,2.9670101 -2.3381441,4.0185571 -4.340206,4.0185571 -2.0030928,0 -4.3412371,-1.051547 -4.3412371,-4.0185571 V 5.6569072 c 0,-2.9659794 2.3381443,-4.0185567 4.3412371,-4.0185567 2.0020619,0 4.340206,1.0525773 4.340206,4.0185567 z M 6.25,0.59402062 c -3.2216495,0 -5.38659794,2.03505158 -5.38659794,5.06288658 v 3.3907217 c 0,3.0288661 2.16494844,5.0639171 5.38659794,5.0639171 3.2206186,0 5.385567,-2.035051 5.385567,-5.0639171 V 5.6569072 c 0,-3.027835 -2.1649484,-5.06288658 -5.385567,-5.06288658 z"
       id="Fill-27"
       mask="none"
       inkscape:connector-curvature="0"
       style="fill:#062e56;fill-rule:evenodd;stroke:none;stroke-width:1" />
  </g>
</svg>
