<svg width="33" height="32" viewBox="0 0 33 32" fill="none" xmlns="http://www.w3.org/2000/svg">
<g id="Category=Various, Type=Age, Style=Outline, Color=Dark grey">
<path id="Combined Shape" fill-rule="evenodd" clip-rule="evenodd" d="M29.2665 7.73334C29.2665 9.7952 27.595 11.4667 25.5331 11.4667C23.4713 11.4667 21.7998 9.7952 21.7998 7.73334C21.7998 5.67147 23.4713 4 25.5331 4C27.595 4 29.2665 5.67147 29.2665 7.73334ZM23.666 7.73337C23.666 8.7643 24.5018 9.60004 25.5327 9.60004C26.5636 9.60004 27.3994 8.7643 27.3994 7.73337C27.3994 6.70243 26.5636 5.8667 25.5327 5.8667C24.5018 5.8667 23.666 6.70243 23.666 7.73337ZM15.0665 17.9333C16.9811 17.9333 18.5332 16.3813 18.5332 14.4667C18.5332 12.5521 16.9811 11 15.0665 11C13.1519 11 11.5998 12.5521 11.5998 14.4667C11.5998 16.3813 13.1519 17.9333 15.0665 17.9333ZM15.0656 16.2001C14.1083 16.2001 13.3322 15.424 13.3322 14.4667C13.3322 13.5094 14.1083 12.7334 15.0656 12.7334C16.0229 12.7334 16.7989 13.5094 16.7989 14.4667C16.7989 15.424 16.0229 16.2001 15.0656 16.2001ZM15.0668 20.5333C13.318 20.5333 11.8505 21.5116 10.61 23.5792C10.3637 23.9896 9.83134 24.1227 9.4209 23.8764C9.01046 23.6302 8.87738 23.0978 9.12364 22.6874C10.6564 20.1327 12.6556 18.7999 15.0668 18.7999C17.478 18.7999 19.4772 20.1327 21.01 22.6874C21.2562 23.0978 21.1231 23.6302 20.7127 23.8764C20.3023 24.1227 19.7699 23.9896 19.5237 23.5792C18.2831 21.5116 16.8156 20.5333 15.0668 20.5333ZM25.5335 14.2667C23.6502 14.2667 22.0698 15.3203 20.7338 17.5469C20.4686 17.9889 19.8953 18.1322 19.4533 17.867C19.0113 17.6018 18.8679 17.0285 19.1331 16.5865C20.7839 13.8353 22.9368 12.4 25.5335 12.4C28.1302 12.4 30.2831 13.8353 31.9338 16.5865C32.199 17.0285 32.0557 17.6018 31.6137 17.867C31.1717 18.1322 30.5984 17.9889 30.3332 17.5469C28.9972 15.3203 27.4168 14.2667 25.5335 14.2667ZM1.32686 27.6534C2.34925 25.9494 3.55872 25.1431 5 25.1431C6.44128 25.1431 7.65075 25.9494 8.67314 27.6534C8.8761 27.9917 9.31485 28.1014 9.65311 27.8984C9.99137 27.6955 10.1011 27.2567 9.8981 26.9185C8.63483 24.813 6.98722 23.7146 5 23.7146C3.01278 23.7146 1.36517 24.813 0.101897 26.9185C-0.101062 27.2567 0.00862488 27.6955 0.346889 27.8984C0.685154 28.1014 1.1239 27.9917 1.32686 27.6534ZM5.00049 23.0004C6.57841 23.0004 7.85757 21.7212 7.85757 20.1433C7.85757 18.5653 6.57841 17.2862 5.00049 17.2862C3.42257 17.2862 2.14341 18.5653 2.14341 20.1433C2.14341 21.7212 3.42257 23.0004 5.00049 23.0004ZM5.00061 21.5717C4.21165 21.5717 3.57207 20.9321 3.57207 20.1432C3.57207 19.3542 4.21165 18.7146 5.00061 18.7146C5.78957 18.7146 6.42915 19.3542 6.42915 20.1432C6.42915 20.9321 5.78957 21.5717 5.00061 21.5717Z" fill="#223239"/>
</g>
</svg>
