<svg width="25" height="24" viewBox="0 0 25 24" fill="none" xmlns="http://www.w3.org/2000/svg">
  <path fill-rule="evenodd" clip-rule="evenodd" d="M17.9684 7.22778V13.5907C17.9684 13.9015 17.8422 14.1825 17.6386 14.3862C17.4354 14.5893 17.1544 14.7155 16.8436 14.7155C16.222 14.7155 15.7188 14.2122 15.7188 13.5907L15.7182 9.94254L8.09261 17.5682C7.6535 18.0073 6.94127 18.0078 6.50162 17.5682C6.06251 17.129 6.06251 16.4163 6.50162 15.9772L14.1272 8.35155L10.4796 8.35155C9.85808 8.35155 9.3548 7.84826 9.3548 7.22672C9.3548 6.60517 9.85808 6.10189 10.4796 6.10189L16.8425 6.10189C16.991 6.10189 17.1379 6.13212 17.2763 6.18886C17.2822 6.19151 17.2869 6.19522 17.2928 6.19788C17.4185 6.2525 17.5362 6.32887 17.6386 6.43122C17.7414 6.53411 17.8178 6.65184 17.8724 6.77753C17.8751 6.78336 17.8788 6.78813 17.8814 6.79397C17.9382 6.93238 17.9684 7.07928 17.9684 7.22778Z" fill="#000"/>
</svg>
