<svg xmlns="http://www.w3.org/2000/svg" fill="none" viewBox="0 0 32 32">
    <path fill="#001823" d="M8.636 6.481c2.98 2.15 6.187 6.511 7.364 8.851 1.177-2.34 4.383-6.7 7.364-8.85C25.515 4.928 29 3.728 29 7.548c0 .763-.455 6.41-.722 7.327-.928 3.187-4.31 4-7.318 3.508 5.258.86 6.596 3.709 3.707 6.557-5.487 5.41-7.886-1.357-8.5-3.091-.113-.318-.166-.467-.167-.34 0-.128-.053.022-.166.34-.615 1.734-3.014 8.502-8.501 3.091-2.889-2.848-1.551-5.697 3.707-6.557-3.008.492-6.39-.321-7.318-3.508C3.455 13.959 3 8.312 3 7.549c0-3.82 3.485-2.62 5.636-1.068Z"/>
</svg>