<svg xmlns="http://www.w3.org/2000/svg" width="32" height="32" viewBox="0 0 32 32">
    <path fill="#23333A" fill-rule="evenodd" d="M23.082 6.404a1.5 1.5 0 0 1 .41 1.975l-.078.12-11.9 16.383a1.5 1.5 0 0 1-2.507-1.643l.08-.12 11.9-16.383a1.5 1.5 0 0 1 2.095-.332zm.293 5.471a5.883 5.883 0 0 1 5.87 5.655l.005.22V18a5.883 5.883 0 0 1-5.655 5.87l-.22.005H21v-.005h-3a1.5 1.5 0 0 1-.144-2.993L18 20.87h4.5l.12.005h.755a2.88 2.88 0 0 0 2.87-2.706L26.25 18v-.25a2.879 2.879 0 0 0-2.875-2.875 1.5 1.5 0 1 1 0-3zM11 8h3.5a1.5 1.5 0 0 1 .144 2.993L14.5 11H8.875A2.879 2.879 0 0 0 6 13.875v.25A2.879 2.879 0 0 0 8.875 17a1.5 1.5 0 1 1 0 3A5.882 5.882 0 0 1 3 14.125v-.25A5.882 5.882 0 0 1 8.875 8H11z"/>
</svg>
