<svg xmlns="http://www.w3.org/2000/svg" width="32" height="32" viewBox="0 0 32 32">
    <path fill="#000" fill-rule="evenodd" d="M18 22.084a1.5 1.5 0 0 1-1.5 1.5h-5a1.5 1.5 0 1 1 0-3h5a1.5 1.5 0 0 1 1.5 1.5zM22.5 17a1.5 1.5 0 0 1-1.5 1.5h-9.5a1.5 1.5 0 1 1 0-3H21a1.5 1.5 0 0 1 1.5 1.5zm2.5 8.5H8c-.542 0-1-.459-1-1v-11h19v11c0 .541-.458 1-1 1zM7 8.5c0-.542.458-1 1-1h2a1.5 1.5 0 1 0 3 0h7.5a1.5 1.5 0 1 0 3 0H25c.542 0 1 .458 1 1v2H7v-2zm18-4h-1.5a1.5 1.5 0 1 0-3 0H13a1.5 1.5 0 1 0-3 0H8c-2.2 0-4 1.8-4 4v16c0 2.2 1.8 4 4 4h17c2.2 0 4-1.8 4-4v-16c0-2.2-1.8-4-4-4z"/>
</svg>
