<svg xmlns="http://www.w3.org/2000/svg" width="24" height="24" viewBox="0 0 24 24" fill="none">
<path d="M7.5 19L10 15H8.5V12L6 16H7.5V19ZM5 10H11V5H5V10ZM5 19H11V12H5V19ZM3 21V5C3 4.45 3.19583 3.97917 3.5875 3.5875C3.97917 3.19583 4.45 3 5 3H11C11.55 3 12.0208 3.19583 12.4125 3.5875C12.8042 3.97917 13 4.45 13 5V12H14.25C14.7333 12 15.1458 12.1708 15.4875 12.5125C15.8292 12.8542 16 13.2667 16 13.75V18.375C16 18.6583 16.1167 18.9167 16.35 19.15C16.5833 19.3833 16.8417 19.5 17.125 19.5C17.425 19.5 17.6875 19.3833 17.9125 19.15C18.1375 18.9167 18.25 18.6583 18.25 18.375V9H18C17.7167 9 17.4792 8.90417 17.2875 8.7125C17.0958 8.52083 17 8.28333 17 8V6H17.5V4.5H18.5V6H19.5V4.5H20.5V6H21V8C21 8.28333 20.9042 8.52083 20.7125 8.7125C20.5208 8.90417 20.2833 9 20 9H19.75V18.375C19.75 19.075 19.4958 19.6875 18.9875 20.2125C18.4792 20.7375 17.8583 21 17.125 21C16.4083 21 15.7917 20.7375 15.275 20.2125C14.7583 19.6875 14.5 19.075 14.5 18.375V13.75C14.5 13.6667 14.4792 13.6042 14.4375 13.5625C14.3958 13.5208 14.3333 13.5 14.25 13.5H13V21H3Z" fill="#000000"/>
</svg>