<svg width="33" height="32" viewBox="0 0 33 32" fill="none" xmlns="http://www.w3.org/2000/svg">
<g id="Type=Cart">
<path id="Union" fill-rule="evenodd" clip-rule="evenodd" d="M3.07019 6C2.51791 6 2.07019 6.44772 2.07019 7C2.07019 7.55228 2.51791 8 3.07019 8H7.32351L10.8993 20.0682C11.1509 20.9174 11.9311 21.5 12.8169 21.5H24.0702C24.6225 21.5 25.0702 21.0523 25.0702 20.5C25.0702 19.9477 24.6225 19.5 24.0702 19.5H12.8169L12.5206 18.5H24.2894C25.2071 18.5 26.0071 17.8754 26.2297 16.9851L27.7297 10.9851C28.0453 9.72278 27.0906 8.5 25.7894 8.5H9.55761L9.24111 7.43182C8.98948 6.58258 8.20925 6 7.32351 6H3.07019ZM12.3054 16.5L10.4304 10.5H25.7894L24.2894 16.5H12.3054Z" fill="#001823"/>
<circle id="Ellipse 1" cx="13.0702" cy="24" r="2" fill="#001823"/>
<circle id="Ellipse 2" cx="23.0702" cy="24" r="2" fill="#001823"/>
</g>
</svg>
