<svg xmlns="http://www.w3.org/2000/svg" xmlns:xlink="http://www.w3.org/1999/xlink" width="32" height="32" viewBox="0 0 32 32">
    <defs>
        <path id="a" d="M16.78 12.22c0 .96.787 1.739 1.757 1.739.97 0 1.756-.779 1.756-1.738 0-.96-.786-1.738-1.756-1.738s-1.756.778-1.756 1.738m-5.037 0c0 .96.786 1.738 1.756 1.738s1.756-.779 1.756-1.738c0-.96-.786-1.738-1.756-1.738s-1.756.778-1.756 1.738m-3.28-1.738c-.971 0-1.757.778-1.757 1.738s.786 1.738 1.756 1.738 1.756-.779 1.756-1.738c0-.96-.786-1.738-1.756-1.738M13.5 2.86C7.65 2.86 2.89 6.96 2.89 12c0 2.994 1.712 5.804 4.578 7.517.339.202.58.533.664.916l.586 2.633 2.274-1.728c.3-.228.677-.33 1.053-.286.495.059.985.089 1.455.089 5.85 0 10.61-4.1 10.61-9.14 0-5.04-4.76-9.14-10.61-9.14M7.796 27c-.167 0-.334-.029-.495-.087a1.434 1.434 0 0 1-.917-1.035l-.946-4.25C2.021 19.367 0 15.81 0 12 0 5.384 6.056 0 13.5 0S27 5.384 27 12c0 6.617-6.056 12.001-13.5 12.001-.393 0-.795-.017-1.201-.05l-3.623 2.753a1.456 1.456 0 0 1-.88.296"/>
    </defs>
    <use fill="#000" fill-rule="evenodd" transform="translate(3 3)" xlink:href="#a"/>
</svg>
