<svg xmlns="http://www.w3.org/2000/svg" width="32" height="32" viewBox="0 0 32 32">
    <path fill="#000" fill-rule="evenodd" d="M21 14a2 2 0 1 0 .001 4.001A2 2 0 0 0 21 14m-5 0a2 2 0 1 0 .001 4.001A2 2 0 0 0 16 14m-5 0a2 2 0 1 0 .001 4.001A2 2 0 0 0 11 14m14-8H7c-2.2 0-4 1.8-4 4v11c0 2.2 1.8 4 4 4h5l3.938 3.063L19.906 25H25c2.2 0 4-1.8 4-4V10c0-2.2-1.8-4-4-4m0 3c.542 0 1 .458 1 1v11c0 .542-.458 1-1 1h-6.117l-.81.625-2.128 1.643-2.103-1.636-.813-.632H7c-.542 0-1-.458-1-1V10c0-.542.458-1 1-1h18"/>
</svg>
