<svg width="33" height="32" viewBox="0 0 33 32" fill="none" xmlns="http://www.w3.org/2000/svg">
<g id="Type=Civil affairs">
<path id="Civil affairs" d="M16.0652 19C18.9357 19 21.2202 16.672 21.2202 13.8C21.2202 10.928 18.8932 8.6 16.0652 8.6C13.1947 8.6 10.9102 10.928 10.9102 13.8C10.8652 16.67 13.1952 19 16.0652 19ZM16.0652 11C17.6077 11 18.8632 12.256 18.8632 13.8C18.8632 15.344 17.6052 16.6 16.0652 16.6C14.5252 16.6 13.2652 15.345 13.2652 13.8C13.2652 12.255 14.5202 11 16.0652 11ZM25.6702 11C27.8792 11 29.6702 9.209 29.6702 7C29.6702 4.791 27.8802 3 25.6702 3C23.4612 3 21.6702 4.791 21.6702 7C21.6702 9.209 23.4602 11 25.6702 11ZM18.5652 20.6H13.5752C9.65019 20.6 6.47019 23.585 6.47019 27.265C6.47019 28.005 7.10519 28.6 7.89019 28.6H24.2502C25.0352 28.6 25.6702 28.005 25.6702 27.265C25.6702 23.585 22.4902 20.6 18.5652 20.6ZM8.97519 26.2C9.49869 24.362 11.3432 23 13.5322 23H18.5652C20.7537 23 22.5982 24.362 23.1222 26.2H8.97519ZM27.6652 12.6H24.5732C23.9332 12.6 23.3292 12.7519 22.7802 13.012C22.8102 13.275 22.8602 13.53 22.8602 13.8C22.8602 15.4855 22.2212 17.0105 21.2022 18.2H31.1872C31.6752 18.2 32.0702 17.78 32.0702 17.265C32.0702 14.69 30.1002 12.6 27.6652 12.6ZM9.26519 13.8C9.26519 13.5275 9.31431 13.2685 9.34564 13.0045C8.80019 12.705 8.20019 12.6 7.56519 12.6H4.47419C2.04219 12.6 0.0701904 14.69 0.0701904 17.265C0.0701904 17.78 0.46454 18.2 0.95119 18.2H10.9262C9.90519 17.01 9.26519 15.485 9.26519 13.8ZM6.47019 11C8.67919 11 10.4702 9.209 10.4702 7C10.4702 4.791 8.68019 3 6.47019 3C4.26119 3 2.47019 4.791 2.47019 7C2.47019 9.209 4.26119 11 6.47019 11Z" fill="#001823"/>
</g>
</svg>
