<svg width="33" height="32" viewBox="0 0 33 32" fill="none" xmlns="http://www.w3.org/2000/svg">
<g id="Type=Contact">
<path id="Contact" d="M20.8052 20.6H11.7352C8.05519 20.6 5.07019 23.585 5.07019 27.265C5.07019 28.005 5.66719 28.6 6.40319 28.6H26.1352C26.8752 28.6 27.4702 28.005 27.4702 27.265C27.4702 23.585 24.4852 20.6 20.8052 20.6ZM7.60519 26.2C8.08009 24.362 9.75269 23 11.7372 23H20.8022C22.7867 23 24.4592 24.362 24.9342 26.2H7.60519ZM16.2702 8.6C18.4757 8.6 20.2702 10.3945 20.2702 12.6C20.2702 13.5695 19.9093 14.448 19.3332 15.141C19.5293 15.3374 19.698 15.5557 19.8382 15.7975L20.2702 15.8C21.1257 15.8 21.8712 15.3455 22.2962 14.67C22.5202 14.015 22.6702 13.33 22.6702 12.6C22.6702 9.071 19.7992 6.2 16.2702 6.2C12.7412 6.2 9.87019 9.071 9.87019 12.6C9.87019 14.6205 10.8262 16.4015 12.2887 17.5745C12.2852 17.515 12.2702 17.46 12.2702 17.4C12.2702 16.519 12.6284 15.72 13.2067 15.1405C12.6302 14.445 12.2702 13.57 12.2702 12.6C12.2702 10.395 14.0652 8.6 16.2702 8.6ZM7.47019 14.2C7.91419 14.2 8.27019 13.845 8.27019 13.4V12.6C8.27019 8.1875 11.8577 4.6 16.2702 4.6C20.6827 4.6 24.2702 8.1875 24.2702 12.6V13.4C24.2702 15.605 22.4752 17.4 20.2702 17.4H18.6702C18.6702 16.519 17.9512 15.8 17.0702 15.8H15.4702C14.5892 15.8 13.8702 16.519 13.8702 17.4C13.8702 18.281 14.5892 19 15.4702 19H20.2702C23.3642 18.9938 25.8652 16.4935 25.8702 13.4V12.6C25.8702 7.305 21.5637 3 16.2702 3C10.9767 3 6.67019 7.3065 6.67019 12.6V13.4C6.67019 13.845 7.02669 14.2 7.47019 14.2Z" fill="#001823"/>
</g>
</svg>
