<svg width="32" height="32" viewBox="0 0 32 32" fill="none" xmlns="http://www.w3.org/2000/svg">
<path fill-rule="evenodd" clip-rule="evenodd" d="M16 4.5C9.64871 4.5 4.5 9.64871 4.5 16C4.5 22.3513 9.64871 27.5 16 27.5C22.3513 27.5 27.5 22.3513 27.5 16C27.5 9.64871 22.3513 4.5 16 4.5ZM2 16C2 8.268 8.268 2 16 2C23.732 2 30 8.268 30 16C30 23.732 23.732 30 16 30C8.268 30 2 23.732 2 16Z" fill="#001823"/>
<path d="M12.0606 9.93895C11.4751 9.35352 10.5254 9.35395 9.93975 9.93865C9.35382 10.5246 9.35355 11.4748 9.93947 12.0608L13.8792 15.9999L9.93944 19.9391C9.35352 20.525 9.35352 21.4749 9.93944 22.0609C10.2326 22.354 10.6176 22.5 11.0003 22.5C11.3835 22.5 11.7676 22.3538 12.0606 22.0609L16.0003 18.1211L19.9394 22.0609C20.2326 22.354 20.6176 22.5 21.0003 22.5C21.3835 22.5 21.7676 22.3538 22.0606 22.0609C22.6465 21.4749 22.6465 20.525 22.0606 19.9391L18.1214 15.9999L22.0606 12.0607C22.6465 11.4748 22.6465 10.5249 22.0606 9.93895C21.4751 9.35352 20.5251 9.35428 19.9394 9.93898L16.0003 13.8788L12.0606 9.93895Z" fill="#001823"/>
</svg>
