<svg width="33" height="32" viewBox="0 0 33 32" fill="none" xmlns="http://www.w3.org/2000/svg">
<g id="Type=Culture">
<path id="Culture" d="M22.4702 5.4C22.4702 6.7255 21.3952 7.8 20.0702 7.8C18.7452 7.8 17.6702 6.7255 17.6702 5.4C17.6702 4.0745 18.7452 3 20.0702 3C21.3952 3 22.4702 4.0745 22.4702 5.4ZM12.8702 22.2C12.8702 25.735 10.0052 28.6 6.47019 28.6C2.93569 28.6 0.0701904 25.735 0.0701904 22.2C0.0701904 18.665 2.93569 15.8 6.47019 15.8C10.0052 15.8 12.8702 18.665 12.8702 22.2ZM6.47019 26.2C8.68019 26.2 10.4702 24.41 10.4702 22.2C10.4702 19.99 8.68019 18.2 6.47019 18.2C4.26119 18.2 2.47019 19.99 2.47019 22.2C2.47019 24.41 4.26119 26.2 6.47019 26.2ZM32.0702 22.2C32.0702 25.735 29.2052 28.6 25.6702 28.6C22.1352 28.6 19.2702 25.735 19.2702 22.2C19.2702 18.665 22.1352 15.8 25.6702 15.8C29.2052 15.8 32.0702 18.665 32.0702 22.2ZM25.6702 26.2C27.8802 26.2 29.6702 24.41 29.6702 22.2C29.6702 19.99 27.8802 18.2 25.6702 18.2C23.4602 18.2 21.6702 19.99 21.6702 22.2C21.6702 24.41 23.4602 26.2 25.6702 26.2ZM13.4102 13.23C12.9302 13.585 12.9952 14.32 13.5302 14.59L17.0052 16.325C17.4152 16.53 17.6702 16.945 17.6702 17.4V23.8C17.6702 24.465 17.1352 25 16.4702 25C15.8052 25 15.2702 24.465 15.2702 23.8V18.14L12.4552 16.735C10.3152 15.665 10.0652 12.715 11.9902 11.295L15.7202 8.545C16.9302 7.6545 18.6302 7.8775 19.5252 9.05L21.4452 11.355H24.0702C24.7352 11.355 25.2702 11.935 25.2702 12.555C25.2702 13.265 24.7352 13.755 24.0702 13.755H20.8702C20.5052 13.755 20.1602 13.635 19.9352 13.305L17.6952 10.55C17.5602 10.385 17.3152 10.35 17.1452 10.48L13.4102 13.23Z" fill="#001823"/>
</g>
</svg>
