<?xml version="1.0" encoding="UTF-8" standalone="no"?>
<svg xmlns="http://www.w3.org/2000/svg" width="32" height="32" viewBox="0 0 32 32">
  <g
     fill="#000000"
     id="g22"
     transform="matrix(0.01996192,0,0,0.01982346,0,5.7500577)">
    <path
       d="M 463.4,0 A 227.93,227.93 0 0 0 235.49,227.93 h 0.01 v 113.18 c -0.002,0.25825 -0.01,0.51477 -0.01,0.77344 v 0.01 c 0,0.25984 0.008,0.51793 0.01,0.77735 v 113.18 0.01 a 227.93,227.93 0 0 0 227.91,227.92 227.93,227.93 0 0 0 0.01,0 h 227.92 v -227.92 a 227.93,227.93 0 0 0 0,-0.0137 H 463.43 v -227.92 h 227.92 v 227.93 227.92 c 125.88,0 227.93,-102 227.93,-227.92 v -227.93 c 0,-125.88 -102.05,-227.93 -227.93,-227.93 H 463.42 a 227.93,227.93 0 0 0 -0.0234,0 z"
       id="path2" />
    <path
       d="M 1147.2,0 C 1021.31,0 919.27,102.05 919.27,227.93 v 227.92 0.01 c 0,125.88 102,227.92 227.92,227.92 h 0.012 v 0.01 h 227.92 v 341.88 c 125.88,0 227.93,-102 227.93,-227.92 V 455.86 h -227.92 -0.01 -227.92 V 227.93 h 227.92 v 227.92 h 227.93 V 227.92 C 1603.042,102.04 1500.992,0 1375.122,0 h -227.92 z"
       id="path4" />
    <path
       class="cls-7"
       d="m 160.12,809.85 q 34.69,25.89 34.7,94.94 0,68 -33.82,95.65 -33.82,27.65 -87.72,27.65 H 0 V 784 h 68 q 57.41,0 92.12,25.85 z m -102.34,16 v 160.3 h 19 q 28.55,0 43.34,-17.8 14.79,-17.8 14.8,-63.58 0,-31.37 -7.41,-48.62 -7.41,-17.25 -20.07,-23.78 -12.69,-6.52 -31.36,-6.52 z"
       id="path6" />
    <path
       class="cls-7"
       d="m 293.63,751.36 q 9.33,9 9.35,22.72 0.02,13.72 -9.35,22.73 -9.33,9 -23.77,9 -14.44,0 -23.61,-9 -9.15,-9 -9.15,-22.73 0,-13.73 9.15,-22.72 9.17,-9 23.61,-9 14.44,0 23.77,9 z M 298,841 v 187.07 H 242.38 V 841 Z"
       id="path8" />
    <path
       class="cls-7"
       d="m 459.39,841 a 99.4,99.4 0 0 1 31,16.91 L 470,889.29 q -23,-14.44 -46.2,-14.45 -10.92,0 -16.74,3.7 a 11.68,11.68 0 0 0 -5.8,10.39 13.58,13.58 0 0 0 2.63,8.64 q 2.66,3.34 10.75,6.86 8.09,3.52 25,8.46 29.23,8.45 43.5,22 14.27,13.55 14.27,37.52 0,19 -10.91,33 -10.91,14 -30,21.3 -19,7.41 -42.27,7.41 a 126.78,126.78 0 0 1 -43.87,-7.41 q -20.25,-7.38 -34.34,-20.43 L 363.2,976 q 23.61,18.33 49.68,18.32 12.69,0 19.91,-4.58 a 14.6,14.6 0 0 0 7.22,-13 c 0,-4.46 -0.94,-8 -2.82,-10.56 -1.88,-2.56 -5.52,-5 -10.93,-7.23 -5.41,-2.23 -14,-5 -25.71,-8.27 Q 372.73,942.49 359,928 345.27,913.51 345.24,892.1 a 48.22,48.22 0 0 1 9.34,-29.1 q 9.33,-12.87 26.77,-20.43 17.44,-7.56 40.34,-7.57 a 116.49,116.49 0 0 1 37.7,6 z"
       id="path10" />
    <path
       class="cls-7"
       d="m 657.37,1019.28 a 80.45,80.45 0 0 1 -23.78,10.92 97.86,97.86 0 0 1 -26.94,3.88 q -61.32,-0.35 -61.31,-67.65 V 879.77 H 518.92 V 841 h 26.42 V 800.5 L 601,794.16 V 841 h 43 l -6,38.75 h -37 v 86 q 0,13 4.22,18.66 4.22,5.66 13.39,5.65 9.52,0 20.08,-6 z"
       id="path12" />
    <path
       class="cls-7"
       d="m 810.26,838.2 -8.8,53.9 a 78.89,78.89 0 0 0 -16.91,-2.46 q -16.57,0 -25.2,11.44 -8.63,11.44 -13.56,34.36 v 92.65 H 690.13 V 841 h 48.62 l 4.58,36.29 q 6.34,-19.38 19.19,-30.48 12.85,-11.1 29.07,-11.09 a 66.64,66.64 0 0 1 18.67,2.48 z"
       id="path14" />
    <path
       class="cls-7"
       d="m 896.74,751.36 q 9.33,9 9.34,22.72 0.01,13.72 -9.34,22.73 -9.33,9 -23.77,9 -14.44,0 -23.62,-9 -9.14,-9 -9.14,-22.73 0,-13.73 9.14,-22.72 9.18,-9 23.62,-9 14.44,0 23.77,9 z m 4.4,89.66 v 187.07 H 845.49 V 841 Z"
       id="path16" />
    <path
       class="cls-7"
       d="m 1074.8,840.67 a 96,96 0 0 1 29.25,17.26 l -24,33.11 q -17.61,-13.37 -35.59,-13.38 -18.66,0 -28.17,13.74 -9.51,13.74 -9.52,44.39 0,29.6 9.52,41.92 9.52,12.32 27.48,12.34 a 47.52,47.52 0 0 0 17.26,-3 120.15,120.15 0 0 0 18.67,-9.69 l 24.31,34.52 q -27.86,22.19 -63.06,22.2 -28.54,0 -49.33,-12.15 a 82,82 0 0 1 -32.05,-34.18 q -11.28,-22 -11.28,-51.62 0,-29.62 11.28,-52.48 a 85.33,85.33 0 0 1 32.05,-35.76 q 20.83,-12.89 48.35,-12.89 19.34,0 34.83,5.67 z"
       id="path18" />
    <path
       class="cls-7"
       d="m 1259.08,1019.28 a 80.51,80.51 0 0 1 -23.79,10.92 97.76,97.76 0 0 1 -26.94,3.88 q -61.3,-0.35 -61.3,-67.65 v -86.66 h -26.42 V 841 h 26.42 v -40.5 l 55.67,-6.34 V 841 h 43 l -6,38.75 h -37 v 86 q 0,13 4.22,18.66 4.22,5.66 13.39,5.65 9.51,0 20.07,-6 z"
       id="path20" />
  </g>
</svg>
