<svg xmlns="http://www.w3.org/2000/svg" width="32" height="32" viewBox="0 0 32 32">
    <path fill="#000" fill-rule="evenodd" d="M21.833 6C23.575 6 25 7.454 25 9.23v14.54c0 1.775-1.425 3.23-3.167 3.23H9.167C7.425 27 6 25.545 6 23.77V9.23C6 7.455 7.425 6 9.167 6h12.666zm0 2.423H9.167a.81.81 0 0 0-.792.808v14.538a.81.81 0 0 0 .792.808h12.666a.81.81 0 0 0 .792-.808V9.231a.81.81 0 0 0-.792-.808zm-4.948 12.384a1.2 1.2 0 0 0-1.187-1.211H11.74a1.2 1.2 0 0 0-1.188 1.211 1.2 1.2 0 0 0 1.188 1.212h3.958a1.2 1.2 0 0 0 1.187-1.212zm3.563-8.278a1.2 1.2 0 0 0-1.188-1.212h-7.52a1.2 1.2 0 0 0-1.188 1.212 1.2 1.2 0 0 0 1.188 1.211h7.52a1.2 1.2 0 0 0 1.188-1.211zm-1.188 5.384h-7.52a1.2 1.2 0 0 1-1.188-1.211 1.2 1.2 0 0 1 1.188-1.212h7.52a1.2 1.2 0 0 1 1.188 1.212 1.2 1.2 0 0 1-1.188 1.211z"/>
</svg>
