<svg width="33" height="32" viewBox="0 0 33 32" fill="none" xmlns="http://www.w3.org/2000/svg">
<g id="Type=Education">
<path id="Education" d="M21.0702 7H20.6702V5.8C20.6702 4.256 19.4152 3 17.8702 3H14.6702C13.1252 3 11.8702 4.256 11.8702 5.8V7H11.4702C7.93269 7 5.07019 9.8625 5.07019 13.4V25.4C5.07019 27.169 6.50119 28.6 8.27019 28.6H24.2702C26.0392 28.6 27.4702 27.169 27.4702 25.4V13.4C27.4702 9.86 24.6102 7 21.0702 7ZM14.2702 5.8C14.2702 5.581 14.4502 5.4 14.6702 5.4H17.8702C18.0889 5.4 18.2702 5.58125 18.2702 5.8V7H14.2702V5.8ZM21.0702 26.2H11.4702V23H21.0702V26.2ZM21.0702 20.6H11.4702V19C11.4702 18.119 12.1892 17.4 13.0702 17.4H19.4702C20.3512 17.4 21.0702 18.119 21.0702 19V20.6ZM25.0702 25.4C25.0702 25.8438 24.7139 26.2 24.2702 26.2H23.4702V19C23.4702 16.7935 21.6762 15 19.4702 15H13.0702C10.8642 15 9.07019 16.794 9.07019 19V26.2H8.27019C7.82644 26.2 7.47019 25.8438 7.47019 25.4V13.4C7.47019 11.195 9.26419 9.4 11.4702 9.4H21.0702C23.2767 9.4 25.0702 11.194 25.0702 13.4V25.4ZM20.2702 11H12.2252C11.8252 11 11.4702 11.355 11.4702 11.755V12.6C11.4702 13.0437 11.8264 13.4 12.2702 13.4H20.2702C20.7152 13.4 21.0702 13.045 21.0702 12.6V11.8C21.0702 11.355 20.7152 11 20.2702 11Z" fill="#001823"/>
</g>
</svg>
