<svg xmlns="http://www.w3.org/2000/svg" width="32" height="32" viewBox="0 0 32 32">
    <path fill="#000" fill-rule="evenodd" d="M24.482 13.633l-2.935 2.543 2.763 2.763a1.5 1.5 0 1 1-2.121 2.121l-2.914-2.914-2.293 1.987a1.494 1.494 0 0 1-1.965 0l-2.293-1.987L9.81 21.06a1.496 1.496 0 0 1-2.121 0 1.5 1.5 0 0 1 0-2.121l2.763-2.763-2.935-2.543a1.5 1.5 0 1 1 1.965-2.267L16 17.015l6.517-5.649a1.5 1.5 0 0 1 1.965 2.267zM27 23c0 .542-.458 1-1 1H6c-.542 0-1-.458-1-1V9c0-.542.458-1 1-1h20c.542 0 1 .458 1 1v14zM26 5H6C3.799 5 2 6.8 2 9v14c0 2.2 1.799 4 4 4h20c2.2 0 4-1.8 4-4V9c0-2.2-1.8-4-4-4z"/>
</svg>
