<svg width="33" height="32" viewBox="0 0 33 32" fill="none" xmlns="http://www.w3.org/2000/svg">
<g id="Type=Environment">
<path id="Environment" d="M27.7352 13.8C27.4031 13.3172 26.8282 12.844 26.3322 12.4875C26.5095 11.8735 26.5533 11.2455 26.4611 10.611C26.3165 9.6155 25.8971 8.747 25.2136 8.0295C24.5371 7.32 23.7051 6.845 22.7401 6.6185C22.1931 6.48725 21.6456 6.456 21.0956 6.52945C20.7885 5.71695 20.2831 4.99995 19.5841 4.38895C18.5252 3.4672 17.2802 3 15.8702 3C14.4602 3 13.2152 3.4672 12.1602 4.3905C11.4602 5.0015 10.9552 5.719 10.6452 6.5315C10.0952 6.4595 9.55019 6.489 9.00019 6.6205C8.03669 6.847 7.20469 7.322 6.52819 8.03C5.84419 8.705 5.42469 9.615 5.28019 10.615C5.19114 11.226 5.23254 11.8275 5.40129 12.415C4.85369 12.785 4.38719 13.245 4.00619 13.8C3.38504 14.705 3.07019 15.715 3.07019 16.8C3.07019 18.2985 3.62019 19.589 4.70469 20.6375C5.77719 21.675 7.09419 22.2 8.62019 22.2H14.6802L14.6848 27.4C14.6852 28.065 15.2152 28.6 15.8752 28.6C15.8744 28.6 15.8752 28.6 15.8752 28.6C16.5377 28.6 17.0857 28.061 17.0847 27.3985L17.0802 22.2H23.1202C24.6462 22.2 25.9632 21.675 27.0357 20.6375C28.1202 19.59 28.6702 18.255 28.6702 16.8C28.6702 15.715 28.3552 14.705 27.7352 13.8ZM25.3652 18.915C24.7502 19.51 24.0152 19.8 23.1202 19.8H17.0802L17.0799 19.489L19.9204 16.6486C20.3891 16.1798 20.3891 15.4206 19.9204 14.9516C19.4516 14.4826 18.6924 14.4828 18.2234 14.9516L17.0769 16.0981L17.0702 10.555C17.0694 9.8925 16.5322 9.3565 15.8697 9.3565C15.8697 9.3565 15.8705 9.3565 15.8697 9.3565C15.2072 9.3565 14.6692 9.896 14.6702 10.5585L14.6729 13.663L13.4752 12.55C13.0064 12.0813 12.2472 12.0813 11.7782 12.55C11.3092 13.0188 11.3094 13.778 11.7782 14.247L14.6322 17.101L14.6802 19.8H8.62019C7.72569 19.8 6.99119 19.5094 6.37319 18.9125C5.76569 18.325 5.47019 17.635 5.47019 16.8C5.47019 16.2 5.63814 15.664 5.98419 15.161C6.32794 14.661 6.78669 14.3015 7.38419 14.0655L8.70769 13.5435L7.96919 12.325C7.69119 11.87 7.58819 11.42 7.65519 10.955C7.72784 10.455 7.92709 10.041 8.26519 9.686C8.62019 9.315 9.04019 9.075 9.55519 8.955C9.72549 8.91437 9.89659 8.89405 10.0677 8.89405C10.3903 8.89405 10.7152 8.96435 11.0507 9.1081L12.5382 9.7441L12.7155 8.1361C12.8002 7.3595 13.1352 6.725 13.7352 6.197C14.9617 5.125 16.7742 5.125 18.0007 6.197C18.6047 6.725 18.9397 7.3595 19.0247 8.1375L19.202 9.7455L20.6895 9.1095C21.203 8.89075 21.6925 8.84075 22.185 8.9564C22.6965 9.0767 23.118 9.3158 23.4725 9.6874C23.8108 10.0421 24.01 10.4564 24.0825 10.9564C24.1513 11.4314 24.056 11.8924 23.7919 12.3659L23.2199 13.3909L24.2334 13.9864C24.8099 14.3239 25.5584 14.8769 25.7539 15.1614C26.1002 15.665 26.2702 16.2 26.2702 16.8C26.2702 17.635 25.9752 18.325 25.3652 18.915Z" fill="#001823"/>
</g>
</svg>
