<svg xmlns="http://www.w3.org/2000/svg" width="24" height="24" viewBox="0 0 24 24">
    <path fill="#23333A" fill-rule="evenodd" d="M12 1.5c5.799 0 10.5 4.701 10.5 10.5S17.799 22.5 12 22.5 1.5 17.799 1.5 12 6.201 1.5 12 1.5zM12 3a9 9 0 1 0 0 18 9 9 0 0 0 0-18zm.645 2.625a6.165 6.165 0 0 1 3.793 1.298 1.125 1.125 0 0 1-1.376 1.78 3.915 3.915 0 0 0-2.417-.828c-1.56 0-2.916.913-3.582 2.25H12a.75.75 0 1 1 0 1.5H8.641a4.29 4.29 0 0 0 0 .751L12 12.375a.75.75 0 1 1 0 1.5H9.063c.667 1.337 2.023 2.25 3.582 2.25a3.915 3.915 0 0 0 2.392-.81 1.125 1.125 0 1 1 1.363 1.791 6.165 6.165 0 0 1-3.754 1.269c-2.825 0-5.208-1.896-5.995-4.5H6a.75.75 0 1 1 0-1.5h.386a6.577 6.577 0 0 1 0-.75H6a.75.75 0 1 1 0-1.5h.65c.788-2.603 3.17-4.5 5.995-4.5z"/>
</svg>
