<svg xmlns="http://www.w3.org/2000/svg" width="32" height="32" viewBox="0 0 32 32">
    <path fill="#000" fill-rule="nonzero" d="M29.872 32H2.128C.96 32 0 30.654 0 29V3.01C0 1.358.96 0 2.128 0h27.744C31.04 0 32 1.357 32 3.01V29c0 1.654-.96 3-2.128 3zM17.532 7.113c1.945-.343 3.438-.763 4.543-1.428L20.427 2.56c-1.752 1.437-3.47 2.711-7.193 3.274-4.042.713-6.467 3.49-5.84 7.046.365 2.066 1.467 3.344 3.666 4.085-1.026.933-1.557 2.186-1.354 3.34.3 1.702 1.955 2.915 5.328 2.32l2.371-.418c1.702-.3 2.64.223 2.833 1.317.204 1.155-.441 2.115-3.42 2.64-3.069.541-3.856-.01-4.124-1.529l-3.859.68c.568 3.222 2.516 4.852 8.412 3.813 5.379-.948 7.856-3.422 7.283-6.674-.471-2.674-3.154-4.206-6.8-3.563l-2.463.434c-1.58.278-1.944-.19-2.04-.737-.076-.426.098-.863.42-1.17.603.05 1.222.003 1.921-.12 4.102-.723 6.223-3.447 5.671-6.577-.359-2.036-1.576-3.076-3.707-3.608zM11.7 12.058c-.311-1.762.493-3.064 2.135-3.353 1.793-.316 2.834.44 3.172 2.355.348 1.975-.381 3.169-2.113 3.474-1.64.29-2.867-.622-3.194-2.476z"/>
</svg>
