<svg xmlns="http://www.w3.org/2000/svg" width="32" height="32" viewBox="0 0 32 32">
        <path fill="#000" d="M27 18.625c0-.542-.458-1-1-1h-.5V19.5A1.5 1.5 0 0 1 24 21H8a1.5 1.5 0 0 1-1.5-1.5v-1.875H6c-.542 0-1 .458-1 1v7c0 .542.458 1 1 1h20c.542 0 1-.458 1-1v-7zM9.5 18h13V5h-13v13zm20.5.625v7c0 2.2-1.8 4-4 4H6c-2.2 0-4-1.8-4-4v-7c0-2.2 1.8-4 4-4h.5V3.5A1.5 1.5 0 0 1 8 2h16a1.5 1.5 0 0 1 1.5 1.5v11.125h.5c2.2 0 4 1.8 4 4zM8.219 22.219a1.5 1.5 0 1 0-.001 2.999 1.5 1.5 0 0 0 .001-2.999zM19.5 12.313h-7a1.5 1.5 0 1 0 0 2.999h7a1.5 1.5 0 1 0 0-2.999zM21 9.125a1.5 1.5 0 0 1-1.5 1.5h-7a1.5 1.5 0 1 1 0-3h7a1.5 1.5 0 0 1 1.5 1.5z"/>
</svg>
