<svg width="32" height="32" viewBox="0 0 32 32" fill="none" xmlns="http://www.w3.org/2000/svg">
<path d="M12.1325 13.9781C12.1325 15.2472 11.1033 16.2763 9.8343 16.2763C8.56526 16.2763 7.53613 15.2472 7.53613 13.9781C7.53613 12.7091 8.56526 11.68 9.8343 11.68C11.1033 11.68 12.1325 12.7086 12.1325 13.9781Z" fill="#001823"/>
<path d="M14.684 17.8168C14.3052 17.2612 14.2042 16.5541 14.4567 15.8974L12.0323 16.6551C11.5777 16.8066 11.1231 16.8571 10.6433 16.8571H8.72395C8.09259 16.8571 7.51174 17.0844 7.0319 17.5137L4.30441 20.0139C3.92559 20.3675 3.90033 20.9736 4.22864 21.3524C4.40543 21.5545 4.68323 21.6555 4.93577 21.6555C5.16306 21.6555 5.39035 21.5797 5.56714 21.4029L7.15817 19.9634L6.24901 22.7162C6.09748 23.1455 6.42579 23.6001 6.90563 23.6001H7.46123L7.13292 26.5043C7.08241 27.0347 7.43597 27.4893 7.96632 27.5398H8.06734C8.54717 27.5398 8.95125 27.1862 9.00175 26.7064L9.35532 23.7011C9.35532 23.6253 9.40583 23.6001 9.48159 23.6001H10.1887C10.2645 23.6001 10.315 23.6506 10.315 23.7011L10.6686 26.7064C10.7191 27.2367 11.1989 27.5903 11.704 27.5398C12.2343 27.4893 12.5879 27.0094 12.5374 26.5043L12.2091 23.6001H12.7647C13.2193 23.6001 13.5476 23.1455 13.4213 22.7162L12.0576 18.5997C12.2343 18.5744 12.4111 18.5239 12.6132 18.4481L14.684 17.8168Z" fill="#001823"/>
<path d="M27.7707 15.6059L24.9239 11.0531C24.4288 10.2449 23.5871 9.75995 22.6959 9.75995H20.8392C19.9481 9.75995 19.1064 10.2449 18.6113 11.0531L15.7397 15.6059C15.4178 16.0908 15.4426 16.7912 15.8634 17.1953C16.3833 17.7341 17.1755 17.5994 17.5468 17.0067L19.3292 14.1511L17.6706 19.6738C17.4973 20.2125 17.8686 20.7783 18.4132 20.7783H19.0816L18.8093 26.6781C18.7846 27.2707 19.1311 27.8634 19.6757 27.9712C20.3689 28.1328 20.9878 27.594 21.0125 26.8397L21.2848 20.886C21.2848 20.8052 21.3343 20.7513 21.4086 20.7513H22.1513C22.2255 20.7513 22.275 20.8052 22.275 20.886L22.5474 26.8397C22.5721 27.4863 23.0672 27.9981 23.6613 27.9981H23.7108C24.3297 27.9712 24.8001 27.4054 24.7506 26.732L24.4783 20.7783H25.1467C25.6665 20.7783 26.0626 20.2125 25.8893 19.6738L24.2307 14.1511L26.0131 17.0067C26.2359 17.3569 26.5825 17.5455 26.929 17.5455C27.1766 17.5455 27.4241 17.4647 27.6469 17.2761C28.0678 16.8725 28.1173 16.1182 27.7707 15.6063V15.6059Z" fill="#001823"/>
<path d="M24.1286 6.5002C24.1286 7.88108 23.0093 9.0004 21.6284 9.0004C20.2475 9.0004 19.1282 7.88108 19.1282 6.5002C19.1282 5.11932 20.2475 4 21.6284 4C23.0093 4 24.1286 5.11932 24.1286 6.5002Z" fill="#001823"/>
</svg>
