<svg width="33" height="32" viewBox="0 0 33 32" fill="none" xmlns="http://www.w3.org/2000/svg">
<g id="Type=Fullscreen Enter">
<path id="Combined Shape" fill-rule="evenodd" clip-rule="evenodd" d="M22.9489 7L17.0242 12.9246C16.4385 13.5104 16.4385 14.4602 17.0242 15.0459C17.61 15.6317 18.5598 15.6317 19.1456 15.0459L25.0702 9.12132V12.5C25.0702 13.3284 25.7418 14 26.5702 14C27.3986 14 28.0702 13.3284 28.0702 12.5V5.5C28.0702 5.29662 28.0297 5.10268 27.9564 4.92583C27.8832 4.74891 27.7747 4.58315 27.6309 4.43934C27.487 4.29552 27.3213 4.18702 27.1444 4.11382C26.9675 4.04048 26.7736 4 26.5702 4H19.5702C18.7418 4 18.0702 4.67157 18.0702 5.5C18.0702 6.32843 18.7418 7 19.5702 7H22.9489ZM4.50953 27.5607C4.65334 27.7045 4.8191 27.813 4.99601 27.8862C5.17157 27.959 5.36395 27.9994 5.56569 28C5.56719 28 5.56869 28 5.57019 28H12.5702C13.3986 28 14.0702 27.3284 14.0702 26.5C14.0702 25.6716 13.3986 25 12.5702 25H9.19151L15.1161 19.0754C15.7019 18.4896 15.7019 17.5398 15.1161 16.9541C14.5303 16.3683 13.5806 16.3683 12.9948 16.9541L7.07019 22.8787V19.5C7.07019 18.6716 6.39862 18 5.57019 18C4.74176 18 4.07019 18.6716 4.07019 19.5V26.4992V26.5C4.07019 26.5015 4.07019 26.503 4.0702 26.5044L4.0702 26.5045C4.07077 26.698 4.10855 26.8913 4.18352 27.073" fill="#001823"/>
</g>
</svg>
