<svg width="33" height="32" viewBox="0 0 33 32" fill="none" xmlns="http://www.w3.org/2000/svg">
<g id="Type=Fullscreen Exit">
<g id="Group 39">
<path id="Line" d="M12.9948 17.4393C13.5806 16.8536 14.5303 16.8536 15.1161 17.4393C15.7019 18.0251 15.7019 18.9749 15.1161 19.5607L6.63085 28.0459C6.04506 28.6317 5.09532 28.6317 4.50953 28.0459C3.92374 27.4602 3.92374 26.5104 4.50953 25.9246L12.9948 17.4393Z" fill="#001823"/>
<path id="Line 2" d="M12.5555 18.5C12.5555 17.6716 13.2271 17 14.0555 17C14.884 17 15.5555 17.6716 15.5555 18.5V25.5C15.5555 26.3284 14.884 27 14.0555 27C13.2271 27 12.5555 26.3284 12.5555 25.5V18.5Z" fill="#001823"/>
<path id="Line 2_2" d="M14.0555 17C14.884 17 15.5555 17.6716 15.5555 18.5C15.5555 19.3284 14.884 20 14.0555 20H7.05554C6.22711 20 5.55554 19.3284 5.55554 18.5C5.55554 17.6716 6.22711 17 7.05554 17H14.0555Z" fill="#001823"/>
</g>
<g id="Group 40">
<path id="Line_2" d="M19.6309 15.0459C19.0451 15.6317 18.0954 15.6317 17.5096 15.0459C16.9238 14.4601 16.9238 13.5104 17.5096 12.9246L25.9949 4.43933C26.5807 3.85355 27.5304 3.85355 28.1162 4.43933C28.702 5.02512 28.702 5.97487 28.1162 6.56065L19.6309 15.0459Z" fill="#001823"/>
<path id="Line 2_3" d="M20.0702 13.9853C20.0702 14.8137 19.3986 15.4853 18.5702 15.4853C17.7418 15.4853 17.0702 14.8137 17.0702 13.9853L17.0702 6.98528C17.0702 6.15685 17.7418 5.48528 18.5702 5.48528C19.3986 5.48528 20.0702 6.15685 20.0702 6.98528L20.0702 13.9853Z" fill="#001823"/>
<path id="Line 2_4" d="M18.5702 15.4853C17.7418 15.4853 17.0702 14.8137 17.0702 13.9853C17.0702 13.1568 17.7418 12.4853 18.5702 12.4853L25.5702 12.4853C26.3986 12.4853 27.0702 13.1568 27.0702 13.9853C27.0702 14.8137 26.3986 15.4853 25.5702 15.4853L18.5702 15.4853Z" fill="#001823"/>
</g>
</g>
</svg>
