<svg width="33" height="32" viewBox="0 0 33 32" fill="none" xmlns="http://www.w3.org/2000/svg">
<g id="Type=Ghent">
<path id="Ghent" fill-rule="evenodd" clip-rule="evenodd" d="M12.2624 12.0447C12.5728 13.8113 13.7421 14.6795 15.3045 14.4039C16.9545 14.1132 17.6487 12.976 17.3176 11.0946C16.9959 9.27154 16.0035 8.55098 14.2961 8.852C12.7327 9.12762 11.967 10.3656 12.2624 12.0447ZM17.819 7.33561C19.8471 7.84358 21.007 8.83318 21.3484 10.7719C21.8752 13.753 19.8556 16.3464 15.948 17.0369C15.282 17.1526 14.6931 17.1968 14.1174 17.1498C13.8107 17.4414 13.6452 17.86 13.7176 18.2654C13.8088 18.7866 14.156 19.2324 15.6611 18.9672L18.0062 18.5533C21.4792 17.9418 24.0341 19.3999 24.4837 21.9463C25.0293 25.044 22.6691 27.3995 17.5462 28.3025C11.9312 29.2931 10.0762 27.7409 9.53531 24.6715L13.2106 24.0243C13.4664 25.472 14.2152 25.996 17.1379 25.4805C19.975 24.98 20.5902 24.0666 20.3955 22.967C20.2121 21.9256 19.3184 21.4261 17.6976 21.7111L15.44 22.1091C12.2276 22.6754 10.65 21.5221 10.365 19.9003C10.1703 18.8007 10.6764 17.6079 11.6537 16.7189C9.56071 16.0134 8.51091 14.7962 8.1638 12.8283C7.56646 9.44181 9.87584 6.7966 13.7232 6.11837C17.2696 5.58218 18.9064 4.36775 20.5752 3L22.1442 5.97538C21.0926 6.60846 19.6702 7.0092 17.819 7.33561Z" fill="#001823"/>
</g>
</svg>
