<svg xmlns="http://www.w3.org/2000/svg" width="32" height="32" viewBox="0 0 32 32">
  <path fill="#000" id="a" d="M16 2C8.3 2 2 8.3 2 16s6.3 14 14 14 14-6.3 14-14S23.7 2 16 2zm9.66 8.4H21.6c-.42-1.82-1.12-3.36-1.96-5.04 2.52.98 4.76 2.66 6.02 5.04zM16 4.8c1.12 1.68 2.1 3.5 2.66 5.6h-5.32c.56-1.96 1.54-3.92 2.66-5.6zm-10.78 14c-.28-.84-.42-1.82-.42-2.8 0-.98.14-1.96.42-2.8h4.76c-.14.98-.14 1.82-.14 2.8 0 .98.14 1.82.14 2.8H5.22zm1.12 2.8h4.06c.42 1.82 1.12 3.36 1.96 5.04-2.52-.98-4.76-2.66-6.02-5.04zm4.06-11.2H6.34c1.4-2.38 3.5-4.06 6.02-5.04-.84 1.68-1.54 3.22-1.96 5.04zM16 27.2c-1.12-1.68-2.1-3.5-2.66-5.6h5.32c-.56 1.96-1.54 3.92-2.66 5.6zm3.22-8.4h-6.44c-.14-.98-.28-1.82-.28-2.8 0-.98.14-1.82.28-2.8h6.58c.14.98.28 1.82.28 2.8 0 .98-.28 1.82-.42 2.8zm.42 7.84c.84-1.54 1.54-3.22 1.96-5.04h4.06c-1.26 2.38-3.5 4.06-6.02 5.04zm2.52-7.84c.14-.98.14-1.82.14-2.8 0-.98-.14-1.82-.14-2.8h4.76c.28.84.42 1.82.42 2.8 0 .98-.14 1.96-.42 2.8h-4.76z"/>
</svg>
