<svg xmlns="http://www.w3.org/2000/svg" width="32" height="32" viewBox="0 0 32 32">
    <path fill="#000" fill-rule="evenodd" d="M23.606 12.572c-.008.76-.016 1.524-.02 2.284-.764.008-1.523.012-2.283.015v2.277c.76.003 1.523.007 2.283.015.008.76.008 1.52.015 2.284.757 0 1.517-.004 2.277 0 .004-.764.008-1.524.015-2.288l2.284-.011v-2.276c-.76-.004-1.524-.008-2.284-.015l-.015-2.284h-2.272M3.005 16.01c-.069 3.338 2.23 6.523 5.393 7.562 2.978 1 6.641.252 8.623-2.3 1.448-1.787 1.777-4.17 1.62-6.396-2.551-.023-5.102-.015-7.65-.011-.004.908 0 1.814.004 2.722 1.528.043 3.056.023 4.583.054-.386 1.322-1.264 2.551-2.597 3.028-2.574 1.135-5.858-.347-6.668-3.047-.978-2.586.622-5.706 3.265-6.458 1.638-.577 3.327.072 4.728.924a36.18 36.18 0 0 0 2.028-2.093c-1.592-1.333-3.64-2.15-5.744-1.97-4.129.049-7.741 3.86-7.585 7.985"/>
</svg>
