<?xml version="1.0" encoding="utf-8"?>
<!-- Generator: Adobe Illustrator 27.0.1, SVG Export Plug-In . SVG Version: 6.00 Build 0)  -->
<svg version="1.1" id="Laag_1" xmlns="http://www.w3.org/2000/svg" xmlns:xlink="http://www.w3.org/1999/xlink" x="0px" y="0px"
	 width="32px" height="32px" viewBox="0 0 32 32" enable-background="new 0 0 32 32" xml:space="preserve">
<path d="M16.2,2C8.3,2,2,8.2,2,16c0,7.8,6.2,13.9,13.7,14c8.1,0.2,14.3-6.3,14.4-13.8C30.2,8.4,23.8,2,16.2,2z M25.4,20
	c-1.6,3.4-4.3,5.5-8,6c-0.2,0-0.3,0.1-0.5,0.1c-0.3,0-0.5,0-0.8,0h0c-4.5,0.1-9.1-3.1-10-8.4C5,12.1,8.9,6.9,14.5,6
	C16.8,5.6,19,6,21.1,7.2c0.2,0.1,0.3,0.2,0.1,0.4c-0.5,0.8-1,1.6-1.5,2.5c-0.1,0.2-0.2,0.2-0.4,0.1C15.1,8,10.2,10.4,9.4,15
	c-0.6,3.6,2,7.1,5.6,7.6c2.8,0.4,4.9-0.6,6.6-2.9c0.1-0.2,0.2-0.3,0.1-0.6c-0.2-0.7-0.4-1.5-0.5-2.2c-0.1-0.3-0.1-0.3-0.4-0.3
	c-1.3,0.3-2.7,0.7-4,1c-0.2,0.1-0.3,0-0.4-0.2c-0.2-0.9-0.4-1.9-0.7-2.8c-0.1-0.2,0-0.3,0.2-0.3c2.5-0.6,5-1.2,7.5-1.8
	c0.2-0.1,0.3,0,0.3,0.2c0.6,2.3,1.1,4.7,1.7,7C25.4,19.8,25.4,19.9,25.4,20z"/>
</svg>
