<svg width="33" height="32" viewBox="0 0 33 32" fill="none" xmlns="http://www.w3.org/2000/svg">
<g id="Type=Health">
<path id="Health" d="M19.3902 18.155C18.8662 18.155 18.3377 18.375 17.9452 18.787L17.668 19.077L17.3909 18.787C16.9989 18.3751 16.4709 18.155 15.9464 18.155C14.8524 18.155 14.0679 19.0975 14.0679 20.144C14.0679 20.6575 14.2545 21.1705 14.6274 21.5625L17.3484 24.4165C17.4363 24.5088 17.5516 24.555 17.667 24.555C17.7823 24.555 17.8977 24.5088 17.9856 24.4165L20.7066 21.5625C21.0806 21.1705 21.2676 20.657 21.2676 20.143C21.2702 19.14 20.4852 18.155 19.3902 18.155ZM24.4702 7C24.2705 7 24.0747 7.01631 23.8837 7.04776C23.4044 5.62226 22.0552 4.59225 20.4702 4.59225C20.1473 4.59225 19.8342 4.63503 19.5362 4.71511C18.9002 3.6865 17.7652 3 16.4702 3C15.1752 3 14.0352 3.6895 13.4002 4.722C13.1052 4.6425 12.7952 4.6 12.4752 4.6C10.4902 4.6 8.87069 6.215 8.87069 8.2V14.28C8.60869 14.23 8.34069 14.2 8.07069 14.2C8.07056 14.2 8.07082 14.2 8.07069 14.2C5.89169 14.2 4.07019 15.9575 4.07019 18.2035C4.07019 19.218 4.44809 20.1795 5.14269 20.926L9.20519 25.288C11.1652 27.395 13.9402 28.6 16.8152 28.6H18.4692C23.7652 28.6 28.0702 24.295 28.0702 19V10.6C28.0702 8.615 26.4552 7 24.4702 7ZM25.6702 19C25.6702 22.9705 22.4407 26.2 18.5152 26.2H16.8152C14.5947 26.2 12.4737 25.277 10.9602 23.652L6.97219 19.3705C6.66369 19.035 6.50319 18.6 6.50319 18.17C6.50319 17.0645 7.42619 16.6 8.07069 16.6C8.49874 16.6 8.92569 16.7708 9.24169 17.109L10.5777 18.5435C10.6602 18.632 10.7646 18.6717 10.8672 18.6717C11.0725 18.6717 11.2704 18.5131 11.2704 18.2709V8.2C11.2704 7.5375 11.8079 7 12.4254 7C13.0429 7 13.6254 7.5375 13.6254 8.2V15.8C13.6254 16.2418 13.9836 16.6 14.4254 16.6C14.8672 16.6 15.2702 16.24 15.2702 15.8L15.2703 6.6C15.2703 5.9375 15.8078 5.4 16.4703 5.4C17.1328 5.4 17.6703 5.9375 17.6703 6.6V15.8C17.6703 16.2418 18.0284 16.6 18.4253 16.6C18.8672 16.6 19.2248 16.2418 19.2248 15.8L19.2251 8.19C19.2251 7.5275 19.7626 6.99 20.4251 6.99C21.0876 6.99 21.6251 7.5275 21.6251 8.19V15.8C21.6251 16.2418 21.9833 16.6 22.4251 16.6C22.8669 16.6 23.2251 16.2418 23.2251 15.8V10.6C23.2251 9.9375 23.7626 9.4 24.4251 9.4C25.1352 9.4 25.6702 9.94 25.6702 10.6V19Z" fill="#001823"/>
</g>
</svg>
