<svg xmlns="http://www.w3.org/2000/svg" width="32" height="32" viewBox="0 0 32 32">
    <path fill="#000" fill-rule="evenodd" d="M11.617 7c-1.462 0-2.883.597-4 1.681C6.6 9.644 6 11.197 6 12.848v.274c0 1.696.976 3.547 2.902 5.502 1.813 1.809 4.374 3.558 7.606 5.192 4.757-2.44 7.257-4.631 8.522-6.051 1.315-1.534 1.962-3.009 1.962-4.491v-.213c.076-1.718-.493-3.232-1.6-4.332l-.173-.208c-.146-.21-.382-.366-.821-.645l-.17-.108C23.435 7.259 22.485 7 21.407 7c-1.423 0-2.791.564-3.852 1.591l-1.068 1.031-1.043-1.058c-.596-.604-1.252-.94-2.043-1.304-.546-.184-1.068-.26-1.783-.26zm4.895 20.18l-.826-.42a21.14 21.14 0 0 0-.234-.116c-3.654-1.82-6.574-3.807-8.678-5.906C4.267 18.193 3 15.634 3 13.122v-.274c0-2.495.926-4.804 2.54-6.333C7.208 4.897 9.37 4 11.617 4c1.076 0 1.952.139 2.84.451l.127.052c.633.29 1.289.609 1.934 1.06A8.45 8.45 0 0 1 21.406 4c1.66 0 3.156.418 4.443 1.243l.16.102c.52.331 1.106.704 1.588 1.346 1.655 1.695 2.504 3.975 2.394 6.437v.146c0 2.199-.908 4.373-2.702 6.464-2.15 2.414-5.418 4.733-9.735 6.912l-1.042.53z"/>
</svg>
