<svg xmlns="http://www.w3.org/2000/svg" width="32" height="32" viewBox="0 0 32 32">
    <path fill="#000" fill-rule="evenodd" d="M18.207 19.6c0 .83-.675 1.506-1.506 1.506a1.508 1.508 0 0 1 0-3.013c.83 0 1.506.677 1.506 1.506zM16.7 24.105a4.511 4.511 0 0 0 4.506-4.507 4.51 4.51 0 0 0-4.506-4.505 4.511 4.511 0 0 0-4.506 4.505 4.512 4.512 0 0 0 4.506 4.508zm5.332 2.993H11.368L9.18 14.15a1.534 1.534 0 0 0-.12-.37l7.44-7.192 7.743 7.485c-.006.026-.017.05-.021.078l-2.19 12.95zm-4.49-23.677a1.5 1.5 0 0 0-2.085 0l-12 11.6a1.5 1.5 0 1 0 2.085 2.156l.95-.919L8.62 28.85A1.5 1.5 0 0 0 10.1 30.1h13.2a1.5 1.5 0 0 0 1.479-1.25l2.072-12.256.607.585c.29.281.667.421 1.042.421a1.5 1.5 0 0 0 1.043-2.578l-12-11.6z"/>
</svg>
