<svg xmlns="http://www.w3.org/2000/svg" width="32" height="32" viewBox="0 0 32 32">
    <path fill="#000" fill-rule="nonzero" d="M7.5 5h18A4.5 4.5 0 0 1 30 9.5v14a4.5 4.5 0 0 1-4.5 4.5h-18A4.5 4.5 0 0 1 3 23.5v-14A4.5 4.5 0 0 1 7.5 5zm0 3A1.5 1.5 0 0 0 6 9.5v14A1.5 1.5 0 0 0 7.5 25h18a1.5 1.5 0 0 0 1.5-1.5v-14A1.5 1.5 0 0 0 25.5 8h-18zm2.575 13.123a1 1 0 0 1-.918-1.397l3.023-6.976a1 1 0 0 1 1.768-.129l3.528 5.703a.998.998 0 0 0 1.293.37l2.631-1.299a1 1 0 0 1 1.323.423l.985 1.832a1 1 0 0 1-.88 1.473H10.074zm9.594-9.493c.328-.32.718-.48 1.169-.48.468 0 .86.16 1.182.48.32.32.48.714.48 1.182 0 .45-.16.84-.48 1.169a1.587 1.587 0 0 1-1.182.493c-.451 0-.841-.164-1.17-.493a1.596 1.596 0 0 1-.492-1.17c0-.467.164-.86.493-1.181z"/>
</svg>
