<svg width="33" height="32" viewBox="0 0 33 32" fill="none" xmlns="http://www.w3.org/2000/svg">
<path fill-rule="evenodd" clip-rule="evenodd" d="M16.0702 27.5C9.72951 27.5 4.57019 22.3407 4.57019 16C4.57019 9.65932 9.72951 4.5 16.0702 4.5C22.4109 4.5 27.5702 9.65932 27.5702 16C27.5702 22.3407 22.4109 27.5 16.0702 27.5ZM16.0702 2C8.33819 2 2.07019 8.268 2.07019 16C2.07019 23.732 8.33819 30 16.0702 30C23.8022 30 30.0702 23.732 30.0702 16C30.0702 8.268 23.8022 2 16.0702 2ZM18.0702 10C18.0702 11.104 17.1742 12 16.0702 12C14.9662 12 14.0702 11.104 14.0702 10C14.0702 8.896 14.9662 8 16.0702 8C17.1742 8 18.0702 8.896 18.0702 10ZM14.5702 15.375V23.625C14.5702 24.3849 15.2412 25 16.0702 25C16.8992 25 17.5702 24.3849 17.5702 23.625V15.375C17.5702 14.6151 16.8992 14 16.0702 14C15.2412 14 14.5702 14.6151 14.5702 15.375Z" fill="#001823"/>
</svg>
