<svg xmlns="http://www.w3.org/2000/svg" width="32" height="32" viewBox="0 0 32 32">
    <path fill="#000" fill-rule="evenodd" d="M11.465 5.066c-1.171.053-1.97.24-2.67.512a5.388 5.388 0 0 0-1.948 1.268 5.384 5.384 0 0 0-1.27 1.948c-.271.7-.457 1.5-.51 2.67C5.013 12.639 5 13.013 5 16c0 2.988.013 3.362.067 4.535.053 1.171.239 1.97.51 2.67a5.38 5.38 0 0 0 1.27 1.949 5.391 5.391 0 0 0 1.948 1.268c.7.273 1.499.458 2.67.512 1.173.053 1.548.066 4.535.066 2.988 0 3.362-.013 4.535-.066 1.171-.054 1.97-.24 2.67-.512a5.396 5.396 0 0 0 1.949-1.268 5.393 5.393 0 0 0 1.269-1.949c.271-.7.458-1.499.511-2.67.053-1.173.066-1.547.066-4.535 0-2.988-.013-3.362-.066-4.535-.053-1.171-.24-1.97-.511-2.67a5.396 5.396 0 0 0-1.27-1.949 5.393 5.393 0 0 0-1.947-1.268c-.7-.273-1.5-.459-2.67-.512C19.361 5.013 18.987 5 16 5c-2.987 0-3.362.013-4.535.066m.09 19.888c-1.072-.05-1.655-.228-2.042-.379-.514-.2-.88-.438-1.265-.823a3.407 3.407 0 0 1-.823-1.265c-.15-.387-.33-.97-.379-2.042-.053-1.16-.064-1.508-.064-4.445 0-2.937.011-3.285.064-4.445.05-1.072.228-1.655.379-2.043.2-.513.438-.88.823-1.264a3.405 3.405 0 0 1 1.265-.823c.387-.15.97-.33 2.042-.379 1.16-.053 1.508-.064 4.445-.064 2.937 0 3.285.011 4.445.064 1.072.05 1.655.228 2.043.379.513.2.88.438 1.264.823.385.385.623.75.823 1.264.15.388.33.97.38 2.043.052 1.16.063 1.508.063 4.445 0 2.937-.011 3.285-.064 4.445-.049 1.072-.228 1.655-.379 2.042-.2.514-.438.88-.823 1.265a3.412 3.412 0 0 1-1.264.823c-.388.151-.97.33-2.043.379-1.16.053-1.508.064-4.445.064-2.937 0-3.285-.011-4.445-.064m8.997-14.826a1.32 1.32 0 1 0 2.64 0 1.32 1.32 0 0 0-2.64 0M10.352 16a5.648 5.648 0 1 0 11.296 0 5.648 5.648 0 0 0-11.297 0m1.982 0a3.667 3.667 0 1 1 7.334 0 3.667 3.667 0 0 1-7.334 0"/>
</svg>
