<svg width="33" height="32" viewBox="0 0 33 32" fill="none" xmlns="http://www.w3.org/2000/svg">
<g id="Type=Layers">
<g id="Group">
<path id="Union" fill-rule="evenodd" clip-rule="evenodd" d="M16.6249 4.16795C16.289 3.94402 15.8514 3.94402 15.5155 4.16795L3.51549 12.1679C3.23729 12.3534 3.07019 12.6656 3.07019 13C3.07019 13.3344 3.23729 13.6466 3.51549 13.8321L7.51741 16.5L3.51549 19.1679C3.23729 19.3534 3.07019 19.6656 3.07019 20C3.07019 20.3344 3.23729 20.6466 3.51549 20.8321L15.5155 28.8321C15.8514 29.056 16.289 29.056 16.6249 28.8321L28.6249 20.8321C28.9031 20.6466 29.0702 20.3344 29.0702 20C29.0702 19.6656 28.9031 19.3534 28.6249 19.1679L24.623 16.5L28.6249 13.8321C28.9031 13.6466 29.0702 13.3344 29.0702 13C29.0702 12.6656 28.9031 12.3534 28.6249 12.1679L16.6249 4.16795ZM9.32019 17.7019L15.5155 21.8321C15.8514 22.056 16.289 22.056 16.6249 21.8321L22.8202 17.7019L26.2674 20L16.0702 26.7981L5.87297 20L9.32019 17.7019Z" fill="#001823"/>
</g>
</g>
</svg>
