<svg xmlns="http://www.w3.org/2000/svg" width="32" height="32" viewBox="0 0 32 32">
    <path fill="#000" fill-rule="nonzero" d="M20.57 24v-5.414c0-1.362-.496-2.29-1.736-2.29-.949 0-1.513.627-1.76 1.23-.091.217-.114.52-.114.82V24h-3.429s.045-9.17 0-10.12h3.429v1.435c.456-.69 1.27-1.673 3.09-1.673 2.258 0 3.95 1.445 3.95 4.555V24h-3.429zM9.92 12.497h-.023c-1.15 0-1.897-.777-1.897-1.75C8 9.755 8.768 9 9.94 9c1.174 0 1.897.755 1.919 1.747 0 .974-.745 1.75-1.94 1.75zm1.713 11.502h-3.43V13.88h3.43v10.12z"/>
</svg>
