<svg width="33" height="32" viewBox="0 0 33 32" fill="none" xmlns="http://www.w3.org/2000/svg">
<g id="Type=Link">
<path id="Fill 1" fill-rule="evenodd" clip-rule="evenodd" d="M29.3202 18V17.75C29.3202 14.511 26.6842 11.875 23.4452 11.875C22.6162 11.875 21.9452 12.546 21.9452 13.375C21.9452 14.204 22.6162 14.875 23.4452 14.875C25.0302 14.875 26.3202 16.165 26.3202 17.75V18C26.3202 19.585 25.0302 20.875 23.4452 20.875H17.1952C15.6102 20.875 14.3202 19.585 14.3202 18V17.75C14.3202 16.798 14.7962 15.907 15.5942 15.367C16.2802 14.903 16.4602 13.97 15.9952 13.284C15.5312 12.599 14.5982 12.418 13.9122 12.883C12.2892 13.982 11.3202 15.801 11.3202 17.75V18C11.3202 21.239 13.9562 23.875 17.1952 23.875H23.4452C26.6842 23.875 29.3202 21.239 29.3202 18ZM8.94519 20C5.70619 20 3.07019 17.364 3.07019 14.125V13.875C3.07019 10.636 5.70619 8 8.94519 8H15.1952C18.4342 8 21.0702 10.636 21.0702 13.875V14.125C21.0702 15.937 20.2472 17.622 18.8132 18.748C18.1612 19.259 17.2182 19.146 16.7072 18.494C16.1952 17.842 16.3092 16.899 16.9612 16.388C17.6662 15.834 18.0702 15.01 18.0702 14.125V13.875C18.0702 12.29 16.7802 11 15.1952 11H8.94519C7.36019 11 6.07019 12.29 6.07019 13.875V14.125C6.07019 15.71 7.36019 17 8.94519 17C9.77419 17 10.4452 17.671 10.4452 18.5C10.4452 19.329 9.77419 20 8.94519 20Z" fill="#001823"/>
<mask id="mask0_2_1968" style="mask-type:luminance" maskUnits="userSpaceOnUse" x="3" y="8" width="27" height="16">
<path id="Fill 1_2" fill-rule="evenodd" clip-rule="evenodd" d="M29.3202 18V17.75C29.3202 14.511 26.6842 11.875 23.4452 11.875C22.6162 11.875 21.9452 12.546 21.9452 13.375C21.9452 14.204 22.6162 14.875 23.4452 14.875C25.0302 14.875 26.3202 16.165 26.3202 17.75V18C26.3202 19.585 25.0302 20.875 23.4452 20.875H17.1952C15.6102 20.875 14.3202 19.585 14.3202 18V17.75C14.3202 16.798 14.7962 15.907 15.5942 15.367C16.2802 14.903 16.4602 13.97 15.9952 13.284C15.5312 12.599 14.5982 12.418 13.9122 12.883C12.2892 13.982 11.3202 15.801 11.3202 17.75V18C11.3202 21.239 13.9562 23.875 17.1952 23.875H23.4452C26.6842 23.875 29.3202 21.239 29.3202 18ZM8.94519 20C5.70619 20 3.07019 17.364 3.07019 14.125V13.875C3.07019 10.636 5.70619 8 8.94519 8H15.1952C18.4342 8 21.0702 10.636 21.0702 13.875V14.125C21.0702 15.937 20.2472 17.622 18.8132 18.748C18.1612 19.259 17.2182 19.146 16.7072 18.494C16.1952 17.842 16.3092 16.899 16.9612 16.388C17.6662 15.834 18.0702 15.01 18.0702 14.125V13.875C18.0702 12.29 16.7802 11 15.1952 11H8.94519C7.36019 11 6.07019 12.29 6.07019 13.875V14.125C6.07019 15.71 7.36019 17 8.94519 17C9.77419 17 10.4452 17.671 10.4452 18.5C10.4452 19.329 9.77419 20 8.94519 20Z" fill="white"/>
</mask>
<g mask="url(#mask0_2_1968)">
</g>
</g>
</svg>
