<svg width="33" height="32" viewBox="0 0 33 32" fill="none" xmlns="http://www.w3.org/2000/svg">
<g id="Type=Living">
<path id="Living" d="M29.9452 14.485C30.4502 14.915 30.5152 15.67 30.0852 16.175C29.6552 16.68 28.9002 16.745 28.3952 16.315L27.1702 15.275V24.6C27.1702 26.81 25.3802 28.6 23.1702 28.6H8.77019C6.56119 28.6 4.77019 26.81 4.77019 24.6V15.275L3.54669 16.315C3.04119 16.745 2.28419 16.68 1.85519 16.175C1.42644 15.67 1.48849 14.915 1.99384 14.485L15.1952 3.285C15.6402 2.905 16.3002 2.905 16.7452 3.285L29.9452 14.485ZM8.77019 26.2H11.1702V18.6C11.1702 17.495 12.0652 16.6 13.1702 16.6H18.7702C19.8752 16.6 20.7702 17.495 20.7702 18.6V26.2H23.1702C24.0552 26.2 24.7702 25.485 24.7702 24.6V13.24L15.9702 5.7735L7.17019 13.24V24.6C7.17019 25.485 7.88519 26.2 8.77019 26.2ZM13.5702 26.2H18.3702V19H13.5702V26.2Z" fill="#001823"/>
</g>
</svg>
