<svg xmlns="http://www.w3.org/2000/svg" width="32" height="32" viewBox="0 0 32 32">
    <path fill="#000" fill-rule="evenodd" d="M23.5 12.551c2.514.256 4.5 2.37 4.5 4.949v8c0 2.75-2.25 5-5 5H9c-2.75 0-5-2.25-5-5v-8c0-2.579 1.986-4.693 4.5-4.949V9.5C8.5 5.364 11.864 2 16 2s7.5 3.364 7.5 7.5v3.051zM25 25.5v-8c0-1.084-.916-2-2-2H9c-1.084 0-2 .916-2 2v8c0 1.084.916 2 2 2h14c1.084 0 2-.916 2-2zM16 5a4.505 4.505 0 0 0-4.5 4.5v3h9v-3C20.5 7.019 18.481 5 16 5zm0 13a1.5 1.5 0 0 1 1.5 1.5v4a1.5 1.5 0 1 1-3 0v-4A1.5 1.5 0 0 1 16 18z"/>
</svg>
