<svg xmlns="http://www.w3.org/2000/svg" width="32" height="32" viewBox="0 0 32 32">
    <path fill="#000" fill-rule="evenodd" d="M21.56 17.44a1.5 1.5 0 0 1 0 2.12l-6 6a1.496 1.496 0 0 1-2.12 0l-3-3a1.5 1.5 0 1 1 2.12-2.12l1.94 1.938 4.94-4.939a1.5 1.5 0 0 1 2.12 0zM25 25.5c0 1.084-.916 2-2 2H9c-1.085 0-2-.916-2-2v-8c0-1.084.915-2 2-2h14c1.084 0 2 .916 2 2v8zm-2-13H11.5v-3C11.5 7.02 13.517 5 16 5s4.5 2.019 4.5 4.5a1.5 1.5 0 0 0 3 0C23.5 5.365 20.136 2 16 2S8.5 5.365 8.5 9.5v3.05C5.986 12.806 4 14.92 4 17.5v8c0 2.75 2.25 5 5 5h14c2.75 0 5-2.25 5-5v-8c0-2.75-2.25-5-5-5z"/>
</svg>
