<svg xmlns="http://www.w3.org/2000/svg" width="32" height="32" viewBox="0 0 32 32">
    <path fill="#000" fill-rule="nonzero" d="M29.872 27.244H2.128C.96 27.244 0 26.308 0 25.159V7.093C0 5.943.96 5 2.128 5h27.744C31.04 5 32 5.943 32 7.093v18.066c0 1.15-.96 2.085-2.128 2.085zM28.78 14.916a1.043 1.043 0 0 0 .362 2.053c.576-.102.95-.65.85-1.215a1.046 1.046 0 0 0-1.212-.838zm.537-3.497a1.046 1.046 0 0 0-1.212-.838c-.565.1-.938.648-.841 1.2.1.564.638.952 1.203.853.576-.102.95-.65.85-1.215zm-3.64 6.366c.565-.1 1.16-.378 1.571-.784l-.78-.99c-.237.203-.453.316-.68.356-.433.076-.68-.128-.79-.752l-.552-3.134 1.297-.23-.044-1.23-1.465.26-.282-1.598-1.669.505.246 1.393-.949.167.212 1.2.948-.167.56 3.17c.25 1.417 1.055 2.055 2.378 1.834zm-4.621-4.162c-.212-1.2-1-1.804-2.116-1.608-.816.144-1.365.612-1.77 1.34l-.273-.781-1.477.26 1.122 6.364 1.705-.3-.775-4.395c.249-.626.576-1.018 1.068-1.105.432-.076.733.081.862.814l.766 4.346 1.705-.3-.817-4.635zM6.386 15.034c.768-.135 1.358-.302 1.794-.564l-.65-1.235c-.693.568-1.372 1.072-2.843 1.294-1.597.281-2.554 1.379-2.307 2.784.144.816.58 1.32 1.448 1.614-.405.369-.615.863-.534 1.32.118.672.772 1.15 2.105.916l.936-.165c.673-.119 1.044.088 1.12.52.08.457-.175.836-1.351 1.043-1.213.214-1.524-.003-1.63-.604l-1.525.269c.225 1.273.995 1.917 3.324 1.506 2.125-.374 3.104-1.352 2.878-2.637-.187-1.056-1.247-1.661-2.687-1.407l-.973.171c-.625.11-.769-.075-.807-.29a.523.523 0 0 1 .166-.464c.24.02.483.002.76-.047 1.62-.286 2.458-1.362 2.24-2.599-.142-.804-.623-1.215-1.464-1.425zm8.39 1.727c-.02-.182-.043-.45-.08-.667-.359-2.029-1.64-3.041-3.44-2.723-1.861.328-2.631 1.999-2.293 3.92.352 1.993 1.657 3.15 3.699 2.79a3.81 3.81 0 0 0 2.26-1.29l-.877-.836c-.485.481-.911.73-1.451.825-.817.144-1.457-.114-1.793-1.318l3.974-.7zm-1.859-.848l.013.072-2.317.408c-.128-1.215.212-1.746.884-1.864.817-.144 1.25.423 1.42 1.384zm-8.836 1.075c-.123-.697.195-1.21.843-1.325.709-.125 1.12.174 1.254.93.137.78-.15 1.253-.835 1.373-.648.115-1.133-.246-1.262-.978z"/>
</svg>
