<svg xmlns="http://www.w3.org/2000/svg" width="32" height="32" viewBox="0 0 32 32">
    <path fill="#000" fill-rule="nonzero" d="M29.872 27.244H2.128C.96 27.244 0 26.308 0 25.159V7.093C0 5.943.96 5 2.128 5h27.744C31.04 5 32 5.943 32 7.093v18.066c0 1.15-.96 2.085-2.128 2.085zm.125-11.792a.848.848 0 1 0-.692.988.853.853 0 0 0 .692-.988zm-.605-3.427a.848.848 0 1 0-.692.988.852.852 0 0 0 .692-.988zm-2.186 2.389c-.016-.148-.034-.367-.065-.542-.291-1.65-1.332-2.474-2.797-2.216-1.514.267-2.14 1.626-1.864 3.189.285 1.62 1.347 2.56 3.007 2.268a3.097 3.097 0 0 0 1.839-1.049l-.714-.68c-.394.392-.74.594-1.18.672-.664.117-1.185-.093-1.458-1.072l3.232-.57zm-5.8 3.419c.459-.081.942-.307 1.277-.638l-.635-.804c-.193.165-.368.256-.554.289-.351.062-.551-.104-.641-.612l-.45-2.549 1.055-.186-.035-1-1.191.21-.23-1.3-1.357.412.2 1.132-.772.136.173.977.771-.136.454 2.578c.204 1.152.859 1.67 1.935 1.491zm-3.758-3.385c-.172-.977-.813-1.468-1.72-1.308-.665.118-1.111.498-1.44 1.09l-.222-.635-1.202.211.913 5.176 1.387-.245-.63-3.574c.202-.509.468-.827.868-.898.352-.062.596.066.7.662l.624 3.535 1.386-.245-.664-3.769zm-4.814 3.93c-.27-.043-.422-.167-.496-.587l-.369-2.09c-.206-1.172-.934-1.698-2.369-1.445a5.46 5.46 0 0 0-1.847.719l.476.872c.497-.269.977-.454 1.32-.514.653-.116.963.041 1.077.686l.044.253-.595.105C8.542 16.647 7.8 17.413 8 18.546c.166.937.927 1.487 1.962 1.305.615-.109 1.144-.423 1.415-1.055.306.48.731.606 1.326.551l.13-.97zM5.63 15.61c.625-.11 1.104-.246 1.46-.46l-.53-1.003c-.563.462-1.115.871-2.312 1.052-1.298.229-2.077 1.121-1.876 2.264.117.664.471 1.074 1.178 1.312-.33.3-.5.703-.435 1.074.097.547.628.936 1.712.745l.762-.134c.547-.097.848.071.91.423.066.371-.142.68-1.099.848-.986.174-1.239-.003-1.325-.491l-1.24.219c.183 1.035.809 1.558 2.703 1.225 1.728-.305 2.524-1.1 2.34-2.145-.151-.86-1.013-1.352-2.185-1.145l-.791.14c-.508.09-.625-.061-.656-.237a.426.426 0 0 1 .135-.376c.194.016.393 0 .618-.039 1.318-.232 2-1.107 1.822-2.113-.116-.654-.507-.988-1.191-1.16zm5.353 2.439c-.15.409-.416.667-.816.738-.43.075-.71-.147-.792-.606-.1-.566.223-.905.975-1.038l.459-.08.174.986zm14.711-4.326l.01.059-1.884.332c-.104-.989.172-1.42.72-1.517.663-.117 1.016.345 1.154 1.126zM3.756 17.2c-.1-.567.159-.985.686-1.078.576-.101.911.142 1.02.757.112.635-.123 1.018-.68 1.116-.527.093-.92-.2-1.026-.795z"/>
</svg>
