<svg xmlns="http://www.w3.org/2000/svg" width="32" height="32" viewBox="0 0 32 32">
    <path fill="#000" fill-rule="nonzero" d="M29.872 27.244H2.128C.96 27.244 0 26.308 0 25.159V7.093C0 5.943.96 5 2.128 5h27.744C31.04 5 32 5.943 32 7.093v18.066c0 1.15-.96 2.085-2.128 2.085zm.123-10.793a.953.953 0 1 0-.777 1.11.957.957 0 0 0 .777-1.11zm-.678-3.85a.953.953 0 1 0-.777 1.11.957.957 0 0 0 .777-1.11zm-2.53 5.207l-1.433-8.125-1.588.099.51 2.895a2.03 2.03 0 0 0-1.494-.336c-1.48.261-2.153 1.702-1.836 3.5.327 1.854 1.289 2.95 2.747 2.693.778-.137 1.248-.616 1.51-1.182l.213.697 1.37-.241zm-7.259-3.084c-.193-1.097-.912-1.648-1.932-1.469-.745.132-1.247.56-1.616 1.224l-.25-.714-1.348.238 1.024 5.811 1.557-.274-.707-4.013c.227-.572.525-.93.975-1.009.395-.07.669.074.787.743l.7 3.97 1.556-.275-.746-4.232zm-5.405 4.412c-.303-.048-.474-.187-.557-.659l-.414-2.346c-.232-1.316-1.049-1.907-2.66-1.623-.658.116-1.4.394-2.074.807l.535.98c.557-.302 1.097-.51 1.48-.578.735-.13 1.083.046 1.21.77l.05.285-.668.118c-1.722.304-2.554 1.163-2.33 2.434.186 1.053 1.041 1.671 2.203 1.466.691-.122 1.285-.475 1.59-1.184.343.538.82.68 1.488.619l.147-1.089zM6.035 16.03c.702-.124 1.24-.275 1.639-.515l-.595-1.128c-.632.519-1.252.978-2.595 1.181-1.459.258-2.333 1.26-2.107 2.543.131.745.53 1.206 1.323 1.474-.37.336-.562.788-.489 1.205.108.614.705 1.051 1.923.837l.855-.151c.614-.108.953.08 1.022.475.074.417-.16.763-1.234.953-1.107.195-1.391-.004-1.488-.552l-1.392.246c.205 1.162.908 1.75 3.035 1.375 1.94-.342 2.835-1.235 2.628-2.408-.17-.965-1.139-1.518-2.454-1.285l-.888.156c-.57.1-.702-.068-.737-.266a.478.478 0 0 1 .152-.422c.218.018.44.001.693-.043 1.48-.261 2.245-1.244 2.046-2.373-.13-.735-.568-1.11-1.337-1.302zm18.897.365c-.215.512-.512.813-.973.895-.636.112-1.133-.275-1.39-1.734-.24-1.36.12-2.01.81-2.132.428-.076.75.082 1.095.372l.458 2.599zm-12.887 2.374c-.167.459-.467.749-.916.828-.483.085-.798-.164-.889-.68-.112-.636.25-1.016 1.095-1.165l.515-.09.195 1.107zm-8.115-.955c-.112-.636.178-1.105.77-1.21.647-.114 1.023.16 1.145.85.126.713-.138 1.143-.763 1.254-.592.104-1.034-.225-1.152-.894z"/>
</svg>
