<svg xmlns="http://www.w3.org/2000/svg" width="32" height="32" viewBox="0 0 32 32">
    <path fill="#000" fill-rule="nonzero" d="M29.872 27.244H2.128C.96 27.244 0 26.308 0 25.159V7.093C0 5.943.96 5 2.128 5h27.744C31.04 5 32 5.943 32 7.093v18.066c0 1.15-.96 2.085-2.128 2.085zm.125-11.388a.835.835 0 1 0-.68.972.839.839 0 0 0 .68-.972zm-.595-3.372a.835.835 0 1 0-.68.972.839.839 0 0 0 .68-.972zM17.806 16.5c-.016-.146-.034-.36-.064-.533-.287-1.624-1.311-2.434-2.753-2.18-1.489.263-2.105 1.6-1.834 3.137.281 1.595 1.326 2.52 2.96 2.232.797-.14 1.38-.54 1.809-1.032l-.703-.669c-.387.386-.729.584-1.161.66-.653.116-1.166-.09-1.434-1.054l3.18-.56zm-12.228-.41c.615-.108 1.087-.24 1.436-.45l-.52-.989c-.555.455-1.098.857-2.275 1.035-1.278.226-2.045 1.104-1.846 2.228.115.653.463 1.057 1.158 1.291-.324.295-.492.691-.428 1.057.095.538.619.92 1.685.733l.75-.132c.538-.095.834.07.895.416.065.366-.14.669-1.081.835-.97.171-1.219-.003-1.304-.483l-1.22.215c.18 1.018.795 1.534 2.66 1.205 1.7-.3 2.483-1.082 2.302-2.11-.149-.846-.997-1.33-2.15-1.127l-.778.137c-.5.089-.615-.06-.646-.232a.42.42 0 0 1 .133-.37c.191.015.387 0 .608-.038 1.297-.229 1.967-1.09 1.793-2.08-.114-.643-.499-.972-1.172-1.14zm20.856 1.247c.451-.08.927-.303 1.256-.628l-.625-.791c-.19.162-.362.252-.544.284-.346.06-.543-.103-.631-.602l-.442-2.508 1.037-.183-.035-.984-1.172.206-.225-1.277-1.336.404.197 1.114-.76.134.17.96.76-.133.447 2.536c.2 1.134.844 1.644 1.903 1.468zm-3.698-3.33c-.17-.961-.8-1.445-1.693-1.287-.654.115-1.093.49-1.416 1.072l-.22-.625-1.181.208.898 5.092 1.364-.24-.62-3.517c.199-.5.46-.814.855-.884.346-.06.586.065.689.651l.613 3.479 1.365-.241-.654-3.709zm-6.417 1.814l.01.058-1.854.327c-.102-.973.17-1.397.708-1.492.653-.115 1 .339 1.136 1.107zm-4.268.07c-.17-.962-.809-1.443-1.693-1.287-.615.108-1.03.449-1.35.99l-.485-2.747-1.339.385 1.255 7.119 1.365-.24-.622-3.527c.2-.49.472-.806.856-.874.337-.059.586.065.69.651l.613 3.478 1.364-.24-.654-3.709zm-8.317 1.763c-.099-.557.156-.969.674-1.06.567-.1.897.14 1.003.744.11.625-.12 1.002-.668 1.099-.519.091-.906-.197-1.01-.783z"/>
</svg>
