<?xml version="1.0" encoding="utf-8"?>
<!-- Generator: Adobe Illustrator 27.3.1, SVG Export Plug-In . SVG Version: 6.00 Build 0)  -->
<svg version="1.1" id="Laag_1" xmlns="http://www.w3.org/2000/svg" xmlns:xlink="http://www.w3.org/1999/xlink" x="0px" y="0px"
	 width="32px" height="32px" viewBox="0 0 32 32" enable-background="new 0 0 32 32" xml:space="preserve">
<path fill-rule="evenodd" clip-rule="evenodd" fill="#001823" d="M12,5c-0.2,0-0.4,0.1-0.5,0.1l-7,4C4.2,9.3,4,9.6,4,10v16
	c0,0.4,0.2,0.7,0.5,0.9c0.3,0.2,0.7,0.2,1,0l6.5-3.7l7.5,3.8C19.7,27,19.8,27,20,27c0,0,0,0,0,0c0.2,0,0.4-0.1,0.5-0.1l7-4
	c0.3-0.2,0.5-0.5,0.5-0.9V6c0-0.4-0.2-0.7-0.5-0.9c-0.3-0.2-0.7-0.2-1,0L20,8.9l-7.5-3.8C12.3,5,12.2,5,12,5L12,5z M21,24.3V10.6
	l5-2.9v13.7L21,24.3z M19,10.6v13.8l-6-3V7.6L19,10.6z M6,10.6l5-2.9v13.7l-5,2.9V10.6z"/>
</svg>
