<svg width="33" height="32" viewBox="0 0 33 32" fill="none" xmlns="http://www.w3.org/2000/svg">
<g id="Type=Mobility">
<path id="Mobility" d="M7.07019 17.8C7.07019 16.915 7.78669 16.2 8.67019 16.2C9.55519 16.2 10.2702 16.915 10.2702 17.8C10.2702 18.685 9.55519 19.4 8.67019 19.4C7.78669 19.4 7.07019 18.685 7.07019 17.8ZM24.6702 17.8C24.6702 18.685 23.9552 19.4 23.0702 19.4C22.1852 19.4 21.4702 18.685 21.4702 17.8C21.4702 16.915 22.1852 16.2 23.0702 16.2C23.9552 16.2 24.6702 16.915 24.6702 17.8ZM5.47519 12.84L7.18769 7.9465C7.80519 6.1815 9.47019 5 11.3402 5H20.4002C22.2252 5 23.9352 6.1815 24.5552 7.9465L26.2652 12.84C27.7002 13.67 28.6702 15.22 28.6702 17V26.2C28.6702 26.865 28.1352 27.4 27.4702 27.4C26.8052 27.4 26.2702 26.865 26.2702 26.2V23.4H5.47019V26.2C5.47019 26.865 4.93269 27.4 4.27019 27.4C3.60769 27.4 3.07019 26.865 3.07019 26.2V17C3.07019 15.22 4.03769 13.67 5.47519 12.84ZM8.24019 12.2H23.5002L22.2852 8.74C22.0052 7.937 21.2502 7.4 20.4002 7.4H11.3402C10.4902 7.4 9.73519 7.937 9.45519 8.74L8.24019 12.2ZM23.8702 14.6H7.87019C6.54469 14.6 5.47019 15.675 5.47019 17V21H26.2702V17C26.2702 15.675 25.1952 14.6 23.8702 14.6Z" fill="#001823"/>
</g>
</svg>
