<?xml version="1.0" encoding="utf-8"?>
<!-- Generator: $$$/GeneralStr/196=Adobe Illustrator 27.6.0, SVG Export Plug-In . SVG Version: 6.00 Build 0)  -->
<svg version="1.1" id="Layer_1" xmlns="http://www.w3.org/2000/svg" xmlns:xlink="http://www.w3.org/1999/xlink" x="0px" y="0px"
	 width="32px" height="32px" viewBox="0 0 32 32" style="enable-background:new 0 0 32 32;" xml:space="preserve">
<style type="text/css">
	.st0{fill:#001823;}
</style>
<path class="st0" d="M25.1,5.2L25.1,5.2L25.1,5.2C24.9,5.1,24.6,4.9,24,5L11.1,7.9c-0.6,0.1-1,0.6-1,1.2v11.5
	c-0.6-0.2-1.2-0.4-1.9-0.4c-2.5,0-4.5,1.8-4.5,4.1s2.1,4.1,4.5,4.1c2.5,0,4.5-1.8,4.5-4.1v-9.5L23,12.5v6.2
	c-0.6-0.2-1.2-0.4-1.9-0.4c-2.5,0-4.5,1.8-4.5,4.1s2.1,4.1,4.5,4.1c2.5,0,4.5-1.8,4.5-4.1V6.2C25.6,5.8,25.5,5.5,25.1,5.2z M23,7.7
	V10l-10.3,2.3V10L23,7.7z M8.2,22.6c1.1,0,1.9,0.8,1.9,1.6c0,0.9-0.8,1.6-1.9,1.6S6.3,25,6.3,24.2C6.3,23.4,7.1,22.6,8.2,22.6z
	 M21.1,20.7c1.1,0,1.9,0.8,1.9,1.6c0,0.9-0.8,1.6-1.9,1.6s-1.9-0.8-1.9-1.6S20,20.7,21.1,20.7z"/>
</svg>
