<svg width="33" height="32" viewBox="0 0 33 32" fill="none" xmlns="http://www.w3.org/2000/svg">
<g id="Type=Next">
<path id="Combined Shape Copy" fill-rule="evenodd" clip-rule="evenodd" d="M26.0702 25.5V6.5C26.0702 5.67157 25.3986 5 24.5702 5C23.7418 5 23.0702 5.67157 23.0702 6.5V16V25.5C23.0702 26.3284 23.7418 27 24.5702 27C25.3986 27 26.0702 26.3284 26.0702 25.5ZM23.0702 16C23.0702 17.0006 22.5789 18.0012 21.5964 18.5815L10.5964 25.0784C8.59653 26.2596 6.07019 24.8187 6.07019 22.4969V9.50313C6.07019 7.18134 8.59653 5.74043 10.5964 6.92159L21.5964 13.4185C22.5789 13.9988 23.0702 14.9994 23.0702 16Z" fill="#001823"/>
</g>
</svg>
