<svg xmlns="http://www.w3.org/2000/svg" width="32" height="32" viewBox="0 0 32 32">
        <path fill="#000" d="M25.149 22.434l-4.81-2.062a1.416 1.416 0 0 0-1.855.729l-.155.354c-2.045-.654-3.166-1.42-4.75-2.88-1.473-1.572-2.328-2.94-2.987-4.969l.357-.153a1.397 1.397 0 0 0 .736-1.84l-2.08-4.77a1.411 1.411 0 0 0-1.856-.728l-1.923.825c-.59.253-.907.883-.808 1.604.827 5.98 2.32 9.603 5.268 12.525l.777.77c2.947 2.923 6.34 4.323 12.372 5.143.087.012-1.19-.182.26.018.626 0 1.133-.306 1.358-.818l.831-1.908a1.397 1.397 0 0 0-.735-1.84"/>
</svg>
