<svg xmlns="http://www.w3.org/2000/svg" width="24" height="24" viewBox="0 0 24 24" fill="none">
<path d="M12 1.5C17.799 1.5 22.5 6.20101 22.5 12C22.5 17.799 17.799 22.5 12 22.5C6.20101 22.5 1.5 17.799 1.5 12C1.5 6.20101 6.20101 1.5 12 1.5ZM8.25 6V18H11.1387V13.7773H13.0967C14.5611 13.7773 15.7147 13.4715 16.5547 12.7715C17.3924 12.0693 17.8124 11.1624 17.8125 9.98926C17.8125 9.19822 17.6193 8.5199 17.2305 7.89551C16.8438 7.27107 16.2945 6.80875 15.5879 6.46875C14.879 6.13097 14.0655 6 13.1455 6H8.25ZM13.1787 8.22266C13.7032 8.22266 14.1167 8.3578 14.4189 8.69336C14.7211 9.03108 14.872 9.43989 14.8721 10.002C14.8721 10.5131 14.7252 10.8909 14.4297 11.1709C14.1364 11.4531 13.7077 11.5557 13.1455 11.5557H11.1387V8.22266H13.1787Z" fill="#000000"/>
</svg>