<svg width="33" height="32" viewBox="0 0 33 32" fill="none" xmlns="http://www.w3.org/2000/svg">
<g id="Type=Pinterist">
<path id="P" fill-rule="evenodd" clip-rule="evenodd" d="M16.7369 6C11.2789 6 8.07019 10.07 8.07019 13.3333C8.07019 15.3093 9.40352 17.3333 10.0702 17.3333C10.7369 17.3333 11.4035 17.3333 11.4035 16.6667C11.4035 16 10.0702 15.3333 10.0702 13.3333C10.0702 10.4307 13.2522 8 16.7369 8C19.8215 8 21.4035 10.1493 21.4035 12.6667C21.4035 15.9787 19.5802 18.6667 17.4035 18.6667C16.2015 18.6667 15.1149 17.8853 15.4035 16.6667C15.7495 15.2107 16.0702 15.3333 16.7369 12.6667C16.9649 11.7547 16.4482 10.6667 15.4035 10.6667C14.1749 10.6667 12.7369 11.6307 12.7369 13.3333C12.7369 14.418 13.4035 15.3333 13.4035 15.3333C13.4035 15.3333 11.9069 20.5753 11.6862 21.5087C11.2475 23.366 10.6955 26 11.3622 26C12.0289 26 12.7369 24.6667 14.0702 21.3333C14.2669 20.8413 14.7369 19.3333 14.7369 19.3333C15.1362 20.0947 16.8302 20.6667 18.0702 20.6667C21.7629 20.6667 24.0702 17.1733 24.0702 12.6667C24.0702 9.25867 21.1235 6 16.7369 6Z" fill="#001823"/>
</g>
</svg>
