<svg width="33" height="32" viewBox="0 0 33 32" fill="none" xmlns="http://www.w3.org/2000/svg">
<g id="Type=Previous">
<path id="Combined Shape" fill-rule="evenodd" clip-rule="evenodd" d="M6.07019 26V7C6.07019 6.17157 6.74176 5.5 7.57019 5.5C8.39862 5.5 9.07019 6.17157 9.07019 7V16.5V26C9.07019 26.8284 8.39862 27.5 7.57019 27.5C6.74176 27.5 6.07019 26.8284 6.07019 26ZM9.07019 16.5C9.07019 17.5006 9.56146 18.5012 10.544 19.0815L21.544 25.5784C23.5438 26.7596 26.0702 25.3187 26.0702 22.9969V10.0031C26.0702 7.68134 23.5438 6.24043 21.544 7.42159L10.544 13.9185C9.56146 14.4988 9.07019 15.4994 9.07019 16.5Z" fill="#001823"/>
</g>
</svg>
