<svg width="33" height="32" viewBox="0 0 33 32" fill="none" xmlns="http://www.w3.org/2000/svg">
<path fill-rule="evenodd" clip-rule="evenodd" d="M16.0702 27.5C9.72951 27.5 4.57019 22.3407 4.57019 16C4.57019 9.65932 9.72951 4.5 16.0702 4.5C22.4109 4.5 27.5702 9.65932 27.5702 16C27.5702 22.3407 22.4109 27.5 16.0702 27.5ZM16.0702 2C8.33819 2 2.07019 8.268 2.07019 16C2.07019 23.732 8.33819 30 16.0702 30C23.8022 30 30.0702 23.732 30.0702 16C30.0702 8.268 23.8022 2 16.0702 2Z" fill="#001823"/>
<path fill-rule="evenodd" clip-rule="evenodd" d="M18.0702 22.0005C18.0702 23.1045 17.1742 24.0005 16.0702 24.0005C14.9662 24.0005 14.0702 23.1045 14.0702 22.0005C14.0702 20.8965 14.9662 20.0005 16.0702 20.0005C17.1742 20.0005 18.0702 20.8965 18.0702 22.0005Z" fill="#001823"/>
<path d="M16.0702 7C18.8316 7 21.0702 9.23858 21.0702 12C21.0702 13.3287 20.5476 14.5787 19.6341 15.5069L19.3975 15.7433C19.3283 15.8108 19.266 15.8697 19.2027 15.9277L18.8119 16.2782C18.7085 16.3755 18.5946 16.4901 18.4057 16.6861C18.0259 17.0804 17.6993 17.5629 17.4266 18.1404C17.073 18.8895 16.179 19.2101 15.4298 18.8564C14.6807 18.5028 14.3601 17.6088 14.7137 16.8596C15.1221 15.9946 15.6324 15.2407 16.2454 14.6045L16.4851 14.3586C16.5914 14.2514 16.6804 14.1645 16.7659 14.0842L17.1744 13.7173C17.2648 13.6344 17.3506 13.5503 17.4958 13.4027C17.8625 13.0301 18.0702 12.5334 18.0702 12C18.0702 10.8954 17.1748 10 16.0702 10C15.0158 10 14.152 10.8159 14.0757 11.8507L14.0702 12C14.0702 12.8284 13.3986 13.5 12.5702 13.5C11.7418 13.5 11.0702 12.8284 11.0702 12C11.0702 9.23858 13.3088 7 16.0702 7Z" fill="#001823"/>
</svg>
