<svg width="33" height="32" viewBox="0 0 33 32" fill="none" xmlns="http://www.w3.org/2000/svg">
<path fill-rule="evenodd" clip-rule="evenodd" d="M23.0702 10.5C23.0702 6.91015 20.16 4 16.5702 4C12.9803 4 10.0702 6.91015 10.0702 10.5C10.0702 11.3284 10.7418 12 11.5702 12C12.3986 12 13.0702 11.3284 13.0702 10.5C13.0702 8.567 14.6372 7 16.5702 7C18.5032 7 20.0702 8.567 20.0702 10.5C20.0702 11.4408 19.6993 12.3191 19.048 12.972C18.8404 13.18 18.6838 13.3339 18.5154 13.495L17.9577 14.0195C17.7836 14.1829 17.6425 14.317 17.4969 14.4581L17.0095 14.9393C16.1732 15.7757 15.5521 16.8108 15.1472 18.0257C14.8852 18.8116 15.3099 19.6611 16.0958 19.923C16.8818 20.185 17.7312 19.7603 17.9932 18.9743C18.2549 18.1892 18.6339 17.5576 19.1309 17.0607C19.3703 16.8212 19.5375 16.6568 19.7196 16.4825L20.7742 15.4843L21.1718 15.0908C22.3786 13.8811 23.0702 12.2434 23.0702 10.5ZM16.5702 28C17.9512 28 19.0702 26.881 19.0702 25.5C19.0702 24.119 17.9512 23 16.5702 23C15.1892 23 14.0702 24.119 14.0702 25.5C14.0702 26.881 15.1892 28 16.5702 28Z" fill="#001823"/>
</svg>
