<?xml version="1.0" encoding="utf-8"?>
<!-- Generator: Adobe Illustrator 27.3.1, SVG Export Plug-In . SVG Version: 6.00 Build 0)  -->
<svg version="1.1" id="Laag_1" xmlns="http://www.w3.org/2000/svg" xmlns:xlink="http://www.w3.org/1999/xlink" x="0px" y="0px"
	 width="32px" height="32px" viewBox="0 0 32 32" enable-background="new 0 0 32 32" xml:space="preserve">
<g id="Type_x3D_Texttospeech">
	<path id="Fill_1" fill-rule="evenodd" clip-rule="evenodd" fill="#001823" d="M28.5,17.5h-4c-0.8,0-1.5-0.7-1.5-1.5
		c0-0.8,0.7-1.5,1.5-1.5h4c0.8,0,1.5,0.7,1.5,1.5C30,16.8,29.3,17.5,28.5,17.5z M27.5,24.5c-0.3,0-0.6-0.1-0.8-0.3l-3-2
		c-0.7-0.5-0.9-1.4-0.4-2.1c0.5-0.7,1.4-0.9,2.1-0.4l3,2c0.7,0.5,0.9,1.4,0.4,2.1C28.5,24.3,28,24.5,27.5,24.5z M23.7,9.8l3-2
		c0.7-0.5,1.6-0.3,2.1,0.4c0.5,0.7,0.3,1.6-0.4,2.1l-3,2c-0.3,0.2-0.5,0.3-0.8,0.3c-0.5,0-1-0.2-1.2-0.7C22.8,11.1,23,10.2,23.7,9.8
		z M17,22.2l-6-2.7v-7l6-2.7V22.2z M5,19v-6h3v6H5z M17.9,6.1L9.2,10H3.5C2.7,10,2,10.7,2,11.5v9C2,21.3,2.7,22,3.5,22h5.7l8.7,3.9
		c0.2,0.1,0.4,0.1,0.6,0.1c0.3,0,0.6-0.1,0.8-0.2c0.4-0.3,0.7-0.8,0.7-1.3v-17c0-0.5-0.3-1-0.7-1.3C18.9,6,18.4,5.9,17.9,6.1z"/>
</g>
</svg>
