<svg width="33" height="32" viewBox="0 0 33 32" fill="none" xmlns="http://www.w3.org/2000/svg">
<path fill-rule="evenodd" clip-rule="evenodd" d="M26.0702 8.49594C23.7652 5.42813 20.1043 3.5 16.0702 3.5C9.16663 3.5 3.57019 9.09644 3.57019 16C3.57019 22.9036 9.16663 28.5 16.0702 28.5C21.2064 28.5 25.762 25.3731 27.6589 20.693C27.9701 19.9252 27.6 19.0506 26.8322 18.7394C26.0644 18.4282 25.1898 18.7983 24.8786 19.5661C23.4368 23.1234 19.9743 25.5 16.0702 25.5C10.8235 25.5 6.57019 21.2467 6.57019 16C6.57019 10.7533 10.8235 6.5 16.0702 6.5C19.6349 6.5 22.8168 8.48137 24.4407 11.5006L20.7372 11.5C19.8167 11.4999 19.0704 12.1713 19.0702 12.9997C19.07 13.8282 19.8161 14.4999 20.7366 14.5L27.4032 14.5011C27.437 14.5011 27.4706 14.5002 27.5039 14.4984C27.5259 14.4995 27.548 14.5 27.5702 14.5C27.9683 14.5 28.3302 14.3277 28.5987 14.0465C28.8904 13.7764 29.0701 13.4078 29.0702 13.0013C29.0702 12.9753 29.0695 12.9495 29.068 12.9238C29.0695 12.8939 29.0702 12.8637 29.0702 12.8333V6.16667C29.0702 5.24619 28.3986 4.5 27.5702 4.5C26.7418 4.5 26.0702 5.24619 26.0702 6.16667V8.49594Z" fill="#001823"/>
</svg>
