<svg width="33" height="32" viewBox="0 0 33 32" fill="none" xmlns="http://www.w3.org/2000/svg">
<g id="Type=Settings">
<path id="Combined Shape" fill-rule="evenodd" clip-rule="evenodd" d="M26.505 6.5H14.7794C14.186 5.03408 12.7489 4 11.0702 4C9.3915 4 7.95434 5.03408 7.36095 6.5H5.63541C4.77036 6.5 4.07019 7.171 4.07019 8C4.07019 8.829 4.77036 9.5 5.63541 9.5H7.36095C7.95434 10.9659 9.3915 12 11.0702 12C12.7489 12 14.186 10.9659 14.7794 9.5H26.505C27.37 9.5 28.0702 8.829 28.0702 8C28.0702 7.171 27.37 6.5 26.505 6.5ZM11.0702 10C12.1748 10 13.0702 9.10457 13.0702 8C13.0702 6.89543 12.1748 6 11.0702 6C9.96562 6 9.07019 6.89543 9.07019 8C9.07019 9.10457 9.96562 10 11.0702 10ZM26.505 22.5H14.7794C14.186 21.0341 12.7489 20 11.0702 20C9.3915 20 7.95434 21.0341 7.36095 22.5H5.63541C4.77036 22.5 4.07019 23.171 4.07019 24C4.07019 24.829 4.77036 25.5 5.63541 25.5H7.36095C7.95434 26.9659 9.3915 28 11.0702 28C12.7489 28 14.186 26.9659 14.7794 25.5H26.505C27.37 25.5 28.0702 24.829 28.0702 24C28.0702 23.171 27.37 22.5 26.505 22.5ZM11.0702 26C12.1748 26 13.0702 25.1046 13.0702 24C13.0702 22.8954 12.1748 22 11.0702 22C9.96562 22 9.07019 22.8954 9.07019 24C9.07019 25.1046 9.96562 26 11.0702 26ZM17.3609 14.5H5.63541C4.77036 14.5 4.07019 15.171 4.07019 16C4.07019 16.829 4.77036 17.5 5.63541 17.5H17.3609C17.9543 18.9659 19.3915 20 21.0702 20C22.7489 20 24.186 18.9659 24.7794 17.5H26.505C27.37 17.5 28.0702 16.829 28.0702 16C28.0702 15.171 27.37 14.5 26.505 14.5H24.7794C24.186 13.0341 22.7489 12 21.0702 12C19.3915 12 17.9543 13.0341 17.3609 14.5ZM19.0702 16C19.0702 17.1046 19.9656 18 21.0702 18C22.1748 18 23.0702 17.1046 23.0702 16C23.0702 14.8954 22.1748 14 21.0702 14C19.9656 14 19.0702 14.8954 19.0702 16Z" fill="#001823"/>
</g>
</svg>
