<svg xmlns="http://www.w3.org/2000/svg" width="32" height="32" viewBox="0 0 32 32">
    <path fill="#000" fill-rule="evenodd" d="M23 26c-1.103 0-2-.897-2-2s.897-2 2-2 2 .897 2 2-.897 2-2 2M9 18c-1.103 0-2-.897-2-2s.897-2 2-2 2 .897 2 2-.897 2-2 2M23 6c1.103 0 2 .897 2 2s-.897 2-2 2-2-.897-2-2 .897-2 2-2m0 13c-1.43 0-2.711.607-3.622 1.569l-5.446-3.89c.03-.224.068-.447.068-.679 0-.236-.038-.461-.069-.688l5.391-3.95A4.968 4.968 0 0 0 23 13a5 5 0 1 0-5-5c0 .195.036.381.058.57l-5.445 3.988A4.979 4.979 0 0 0 9 11a5 5 0 0 0 0 10c1.43 0 2.711-.607 3.622-1.569l5.446 3.89c-.03.224-.068.447-.068.679a5 5 0 1 0 5-5"/>
</svg>
