<svg width="33" height="32" viewBox="0 0 33 32" fill="none" xmlns="http://www.w3.org/2000/svg">
<g id="Type=Shopping">
<path id="Shopping" d="M10.6702 11V8.6C10.6702 5.507 13.1752 3 16.2702 3C19.3652 3 21.8702 5.507 21.8702 8.6V11H25.0702C26.3952 11 27.4702 12.075 27.4702 13.4V23.8C27.4702 26.45 25.3202 28.6 22.6702 28.6H9.87019C7.21919 28.6 5.07019 26.45 5.07019 23.8V13.4C5.07019 12.075 6.14469 11 7.47019 11H10.6702ZM13.0702 11H19.4702V8.6C19.4702 6.8325 18.0352 5.4 16.2702 5.4C14.5052 5.4 13.0702 6.8325 13.0702 8.6V11ZM7.47019 13.4V23.8C7.47019 25.125 8.54469 26.2 9.87019 26.2H22.6702C23.9952 26.2 25.0702 25.125 25.0702 23.8V13.4H21.8702V16.2C21.8702 16.865 21.3352 17.4 20.6702 17.4C20.0052 17.4 19.4702 16.865 19.4702 16.2V13.4H13.0702V16.2C13.0702 16.865 12.5352 17.4 11.8702 17.4C11.2052 17.4 10.6702 16.865 10.6702 16.2V13.4H7.47019Z" fill="#001823"/>
</g>
</svg>
