<svg xmlns="http://www.w3.org/2000/svg" fill="none" viewBox="0 0 32 32">
  <path fill="#001823" d="m17.359 10.439-6.605-4.888a1.068 1.068 0 0 1-.471-.76c-.04-.313.039-.606.235-.879a1.13 1.13 0 0 1 .767-.483c.314-.049.61.025.884.22l6.605 4.917-1.415 1.873Zm-4.511-1.873-1.062 1.083a4.151 4.151 0 0 0-.53.644l-1.681-1.23a1.068 1.068 0 0 1-.472-.76c-.04-.313.04-.605.236-.879.197-.273.452-.429.767-.468.314-.039.609.04.884.234l1.858 1.376Zm10.88 2.195-8.964-6.644a1.12 1.12 0 0 1-.486-.76c-.05-.313.024-.606.22-.879.197-.273.453-.43.767-.468.315-.04.61.039.885.234l5.779 4.273.265-2.02a2.08 2.08 0 0 1 .56-1.2 2.017 2.017 0 0 1 1.15-.614l1.18-.176 2.77 9.25a3.42 3.42 0 0 1 .09 1.609 3.508 3.508 0 0 1-.65 1.492l-2.506 3.308a4.98 4.98 0 0 0-.309-1.361 5.624 5.624 0 0 0-.663-1.244l1.592-2.107c.118-.156.186-.322.206-.498.02-.175.01-.351-.03-.527L24.17 7.66l-.442 3.102ZM9.78 13.571l-.413-.293a1.12 1.12 0 0 1-.486-.76 1.15 1.15 0 0 1 .221-.879c.197-.273.452-.43.767-.468.314-.04.61.039.884.234l.03.03a3.02 3.02 0 0 0-.104 1.067c.03.361.104.717.222 1.069h-1.12Zm-5.6 7.405c-.334 0-.614-.113-.84-.337a1.128 1.128 0 0 1-.34-.834c0-.332.113-.61.34-.834a1.14 1.14 0 0 1 .84-.337h8.255v2.342H4.179Zm1.18 3.512c-.334 0-.615-.112-.84-.337a1.128 1.128 0 0 1-.34-.834c0-.332.113-.61.34-.834.225-.224.506-.337.84-.337h7.076v2.342H5.359ZM7.717 28c-.334 0-.614-.112-.84-.337a1.128 1.128 0 0 1-.339-.834c0-.331.113-.61.34-.834.225-.224.505-.337.84-.337H19.51c.334 0 .614-.112.84-.336.226-.224.34-.502.34-.834v-5.854c0-.195-.04-.37-.119-.527a1.162 1.162 0 0 0-.354-.41l-4.01-2.985 1.534 2.751H6.538c-.334 0-.614-.112-.84-.336a1.128 1.128 0 0 1-.34-.834c0-.332.114-.61.34-.834.226-.225.506-.337.84-.337h7.194l-1.002-1.756a2.101 2.101 0 0 1-.28-1.303 1.91 1.91 0 0 1 .575-1.185l.825-.82 7.784 5.766c.452.332.8.742 1.046 1.23s.369 1.014.369 1.58v5.854c0 .975-.344 1.805-1.032 2.488-.688.683-1.523 1.024-2.506 1.024H7.717Z"/>
</svg>
