<svg xmlns="http://www.w3.org/2000/svg" viewBox="0 0 24 24">
  <path d="M11.024 18.655H5.352V5.353h5.664c.648 0 1.176-.528 1.176-1.176 0-.649-.528-1.177-1.176-1.177H5.152c-.592 0-1.104.216-1.52.632A2.086 2.086 0 0 0 3 5.153v13.694c0 .592.216 1.104.632 1.52.416.417.928.633 1.52.633h5.864c.648 0 1.176-.528 1.176-1.177 0-.648-.528-1.176-1.176-1.176l.008.008Z"/>
  <path d="M20.92 11.588v-.024a1.076 1.076 0 0 0-.256-.392l-3.912-3.914a1.168 1.168 0 0 0-1.664 0 1.17 1.17 0 0 0 0 1.665l1.904 1.905h-6.936c-.648 0-1.176.528-1.176 1.176 0 .648.528 1.177 1.176 1.177h6.936l-1.904 1.904a1.17 1.17 0 0 0 0 1.665c.232.232.528.344.832.344.304 0 .6-.112.832-.344l3.912-3.914c.112-.112.2-.24.256-.384v-.024c.048-.128.08-.272.08-.424 0-.152-.032-.288-.08-.416Z"/>
</svg>
