<svg xmlns="http://www.w3.org/2000/svg" width="24" height="24" viewBox="0 0 24 24">
    <path fill="#23333A" fill-rule="evenodd" d="M19.5 1.5a3 3 0 0 1 3 3v15a3 3 0 0 1-3 3h-15a3 3 0 0 1-3-3v-15a3 3 0 0 1 3-3h15zm0 1.5h-15A1.5 1.5 0 0 0 3 4.5v15A1.5 1.5 0 0 0 4.5 21h15a1.5 1.5 0 0 0 1.5-1.5v-15A1.5 1.5 0 0 0 19.5 3zM5.463 18.466l.034.037-.008-.009-.026-.028zm-.019-.022l.008.009.007.009-.007-.008-.008-.01zm-.003-.003l-.03-.039a.89.89 0 0 1-.1-.182.842.842 0 0 1-.061-.314V13.97a.844.844 0 1 1 1.688 0l-.001 1.9 3.333-3.332a.844.844 0 1 1 1.193 1.193L8.13 17.062h1.901a.844.844 0 1 1 0 1.688H6.11a.849.849 0 0 1-.612-.247l-.045-.05-.008-.009-.003-.003zM18.503 5.497l.044.049-.01-.012.011.012.006.007-.007-.007.008.009.003.003.031.04a.89.89 0 0 1 .1.182c.04.097.061.203.061.314v3.937a.844.844 0 1 1-1.688 0V8.13l-3.332 3.333a.844.844 0 1 1-1.193-1.193l3.332-3.333h-1.9a.844.844 0 1 1 0-1.687h3.937a.849.849 0 0 1 .597.247l.008.009.025.027-.033-.036z"/>
</svg>
