<svg xmlns="http://www.w3.org/2000/svg" fill="none" viewBox="0 0 32 32">
  <path fill="#001823" d="M3 28v-2.57c.997 0 1.982-.065 2.957-.194a13.291 13.291 0 0 0 2.86-.706 5.651 5.651 0 0 1-2.356-2.137 5.682 5.682 0 0 1-.861-3.037v-2.924h5.2v-3.856h4.387l-4.257-8.42L13.27 3l4.258 8.419c.433.857.4 1.692-.098 2.506-.498.814-1.235 1.221-2.21 1.221H13.4v1.286a2.46 2.46 0 0 1-.764 1.815 2.518 2.518 0 0 1-1.836.756H8.2v.353c0 .75.233 1.409.699 1.976a3.371 3.371 0 0 0 1.771 1.141l.39.096c.867.215 1.354.75 1.463 1.607.108.857-.228 1.5-1.008 1.928-1.3.707-2.67 1.2-4.111 1.478A23.115 23.115 0 0 1 3 28Zm18.59-3.663-1.852-1.8c.454-.45.812-.97 1.072-1.558.26-.59.39-1.227.39-1.912a4.68 4.68 0 0 0-.39-1.912 5.025 5.025 0 0 0-1.072-1.559l1.852-1.831a7.467 7.467 0 0 1 1.625 2.394c.39.91.585 1.88.585 2.908a7.193 7.193 0 0 1-.585 2.892c-.39.9-.932 1.692-1.625 2.378ZM25.262 28l-1.852-1.832a10.235 10.235 0 0 0 2.194-3.197c.53-1.21.796-2.512.796-3.904 0-1.414-.265-2.72-.796-3.92a10.29 10.29 0 0 0-2.194-3.182l1.852-1.831a12.726 12.726 0 0 1 2.747 4.016c.66 1.521.991 3.16.991 4.917 0 1.735-.33 3.369-.991 4.9A12.676 12.676 0 0 1 25.262 28Z"/>
</svg>
