<svg xmlns="http://www.w3.org/2000/svg" width="32" height="32" viewBox="0 0 32 32" fill="none">
  <path fill="#000" fill-rule="evenodd" clip-rule="evenodd" d="M29 11C29 13.2091 27.2091 15 25 15C22.7909 15 21 13.2091 21 11C21 8.79086 22.7909 7 25 7C27.2091 7 29 8.79086 29 11ZM23 11C23 12.1046 23.8954 13 25 13C26.1046 13 27 12.1046 27 11C27 9.89543 26.1046 9 25 9C23.8954 9 23 9.89543 23 11ZM8 20C10.2091 20 12 18.2091 12 16C12 13.7909 10.2091 12 8 12C5.79086 12 4 13.7909 4 16C4 18.2091 5.79086 20 8 20ZM8 18C6.89543 18 6 17.1046 6 16C6 14.8954 6.89543 14 8 14C9.10457 14 10 14.8954 10 16C10 17.1046 9.10457 18 8 18ZM8.00015 23C5.98231 23 4.28903 24.1289 2.85764 26.5145C2.5735 26.9881 1.95924 27.1416 1.48566 26.8575C1.01208 26.5733 0.85851 25.9591 1.14266 25.4855C2.91127 22.5378 5.21799 21 8.00015 21C10.7823 21 13.089 22.5378 14.8576 25.4855C15.1418 25.9591 14.9882 26.5733 14.5146 26.8575C14.0411 27.1416 13.4268 26.9881 13.1427 26.5145C11.7113 24.1289 10.018 23 8.00015 23ZM25.0002 18C22.9823 18 21.289 19.1289 19.8576 21.5145C19.5735 21.9881 18.9592 22.1416 18.4857 21.8575C18.0121 21.5733 17.8585 20.9591 18.1427 20.4855C19.9113 17.5378 22.218 16 25.0002 16C27.7823 16 30.089 17.5378 31.8576 20.4855C32.1418 20.9591 31.9882 21.5733 31.5146 21.8575C31.0411 22.1416 30.4268 21.9881 30.1427 21.5145C28.7113 19.1289 27.018 18 25.0002 18Z"/>
  <path fill="#000" d="M13 9C14.6569 9 16 7.65685 16 6C16 4.34315 14.6569 3 13 3C11.3431 3 10 4.34315 10 6C10 7.65685 11.3431 9 13 9Z"/>
</svg>
