<svg xmlns="http://www.w3.org/2000/svg" width="32" height="32" viewBox="0 0 32 32">
    <path fill="#000" fill-rule="evenodd" d="M20.109 10.688h.001-.001zm-7.954 0h-.002.002zm-4.331 3.237l3.493 2.837a2.504 2.504 0 0 1 .838 2.585l-1.157 4.348 3.777-2.445a2.498 2.498 0 0 1 2.717 0l3.777 2.445-1.158-4.349a2.505 2.505 0 0 1 .838-2.582l3.493-2.838-4.492-.242a2.503 2.503 0 0 1-2.198-1.598l-1.619-4.198-1.618 4.198a2.503 2.503 0 0 1-2.201 1.598l-4.49.242zM22.358 24.4h.01-.01zm-.271 2.924a2.5 2.5 0 0 1-1.359-.405l-4.595-2.974-4.594 2.973a2.481 2.481 0 0 1-2.828-.077 2.481 2.481 0 0 1-.945-2.666l1.407-5.287-4.247-3.45a2.48 2.48 0 0 1-.801-2.713 2.483 2.483 0 0 1 2.243-1.725l5.464-.293L13.801 5.6A2.48 2.48 0 0 1 16.133 4c1.042 0 1.958.628 2.333 1.6l1.969 5.106 5.465.293c1.04.056 1.92.733 2.242 1.724a2.483 2.483 0 0 1-.802 2.714l-4.247 3.45 1.409 5.288a2.482 2.482 0 0 1-.946 2.665 2.49 2.49 0 0 1-1.469.483z"/>
</svg>
