<svg xmlns="http://www.w3.org/2000/svg" width="32" height="32" viewBox="0 0 32 32">
    <path fill="#000" fill-rule="evenodd" d="M28.142 13.005A2.481 2.481 0 0 0 25.9 11.28l-5.465-.294-1.969-5.106a2.476 2.476 0 0 0-2.22-1.59L16.132 4v.28a2.482 2.482 0 0 0-2.332 1.6l-1.969 5.106-5.464.294a2.482 2.482 0 0 0-2.243 1.725 2.48 2.48 0 0 0 .801 2.712l4.247 3.45-1.407 5.288a2.481 2.481 0 0 0 .945 2.667 2.485 2.485 0 0 0 2.828.076l4.594-2.974 4.595 2.974c.418.27.89.404 1.36.404.514 0 1.027-.16 1.468-.48a2.482 2.482 0 0 0 .946-2.666l-1.409-5.288 4.247-3.45a2.483 2.483 0 0 0 .802-2.713"/>
</svg>
