<?xml version="1.0" encoding="UTF-8"?>
<svg id="Laag_1" data-name="Laag 1" xmlns="http://www.w3.org/2000/svg" viewBox="0 0 33 32">
  <defs>
    <style>
      .cls-1 {
        fill: #223239;
        fill-rule: evenodd;
      }
    </style>
  </defs>
  <path class="cls-1" d="M14.25,19.83h-5c-.83,0-1.5,.67-1.5,1.5,0,0,0,0,0,0s0,0,0,0c0,.83,.67,1.5,1.5,1.5h5c.83,0,1.5-.67,1.5-1.5,0,0,0,0,0,0s0,0,0,0c0-.83-.67-1.5-1.5-1.5Z"/>
  <path class="cls-1" d="M26,12.08V7c0-2.2-1.8-4-4-4H6c-2.2,0-4,1.8-4,4V25c0,2.2,1.8,4,4,4H22c2.2,0,4-1.8,4-4v-7.08l3.52-3.52-2.92-2.92-.6,.6Zm-3,12.92c0,.54-.46,1-1,1H6c-.54,0-1-.46-1-1V7c0-.54,.46-1,1-1H22c.54,0,1,.46,1,1V15.09h0s-4.87,4.88-4.87,4.88c-.08,.08-.12,.17-.12,.28v2.36c0,.22,.17,.39,.39,.39h2.36c.1,0,.2-.04,.27-.12l1.97-1.97v4.09Z"/>
  <path class="cls-1" d="M9.25,12.59h9.5c.83,0,1.5-.67,1.5-1.5,0,0,0,0,0,0s0,0,0,0c0-.83-.67-1.5-1.5-1.5H9.25c-.83,0-1.5,.67-1.5,1.5,0,0,0,0,0,0s0,0,0,0c0,.83,.67,1.5,1.5,1.5Z"/>
  <path class="cls-1" d="M9.25,17.76h9.5c.83,0,1.5-.67,1.5-1.5,0,0,0,0,0,0s0,0,0,0c0-.83-.67-1.5-1.5-1.5H9.25c-.83,0-1.5,.67-1.5,1.5,0,0,0,0,0,0s0,0,0,0c0,.83,.67,1.5,1.5,1.5Z"/>
  <path class="cls-1" d="M31.78,11.06l-1.82-1.82c-.3-.3-.79-.3-1.1,0l-1.42,1.42,2.92,2.92,1.42-1.42c.3-.3,.3-.79,0-1.1Z"/>
</svg>