<svg width="33" height="32" viewBox="0 0 33 32" fill="none" xmlns="http://www.w3.org/2000/svg">
<g id="Type=Tag">
<path id="Fill 1" fill-rule="evenodd" clip-rule="evenodd" d="M21.4694 11.6405C20.6884 10.8595 19.4224 10.8595 18.6414 11.6405C17.8604 12.4215 17.8604 13.6875 18.6414 14.4685C19.4224 15.2495 20.6884 15.2495 21.4694 14.4685C22.2504 13.6875 22.2504 12.4215 21.4694 11.6405ZM17.227 8.00244L8.84599 16.3844C7.80899 17.4214 7.80899 19.1084 8.84599 20.1454L12.964 24.2634C14 25.2994 15.687 25.3014 16.725 24.2634L25.106 15.8814L25.063 8.04644L17.227 8.00244ZM14.8444 28.0395C13.3954 28.0395 11.9464 27.4885 10.8434 26.3845L6.72544 22.2665C4.51844 20.0605 4.51844 16.4695 6.72544 14.2635L15.5494 5.43951C15.8304 5.15851 16.2114 4.99951 16.6094 4.99951H16.6174L26.5634 5.05451C27.3854 5.05951 28.0514 5.72451 28.0554 6.54651L28.1094 16.4925C28.1114 16.8925 27.9534 17.2775 27.6704 17.5605L18.8464 26.3845C17.7434 27.4885 16.2944 28.0395 14.8444 28.0395Z" fill="#001823"/>
<mask id="mask0_2_2172" style="mask-type:luminance" maskUnits="userSpaceOnUse" x="5" y="4" width="24" height="25">
<path id="Fill 1_2" fill-rule="evenodd" clip-rule="evenodd" d="M21.4694 11.6405C20.6884 10.8595 19.4224 10.8595 18.6414 11.6405C17.8604 12.4215 17.8604 13.6875 18.6414 14.4685C19.4224 15.2495 20.6884 15.2495 21.4694 14.4685C22.2504 13.6875 22.2504 12.4215 21.4694 11.6405ZM17.227 8.00244L8.84599 16.3844C7.80899 17.4214 7.80899 19.1084 8.84599 20.1454L12.964 24.2634C14 25.2994 15.687 25.3014 16.725 24.2634L25.106 15.8814L25.063 8.04644L17.227 8.00244ZM14.8444 28.0395C13.3954 28.0395 11.9464 27.4885 10.8434 26.3845L6.72544 22.2665C4.51844 20.0605 4.51844 16.4695 6.72544 14.2635L15.5494 5.43951C15.8304 5.15851 16.2114 4.99951 16.6094 4.99951H16.6174L26.5634 5.05451C27.3854 5.05951 28.0514 5.72451 28.0554 6.54651L28.1094 16.4925C28.1114 16.8925 27.9534 17.2775 27.6704 17.5605L18.8464 26.3845C17.7434 27.4885 16.2944 28.0395 14.8444 28.0395Z" fill="white"/>
</mask>
<g mask="url(#mask0_2_2172)">
</g>
</g>
</svg>
