<svg width="33" height="32" viewBox="0 0 33 32" fill="none" xmlns="http://www.w3.org/2000/svg">
<g id="Type=Target">
<path id="Combined Shape" fill-rule="evenodd" clip-rule="evenodd" d="M15.0702 4C15.0702 3.44772 15.5179 3 16.0702 3C16.6225 3 17.0702 3.44772 17.0702 4V5.04484C22.3473 5.52039 26.5498 9.72286 27.0253 15H28.0702C28.6225 15 29.0702 15.4477 29.0702 16C29.0702 16.5523 28.6225 17 28.0702 17H27.0253C26.5498 22.2771 22.3473 26.4796 17.0702 26.9552V28C17.0702 28.5523 16.6225 29 16.0702 29C15.5179 29 15.0702 28.5523 15.0702 28V26.9552C9.79305 26.4796 5.59058 22.2771 5.11503 17H4.07019C3.51791 17 3.07019 16.5523 3.07019 16C3.07019 15.4477 3.51791 15 4.07019 15H5.11503C5.59058 9.72286 9.79305 5.52039 15.0702 5.04484V4ZM16.0702 25C21.0408 25 25.0702 20.9706 25.0702 16C25.0702 11.0294 21.0408 7 16.0702 7C11.0996 7 7.07019 11.0294 7.07019 16C7.07019 20.9706 11.0996 25 16.0702 25ZM16.0702 21C18.8316 21 21.0702 18.7614 21.0702 16C21.0702 13.2386 18.8316 11 16.0702 11C13.3088 11 11.0702 13.2386 11.0702 16C11.0702 18.7614 13.3088 21 16.0702 21Z" fill="#001823"/>
</g>
</svg>
