<svg xmlns="http://www.w3.org/2000/svg" fill="none" viewBox="0 0 33 32">
    <path fill="#000" d="M16.5 28c-4.804 0-8.772-2.495-10.069-7.54-.73-2.849-.556-6.062-.148-8.12.457-2.31 1.946-5.523 4.634-6.976 2.827-1.528 6.207-1.558 8.242-1.12 2.572.553 4.433 1.659 5.856 3.48 1.505 1.925 1.899 3.87 1.915 3.951l-2.015.393 1.007-.196-1.007.2c-.003-.016-.33-1.566-1.52-3.089-1.125-1.44-2.565-2.285-4.67-2.737-1.827-.393-4.647-.262-6.832.919-2.205 1.192-3.299 4.064-3.598 5.572-.347 1.753-.523 4.695.123 7.213.65 2.525 2.082 4.293 4.257 5.255 2.465 1.091 5.436.81 7.231.24 1.785-.569 3.412-2.174 3.784-3.735.48-2.01-.27-3.557-1.852-4.467-.325 2.213-1.371 3.867-2.972 4.596-2.388 1.088-5.513.209-6.557-1.844-.576-1.133-.548-2.503.075-3.576.426-.733 1.522-1.985 4.094-2.121 1.216-.064 2.325-.016 3.325.145-.203-1.23-.851-2.72-2.794-2.794-1.769-.067-2.611.687-3.008 1.332l-1.75-1.07c.45-.731 1.821-2.424 4.837-2.308 2.805.106 4.659 2.18 4.839 5.413 3.074 1.24 4.509 4.022 3.76 7.165-.543 2.275-2.663 4.418-5.158 5.212a13.612 13.612 0 0 1-4.032.604L16.5 28Zm1.008-11.681c-1.204 0-2.74.081-3.346 1.126-.279.48-.286 1.102-.022 1.624.537 1.055 2.528 1.523 3.875.908 1.038-.473 1.692-1.722 1.846-3.447-.7-.142-1.486-.213-2.353-.213v.002Z"/>
</svg>