<svg width="24" height="24" viewBox="0 0 24 24" fill="none" xmlns="http://www.w3.org/2000/svg">
<path d="M19.4986 10.5899V7.70077C15.7671 7.54123 15.6361 4.10969 15.6361 3.78771V3.75H12.7238V15.0135C12.7238 16.2898 11.7031 17.3239 10.4362 17.3224C9.16939 17.3224 8.14727 16.2869 8.14871 15.0106C8.14871 13.7343 9.18235 12.7002 10.4492 12.7016C10.6752 12.7016 10.8912 12.735 11.1201 12.8017V9.82119C8.27252 9.4499 5.66395 11.4717 5.29397 14.3391C4.924 17.2064 6.92937 19.833 9.77547 20.2057C12.6216 20.5785 15.2287 18.5552 15.5987 15.6893C15.639 15.3804 15.6375 15.0932 15.6375 14.7959V9.25555C16.9792 10.4855 19.5 10.5899 19.5 10.5899H19.4986Z" fill="#001823"/>
</svg>
