<svg width="14" height="18" viewBox="0 0 14 18" fill="none" xmlns="http://www.w3.org/2000/svg">
<path d="M1.00024 16C1.00024 17.1 1.90024 18 3.00024 18H11.0002C12.1002 18 13.0002 17.1 13.0002 16V6C13.0002 4.9 12.1002 4 11.0002 4H3.00024C1.90024 4 1.00024 4.9 1.00024 6V16ZM4.00024 6H10.0002C10.5502 6 11.0002 6.45 11.0002 7V15C11.0002 15.55 10.5502 16 10.0002 16H4.00024C3.45024 16 3.00024 15.55 3.00024 15V7C3.00024 6.45 3.45024 6 4.00024 6ZM10.5002 1L9.79024 0.29C9.61024 0.11 9.35024 0 9.09024 0H4.91024C4.65024 0 4.39024 0.11 4.21024 0.29L3.50024 1H1.00024C0.450244 1 0.000244141 1.45 0.000244141 2C0.000244141 2.55 0.450244 3 1.00024 3H13.0002C13.5502 3 14.0002 2.55 14.0002 2C14.0002 1.45 13.5502 1 13.0002 1H10.5002Z" fill="#223239"/>
</svg>
