<svg xmlns="http://www.w3.org/2000/svg" fill="none" viewBox="0 0 32 32">
  <path fill="#001823" d="M21.94 10.162a1.002 1.002 0 1 0-.254 1.988 1.002 1.002 0 0 0 .254-1.988Zm3.948 1.403a1.002 1.002 0 1 0-.25 1.989 1.002 1.002 0 0 0 .25-1.99Z"/>
  <path fill="#001823" d="M26.571 14.408a2.551 2.551 0 0 0-2.621-4.33 3.42 3.42 0 0 0-2.058-2.267 3.45 3.45 0 0 0-4.547 4.261h-.05c-.233 0-.465.009-.697.018.9-2.861 1.782-6.999.177-8.972-.841-1.033-2.247-1.352-4.188-.949-1.148.239-2.022.635-2.622 1.187C8.942 3.28 7.837 3.76 6.67 4.79 5.186 6.1 4.598 7.42 4.922 8.712c.499 1.988 3.092 3.526 5.561 4.568-2.502.965-4.315 2.436-4.95 4.139l-1.085.51L3 18.607l1.458.66.952.433a4.69 4.69 0 0 0 .978 1.83l-1.05 1.272a.68.68 0 1 0 .388.317l1.007-1.216c.3.303.625.582.97.832l-.44.535a.68.68 0 1 0 .387.316l.465-.568c2.218 1.447 5.549 2.356 9.268 2.334 6.654-.04 12.03-3.047 12.01-6.714-.02-1.616-1.075-3.09-2.822-4.23ZM10.852 5.072a.249.249 0 1 0-.497 0l.024 3.536-2.312-2.617a.249.249 0 0 0-.373.329l3.167 3.585-3.792-.603a.249.249 0 0 0-.078.49l4.388.698 3.246 3.675c-2.229-.62-8.474-2.615-9.22-5.58a2.324 2.324 0 0 1-.071-.549c-.005-.93.552-1.896 1.665-2.878C8.332 3.98 9.543 3.59 10.598 4c2.854 1.106 4.056 7.553 4.397 9.84l-4.121-4.665a.185.185 0 0 0 0-.035l-.022-4.068Zm3.255 2.933 1.974-3.522a.25.25 0 1 0-.435-.243l-1.73 3.084-.712-3.42a.25.25 0 0 0-.488.102l.372 1.782c-.62-1.057-1.38-1.892-2.305-2.247a2.889 2.889 0 0 0-.174-.06c.516-.367 1.21-.642 2.083-.825 1.74-.362 2.986-.102 3.7.775.559.686.775 1.692.783 2.827.016 2.574-1.05 5.811-1.682 7.501-.18-1.228-.596-3.59-1.388-5.754h.002Zm2.232 7.794 1.476 1.483-1.362 1.354c-.575-1.148-.654-2.232-.116-2.837h.002Zm1.52 4.756a7.774 7.774 0 0 1-1.24-1.61l1.431-1.422 1.464 1.472L17.9 20.6l-.041-.046Zm.287.274 1.605-1.602 1.464 1.472-1.33 1.325a7.285 7.285 0 0 1-1.74-1.195Zm3.386 1.622a3.65 3.65 0 0 1-1.317-.282l1.235-1.231 1.156 1.162c-.265.233-.627.352-1.076.351h.002Zm4.28-8.163a2.052 2.052 0 0 1-2.711-1.07l-.144-.332-.26.253a2.958 2.958 0 1 1 .84-2.648l.067.356.31-.19a2.054 2.054 0 1 1 1.897 3.63h.002Z"/>
</svg>
