<svg xmlns="http://www.w3.org/2000/svg" fill="none" viewBox="0 0 32 32">
  <path fill="#001823" d="M11.336 17.307c0 1.082-.117 1.95-.958 2.729-.751.694-1.67.938-2.592 1.015-.8.07-1.85-.049-2.524-.52-.933-.66-1.11-1.64-1.11-2.89v-6.88l2.73.223v6.24c0 .334-.014.788.163 1.088.206.31.614.422.958.405.305-.014.688-.13.918-.367.344-.335.305-.837.305-1.287v-5.887l2.106.17v5.96h.004Zm3.357 2.99-2.528.206v-6.229l2.528.077v5.946Zm0-6.62-2.528-.107v-2.15l2.528.206v2.052Zm5.039 6.251-2.553.209v-6.31l-1.837-.076v-2.073l6.19.51v1.825l-1.8-.077v5.992Z"/>
  <path fill="#001823" d="M2 8h27v16H2l21.6-2.666V10.666L2 8Z"/>
</svg>
