<svg xmlns="http://www.w3.org/2000/svg" width="24" height="24" viewBox="0 0 24 24">
    <path fill="#23333A" fill-rule="evenodd" d="M22.5 9a1.125 1.125 0 0 1-1.125 1.125h-4.5a1.125 1.125 0 0 1 0-2.25h2.273A8.252 8.252 0 0 0 3.75 12 8.25 8.25 0 0 0 12 20.25a8.252 8.252 0 0 0 8.136-6.876 1.125 1.125 0 1 1 2.22.372A10.502 10.502 0 0 1 12 22.5C6.201 22.5 1.5 17.799 1.5 12S6.201 1.5 12 1.5c3.296 0 6.304 1.533 8.251 4.003L20.25 4.5a1.125 1.125 0 0 1 2.25 0zM12 5.626c.621 0 1.125.504 1.125 1.125v4.784l2.295 2.296a1.124 1.124 0 1 1-1.59 1.59l-2.624-2.623a1.124 1.124 0 0 1-.246-.37l-.005-.016a1.116 1.116 0 0 1-.08-.41V6.75c0-.622.504-1.126 1.125-1.126z"/>
</svg>
