<svg xmlns="http://www.w3.org/2000/svg" width="32" height="32" viewBox="0 0 32 32">
        <path fill="#000" d="M29.25 18v-.25a5.882 5.882 0 0 0-5.875-5.875 1.5 1.5 0 1 0 0 3 2.879 2.879 0 0 1 2.875 2.875V18a2.879 2.879 0 0 1-2.875 2.875h-6.25A2.879 2.879 0 0 1 14.25 18v-.25c0-.952.476-1.843 1.274-2.383a1.5 1.5 0 1 0-1.682-2.484 5.876 5.876 0 0 0-2.592 4.867V18a5.882 5.882 0 0 0 5.875 5.875h6.25A5.882 5.882 0 0 0 29.25 18M8.875 20A5.882 5.882 0 0 1 3 14.125v-.25A5.882 5.882 0 0 1 8.875 8h6.25A5.882 5.882 0 0 1 21 13.875v.25a5.848 5.848 0 0 1-2.257 4.623 1.5 1.5 0 0 1-1.852-2.36A2.865 2.865 0 0 0 18 14.125v-.25A2.879 2.879 0 0 0 15.125 11h-6.25A2.879 2.879 0 0 0 6 13.875v.25A2.879 2.879 0 0 0 8.875 17a1.5 1.5 0 1 1 0 3"/>
</svg>
