<svg xmlns="http://www.w3.org/2000/svg" width="32" height="32" viewBox="0 0 32 32">
    <path fill="#000" fill-rule="evenodd" d="M26.386 27.181a1.501 1.501 0 0 0 .841-1.948c-1.813-4.568-6.154-7.519-11.06-7.519-4.907 0-9.248 2.951-11.06 7.519a1.5 1.5 0 0 0 2.787 1.107 8.859 8.859 0 0 1 8.272-5.626 8.86 8.86 0 0 1 8.273 5.626 1.5 1.5 0 0 0 1.947.841M16.166 8a2.503 2.503 0 0 0-2.5 2.5c0 1.379 1.122 2.5 2.5 2.5 1.38 0 2.5-1.121 2.5-2.5s-1.12-2.5-2.5-2.5m0 8a5.506 5.506 0 0 1-5.5-5.5c0-3.032 2.468-5.5 5.5-5.5 3.033 0 5.5 2.468 5.5 5.5 0 3.033-2.467 5.5-5.5 5.5"/>
</svg>
