<svg xmlns="http://www.w3.org/2000/svg" width="24" height="24" viewBox="0 0 24 24">
    <path fill="#23333A" fill-rule="evenodd" d="M18 11c2.087 0 3.817 1.153 5.143 3.364a.75.75 0 1 1-1.286.772C20.783 13.346 19.513 12.5 18 12.5c-1.36 0-2.525.684-3.526 2.123 1.016.554 1.91 1.474 2.67 2.741a.75.75 0 1 1-1.287.772C14.783 16.346 13.513 15.5 12 15.5c-1.513 0-2.783.847-3.857 2.636a.75.75 0 0 1-1.286-.772c.76-1.267 1.653-2.187 2.67-2.74C8.524 13.183 7.36 12.5 6 12.5c-1.513 0-2.783.847-3.857 2.636a.75.75 0 0 1-1.286-.772C2.183 12.154 3.913 11 6 11c2.002 0 3.675 1.061 4.979 3.099a5.304 5.304 0 0 1 2.043-.002C14.325 12.061 15.999 11 18 11zm-6-3.75a3 3 0 1 1 0 6 3 3 0 0 1 0-6zm0 1.5a1.5 1.5 0 1 0 0 3 1.5 1.5 0 0 0 0-3zm-6-4.5a3 3 0 1 1 0 6 3 3 0 0 1 0-6zm12 0a3 3 0 1 1 0 6 3 3 0 0 1 0-6zM6 5.75a1.5 1.5 0 1 0 0 3 1.5 1.5 0 0 0 0-3zm12 0a1.5 1.5 0 1 0 0 3 1.5 1.5 0 0 0 0-3z"/>
</svg>
