<svg width="32" height="32" viewBox="0 0 32 32" fill="none" xmlns="http://www.w3.org/2000/svg">
<path d="M8.21348 6C6.99101 6 6 6.99492 6 8.22222C6 9.44952 6.99101 10.4444 8.21348 10.4444H8.23097C9.45344 10.4444 10.4444 9.44952 10.4444 8.22222C10.4444 6.99492 9.45344 6 8.23097 6H8.21348Z" fill="#001823"/>
<path d="M8.21348 13.7778C6.99101 13.7778 6 14.7727 6 16C6 17.2273 6.99101 18.2222 8.21348 18.2222H8.23097C9.45344 18.2222 10.4444 17.2273 10.4444 16C10.4444 14.7727 9.45344 13.7778 8.23097 13.7778H8.21348Z" fill="#001823"/>
<path d="M8.21348 21.5556C6.99101 21.5556 6 22.5505 6 23.7778C6 25.0051 6.99101 26 8.21348 26H8.23097C9.45344 26 10.4444 25.0051 10.4444 23.7778C10.4444 22.5505 9.45344 21.5556 8.23097 21.5556H8.21348Z" fill="#001823"/>
<path d="M15.9913 6C14.7688 6 13.7778 6.99492 13.7778 8.22222C13.7778 9.44952 14.7688 10.4444 15.9913 10.4444H16.0087C17.2312 10.4444 18.2222 9.44952 18.2222 8.22222C18.2222 6.99492 17.2312 6 16.0087 6H15.9913Z" fill="#001823"/>
<path d="M15.9913 13.7778C14.7688 13.7778 13.7778 14.7727 13.7778 16C13.7778 17.2273 14.7688 18.2222 15.9913 18.2222H16.0087C17.2312 18.2222 18.2222 17.2273 18.2222 16C18.2222 14.7727 17.2312 13.7778 16.0087 13.7778H15.9913Z" fill="#001823"/>
<path d="M15.9913 21.5556C14.7688 21.5556 13.7778 22.5505 13.7778 23.7778C13.7778 25.0051 14.7688 26 15.9913 26H16.0087C17.2312 26 18.2222 25.0051 18.2222 23.7778C18.2222 22.5505 17.2312 21.5556 16.0087 21.5556H15.9913Z" fill="#001823"/>
<path d="M23.769 6C22.5466 6 21.5556 6.99492 21.5556 8.22222C21.5556 9.44952 22.5466 10.4444 23.769 10.4444H23.7865C25.009 10.4444 26 9.44952 26 8.22222C26 6.99492 25.009 6 23.7865 6H23.769Z" fill="#001823"/>
<path d="M23.769 13.7778C22.5466 13.7778 21.5556 14.7727 21.5556 16C21.5556 17.2273 22.5466 18.2222 23.769 18.2222H23.7865C25.009 18.2222 26 17.2273 26 16C26 14.7727 25.009 13.7778 23.7865 13.7778H23.769Z" fill="#001823"/>
<path d="M23.769 21.5556C22.5466 21.5556 21.5556 22.5505 21.5556 23.7778C21.5556 25.0051 22.5466 26 23.769 26H23.7865C25.009 26 26 25.0051 26 23.7778C26 22.5505 25.009 21.5556 23.7865 21.5556H23.769Z" fill="#001823"/>
</svg>
