<svg width="32" height="32" viewBox="0 0 32 32" fill="none" xmlns="http://www.w3.org/2000/svg">
<path d="M6.5 7C5.67157 7 5 7.67157 5 8.5C5 9.32843 5.67157 10 6.5 10H6.51185C7.34028 10 8.01185 9.32843 8.01185 8.5C8.01185 7.67157 7.34028 7 6.51185 7H6.5Z" fill="#001823"/>
<path d="M11.5609 7C10.7324 7 10.0609 7.67157 10.0609 8.5C10.0609 9.32843 10.7324 10 11.5609 10H26.4707C27.2991 10 27.9707 9.32843 27.9707 8.5C27.9707 7.67157 27.2991 7 26.4707 7H11.5609Z" fill="#001823"/>
<path d="M11.5609 14C10.7325 14 10.0609 14.6716 10.0609 15.5C10.0609 16.3284 10.7325 17 11.5609 17H26.4707C27.2991 17 27.9707 16.3284 27.9707 15.5C27.9707 14.6716 27.2991 14 26.4707 14H11.5609Z" fill="#001823"/>
<path d="M10.0609 22.5C10.0609 21.6716 10.7325 21 11.5609 21H26.4707C27.2991 21 27.9707 21.6716 27.9707 22.5C27.9707 23.3284 27.2991 24 26.4707 24H11.5609C10.7325 24 10.0609 23.3284 10.0609 22.5Z" fill="#001823"/>
<path d="M5 15.5C5 14.6716 5.67157 14 6.5 14H6.51185C7.34028 14 8.01185 14.6716 8.01185 15.5C8.01185 16.3284 7.34028 17 6.51185 17H6.5C5.67157 17 5 16.3284 5 15.5Z" fill="#001823"/>
<path d="M6.5 21C5.67157 21 5 21.6716 5 22.5C5 23.3284 5.67157 24 6.5 24H6.51185C7.34028 24 8.01185 23.3284 8.01185 22.5C8.01185 21.6716 7.34028 21 6.51185 21H6.5Z" fill="#001823"/>
</svg>
