<svg xmlns="http://www.w3.org/2000/svg" width="32" height="32" viewBox="0 0 32 32">
    <path fill="#000" fill-rule="nonzero" d="M24.405 8.788c-.465-.496-1.138-.76-2-.785-2.434-.077-4.155 1.204-5.116 3.808a.384.384 0 0 0 .08.396c.1.107.25.15.39.111.277-.075.55-.113.815-.113.354 0 .826.064 1.061.372.18.236.205.59.073 1.051-.111.39-.684 1.433-1.394 2.536-.864 1.345-1.342 1.948-1.48 1.948-.455 0-2.103-7.232-2.149-7.39-.472-1.658-.71-2.49-2.247-2.49-1.172 0-3.785 2.117-5.93 3.961-.132.114-.243.21-.33.282a.5.5 0 0 0-.07.694l.4.51c.168.215.475.26.699.102l.022-.016c.694-.488 1.35-.95 1.845-.975.538-.026 1.005.805 1.561 2.784 1.06 3.844 2.67 8.426 4.322 8.426 1.727 0 3.787-1.449 6.45-4.878 2.41-3.104 3.701-5.566 3.784-7.357.062-1.353-.202-2.354-.786-2.977z"/>
</svg>
