<svg width="33" height="32" viewBox="0 0 33 32" fill="none" xmlns="http://www.w3.org/2000/svg">
<g id="Type=Covid">
<path id="Vector" d="M11.2702 12.6C10.8302 12.6 10.4702 12.96 10.4702 13.4C10.4702 13.84 10.8302 14.2 11.2702 14.2C11.7102 14.2 12.0702 13.8418 12.0702 13.4C12.0702 12.9582 11.7102 12.6 11.2702 12.6ZM8.87019 10.6C8.20719 10.6 7.67019 11.1375 7.67019 11.8C7.67019 12.4625 8.20519 13 8.87019 13C9.53519 13 10.0702 12.465 10.0702 11.8C10.0702 11.135 9.53519 10.6 8.87019 10.6ZM31.2702 20.6H30.6642C29.2387 20.6 28.5247 18.8765 29.5327 17.8685L29.9615 17.4397C30.274 17.1272 30.274 16.6212 29.9615 16.3087C29.8052 16.1525 29.6005 16.0742 29.396 16.0742C29.1914 16.0742 28.9866 16.1522 28.8305 16.3085L28.4017 16.7374C28.0758 17.0633 27.6752 17.2092 27.2822 17.2092C26.4602 17.21 25.6702 16.57 25.6702 15.605V15C25.6702 14.56 25.3102 14.2 24.8702 14.2C24.4302 14.2 24.0702 14.56 24.0702 15V15.606C24.0702 16.5705 23.2812 17.209 22.4587 17.209C22.0655 17.209 21.6647 17.0632 21.3387 16.7372L20.9099 16.3084C20.7536 16.1522 20.5489 16.074 20.3444 16.074C20.1398 16.074 19.9352 16.1519 19.7789 16.3082C19.4664 16.6207 19.4662 17.1272 19.7787 17.4397L20.2075 17.8685C21.2152 18.875 20.5002 20.6 19.0752 20.6H18.4702C18.028 20.6 17.6702 20.9578 17.6702 21.4C17.6702 21.8422 18.028 22.2 18.4702 22.2H19.0762C20.5017 22.2 21.2157 23.9235 20.2077 24.9315L19.7789 25.3603C19.4664 25.6728 19.4662 26.1788 19.7787 26.4913C19.935 26.6476 20.1398 26.7259 20.3447 26.7259C20.5496 26.7259 20.7541 26.6478 20.9102 26.4915L21.339 26.0627C21.6649 25.7367 22.0655 25.5908 22.459 25.5908C23.2802 25.59 24.0702 26.23 24.0702 27.195V27.8C24.0702 28.2422 24.428 28.6 24.8702 28.6C25.3124 28.6 25.6702 28.2422 25.6702 27.8V27.194C25.6702 26.2295 26.4592 25.591 27.2817 25.591C27.6748 25.591 28.0757 25.7368 28.4012 26.0628L28.83 26.4916C28.9862 26.6479 29.1909 26.726 29.3955 26.726C29.6 26.726 29.8047 26.6481 29.961 26.4918C30.2735 26.1793 30.2736 25.6728 29.9611 25.3603L29.5323 24.9315C28.5252 23.925 29.2402 22.2 30.6652 22.2H31.2702C31.7124 22.2 32.0702 21.8422 32.0702 21.4C32.0702 20.9578 31.7102 20.6 31.2702 20.6ZM23.2702 22.6C22.6077 22.6 22.0702 22.0625 22.0702 21.4C22.0702 20.737 22.6077 20.2 23.2702 20.2C23.9327 20.2 24.4702 20.737 24.4702 21.4C24.4702 22.065 23.9352 22.6 23.2702 22.6ZM17.3952 13.665H18.2032C18.7952 13.665 19.2702 13.19 19.2702 12.6C19.2702 12.01 18.7931 11.5335 18.2037 11.5335H17.3957C15.4952 11.5335 14.5432 9.2355 15.8872 7.8915L16.4592 7.3195C16.8758 6.9028 16.8757 6.228 16.4591 5.811C16.2507 5.6027 15.9779 5.49865 15.7051 5.49865C15.4323 5.49865 15.1591 5.6028 14.9511 5.8111L14.3802 6.383C13.9452 6.8175 13.4102 7.0125 12.8852 7.0125C11.7882 7.0125 10.7367 6.161 10.7367 4.875V4.0665C10.7352 3.477 10.2602 3 9.67019 3C9.08019 3 8.60519 3.477 8.60519 4.0665V4.8745C8.60519 6.1605 7.55319 7.012 6.45669 7.012C5.93269 7.012 5.39819 6.81755 4.96369 6.383L4.39019 5.8115C4.18179 5.6032 3.90894 5.49905 3.63619 5.49905C3.36344 5.49905 3.09069 5.6031 2.88219 5.8114C2.46559 6.2281 2.46554 6.9029 2.88213 7.3199L3.45319 7.8915C4.79719 9.2355 3.84529 11.5335 1.94469 11.5335H1.13669C0.54724 11.535 0.0701904 12.01 0.0701904 12.6C0.0701904 13.19 0.54724 13.6665 1.13669 13.6665H1.94469C3.84519 13.6665 4.79719 15.9645 3.45319 17.3085L2.88169 17.88C2.46509 18.2967 2.46529 18.9715 2.88191 19.3885C3.09031 19.5968 3.36296 19.7009 3.63591 19.7009C3.90886 19.7009 4.18191 19.5967 4.38991 19.3884L4.96169 18.815C5.39624 18.3804 5.93069 18.186 6.45469 18.186C7.55169 18.186 8.60319 19.0375 8.60319 20.3235V21.1315C8.60519 21.725 9.08019 22.2 9.67019 22.2C10.2602 22.2 10.7367 21.7229 10.7367 21.1335V20.3255C10.7367 19.0395 11.7887 18.188 12.8852 18.188C13.4092 18.188 13.9437 18.3825 14.3782 18.817L14.9497 19.3885C15.1581 19.5968 15.4309 19.701 15.7037 19.701C15.9764 19.701 16.2492 19.5969 16.4577 19.3886C16.8743 18.9719 16.8743 18.2971 16.4578 17.8801L15.8852 17.31C14.5452 15.965 15.4952 13.665 17.3952 13.665ZM13.2052 14.065C12.9752 14.625 12.8602 15.21 12.8602 15.79C11.6152 15.795 10.4902 16.3 9.67019 17.12C8.85019 16.3 7.72519 15.795 6.48019 15.79C6.48019 15.21 6.36519 14.625 6.13519 14.065C5.90019 13.505 5.52519 13.01 5.16019 12.6C5.56899 12.1885 5.90219 11.6945 6.13419 11.135C6.36519 10.575 6.48019 9.99 6.48019 9.41C7.72519 9.405 8.85019 8.855 9.67019 8.08C10.4882 8.8965 11.6157 9.404 12.8597 9.411C12.8602 9.99 12.9752 10.575 13.2052 11.135C13.4402 11.695 13.7702 12.19 14.1802 12.6C13.7702 13.01 13.4402 13.505 13.2052 14.065Z" fill="#001823"/>
</g>
</svg>
