<svg width="33" height="32" viewBox="0 0 33 32" fill="none" xmlns="http://www.w3.org/2000/svg">
<g id="Type=Whatsapp">
<path id="Fill 1" fill-rule="evenodd" clip-rule="evenodd" d="M20.433 16.3767C20.1669 16.2802 19.9733 16.232 19.7796 16.5213C19.5861 16.8107 19.0295 17.4617 18.86 17.6547C18.6906 17.8475 18.5212 17.8716 18.2308 17.727C17.9404 17.5823 17.0046 17.2771 15.8954 16.2925C15.0321 15.5262 14.4492 14.5797 14.2798 14.2902C14.1104 14.0009 14.2618 13.8445 14.4072 13.7003C14.5378 13.5709 14.6976 13.3629 14.8428 13.194C14.988 13.0254 15.0364 12.9047 15.1332 12.7119C15.23 12.5189 15.1816 12.35 15.1089 12.2056C15.0364 12.0608 14.4555 10.6382 14.2136 10.0595C13.9779 9.49595 13.7384 9.57214 13.5602 9.56341C13.391 9.55494 13.1971 9.55322 13.0035 9.55322C12.81 9.55322 12.4952 9.62557 12.2291 9.91483C11.963 10.2042 11.2128 10.9035 11.2128 12.3261C11.2128 13.7487 12.2533 15.1229 12.3985 15.3157C12.5437 15.5087 14.4464 18.428 17.3596 19.6799C18.0525 19.9777 18.5935 20.1556 19.0153 20.2888C19.7109 20.5087 20.344 20.4777 20.8443 20.4033C21.4023 20.3203 22.5626 19.7041 22.8046 19.0289C23.0466 18.3538 23.0466 17.7751 22.974 17.6547C22.9015 17.5342 22.7079 17.4618 22.4175 17.317C22.1269 17.1723 20.6991 16.4732 20.433 16.3767ZM17.1193 24.215H17.1156C15.4366 24.2143 13.7899 23.7655 12.3533 22.917L12.0115 22.7151L8.47031 23.6397L9.41558 20.2036L9.1931 19.8513C8.25644 18.3687 7.7618 16.6551 7.76257 14.8956C7.76463 9.76152 11.9619 5.58447 17.123 5.58447C19.622 5.5855 21.9713 6.55536 23.7379 8.31537C25.5044 10.0754 26.4768 12.415 26.4758 14.9032C26.4739 20.0377 22.2764 24.215 17.1193 24.215ZM25.5734 6.48784C23.3172 4.2399 20.3171 3.00136 17.1202 3C10.5337 3 5.17305 8.33477 5.17031 14.8919C5.16949 16.9879 5.7197 19.0338 6.76547 20.8372L5.07019 27L11.4049 25.3462C13.1503 26.2936 15.1155 26.7929 17.1154 26.7937H17.1203C17.1199 26.7937 17.1207 26.7937 17.1203 26.7937C23.7062 26.7937 29.0675 21.4585 29.0702 14.9013C29.0713 11.7237 27.8296 8.73565 25.5734 6.48784Z" fill="#001823"/>
<mask id="mask0_2_2234" style="mask-type:luminance" maskUnits="userSpaceOnUse" x="5" y="3" width="25" height="24">
<path id="Fill 1_2" fill-rule="evenodd" clip-rule="evenodd" d="M20.433 16.3767C20.1669 16.2802 19.9733 16.232 19.7796 16.5213C19.5861 16.8107 19.0295 17.4617 18.86 17.6547C18.6906 17.8475 18.5212 17.8716 18.2308 17.727C17.9404 17.5823 17.0046 17.2771 15.8954 16.2925C15.0321 15.5262 14.4492 14.5797 14.2798 14.2902C14.1104 14.0009 14.2618 13.8445 14.4072 13.7003C14.5378 13.5709 14.6976 13.3629 14.8428 13.194C14.988 13.0254 15.0364 12.9047 15.1332 12.7119C15.23 12.5189 15.1816 12.35 15.1089 12.2056C15.0364 12.0608 14.4555 10.6382 14.2136 10.0595C13.9779 9.49595 13.7384 9.57214 13.5602 9.56341C13.391 9.55494 13.1971 9.55322 13.0035 9.55322C12.81 9.55322 12.4952 9.62557 12.2291 9.91483C11.963 10.2042 11.2128 10.9035 11.2128 12.3261C11.2128 13.7487 12.2533 15.1229 12.3985 15.3157C12.5437 15.5087 14.4464 18.428 17.3596 19.6799C18.0525 19.9777 18.5935 20.1556 19.0153 20.2888C19.7109 20.5087 20.344 20.4777 20.8443 20.4033C21.4023 20.3203 22.5626 19.7041 22.8046 19.0289C23.0466 18.3538 23.0466 17.7751 22.974 17.6547C22.9015 17.5342 22.7079 17.4618 22.4175 17.317C22.1269 17.1723 20.6991 16.4732 20.433 16.3767ZM17.1193 24.215H17.1156C15.4366 24.2143 13.7899 23.7655 12.3533 22.917L12.0115 22.7151L8.47031 23.6397L9.41558 20.2036L9.1931 19.8513C8.25644 18.3687 7.7618 16.6551 7.76257 14.8956C7.76463 9.76152 11.9619 5.58447 17.123 5.58447C19.622 5.5855 21.9713 6.55536 23.7379 8.31537C25.5044 10.0754 26.4768 12.415 26.4758 14.9032C26.4739 20.0377 22.2764 24.215 17.1193 24.215ZM25.5734 6.48784C23.3172 4.2399 20.3171 3.00136 17.1202 3C10.5337 3 5.17305 8.33477 5.17031 14.8919C5.16949 16.9879 5.7197 19.0338 6.76547 20.8372L5.07019 27L11.4049 25.3462C13.1503 26.2936 15.1155 26.7929 17.1154 26.7937H17.1203C17.1199 26.7937 17.1207 26.7937 17.1203 26.7937C23.7062 26.7937 29.0675 21.4585 29.0702 14.9013C29.0713 11.7237 27.8296 8.73565 25.5734 6.48784Z" fill="white"/>
</mask>
<g mask="url(#mask0_2_2234)">
</g>
</g>
</svg>
