<svg xmlns="http://www.w3.org/2000/svg" width="24" height="24" viewBox="0 0 24 24">
    <path fill="#23333A" fill-rule="evenodd" d="M4.733 10.12v1.802a4.253 4.253 0 0 0-2.54 3.886 4.254 4.254 0 0 0 4.251 4.248 4.255 4.255 0 0 0 4.082-3.075c.154 0 .303-.002.44-.003l.198-.002.671 1.318a5.948 5.948 0 0 1-5.391 3.455A5.95 5.95 0 0 1 .5 15.808c0-2.681 1.787-4.951 4.233-5.688zM7.555 6.9c1.173 0 1.693.991 1.693 1.692v2.55h2.838c.468 0 .847.379.847.846a.826.826 0 0 1-.171.485.832.832 0 0 1-.676.362H9.248v.751h3.298c.425 0 .813.239 1.006.617l2.575 5.06a1.127 1.127 0 0 1-1.005 1.64c-.412 0-.808-.225-1.007-.617l-2.261-4.443H7.589a1.727 1.727 0 0 1-1.727-1.727V8.591c0-.934.758-1.692 1.693-1.692zm0-4.649a1.922 1.922 0 1 1 0 3.845 1.922 1.922 0 0 1 0-3.845z"/>
</svg>
