<svg width="33" height="32" viewBox="0 0 33 32" fill="none" xmlns="http://www.w3.org/2000/svg">
<path fill-rule="evenodd" clip-rule="evenodd" d="M29.3756 1.2806C29.7729 0.896986 30.406 0.908092 30.7896 1.30541C31.1732 1.70272 31.1621 2.33579 30.7648 2.7194L18.1962 14.8546H19.2387H21.5187C22.1427 14.8546 22.6476 15.3599 22.6476 15.9829C22.6476 16.229 22.5527 16.4442 22.4194 16.6295C22.2142 16.9139 21.8966 17.1113 21.5187 17.1113H17.7343V18.1136H22.1315C22.6981 18.1136 23.2161 18.4313 23.4724 18.9362L26.9056 25.683C27.2835 26.4235 26.9888 27.3298 26.2468 27.706C26.0289 27.8175 25.7957 27.87 25.5657 27.87C25.0171 27.87 24.4884 27.5689 24.2235 27.0471L21.2087 21.1223H19.6605H15.5228C14.5047 21.1223 13.641 20.462 13.3367 19.5465L8.99359 23.7399C9.94858 25.5247 11.8322 26.7417 13.9955 26.7417C16.5768 26.7417 18.757 25.0057 19.4381 22.6418L20.2889 22.6346L21.1837 24.392C19.9251 27.1065 17.1801 28.9984 13.9955 28.9984C11.199 28.9984 8.73624 27.5432 7.3252 25.3507L1.76479 30.7194C1.36747 31.103 0.734405 31.0919 0.35079 30.6946C-0.0328239 30.2973 -0.0217175 29.6642 0.375597 29.2806L6.42897 23.436C6.19586 22.6906 6.07019 21.8982 6.07019 21.0771C6.07019 17.5021 8.45318 14.4759 11.7146 13.494V15.8954C9.72307 16.7748 8.32756 18.7649 8.32756 21.0771C8.32756 21.247 8.33508 21.4152 8.34981 21.5814L13.2197 16.8794V11.4552C13.2197 10.209 14.2305 9.19849 15.4774 9.19849C17.0407 9.19849 17.7343 10.5202 17.7343 11.4552V12.5205L29.3756 1.2806ZM18.0406 5.56203C18.0406 6.97695 16.8917 8.124 15.4776 8.124C14.0619 8.124 12.9139 6.97695 12.9139 5.56203C12.9139 4.14668 14.0619 3 15.4776 3C16.8917 3 18.0406 4.14668 18.0406 5.56203Z" fill="#001823"/>
</svg>
