<svg width="33" height="32" viewBox="0 0 33 32" fill="none" xmlns="http://www.w3.org/2000/svg">
<g id="Type=Work">
<path id="Work" d="M25.4702 8.8H22.2702V7.2C22.2702 5.4325 20.8377 4 19.0702 4H12.6702C10.9052 4 9.47019 5.4325 9.47019 7.2V8.8H6.27019C4.50269 8.8 3.07019 10.235 3.07019 12V24.8C3.07019 26.5675 4.50269 28 6.27019 28H25.4702C27.2377 28 28.6702 26.5675 28.6702 24.8V12C28.6702 10.235 27.2352 8.8 25.4702 8.8ZM12.6702 6.4H19.0702C19.512 6.4 19.8702 6.75815 19.8702 7.2V8.8H11.8702V7.2C11.8702 6.758 12.2302 6.4 12.6702 6.4ZM6.27019 11.2H25.4702C25.9102 11.2 26.2702 11.56 26.2702 12V16.8H5.47019V12C5.47019 11.56 5.83019 11.2 6.27019 11.2ZM25.4702 25.6H6.27019C5.83019 25.6 5.47019 25.24 5.47019 24.8V19.2H12.6702V20C12.6702 20.8835 13.3867 21.6 14.2702 21.6H17.4702C18.3537 21.6 19.0702 20.8835 19.0702 20V19.2H26.2702V24.8C26.2702 25.24 25.9102 25.6 25.4702 25.6Z" fill="#001823"/>
</g>
</svg>
