<svg xmlns="http://www.w3.org/2000/svg" width="32" height="32" viewBox="0 0 32 32">
    <path fill="#000" fill-rule="evenodd" d="M16.003 25c-.213-.002-4.908-.053-6.638-.217l-.095-.014c-.06-.011-.135-.02-.22-.03a4.182 4.182 0 0 1-2.697-1.182c-.832-.835-1.088-2.381-1.13-2.681A33.128 33.128 0 0 1 5 17.3v-1.607c.01-1.188.083-2.376.22-3.556.045-.32.301-1.866 1.146-2.714a3.939 3.939 0 0 1 2.648-1.19l.16-.017C12.16 8.003 15.84 8 15.998 8c.164 0 3.843.003 6.828.217l.164.016a3.959 3.959 0 0 1 2.661 1.205c.829.834 1.085 2.38 1.127 2.68l.003.02c.138 1.18.212 2.367.22 3.556V17.3a32.592 32.592 0 0 1-.22 3.557c-.045.32-.301 1.866-1.143 2.713a3.943 3.943 0 0 1-2.648 1.191l-.164.017c-2.981.213-6.668.222-6.822.222zm-6.396-2.31c1.675.153 6.357.203 6.406.204.023 0 3.742-.01 6.645-.218l.125-.013a1.89 1.89 0 0 0 1.333-.561c.266-.267.495-1.055.564-1.525.126-1.088.194-2.182.203-3.278v-1.606a31.525 31.525 0 0 0-.203-3.288c-.072-.471-.301-1.25-.55-1.5a1.903 1.903 0 0 0-1.347-.576l-.125-.013c-2.903-.208-6.615-.21-6.651-.21-.05 0-3.762.002-6.665.21l-.125.013a1.89 1.89 0 0 0-1.333.562c-.266.267-.499 1.067-.564 1.522a30.972 30.972 0 0 0-.203 3.28v1.606c.009 1.103.078 2.204.206 3.298.066.45.295 1.238.547 1.492.393.354.903.553 1.432.559.115.014.217.027.305.041zm3.516-2.741v-7.357l7.11 3.69-7.11 3.667z"/>
</svg>
