<svg xmlns="http://www.w3.org/2000/svg" width="250" height="250" viewBox="0 0 250 250">
    <g fill="none" fill-rule="evenodd">
        <path fill="#FFF" d="M102.652 63.008c14.863 3.715 23.354 10.964 25.857 25.167 3.851 21.832-10.94 40.833-39.557 45.879-4.876.86-9.191 1.183-13.406.834-2.242 2.144-3.453 5.195-2.928 8.165.672 3.816 3.214 7.083 14.236 5.14l17.173-3.027c25.435-4.487 44.15 6.2 47.44 24.856 3.999 22.682-13.286 39.937-50.807 46.553-41.123 7.25-54.712-4.121-58.674-26.592l26.92-4.747c1.866 10.597 7.359 14.44 28.768 10.664 20.773-3.663 25.275-10.358 23.854-18.413-1.344-7.633-7.892-11.285-19.762-9.192l-16.538 2.916c-23.528 4.15-35.073-4.305-37.167-16.177-1.418-8.057 2.287-16.796 9.444-23.303-15.338-5.166-23.027-14.084-25.57-28.497-4.373-24.8 12.54-44.175 40.733-49.146 25.97-3.926 37.956-12.813 50.178-22.838l11.493 21.798c-7.706 4.637-18.12 7.567-31.687 9.96zm-40.69 34.494c2.28 12.933 10.835 19.292 22.28 17.274 12.08-2.13 17.168-10.459 14.74-24.236-2.356-13.355-9.623-18.632-22.127-16.426-11.45 2.018-17.061 11.095-14.892 23.388z"/>
        <path fill="#FFF" d="M211.182 135.799c5.116 3.583 8.21 8.41 9.28 14.483 1.1 6.238-.14 11.914-3.724 17.03-3.582 5.117-8.41 8.211-14.483 9.282-6.237 1.1-11.914-.142-17.03-3.724-5.117-3.583-8.225-8.493-9.325-14.73-1.07-6.073.185-11.668 3.768-16.784 3.583-5.117 8.492-8.225 14.73-9.325 6.073-1.07 11.667.185 16.784 3.768zm-15.02-85.186c5.116 3.583 8.21 8.41 9.28 14.484 1.1 6.237-.141 11.913-3.724 17.03-3.583 5.116-8.41 8.21-14.483 9.281-6.238 1.1-11.914-.142-17.03-3.724-5.117-3.583-8.226-8.493-9.325-14.73-1.071-6.073.185-11.668 3.767-16.784 3.583-5.117 8.493-8.225 14.73-9.325 6.073-1.07 11.668.185 16.784 3.768z"/>
    </g>
</svg>