<?xml version="1.0" encoding="UTF-8"?>
<svg version="1.1" viewBox="0 0 1603.1 1034.1" xmlns="http://www.w3.org/2000/svg">
    <g fill="#000">
        <path d="m463.4 0a227.93 227.93 0 0 0-227.91 227.93h0.00977v113.18c-0.0017 0.25825-0.00977 0.51477-0.00977 0.77344v0.00976c0 0.25984 0.00805 0.51793 0.00977 0.77735v113.18 0.00977a227.93 227.93 0 0 0 227.91 227.92 227.93 227.93 0 0 0 0.00976 0h227.92v-227.92a227.93 227.93 0 0 0 0-0.01367h-227.91v-227.92h227.92v227.93 227.92c125.88 0 227.93-102 227.93-227.92v-227.93c0-125.88-102.05-227.93-227.93-227.93h-227.93a227.93 227.93 0 0 0-0.02344 0z"/>
        <path d="m1147.2 0c-125.89 0-227.93 102.05-227.93 227.93v227.92 0.00977c0 125.88 102 227.92 227.92 227.92h0.0117v0.00976h227.92v341.88c125.88 0 227.93-102 227.93-227.92v-341.89h-227.92-0.0097-227.92v-227.93h227.92v227.92h227.93v-227.93c-0.0052-125.88-102.06-227.92-227.93-227.92h-227.92z"/>
        <path class="cls-7"
              d="M160.12,809.85q34.69,25.89,34.7,94.94,0,68-33.82,95.65t-87.72,27.65H0V784H68Q125.41,784,160.12,809.85Zm-102.34,16v160.3h19q28.55,0,43.34-17.8t14.8-63.58q0-31.37-7.41-48.62t-20.07-23.78q-12.69-6.52-31.36-6.52Z"/>
        <path class="cls-7"
              d="M293.63,751.36q9.33,9,9.35,22.72t-9.35,22.73q-9.33,9-23.77,9t-23.61-9q-9.15-9-9.15-22.73t9.15-22.72q9.17-9,23.61-9T293.63,751.36ZM298,841v187.07H242.38V841Z"/>
        <path class="cls-7"
              d="m459.39 841a99.4 99.4 0 0 1 31 16.91l-20.39 31.38q-23-14.44-46.2-14.45-10.92 0-16.74 3.7a11.68 11.68 0 0 0-5.8 10.39 13.58 13.58 0 0 0 2.63 8.64q2.66 3.34 10.75 6.86t25 8.46q29.23 8.45 43.5 22t14.27 37.52q0 19-10.91 33t-30 21.3q-19 7.41-42.27 7.41a126.78 126.78 0 0 1-43.87-7.41q-20.25-7.38-34.34-20.43l27.18-30.28q23.61 18.33 49.68 18.32 12.69 0 19.91-4.58a14.6 14.6 0 0 0 7.22-13c0-4.46-0.94-8-2.82-10.56s-5.52-5-10.93-7.23-14-5-25.71-8.27q-27.82-8.19-41.55-22.68t-13.76-35.9a48.22 48.22 0 0 1 9.34-29.1q9.33-12.87 26.77-20.43t40.34-7.57a116.49 116.49 0 0 1 37.7 6z"/>
        <path class="cls-7"
              d="M657.37,1019.28a80.45,80.45,0,0,1-23.78,10.92,97.86,97.86,0,0,1-26.94,3.88q-61.32-.35-61.31-67.65V879.77H518.92V841h26.42V800.5L601,794.16V841h43l-6,38.75H601v86q0,13,4.22,18.66t13.39,5.65q9.52,0,20.08-6Z"/>
        <path class="cls-7"
              d="M810.26,838.2l-8.8,53.9a78.89,78.89,0,0,0-16.91-2.46q-16.57,0-25.2,11.44t-13.56,34.36v92.65H690.13V841h48.62l4.58,36.29q6.34-19.38,19.19-30.48t29.07-11.09A66.64,66.64,0,0,1,810.26,838.2Z"/>
        <path class="cls-7"
              d="m896.74 751.36q9.33 9 9.34 22.72t-9.34 22.73q-9.33 9-23.77 9t-23.62-9q-9.14-9-9.14-22.73t9.14-22.72q9.18-9 23.62-9t23.77 9zm4.4 89.66v187.07h-55.65v-187.09z"/>
        <path class="cls-7"
              d="m1074.8 840.67a96 96 0 0 1 29.25 17.26l-24 33.11q-17.61-13.37-35.59-13.38-18.66 0-28.17 13.74t-9.52 44.39q0 29.6 9.52 41.92t27.48 12.34a47.52 47.52 0 0 0 17.26-3 120.15 120.15 0 0 0 18.67-9.69l24.31 34.52q-27.86 22.19-63.06 22.2-28.54 0-49.33-12.15a82 82 0 0 1-32.05-34.18q-11.28-22-11.28-51.62t11.28-52.48a85.33 85.33 0 0 1 32.05-35.76q20.83-12.89 48.35-12.89 19.34 0 34.83 5.67z"/>
        <path class="cls-7"
              d="M1259.08,1019.28a80.51,80.51,0,0,1-23.79,10.92,97.76,97.76,0,0,1-26.94,3.88q-61.3-.35-61.3-67.65V879.77h-26.42V841h26.42V800.5l55.67-6.34V841h43l-6,38.75h-37v86q0,13,4.22,18.66t13.39,5.65q9.51,0,20.07-6Z"/>
    </g>
</svg>
