<svg xmlns="http://www.w3.org/2000/svg" width="193" height="78" viewBox="0 0 193 78">
    <g fill="none" fill-rule="evenodd">
        <path fill="#1D1D1B" d="M114.386 41.52c.475-.596.712-1.446.712-2.548 0-1.097-.237-1.945-.712-2.545-.474-.6-1.113-.9-1.92-.9-.806 0-1.45.299-1.93.896-.48.598-.72 1.447-.72 2.55 0 1.101.24 1.951.72 2.548s1.124.896 1.93.896c.807 0 1.446-.299 1.92-.896m1.273 1.487c-.736.761-1.8 1.142-3.193 1.142s-2.457-.38-3.193-1.142c-.986-.934-1.48-2.278-1.48-4.036 0-1.792.494-3.137 1.48-4.035.736-.761 1.8-1.141 3.193-1.141s2.457.38 3.193 1.14c.982.899 1.474 2.244 1.474 4.036 0 1.758-.492 3.102-1.474 4.036M119.617 35.116c.785-.805 1.783-1.208 2.995-1.208 1.623 0 2.808.54 3.558 1.62.414.606.637 1.214.667 1.825h-2.036c-.13-.47-.296-.823-.498-1.062-.364-.425-.9-.638-1.613-.638-.725 0-1.298.3-1.716.9-.42.6-.628 1.448-.628 2.546 0 1.097.22 1.918.662 2.465.442.546 1.003.82 1.685.82.698 0 1.23-.234 1.597-.704.202-.252.37-.63.504-1.135h2.023c-.175 1.067-.62 1.934-1.337 2.602-.718.668-1.636 1.003-2.757 1.003-1.387 0-2.476-.452-3.27-1.355-.793-.907-1.19-2.15-1.19-3.73 0-1.708.451-3.024 1.354-3.949M134.927 34.094h2.929v9.783h-1.897V37.26c0-.19.002-.457.007-.8.004-.342.006-.607.006-.793l-1.846 8.21h-1.98l-1.832-8.21c0 .186.002.45.006.793.005.343.007.61.007.8v6.617h-1.897v-9.783h2.962l1.774 7.693 1.76-7.693zM141.066 34.094l1.285 5.603.281 1.558.281-1.527 1.1-5.634h2.148l1.16 5.602.295 1.56.3-1.5 1.3-5.662h2.073l-2.741 9.783h-1.95l-1.177-5.721-.343-1.892-.344 1.892-1.177 5.721h-1.89l-2.763-9.783z"/>
        <path fill="#31A947" d="M162.834 37.147c-.154-.668-.531-1.135-1.131-1.4a2.773 2.773 0 0 0-1.117-.22c-.784 0-1.43.297-1.934.892-.505.594-.756 1.486-.756 2.679 0 1.201.273 2.051.819 2.55.547.5 1.167.75 1.865.75.682 0 1.242-.197 1.678-.592.436-.393.705-.908.807-1.546h-2.254v-1.633h4.058v5.25h-1.348l-.205-1.22c-.393.462-.744.788-1.058.977-.538.33-1.198.495-1.982.495-1.292 0-2.35-.448-3.173-1.347-.86-.901-1.29-2.135-1.29-3.7 0-1.583.434-2.852 1.303-3.808.868-.955 2.016-1.433 3.443-1.433 1.24 0 2.234.316 2.985.946.751.631 1.182 1.418 1.292 2.36h-2.002zM174.018 35.826h-5.156v2.077h4.733v1.7h-4.733v2.516h5.394v1.758h-7.384v-9.784h7.146zM175.81 34.094h2.134l3.868 6.82v-6.82h1.896v9.783h-2.035l-3.966-6.942v6.942h-1.898zM192.699 34.094v1.732h-2.916v8.051h-2.048v-8.05h-2.93v-1.733z"/>
        <path fill="#DDE6A1" d="M38.765 0c9.401 0 18.023 3.411 24.745 9.034 6.722 5.623 11.536 13.48 13.301 22.42-2.298-3.092-5.962-5.093-10.068-5.093-6.918 0-12.542 5.662-12.542 12.577 0 6.948 5.624 12.609 12.542 12.609 4.115 0 7.78-2.002 10.068-5.093-1.755 8.94-6.568 16.798-13.29 22.42-6.723 5.623-15.365 9.003-24.766 9.003-10.695 0-20.396-4.35-27.413-11.4A38.921 38.921 0 0 1 0 38.937C0 28.222 4.35 18.48 11.372 11.432 18.39 4.392 28.09 0 38.765 0"/>
        <path fill="#31A947" d="M89.58 26.24c6.906.005 12.572 5.655 12.572 12.57 0 6.948-5.655 12.601-12.562 12.601-6.908.008-12.542-5.653-12.542-12.6 0-6.916 5.624-12.574 12.531-12.57"/>
    </g>
</svg>
