<svg xmlns="http://www.w3.org/2000/svg" width="193" height="91" viewBox="0 0 193 91">
    <path fill="#23333A" fill-rule="evenodd" d="M5.01 87.67c.878 0 1.378.473 1.378 1.342v.645c0 .87-.5 1.343-1.378 1.343-.312 0-.733-.03-.865-.053-.075-.013-.114-.047-.114-.135v-2.954c0-.088.04-.123.114-.136.132-.022.553-.052.865-.052zm15.133 0c.878 0 1.379.473 1.379 1.342v.645c0 .87-.501 1.343-1.379 1.343a7.35 7.35 0 0 1-.865-.053c-.074-.013-.114-.047-.114-.135v-2.954c0-.088.04-.123.114-.136a7.5 7.5 0 0 1 .865-.052zm3.16 0c.522 0 .694.039.834.06.066.01.088.031.088.093v.28c0 .05-.04.088-.088.088h-.895c-.255 0-.347.088-.347.378v.474h1.19c.048 0 .087.04.087.088v.316c0 .048-.04.087-.087.087h-1.19v.567c0 .29.092.377.347.377h.895c.049 0 .088.04.088.088v.28c0 .062-.022.084-.088.093-.14.022-.312.061-.834.061-.57 0-1.014-.154-1.014-.9V88.57c0-.746.443-.9 1.014-.9zm12.615 0c.724 0 1.251.403 1.251 1.369v.592c0 .965-.527 1.369-1.251 1.369-.724 0-1.251-.404-1.251-1.37v-.591c0-.966.527-1.37 1.25-1.37zm14.4 0c.522 0 .693.039.834.06.066.01.088.031.088.093v.28c0 .05-.04.088-.088.088h-.896c-.254 0-.347.088-.347.378v.474h1.19c.048 0 .088.04.088.088v.316c0 .048-.04.087-.088.087h-1.19v.567c0 .29.093.377.347.377h.896c.048 0 .088.04.088.088v.28c0 .062-.022.084-.088.093-.14.022-.312.061-.834.061-.571 0-1.014-.154-1.014-.9V88.57c0-.746.443-.9 1.014-.9zm15.111 0c.522 0 .694.039.834.06.066.01.088.031.088.093v.28c0 .05-.04.088-.088.088h-.895c-.255 0-.347.088-.347.378v.474h1.19c.048 0 .087.04.087.088v.316c0 .048-.04.087-.087.087h-1.19v.567c0 .29.092.377.347.377h.895c.049 0 .088.04.088.088v.28c0 .062-.022.084-.088.093-.14.022-.312.061-.834.061-.57 0-1.014-.154-1.014-.9V88.57c0-.746.443-.9 1.014-.9zm12.693 0c.522 0 .694.039.834.06.066.01.088.031.088.093v.28c0 .05-.04.088-.088.088h-.895c-.255 0-.347.088-.347.378v.474h1.19c.048 0 .087.04.087.088v.316c0 .048-.04.087-.087.087h-1.19v.567c0 .29.092.377.347.377h.895c.049 0 .088.04.088.088v.28c0 .062-.022.084-.088.093-.14.022-.312.061-.834.061-.57 0-1.014-.154-1.014-.9V88.57c0-.746.443-.9 1.014-.9zm11.2 0c.523 0 .694.039.835.06.065.01.088.031.088.093v.28c0 .05-.04.088-.088.088h-.896c-.254 0-.347.088-.347.378v.474h1.19c.048 0 .088.04.088.088v.316c0 .048-.04.087-.088.087h-1.19v.567c0 .29.093.377.347.377h.896c.048 0 .088.04.088.088v.28c0 .062-.023.084-.088.093-.14.022-.312.061-.835.061-.57 0-1.013-.154-1.013-.9V88.57c0-.746.443-.9 1.013-.9zm-18.152 0c.29 0 .694.043.843.078.044.01.079.04.079.084v.324c0 .044-.031.08-.075.08h-.009a9.556 9.556 0 0 0-.864-.045c-.325 0-.461.115-.461.312 0 .145.074.233.36.39l.526.295c.483.267.61.548.61.895 0 .443-.276.917-1.154.917-.33 0-.566-.03-.777-.079-.044-.009-.083-.04-.083-.088v-.315c0-.049.04-.084.083-.084h.009c.175.022.614.044.777.044.39 0 .51-.14.51-.395 0-.171-.084-.259-.374-.43l-.58-.347c-.408-.241-.518-.496-.518-.803 0-.483.282-.833 1.098-.833zm-40.848 0c.29 0 .693.043.842.078.044.01.08.04.08.084v.324c0 .044-.031.08-.075.08h-.01a9.555 9.555 0 0 0-.864-.045c-.325 0-.46.115-.46.312 0 .145.074.233.36.39l.526.295c.483.267.61.548.61.895 0 .443-.276.917-1.154.917-.33 0-.567-.03-.777-.079-.044-.009-.084-.04-.084-.088v-.315c0-.049.04-.084.084-.084h.009c.175.022.614.044.776.044.391 0 .51-.14.51-.395 0-.171-.084-.259-.373-.43l-.58-.347c-.408-.241-.518-.496-.518-.803 0-.483.281-.833 1.098-.833zm56.108 0a5.8 5.8 0 0 1 .944.078c.057.013.083.036.083.092v.295c0 .06-.017.092-.087.092h-.013a10.61 10.61 0 0 0-.927-.036c-.294 0-.575.207-.575.83v.632c0 .623.303.825.562.825a6.7 6.7 0 0 0 .435-.013v-1.12c0-.048.035-.087.083-.087h.435c.048 0 .087.04.087.088v1.474c0 .057-.026.092-.083.106a4.8 4.8 0 0 1-.957.074c-.474 0-1.176-.311-1.176-1.347v-.632c0-1.04.667-1.351 1.19-1.351zm-53.41 0c.29 0 .695.043.844.078.044.01.079.04.079.084v.324c0 .044-.031.08-.075.08h-.009a9.562 9.562 0 0 0-.864-.045c-.325 0-.462.115-.462.312 0 .145.075.233.36.39l.527.295c.483.267.61.548.61.895 0 .443-.276.917-1.154.917-.329 0-.566-.03-.777-.079-.044-.009-.083-.04-.083-.088v-.315c0-.049.04-.084.083-.084h.009c.175.022.615.044.777.044.39 0 .51-.14.51-.395 0-.171-.084-.259-.374-.43l-.58-.347c-.408-.241-.518-.496-.518-.803 0-.483.281-.833 1.098-.833zm6.07 0c.339 0 .629.052.695.07.057.017.096.039.096.1v.295c0 .052-.022.092-.088.092h-.008a9.024 9.024 0 0 0-.685-.036c-.37 0-.637.198-.637.821v.645c0 .61.268.821.637.821.232 0 .531-.022.685-.035h.008c.066 0 .088.04.088.092v.294c0 .062-.04.083-.096.101-.066.017-.356.07-.694.07-.527 0-1.242-.259-1.242-1.343v-.645c0-1.101.715-1.342 1.242-1.342zm22.569.034c.04 0 .074.036.083.075l.637 2.638c.013.052.026.07.07.07.044 0 .057-.018.07-.07l.637-2.638c.009-.04.044-.075.083-.075h.466c.044 0 .079.031.079.075l-.005.022-.72 2.752c-.105.408-.421.447-.61.447s-.505-.04-.61-.447l-.72-2.752-.004-.022c0-.044.035-.075.079-.075h.465zm-52.893 0c.04 0 .075.036.084.075l.636 2.638c.014.052.027.07.07.07.045 0 .058-.018.071-.07l.636-2.638c.01-.04.044-.075.084-.075h.465c.044 0 .08.031.08.075 0 .009-.005.013-.005.022l-.72 2.752c-.105.408-.421.447-.61.447s-.505-.04-.61-.447l-.72-2.752-.005-.022c0-.044.035-.075.08-.075h.464zm45.059 0c.048 0 .087.036.087.084v1.97c0 .5.123.738.598.738.473 0 .597-.237.597-.738v-1.97c0-.048.04-.084.087-.084h.435c.048 0 .088.036.088.084v1.97c0 .935-.5 1.242-1.207 1.242-.707 0-1.208-.307-1.208-1.242v-1.97c0-.048.04-.084.088-.084h.435zm-53.2 0c.048 0 .088.04.088.088v2.309c0 .29.088.377.342.377h.808c.048 0 .088.04.088.088v.28c0 .062-.022.08-.088.093a4.726 4.726 0 0 1-.746.061c-.571 0-1.014-.154-1.014-.9v-2.308c0-.048.04-.088.088-.088h.434zm95.747 0c.048 0 .088.036.088.084v.347c0 .047-.04.079-.088.079h-.768v2.663c0 .049-.04.088-.088.088h-.435a.088.088 0 0 1-.088-.088v-2.663h-.768c-.048 0-.088-.032-.088-.08v-.346c0-.048.04-.084.088-.084h2.147zm-28.23-.034c.676 0 1.264.24 1.264.991v.04c0 .465-.233.754-.593.895l.69 1.281c.009.014.009.027.009.035 0 .031-.018.053-.053.053h-.536c-.048 0-.066-.044-.088-.088l-.632-1.172h-.061c-.115 0-.29-.012-.391-.017v1.19c0 .048-.035.087-.083.087h-.44a.088.088 0 0 1-.087-.088v-3.02c0-.087.053-.117.14-.13.228-.036.54-.057.86-.057zm-52.941.034c.092 0 .14.027.193.14l1.023 2.257c.009.022.022.035.035.035.01 0 .022-.013.022-.04v-2.308a.08.08 0 0 1 .084-.084h.377a.08.08 0 0 1 .083.084v3.002a.176.176 0 0 1-.176.175H16.4c-.105 0-.197 0-.267-.158l-.975-2.137c-.014-.027-.027-.035-.04-.035-.013 0-.021.008-.021.035v2.207c0 .049-.036.088-.084.088h-.373a.088.088 0 0 1-.088-.088V87.88c0-.096.08-.176.176-.176h.474zm-2.59-.034c.19 0 .505.039.61.447l.72 2.752c0 .008.005.017.005.022 0 .043-.035.074-.079.074h-.466c-.039 0-.074-.035-.083-.074l-.202-.834h-1.01l-.201.834c-.009.04-.044.074-.084.074h-.465c-.044 0-.08-.03-.08-.074 0-.005.005-.014.005-.022l.72-2.752c.105-.408.422-.447.61-.447zm79.073.034c.092 0 .14.027.193.14l1.023 2.257c.009.022.022.035.035.035.009 0 .022-.013.022-.04v-2.308a.08.08 0 0 1 .084-.084h.377a.08.08 0 0 1 .083.084v3.002a.176.176 0 0 1-.175.175h-.444c-.105 0-.197 0-.268-.158l-.974-2.137c-.013-.027-.026-.035-.04-.035-.013 0-.021.008-.021.035v2.207c0 .049-.036.088-.084.088h-.373a.088.088 0 0 1-.088-.088V87.88c0-.096.08-.176.176-.176h.474zm-18.258 0c.048 0 .087.036.087.084v3.09c0 .048-.039.087-.087.087h-.435a.088.088 0 0 1-.088-.088v-3.09c0-.047.04-.083.088-.083h.435zm-46.014-.034c.188 0 .505.039.61.447l.72 2.752c0 .008.004.017.004.022 0 .043-.035.074-.078.074h-.466c-.04 0-.075-.035-.083-.074l-.202-.834h-1.01l-.202.834c-.009.04-.044.074-.084.074h-.465c-.044 0-.079-.03-.079-.074 0-.005.005-.014.005-.022l.72-2.752c.105-.408.421-.447.61-.447zm-24.325.034c.049 0 .088.036.088.084v3.09c0 .048-.04.087-.088.087h-.434a.088.088 0 0 1-.088-.088v-3.09c0-.047.04-.083.088-.083h.434zm44.032 0c.048 0 .088.036.088.084v.347c0 .047-.04.079-.088.079h-.768v2.663c0 .049-.04.088-.088.088h-.435a.088.088 0 0 1-.088-.088v-2.663h-.768c-.048 0-.088-.032-.088-.08v-.346c0-.048.04-.084.088-.084h2.147zm-3.96-.034c.19 0 .505.039.61.447l.72 2.752c0 .008.005.017.005.022 0 .043-.035.074-.079.074h-.465c-.04 0-.075-.035-.084-.074l-.202-.834h-1.01l-.202.834c-.008.04-.043.074-.083.074h-.465c-.044 0-.08-.03-.08-.074 0-.005.005-.014.005-.022l.72-2.752c.106-.408.422-.447.61-.447zm40.155.034c.049 0 .088.036.088.084v.347c0 .047-.04.079-.088.079h-.768v2.663c0 .049-.04.088-.088.088h-.434a.088.088 0 0 1-.088-.088v-2.663h-.768c-.049 0-.088-.032-.088-.08v-.346c0-.048.04-.084.088-.084h2.146zm-26.114 0c.092 0 .14.027.193.14l1.023 2.257c.009.022.022.035.035.035.01 0 .022-.013.022-.04v-2.308a.08.08 0 0 1 .084-.084h.377a.08.08 0 0 1 .083.084v3.002a.176.176 0 0 1-.175.175h-.444c-.105 0-.197 0-.267-.158l-.975-2.137c-.013-.027-.026-.035-.04-.035-.013 0-.021.008-.021.035v2.207c0 .049-.036.088-.084.088h-.373a.088.088 0 0 1-.088-.088V87.88c0-.096.08-.176.176-.176h.474zm3.195 0c.049 0 .088.036.088.084v3.09c0 .048-.04.087-.088.087h-.434a.088.088 0 0 1-.088-.088v-3.09c0-.047.04-.083.088-.083h.434zm19.96 0c.05 0 .089.036.089.084v3.09c0 .048-.04.087-.088.087h-.435a.088.088 0 0 1-.087-.088v-3.09c0-.047.04-.083.087-.083h.435zm-31.995 0c.049 0 .088.036.088.084v3.09c0 .048-.04.087-.088.087h-.434a.088.088 0 0 1-.088-.088v-3.09c0-.047.04-.083.088-.083h.434zm28.024 0c.048 0 .088.036.088.084v.347c0 .047-.04.079-.088.079h-.768v2.663c0 .049-.04.088-.088.088h-.435a.088.088 0 0 1-.087-.088v-2.663h-.769c-.048 0-.087-.032-.087-.08v-.346c0-.048.039-.084.087-.084h2.147zm-35.257 0c.049 0 .088.036.088.084v3.09c0 .048-.04.087-.088.087h-.434a.088.088 0 0 1-.088-.088v-3.09c0-.047.04-.083.088-.083h.434zm-36.117.478c-.163 0-.277.01-.37.014v2.278c.093.004.207.013.37.013.439 0 .772-.171.772-.83v-.645c0-.658-.333-.83-.772-.83zm15.133 0c-.163 0-.276.01-.369.014v2.278c.093.004.206.013.37.013.438 0 .772-.171.772-.83v-.645c0-.658-.334-.83-.773-.83zm15.775.018c-.43 0-.637.26-.637.839v.592c0 .58.206.838.637.838.43 0 .636-.259.636-.838v-.592c0-.58-.206-.839-.636-.839zm-23.306-.018c-.044 0-.058.018-.07.07l-.317 1.304h.773l-.316-1.303c-.014-.053-.027-.07-.07-.07zm14.8 0c-.044 0-.057.018-.07.07l-.316 1.304h.772l-.316-1.303c-.013-.053-.026-.07-.07-.07zm15.748 0c-.044 0-.058.018-.07.07l-.317 1.304h.773l-.316-1.303c-.013-.053-.027-.07-.07-.07zm24.982.01c-.092 0-.312.008-.391.017v.988c.07.004.316.013.39.013.453 0 .66-.123.66-.51v-.039c0-.33-.22-.47-.66-.47zm59.168-17.947c.24 0 .46.198.46.436v.515c0 .258-.14.337-.36.376l-.718.14c.36.376.678.97.678 2.04v.159c0 2.18-1.355 3.389-4.426 3.389-1.057 0-1.736-.159-2.314-.396-.338.158-.498.376-.498.673 0 .337.16.516.618.635l2.971.753.403.103c1.801.475 3.426 1.076 3.426 2.81v.159c0 1.902-1.276 3.072-4.546 3.072-3.151 0-4.587-1.21-4.587-3.152v-.178c0-1.11.598-2.021 1.256-2.517l-.14-.06c-.637-.277-.917-.93-.917-1.545v-.02c0-.535.26-1.11.818-1.427-.618-.575-.917-1.288-.917-2.299v-.159c0-1.763.997-3.507 4.427-3.507h4.366zm-6.201 9.513c-.578.495-.977.99-.977 2.021v.178c0 1.11.658 1.804 2.872 1.804 2.272 0 2.791-.634 2.791-1.724v-.16c0-.772-.638-1.089-2.432-1.545l-2.254-.574zM4.547 69.63c2.871 0 4.666 1.15 4.666 4.043v7.075c0 .218-.18.397-.399.397H6.581a.399.399 0 0 1-.4-.397v-.317c-.777.555-1.575.892-2.77.892-1.736 0-3.411-.832-3.411-3.409v-.178c0-2.319 1.496-3.35 4.906-3.35h1.076v-.713c0-1.13-.558-1.367-1.495-1.367-1.277 0-2.692.079-3.31.138h-.1c-.2 0-.36-.099-.36-.356v-1.605c0-.218.14-.377.38-.437.738-.178 2.134-.416 3.45-.416zm83.64 0c3.27 0 4.925 2.22 4.925 5.212v1.15c0 .297-.16.476-.419.476h-6.361v.04c0 1.129.478 2.16 2.054 2.16 1.256 0 3.031-.1 3.829-.179h.06c.219 0 .378.1.378.317v1.506c0 .318-.08.456-.419.536-1.276.317-2.353.475-4.087.475-2.413 0-5.006-1.268-5.006-5.093v-1.388c0-3.19 1.875-5.212 5.045-5.212zm-44.757.159c.2 0 .359.178.419.416l1.715 7.769c.06.297.16.416.3.416.139 0 .258-.119.318-.416l1.715-7.769c.06-.238.22-.416.419-.416h2.632c.18 0 .339.139.339.337 0 .04 0 .079-.02.119l-2.513 8.997c-.498 1.764-1.714 2.081-2.89 2.081-1.178 0-2.374-.317-2.873-2.08L40.5 70.244c-.02-.04-.02-.08-.02-.12 0-.197.14-.336.319-.336h2.632zm-9.302-.159c3.27 0 4.926 2.22 4.926 5.212v1.15c0 .297-.16.476-.42.476h-6.36v.04c0 1.129.478 2.16 2.053 2.16 1.257 0 3.032-.1 3.83-.179h.06c.218 0 .378.1.378.317v1.506c0 .318-.08.456-.419.536-1.276.317-2.353.475-4.088.475-2.413 0-5.005-1.268-5.005-5.093v-1.388c0-3.19 1.874-5.212 5.045-5.212zm46.102-3.686c.22 0 .42.178.42.396v13.893c0 .317-.08.456-.619.575a18.858 18.858 0 0 1-4.248.515c-3.23 0-5.004-1.863-5.004-5.073v-1.546c0-3.112 1.635-5.074 5.004-5.074.4 0 1.057.06 1.636.139V66.34c0-.218.18-.396.398-.396h2.413zM57.738 69.63c3.27 0 4.925 2.22 4.925 5.212v1.15c0 .297-.16.476-.419.476h-6.361v.04c0 1.129.479 2.16 2.054 2.16 1.256 0 3.031-.1 3.829-.179h.06c.219 0 .378.1.378.317v1.506c0 .318-.08.456-.418.536-1.277.317-2.353.475-4.088.475-2.413 0-5.005-1.268-5.005-5.093v-1.388c0-3.19 1.874-5.212 5.045-5.212zm-32.982-2.279c.2 0 .359.139.359.337v2.1h1.635a.4.4 0 0 1 .4.397v1.605a.4.4 0 0 1-.4.397h-1.635v5.767c0 .793.06.931.658.931h.977c.26 0 .42.12.42.337v1.546c0 .198-.14.357-.38.397-.598.098-.997.158-1.575.158-2.194 0-3.35-.575-3.35-3.39v-5.746l-1.595-.258c-.22-.04-.42-.198-.42-.416v-1.308c0-.218.2-.416.42-.416h1.595v-1.625c0-.218.18-.357.399-.397l2.433-.416h.06zm159.984 2.755c2.931 0 4.447 1.922 4.447 4.836v1.505c0 2.914-1.516 4.837-4.447 4.837s-4.427-1.923-4.427-4.837v-1.505c0-2.914 1.496-4.836 4.427-4.836zm-50.83 0c2.912 0 4.388 1.823 4.388 4.638v1.07c0 .257-.14.436-.38.436h-6.68v.277c0 2.358.938 3.23 2.773 3.23 1.156 0 2.632-.079 3.55-.217h.099c.16 0 .319.079.319.277v.674c0 .257-.08.396-.4.455a18.19 18.19 0 0 1-3.568.338c-2.294 0-4.527-1.07-4.527-4.757v-1.783c0-2.835 1.575-4.638 4.426-4.638zm40.006 0c2.932 0 4.447 1.922 4.447 4.836v1.505c0 2.914-1.515 4.837-4.447 4.837-2.93 0-4.427-1.923-4.427-4.837v-1.505c0-2.914 1.496-4.836 4.427-4.836zm-29.975 0c1.116 0 2.174.099 3.11.257.26.04.38.179.38.397v.654c0 .238-.14.337-.34.337h-.06c-.697-.06-1.974-.159-3.09-.159-1.117 0-1.855.139-1.855 1.15 0 .594.459.97 1.376 1.506l1.974 1.17c1.655.97 2.193 1.822 2.193 2.992 0 2.021-1.495 2.874-3.728 2.874-.738 0-2.174-.06-3.151-.298-.259-.06-.419-.178-.419-.396v-.694c0-.178.16-.297.36-.297h.079c.957.119 2.413.218 3.13.218 1.297 0 1.975-.337 1.975-1.407 0-.595-.36-.971-1.496-1.645l-2.014-1.19c-1.216-.733-2.034-1.585-2.034-2.833 0-2.061 1.556-2.636 3.61-2.636zm-32.097 0c2.932 0 4.447 1.922 4.447 4.836v1.505c0 2.914-1.515 4.837-4.447 4.837-2.931 0-4.427-1.923-4.427-4.837v-1.505c0-2.914 1.496-4.836 4.427-4.836zm42.027 0c.917 0 1.835.099 2.493.218.319.06.399.159.399.436v.713c0 .199-.16.298-.34.298h-.08a19.607 19.607 0 0 0-2.472-.139c-1.595 0-2.493 1.05-2.493 3.29v1.546c0 2.219.878 3.29 2.493 3.29.977 0 1.595-.04 2.473-.14h.08c.179 0 .339.1.339.298v.714c0 .257-.08.376-.4.436-.657.118-1.555.218-2.492.218-2.712 0-4.247-1.903-4.247-4.816v-1.546c0-2.914 1.515-4.816 4.247-4.816zM17.867 69.63c.22 0 .398.178.398.397v1.882c0 .179-.119.377-.298.377h-.16c-.977 0-1.835.297-2.572.693v7.75c0 .217-.18.416-.4.416h-2.412a.434.434 0 0 1-.419-.417V70.185c0-.218.18-.396.399-.396h2.373c.22 0 .399.178.399.396v.396c.738-.614 1.735-.95 2.692-.95zm80.23-3.389c.22 0 .38.179.38.397v4.082c.957-.416 2.193-.614 3.05-.614 2.114 0 3.59 1.209 3.59 4.122v6.52c0 .218-.18.397-.399.397h-.957a.399.399 0 0 1-.399-.397v-6.52c0-1.982-.837-2.596-2.133-2.596-.619 0-1.875.158-2.752.555v8.561c0 .198-.18.397-.4.397h-.976a.395.395 0 0 1-.379-.397v-14.11c0-.218.16-.397.379-.397h.997zm94.544 0c.2 0 .359.16.359.377v14.13c0 .198-.14.397-.36.397h-1.036c-.2 0-.359-.179-.359-.397v-14.13c0-.198.14-.377.36-.377h1.036zm-32.27 0c.22 0 .38.179.38.397v4.082c.957-.416 2.193-.614 3.05-.614 2.114 0 3.59 1.209 3.59 4.122v6.52a.4.4 0 0 1-.4.397h-.956a.4.4 0 0 1-.4-.397v-6.52c0-1.982-.837-2.596-2.133-2.596-.618 0-1.874.158-2.752.555v8.561c0 .198-.18.397-.399.397h-.977c-.2 0-.379-.179-.379-.397v-14.11c0-.218.16-.397.38-.397h.996zm-92.384-.297c.22 0 .379.178.379.396v14.388c0 .218-.16.417-.38.417h-2.432a.434.434 0 0 1-.419-.417V66.34c0-.218.2-.396.42-.396h2.432zm105.93 5.688c-1.855 0-2.673 1.268-2.673 3.31v1.505c0 2.022.798 3.31 2.672 3.31 1.855 0 2.692-1.268 2.692-3.31v-1.505c0-2.022-.817-3.31-2.692-3.31zm-62.073 0c-1.855 0-2.672 1.268-2.672 3.31v1.505c0 2.022.798 3.31 2.672 3.31 1.855 0 2.692-1.268 2.692-3.31v-1.505c0-2.022-.817-3.31-2.692-3.31zm72.896 0c-1.855 0-2.672 1.268-2.672 3.31v1.505c0 2.022.797 3.31 2.672 3.31 1.855 0 2.692-1.268 2.692-3.31v-1.505c0-2.022-.817-3.31-2.692-3.31zM6.042 76.29H4.906c-1.396 0-1.755.476-1.755 1.447v.178c0 .833.419.991 1.256.991.598 0 1.157-.198 1.635-.436v-2.18zm69.741-4.003c-1.415 0-1.774 1.03-1.774 2.418v1.546c0 1.407.359 2.437 1.774 2.437.659 0 1.257-.06 1.636-.119v-6.183a15.133 15.133 0 0 0-1.636-.099zm47.16-.654c-2.233 0-2.692 1.01-2.692 2.12v.159c0 .872.4 2.021 2.693 2.021 2.153 0 2.692-.832 2.692-2.021v-.159c0-1.189-.539-2.12-2.692-2.12zm10.967 0c-1.714 0-2.672.971-2.672 3.112v.178h5.285v-.178c0-2.24-.857-3.112-2.613-3.112zm-76.192.575c-1.097 0-1.835.753-1.835 2.2v.079h3.63v-.08c0-1.466-.679-2.2-1.795-2.2zm-23.61 0c-1.097 0-1.834.753-1.834 2.2v.079h3.629v-.08c0-1.466-.678-2.2-1.795-2.2zm54.058 0c-1.096 0-1.834.753-1.834 2.2v.079h3.63v-.08c0-1.466-.679-2.2-1.796-2.2zM131.5 35.258V52.67h-17.52l.075-17.412h17.445zM69.962 0c14.488 0 26.26 11.556 26.495 25.9l.003.435V52.67H69.962c-14.635 0-26.498-11.79-26.498-26.335C43.464 11.79 55.327 0 69.962 0zm0 17.556c-4.878 0-8.833 3.93-8.833 8.779 0 4.761 3.815 8.638 8.573 8.774l.26.004h8.833v-8.778c0-4.848-3.955-8.779-8.833-8.779zM131.5.436v17.41h-17.52V.437h17.52z"/>
</svg>
