<svg xmlns="http://www.w3.org/2000/svg" width="193" height="109" viewBox="0 0 193 109">
    <path fill="#23333A" fill-rule="evenodd" d="M27.15 58.77c3.168.003 6.301.424 9.384 1.379 3.172.983 6.031 2.472 8.518 4.549a23.246 23.246 0 0 1 2.502 2.434c.12.137.235.28.4.48l-7.259 6.58-1.481 1.342c-.137-.192-.235-.374-.374-.517a18.09 18.09 0 0 0-2.55-2.205 14.678 14.678 0 0 0-2.866-1.59 13.924 13.924 0 0 0-2.292-.723 17.434 17.434 0 0 0-3.66-.433l-.404.002c-1.75.03-3.48.354-5.177 1.015-1.457.568-2.73 1.322-3.807 2.258-1.696 1.473-2.91 3.4-3.612 5.767-1.023 3.457-1.005 6.942.33 10.318.367.926.8 1.772 1.296 2.54a11.81 11.81 0 0 0 2.236 2.58l.254.212c.43.348.883.666 1.362.952l.29.168c1.286.722 2.74 1.23 4.353 1.529l.304.053.384.058.07.011.453.057c.603.066 1.202.099 1.799.099l.446-.007a17.09 17.09 0 0 0 4.825-.853l.43-.146c.287-.1.573-.209.857-.324.154-.062.304-.132.454-.202.05-.023.093-.058.19-.121V82.875h12.011c.017.116.05.238.05.36.003 6.405 0 12.809.012 19.213a.666.666 0 0 1-.155.465 1.176 1.176 0 0 1-.23.197c-2.662 1.836-5.555 3.182-8.638 4.135-4.064 1.257-8.22 1.889-12.475 1.731-3.075-.114-6.068-.62-8.93-1.65l-.535-.199a25.307 25.307 0 0 1-2.109-.924c-4.06-2.005-7.275-4.719-9.607-8.168C2.722 95.85 1.6 93.37.841 90.588c-.448-1.642-.66-3.322-.775-5.02-.231-3.374.142-6.676 1.214-9.875 2.08-6.214 6.103-10.778 11.9-13.787 3.077-1.596 6.353-2.538 9.793-2.907a39.416 39.416 0 0 1 3.583-.224l.594-.004zm48.663 38.694l2.295-.002h13.81c.118.423.16 9.546.056 10.46-.19.056-8.37.097-16.935.112l-1.073.002h-.536l-1.072.002h-.535l-.533.001h-.531l-.53.001h-5.072l-.476-.001h-.47l-.461-.002c-4.576-.007-7.94-.026-8.237-.061-.125-.4-.187-46.738-.064-48.134.012-.013.023-.027.036-.039.014-.012.03-.03.045-.031.127-.014.255-.034.383-.034 11.962.001 23.925.004 35.887.009.016 0 .032.003.05.008l-.05-.008c.019 0 .037.004.056.01a.786.786 0 0 1 .05.02c.023.01.048.02.077.03V70.3H68.952v8.118h23.046v10.183c-.222.012-.433.033-.644.033l-3.097.002h-19.31v8.803c.764.025 1.526.029 2.288.027l1.142-.004c.38-.002.76-.003 1.14 0l2.296.002zm35.294-37.736c.176 0 .315.034.437.1.127.07.235.172.344.305l4.957 5.997 3.223 3.898 8.183 9.891 1.741 2.104.34.411 2.083 2.515c.039.048.08.093.126.143.074.079.16.168.275.292V59.851a.677.677 0 0 1 .112-.017 3.957 3.957 0 0 1 .224-.015 29.674 29.674 0 0 1 1.09-.037 117.848 117.848 0 0 1 1.365-.023 240.42 240.42 0 0 1 2.656-.023l.475-.002c.505-.002 1.015-.003 1.52-.003h.889l.332.001.207.001a373.21 373.21 0 0 1 2.508.018 94.241 94.241 0 0 1 1.473.03l.166.008c.135.006.234.013.293.02l.043.007v48.174c-.14.007-.268.016-.39.021l-.18.005c-2.25 0-4.498-.002-6.747 0l-3.373.01-.141-.007-.129-.019c-.246-.052-.429-.186-.61-.406-6.132-7.424-12.27-14.842-18.408-22.26-.694-.839-1.386-1.678-2.082-2.515-.1-.12-.214-.23-.41-.437v25.594h-13.3c-.105-.398-.152-47.136-.044-48.199.149-.013.308-.038.466-.038 3.429-.003 6.857.003 10.286-.01zM193 59.693v10.853c-.22.007-.441.02-.662.02l-6.027.002h-6.733v37.33c-.447.146-13.046.17-13.658.032V70.585h-13.492V59.736h.767l39.037-.001c.255 0 .512-.028.768-.042zM11.13 1.924l.723.001c.314 0 .625.001.93.003l.383.001a228.975 228.975 0 0 1 1.06.006 228.359 228.359 0 0 1 2.542.033 74.628 74.628 0 0 1 .69.02l.224.014.061.006c.017.002.03.004.04.007v18.004h19.592V1.96h14.348v48.153a2.29 2.29 0 0 1-.31.025 26.163 26.163 0 0 1-.67.021l-.054.001-.055.001a81.641 81.641 0 0 1-.91.016 175.5 175.5 0 0 1-1.591.018 364.435 364.435 0 0 1-2.011.013h-.24c-.286.002-.575.002-.866.003h-.178l-.363.001h-1.933a454.93 454.93 0 0 1-2.679-.015c-.356-.003-.685-.007-.98-.012l-.252-.005c-.06 0-.12-.002-.177-.003l-.219-.005a22.402 22.402 0 0 1-.62-.021 3.85 3.85 0 0 1-.18-.013l-.047-.007V31.418H17.785v18.754H3.435V2.016a.762.762 0 0 1 .106-.013 4.787 4.787 0 0 1 .212-.012 24.98 24.98 0 0 1 .687-.021 100.597 100.597 0 0 1 1.218-.02c.439-.006.927-.01 1.448-.014h.028l.857-.006.4-.001c.651-.003 1.329-.005 2.01-.005h.728zM86.154 0c.18.032.357.083.538.094 4.316.263 8.385 1.392 12.132 3.568 5.987 3.477 9.905 8.55 11.593 15.296.645 2.577.814 5.202.655 7.855-.207 3.454-1.038 6.736-2.645 9.805-2.812 5.369-7.105 9.11-12.658 11.438-2.723 1.141-5.569 1.786-8.51 2.025-3.759.307-7.48.096-11.122-.92-5.819-1.624-10.633-4.747-14.172-9.71-2.439-3.42-3.846-7.24-4.274-11.421-.428-4.198-.025-8.297 1.547-12.231C61.535 10.054 65.52 5.84 71 3.028 74.033 1.472 77.26.561 80.648.205 81.267.14 81.885.068 82.505 0h3.65zm-4.466 11.583c-4.684.918-7.852 3.753-9.475 8.219-1.278 3.515-1.248 7.104 0 10.63 1.172 3.312 3.35 5.778 6.555 7.276 2.317 1.082 4.761 1.393 7.281 1.072 4.235-.541 7.42-2.685 9.527-6.403 1.277-2.254 1.767-4.71 1.765-7.609.015-.839-.1-1.994-.35-3.133-.65-2.98-2.062-5.524-4.44-7.457-3.193-2.597-6.887-3.375-10.863-2.595z"/>
</svg>
