<svg xmlns="http://www.w3.org/2000/svg" width="193" height="69" viewBox="0 0 193 69">
    <g fill="none" fill-rule="evenodd">
        <path fill="#23333A" d="M6.676 69H193V6.658H6.676z"/>
        <path fill="#23333A" fill-opacity=".5" d="M0 0v69h6.893V6.9H193V0H0"/>
        <path fill="#FFFFFE" d="M20.645 27.451H26.8v7.091h.057l5.487-7.09h7.583l-7.248 8.044 8.423 12.544h-7.668l-4.926-8.016-1.708 1.93v6.086h-6.155V27.45M59.574 40.074c0 5.706-2.995 8.446-9.095 8.446-6.101 0-9.124-2.74-9.124-8.446V27.451h6.158v11.212c0 2.104 0 4.726 2.994 4.726 2.912 0 2.912-2.622 2.912-4.726V27.451h6.155v12.623M68.604 27.451h6.157v15.31h8.687v5.279H68.604V27.45M85.334 27.451h16.385v5.276H91.433v2.568h9.342v4.902h-9.342v2.564h10.589v5.279H85.334V27.45M121.822 40.074c0 5.706-2.993 8.446-9.094 8.446-6.102 0-9.123-2.74-9.123-8.446V27.451h6.155v11.212c0 2.104 0 4.726 2.994 4.726 2.911 0 2.911-2.622 2.911-4.726V27.451h6.157v12.623M135.538 48.04h-6.885l-5.962-20.589h6.214l3.275 12.485h.055l3.218-12.485h6.326l-6.24 20.589M142.648 27.451h16.382v5.276h-10.285v2.568h9.343v4.902h-9.343v2.564h10.59v5.279h-16.687V27.45M160.927 27.451h6.297l5.82 11.013h.056V27.451h5.82V48.04h-5.987l-6.129-11.248h-.057V48.04h-5.82V27.45"/>
    </g>
</svg>
