<svg xmlns="http://www.w3.org/2000/svg" width="193" height="64" viewBox="0 0 193 64">
    <g fill="none" fill-rule="evenodd">
        <path fill="#23333A" d="M12.525.04l4.68.763 4.681.757 9.364 1.512 9.363 1.511c3.12.505 6.241 1.012 9.363 1.516l9.304 1.5c3.101.5 6.203.999 9.304 1.5 3.121.505 6.242 1.013 9.362 1.518.77.125 1.542.243 2.312.37.436.072.564.228.567.695.01 1.349.018 2.697.02 4.046.015 5.858.027 11.717.04 17.575v.693c.859.142 1.662.28 2.467.407 2.333.37 4.666.734 6.998 1.102.48.076.602.214.607.721.011.966.011 1.933.013 2.9L91 58.39v.121c-.001.816-.001.817-.724 1.107l-2.733 1.093c-2.62 1.048-5.243 2.09-7.86 3.15a1.872 1.872 0 0 1-1.05.108c-4.384-.724-8.768-1.439-13.152-2.16-4.048-.665-8.095-1.337-12.143-2-4.048-.664-8.098-1.316-12.146-1.983-1.125-.186-1.151-.1-1.142-1.302.01-1.308-.004-2.617-.007-3.925v-.658c-1.597-.256-3.118-.502-4.639-.744-3.142-.502-6.284-1.001-9.427-1.502l-4.268-.682c-.138-.022-.277-.044-.413-.077-.42-.104-.48-.17-.488-.621-.014-.664-.014-1.329-.016-1.993-.008-3.06-.011-6.12-.02-9.18-.006-1.61-.018-3.22-.03-4.831-.001-.178-.018-.356-.03-.577-.632-.11-1.238-.22-1.847-.319-4.367-.702-8.733-1.401-13.1-2.104-1.68-.27-3.358-.547-5.036-.822-.56-.092-.68-.222-.683-.788-.008-2.054-.081-4.11.01-6.16.09-2.061 1.008-3.699 2.9-4.679.104-.053.203-.114.359-.202-.141-.127-.25-.23-.364-.326C1.049 14.76.016 12.762.014 10.26.012 8.608.004 6.957 0 5.306c-.002-.629.018-.656.59-.885C4.122 3.009 7.656 1.603 11.181.177c.45-.182.875-.215 1.344-.138zM41.08 35.012v21.73l36.855 6.05c.176.028.357.032.536.046a.1.1 0 0 0 .057-.017c.015-.01.025-.03.076-.093l-.09-21.674-37.434-6.042zm44.964 21.705l-2.45 3.345-2.499-.846-.585-.199-.145.131c-.597.572-.801 1.211-.713 1.974.041.358.002.724.01 1.086 0 .024.002.048.005.073l-.005-.073c.003.124.04.247.078.469l.23-.311.632-.855.203-.274.328.107.145.047c.16.052.314.105.464.167.136.056.265.086.394.09l.129-.003c.129-.012.259-.048.395-.108.66-.289 1.33-.554 2.008-.798.432-.156.77-.392 1.017-.788.14-.226.3-.439.465-.656l.248-.332.4.137c.26.09.51.175.766.245a1.206 1.206 0 0 0 .313.04l.104-.01.097-.024a28.642 28.642 0 0 0 1.617-.642c.098-.041.236-.146.24-.227.015-.25.039-.503.04-.764 0-.187-.012-.378-.049-.576l-.056-.242c-.173.226-.314.37-.41.542-.087.155-.185.237-.3.265l-.072.01a.59.59 0 0 1-.156-.013l-.085-.022-.09-.03c-.218-.083-.438-.161-.659-.237l-.663-.225-.664-.223-.36-.124-.367-.126zm3.816-3.557l-.25.332-.238.318-.456.607-.223.296-3.142-1.07-2.44 3.347-3.107-1.055c-.346.385-.353.385-.357.761a80.881 80.881 0 0 0 0 1.69c.001.148.03.295.058.546l.161-.196.338-.413.125-.153 3.14 1.063.406-.558.405-.555 1.614-2.212.155.041c.097.026.185.049.271.078.758.256 1.514.517 2.272.773.109.037.191.064.258.078.029.007.055.01.08.012h.054c.12-.016.194-.118.394-.34.49-.546.677-1.15.578-1.877-.048-.356-.003-.724-.013-1.085-.002-.096-.03-.19-.06-.322l-.023-.106zm-17.748-6.895v2.047l1.916.324c-.04.23-.07.42-.11.658l-1.786-.208c0 .685-.004 1.303 0 1.922.01 1.146.02 2.292.035 3.438.003.22.016.442.042.66.1.81.574 1.219 1.382 1.177.255-.014.507-.084.793-.133l.31.495c-1.041.88-2.869.27-3.257-1.08-.103-.36-.127-.752-.132-1.13-.02-1.508-.02-3.016-.026-4.524v-.959l-1.243-.227-.047-.659 1.263.098v-1.899h.86zm17.692 3.207l-.757 1.036-.413.565-.415.568-2.448-.828-.712-.242-.674.925-1.762 2.416-1.969-.66-.993-.334v2.117l2.475.84.842.286 1.624-2.226.816-1.12 3.155 1.07.154-.215c.148-.212.282-.412.445-.585.645-.685.904-1.478.782-2.417-.037-.287-.03-.58-.026-.872v-.292l-.124-.032zm-27.155-2.6l.656.142.142 1.317c.185-.183.303-.296.417-.413 1.318-1.352 3.492-.805 4.008 1.015.076.269.133.553.137.83.025 1.99.034 3.981.046 5.972 0 .077-.021.155-.041.293l-.834-.132c0-.979.006-1.941-.002-2.903-.009-1.065-.028-2.13-.05-3.196a3.144 3.144 0 0 0-.076-.657c-.272-1.139-1.467-1.645-2.44-.993-.388.261-.71.644-1 1.02-.128.165-.137.452-.136.683.002 1.589.022 3.177.036 4.765.002.216 0 .431 0 .713l-.863-.109v-8.347zm-5.92-.984c.975.04 1.799.402 2.38 1.205.847 1.174.963 2.514.863 3.952l-4.846-.717c-.261 2.393 1.372 3.943 3.166 3.543.345-.076.668-.255 1.072-.414l.364.537c-1.278 1.148-3.33.752-4.335-.309a4.076 4.076 0 0 1-.949-1.591 7.368 7.368 0 0 1-.105-4.165c.09-.344.243-.685.429-.99.443-.725 1.101-1.087 1.961-1.051zm-6.14-3.206c.371.227.693.537 1.104.86-.212.204-.353.338-.515.492-.22-.175-.416-.338-.619-.493-.611-.465-1.3-.7-2.068-.68-.77.022-1.384.347-1.829.986-.424.61-.64 1.303-.71 2.028-.124 1.306-.113 2.613.228 3.894.087.328.207.653.353.96.81 1.693 2.672 2.38 4.452 1.618v-3.926c-.453-.079-.88-.158-1.309-.227-.602-.096-.602-.093-.593-.845l2.763.406c.095 1.717.05 3.418.073 5.142-.67.438-1.416.58-2.175.56-1.965-.054-3.383-.978-4.18-2.806-.533-1.224-.668-2.524-.612-3.838.03-.717.087-1.459.294-2.14.916-3 3.563-3.08 5.343-1.991zm39.29 2.938c-.648.89-1.237 1.696-1.81 2.48l-.342.469-3.156-1.07-1.833 2.509-.6.822c-.691-.18-1.322-.457-1.985-.659l-.505-.134v2.074c.8.275 1.573.544 2.347.808.188.064.305.103.394.105l.05-.004c.111-.02.185-.12.343-.334.629-.859 1.251-1.722 1.88-2.58l.097-.121.104-.117.105-.117 1.041.354 1.035.352 1.044.355c.18-.247.351-.478.517-.707l.171-.238c.29-.408.66-.79.906-1.214.08-.136.146-.276.193-.423.193-.603.058-1.313.06-1.977 0-.165-.028-.33-.055-.633zm-33.121 1.017c-.522.015-.957.264-1.252.756-.404.673-.509 1.414-.454 2.223l4.096.62.006-.251c.008-.912-.13-1.728-.62-2.461-.316-.473-.775-.738-1.331-.847a2.098 2.098 0 0 0-.3-.038l-.145-.002zm32.985-4.432L88.05 44.38l-.856 1.102-3.098-1.058c-.152.198-.276.354-.393.514l-1.458 2.004-.242.332c-.206.283-.295.404-.436.422l-.056.001c-.099-.005-.226-.048-.424-.114-.227-.077-.452-.16-.68-.233-.171-.053-.343-.103-.521-.155l-.272-.079v2.078l2.381.82.825-1.127.162-.222.65-.889.81-1.108 2.379.808.777.265c.758-1.042 1.482-2.028 2.191-3.024a.837.837 0 0 0 .138-.446c.012-.602.003-1.205-.008-1.808l-.016-.087-.032-.083-.03-.074c-.063-.01-.093-.021-.1-.013zm-59.563-1.88v6.643l.687.092v-.682c0-1.166.04-2.334-.014-3.497-.038-.818.404-1.283 1.007-1.634.195-.113.395-.172.59-.183h.116c.536.022 1.008.41 1.148 1.028.06.271.067.558.068.838.007 1.307.004 2.613.004 3.92v.617l.692.128.01-.102c.014-.124.025-.202.025-.28.002-1.508.003-3.016-.002-4.524 0-.12-.01-.24-.027-.36l-.006-.037-.006-.032-.005-.039-.013-.07c-.14-.744-.518-1.308-1.258-1.551-.72-.237-1.359-.098-1.908.39l-.125.12c-.057.057-.124.105-.202.16l-.123.089-.024-.262-.068-.73-.566-.042zm59.008-1.238l-1.632 2.237-.806 1.106-2.107-.717-1.049-.356-2.44 3.343c-.515-.169-1.002-.33-1.53-.502v2.091c.52.182 1.009.355 1.499.523l.085.027.092.025c.043.01.09.022.14.036l.081.021 1.832-2.508.6-.82 3.158 1.07.549-.754c.361-.495.715-.979 1.063-1.46l.054-.075.054-.076.005-.007.022-.031.031-.043.005-.007.006-.008.01-.014.1-.138.228-.319.005-.005c.167-.234.329-.44.646-.368v-2.04l-.701-.23zm-62.112.758v6.68l.668.103v-6.667l-.668-.116zm62.729-2.97c-.67.265-1.33.539-2 .79-.312.116-.554.29-.742.571-.169.254-.352.498-.537.742l-.276.368c-.343-.118-.652-.204-.944-.33-.337-.144-.638-.117-.972.03-.676.298-1.366.566-2.058.826-.142.054-.27.117-.387.196l-.112.084a1.43 1.43 0 0 0-.289.327l-.006.008.006-.008-.008.012-.003.004-.01.014-.013.019.009-.012-.016.023-.03.044.022-.032-.055.085-.068.094.047-.069-.135.195c-.18.249-.369.493-.555.748l-1.065-.313v2.1l1.413.482.62-.848 1.216-1.667.605-.83 3.159 1.067.623-.852 1.215-1.661.597-.818.275.08.346.1.182.052c.084-.622.083-1.044-.014-1.464l-.04-.158zm-14.04-.027l-1.517.616c.377.384.735.682 1.011 1.042.691.9 1.572 1.365 2.706 1.374.24.001.479.046.71.085l.226.036-3.136-3.153zm2.075-.785l-.348.133-.348.132-.673.257h.001-.001l.847.879.189.195 1.033 1.073 1.036 1.076 1.464-.592c-.181-.193-.313-.34-.452-.481-.578-.584-1.153-1.17-1.74-1.746l-.164-.158-.167-.155-.677-.613zm-4.155 1.638l-.061.012c-.309.113-.613.237-.921.364l-.453.187-.012.005c.377.62.873.916 1.536.973l.454.055c.301.046.602.105.905.148.049.007.099.009.156.008l.092-.001c.066-.002.142-.004.235-.004-.603-.607-1.13-1.146-1.672-1.67a.344.344 0 0 0-.188-.076l-.071-.001zm6.375-2.546a.17.17 0 0 0-.058.009c-.552.203-1.095.433-1.609.64l3.181 3.202.266-.106 1.513-.606c-1.057-1.061-2.04-2.054-3.035-3.036a.411.411 0 0 0-.189-.095l-.069-.008zm-8.344 3.365c-.112-.01-.259.067-.535.213.246.198.517.163.796.188l.12.015c-.126-.2-.203-.323-.285-.38l-.05-.025-.046-.01zM1.072 5.65c-.022.183-.049.3-.049.419.006 1.43.03 2.858.02 4.287a5.993 5.993 0 0 0 .581 2.63c.829 1.758 2.072 3.046 4.04 3.47.02.005.039.012.058.018.349.113.492.313.44.612-.046.271-.228.407-.57.41-.16.002-.32-.018-.48-.025-1.28-.055-2.299.462-3.073 1.463-.62.8-.951 1.724-.957 2.742-.01 1.772.001 3.544.007 5.315 0 .156.027.312.045.508 22.43 3.623 44.837 7.246 67.26 10.863V16.525L1.071 5.65zm79.88 29.459c-.02.082-.036.111-.029.119.894.916 1.786 1.833 2.69 2.74a.394.394 0 0 0 .257.093l.06-.01c.406-.14.802-.313 1.267-.5l-.001-.001c-.56-.565-1.077-1.087-1.587-1.599l-.38-.382c-.056-.056-.122-.124-.193-.14-.693-.142-1.387-.276-2.084-.32zM27.35 36.956a.425.425 0 0 0-.343.151l-.044.063a.507.507 0 0 0-.066.237l.004.09c.034.27.258.499.53.522.031.003.06.002.09 0l.083-.018a.452.452 0 0 0 .313-.457.628.628 0 0 0-.266-.48.544.544 0 0 0-.301-.108zm56.555-1.262c.504.498.994.97 1.47 1.456.114.117.227.176.352.174l.076-.007a.604.604 0 0 0 .162-.06c.456-.236 1.009-.275 1.378-.692.042-.046.137-.05.21-.063.221-.04.445-.075.667-.111l.001-.13-.156-.042-.173-.041c-.12-.028-.25-.055-.387-.083l-.21-.04a21.485 21.485 0 0 0-.034-.007l-.184-.034c-1.259-.226-2.836-.406-3.172-.32zm-7.468.907l-.005.004h.001l.003-.003.001-.001zm-.003.002h-.002v.001l.002-.001zm.002-.002l-.002.002h.002V36.6zm.03-.022l-.023.018.005-.001.023-.01-.005.001.005-.001-.005-.007zM59.77 21.884c.656.033 1.312.072 2.047.113v2.073l1.711.31-.228 1.603-1.422-.16c-.019.2-.046.355-.046.51a815.368 815.368 0 0 0-.001 3.5c0 .12.002.242.019.361.086.614.428.873 1.04.791.06-.007.116-.033.175-.042.058-.01.119-.008.237-.016l.77 1.56c-.767.465-1.56.46-2.344.296-1.468-.305-2.28-1.387-2.302-3.027-.017-1.206-.004-2.413-.004-3.62v-.71l-.956-.2v-1.652l.944.114V21.92c.17-.018.266-.04.36-.036zm-9.223.464c.688-.016 1.334.195 2.033.268l.221.913c.117-.08.219-.13.3-.205.726-.67 1.563-.775 2.458-.45.895.327 1.348 1.036 1.521 1.943.049.254.059.52.06.78.004 1.892.003 3.784 0 5.675 0 .138-.018.276-.035.503l-2.37-.366v-.687c0-1.65.002-3.3-.002-4.95 0-.26.005-.528-.05-.78-.107-.501-.58-.726-1.016-.464-.457.274-.787.631-.774 1.252.032 1.53.01 3.059.01 4.588v.746l-2.356-.374v-8.392zm-5.47-1.176c1.843.259 3.042 1.338 3.514 3.157.22.844.253 1.695.16 2.632l-1.73-.269-.56-.087-2.244-.347c-.181.846.258 1.744.986 2.07.584.26.926.23 2.367-.218l.927 1.413c-.606.533-1.305.75-2.052.763-2.395.039-4.292-1.242-4.693-4.03-.127-.877-.128-1.767.097-2.636.085-.328.197-.657.35-.958.579-1.143 1.614-1.668 2.879-1.49zm-7.636-4.561l2.41.632V29.04l-2.063-.311-.174-.801c-.076.035-.15.052-.2.095-.935.779-2.022.849-3.04.188-.558-.362-.933-.877-1.191-1.48-.503-1.173-.637-2.409-.518-3.664.057-.593.178-1.202.397-1.753.715-1.794 2.527-2.222 4.011-.988.087.072.172.146.368.314V16.61zm-13.08 1.511l2.32.369c.007.217.023.43.023.642.002 1.71-.002 3.42.005 5.129 0 .239.016.487.083.713.151.512.644.694 1.097.41.378-.235.586-.564.581-1.046-.018-1.609-.008-3.218-.005-4.827 0-.216.018-.432.03-.725l2.34.368v8.432l-2.031-.317-.16-.923c-.136.116-.218.168-.28.24-.848.988-3.055.828-3.73-.762-.169-.399-.3-.848-.307-1.276-.032-2.05-.015-4.102-.013-6.154 0-.078.026-.156.046-.273zm11.065 4.024a2.614 2.614 0 0 0-.2.628 7.622 7.622 0 0 0 .024 2.874c.063.324.214.65.4.926a.93.93 0 0 0 .752.404l.124-.004c.083-.008.166-.026.245-.053.39-.138.668-.523.675-.964.008-.522.002-1.045.002-1.567v-.038l-.004-.339c-.006-.377-.015-.754.012-1.129.037-.538-.234-.878-.636-1.14-.55-.358-1.114-.191-1.394.402zm-16.876-6.79l2.426.112v2.083l1.695.308-.229 1.596-1.406-.154c-.025.176-.063.326-.063.476a482.077 482.077 0 0 0-.001 3.56c0 .16.012.324.046.479.1.457.399.688.861.665.176-.009.35-.052.56-.086l.782 1.587c-.273.107-.517.27-.771.288-.534.037-1.09.081-1.607-.025-1.45-.298-2.249-1.37-2.277-2.98-.02-1.226-.004-2.453-.004-3.68v-.673l-.952-.214V17.06l.94.094v-1.799zm26.65 7.458a1.441 1.441 0 0 0-.141.002c-.473.029-.695.37-.801.78-.09.345-.127.704-.203 1.152l2.337.373.024-.235c.039-.54-.042-1.016-.27-1.464a1.05 1.05 0 0 0-.811-.596l-.135-.012zm-28.818-7.39l-1.078 1.112c-.113-.09-.264-.21-.411-.332-.502-.417-1.053-.729-1.71-.822-.445-.063-.847.007-1.107.417-.236.373-.192.943.158 1.287.31.305.682.554 1.05.791.605.391 1.249.724 1.84 1.134.82.57 1.383 1.347 1.528 2.36.065.452.085.928.025 1.38-.176 1.333-1.158 2.236-2.59 2.329-1.977.127-3.647-.57-4.98-2.054-.037-.042-.052-.104-.044-.088l1.081-1.253c.292.25.514.451.748.638.51.405 1.074.693 1.723.8.483.08.936.04 1.256-.368.342-.438.33-.95.117-1.428a1.912 1.912 0 0 0-.555-.691c-.344-.271-.748-.463-1.111-.71-.644-.44-1.328-.838-1.903-1.356-.94-.848-1.212-1.97-.952-3.195.214-1.006.907-1.587 1.873-1.832 1.726-.438 4.004.43 5.042 1.882zm43.795-6.578l.028-.035-.07.087c.147.158.288.32.44.473l.616.616c1.428 1.426 2.866 2.841 4.262 4.297.276.288.558.532.872.71a2.3 2.3 0 0 0 1.077.302c.412.013.814.166 1.247.166l.219-.014c-.046-.086-.057-.126-.082-.151-1.939-1.95-3.877-3.9-5.824-5.84a1.049 1.049 0 0 0-.511-.28 45.965 45.965 0 0 0-1.496-.25l-.75-.117-.004.005-.006.007-.004.007-.014.017zm3.487.52l-.062.146 5.687 5.844.317-.129 1.403-.569-1.835-1.884c.057-.111.113-.196.183-.223l.044-.009c.045-.002.097.02.157.07.121.105.23.224.344.337l1.536 1.544.4-.16c.393-.16.768-.31 1.128-.455-.839-.874-1.655-1.727-2.469-2.571l-.464-.482-.006-.005-.018-.019-.016-.016-.011-.012-.033-.034-.024-.025-.004-.004-.024-.025-.034-.035-.054-.056-.025-.026-.028-.029-.001-.001-.07-.074a.607.607 0 0 0-.312-.168l-1.159-.191-1.16-.183-.046.1 1.539 1.542c-.067.15-.133.224-.203.243l-.042.004c-.072-.002-.147-.055-.228-.137a111.982 111.982 0 0 0-1.578-1.568c-.14-.135-.302-.3-.478-.336-.78-.158-1.568-.273-2.354-.404zm-7.456-1.192c.248.268.39.431.541.584 1.688 1.69 3.392 3.365 5.059 5.075.458.47.93.787 1.6.808.356.011.708.121 1.064.177.314.05.631.084 1.075.143-.24-.255-.372-.403-.511-.542-.438-.44-.876-.876-1.316-1.313-1.197-1.192-2.395-2.383-3.563-3.602a4.115 4.115 0 0 0-.742-.63l-.16-.095a2.569 2.569 0 0 0-1.1-.319c-.604-.04-1.202-.173-1.947-.286zm-13.12-2.116c.085.139.106.196.145.235l.066.066.063.064.148.148.059.06.125.125.064.065-.031-.032.071.072.131.131.074.075.038.038.222.223.099.1-.032-.032.097.097.005.005.097.098v-.001l.083.084.073.073.046.047-.002-.003.061.062.111.111.039.04-.025-.026.066.067.071.071.018.018.001.001.014.014.02.02.002.002.024.025-.008-.009.032.033.129.129.047.048.078.078.896.9.808.81 1.946 1.94c.111.111.27.194.43.245.049.015.097.027.144.037.568.114 1.15.16 1.715.284l.115.023.111.015c.037.004.073.006.108.007l.104-.003.02-.002a.721.721 0 0 0 .27-.083l.09-.057.084-.075c.456.37 1.708.694 2.639.71l.194-.002c.063-.002.123-.006.182-.011l-5.393-5.422.26-.214.108-.088c.154.19.28.375.434.53a1354.02 1354.02 0 0 0 5.011 5.036c.056.055.114.114.175.17l.094.08a.744.744 0 0 0 .302.16c.798.166 1.607.273 2.553.424l-.104-.114c-.16-.18-.266-.301-.38-.415l.025.025-.025-.025-4.812-4.808c-.087-.087-.18-.17-.258-.264l-.068-.089c-.106-.154-.06-.263.098-.33l.074-.026.215.204.213.208c1.79 1.786 3.576 3.575 5.369 5.358.152.152.324.342.516.387.522.12 1.054.2 1.662.3l.375.063c-.185-.218-.267-.328-.363-.424l-.137-.138c-1.81-1.816-3.624-3.628-5.426-5.451a1.35 1.35 0 0 0-.706-.378 2.3 2.3 0 0 0-.136-.026c-.977-.154-1.954-.311-2.93-.469l-2.756-.445c-.884-.142-1.769-.282-2.653-.422l-.035.052-.034.052 2.408 2.42 2.408 2.42v.16c-.069.01-.144.035-.212.046l-.066.005a.16.16 0 0 1-.058-.013.57.57 0 0 1-.176-.14l-.058-.064-.073-.078c-1.418-1.42-2.854-2.823-4.244-4.27l-.136-.137c-.456-.442-.943-.737-1.607-.776-.521-.032-1.037-.146-1.63-.234zm27.434 4.436l2.06 2.074 1.045 1.052 1.555-.636-.935-.89c-.418-.4-.777-.918-1.27-1.166l-.192-.082c-.05-.018-.1-.034-.152-.048-.425-.117-.904-.123-1.348-.196l-.261-.04-.257-.035-.245-.033zm3.725.59l.856 1.13.582.583 1.223-.518c-.372-.35-.618-.735-.961-.871a3.137 3.137 0 0 0-.01-.004c-.431-.17-.902-.242-1.393-.293l-.297-.028-.301-.027zM39.65 5.507c.062.093.099.155.13.201l.03.041.029.034c1.922 1.93 3.845 3.86 5.773 5.785.109.109.253.221.396.247.521.098 1.045.183 1.568.267l.786.127.044-.122-.261-.283-.14-.145c-1.587-1.587-3.207-3.14-4.746-4.773-.686-.727-1.422-1.178-2.416-1.22a3.746 3.746 0 0 1-.23-.018c-.293-.03-.597-.09-.963-.14zm37.176 6.067c.276.335.417.493.599.496l.062-.004c.114-.02.249-.092.441-.214l.2-.13c-.469-.086-.854-.222-1.302-.148zM26.15 3.335c.1.26.24.423.39.574 1.252 1.26 2.514 2.51 3.76 3.777l1.186 1.217.024.024.026.027.003.004c.462.48.957.746 1.604.806.517.048 1.03.147 1.543.223l.05-.11-2.041-2.061c.087-.144.166-.209.241-.22h.045c.075.01.148.067.226.146.273.28.565.545.843.82.192.191.378.388.546.599.323.407.69.705 1.101.906l.18.08c.242.1.5.167.774.207l.208.024.215.013c.363.014.723.097 1.084.148l-.121-.197a4.304 4.304 0 0 0-.544-.63l-.7-.705-.179-.179-.074-.074-.155-.156.006.007-.079-.08-.069-.069-.152-.152c-.157-.157-.227-.298 0-.428l.078-.038c.135.126.283.257.423.396.68.682 1.357 1.368 2.041 2.046.156.154.319.36.51.405.632.148 1.278.233 1.92.342l.065-.133-4.836-4.862.25-.222.1-.088.152.188c.097.122.189.237.292.34 1.5 1.51 3.007 3.01 4.503 4.523.263.266.533.45.923.493.634.072 1.262.208 1.893.309.182.029.367.03.644.052l-.477-.483-.876-.887-.107-.107-.346-.35c-1.358-1.366-2.72-2.729-4.073-4.1l-.017-.017-.017-.017-.008-.007-.006-.006-.026-.024a1.277 1.277 0 0 0-.754-.356c-.672-.084-1.34-.212-1.976-.317l-.218.291-.103.138c-.243-.212-.415-.479-.638-.534l-.472-.106.031.006-.034-.007.005.001-.166-.033-.088-.017-.365-.066-1.098-.186-.05.122 1.455 1.466.72.725c-.072.125-.139.19-.204.211l-.048.009c-.081 0-.161-.06-.249-.148-.703-.716-1.424-1.415-2.116-2.14a1.475 1.475 0 0 0-.935-.48 12.88 12.88 0 0 1-.554-.081c-.25-.042-.5-.087-.75-.125-.358-.054-.718-.099-1.077-.148l-.043.105 2.043 2.06c-.061.125-.12.193-.179.22l-.043.013c-.088.012-.174-.057-.264-.148-.494-.5-.99-.997-1.486-1.495-.168-.169-.306-.308-.427-.423a4.19 4.19 0 0 0-.257-.228c-.39-.314-.676-.355-1.577-.483-.343-.05-.686-.094-1.029-.14zm-3.471-.59c.095.256.234.418.385.57l2.294 2.307 2.416 2.429.266.267c.77.763.894.781 2.198.968.348.05.695.096 1.162.16-.067-.087-.113-.15-.15-.201a1.06 1.06 0 0 0-.099-.121l-2.95-2.968-2.737-2.748c-.098-.098-.21-.222-.333-.245a74.134 74.134 0 0 0-1.634-.283l-.818-.135zm-3.512-.559c.075.137.093.197.131.235 1.937 1.952 3.873 3.904 5.817 5.847.121.121.295.228.46.258.305.055.61.106.922.155l.473.074c.213.032.43.065.65.1l.337.051c-.06-.09-.1-.158-.135-.212l-.033-.047-.036-.042c-1.91-1.922-3.818-3.844-5.738-5.756a1.155 1.155 0 0 0-.566-.299c-.725-.137-1.457-.236-2.282-.364zm-7.39-1.089l-.06.011c-.371.138-.739.288-1.127.448l-.53.217c.186.204.313.352.45.49 1.102 1.111 2.207 2.22 3.31 3.33.1.1.202.196.295.301.12.137.104.22.028.292a.66.66 0 0 1-.106.076l-.065.038c-.164-.158-.31-.292-.45-.432-.978-.981-1.95-1.967-2.933-2.943l-.078-.077c-.302-.293-.623-.565-.933-.849l-.697.268-.697.268a.075.075 0 0 0-.022.014c-.01.01-.022.022-.04.037.042.063.074.138.128.193 1.087 1.098 2.17 2.2 3.274 3.281.159.156.408.263.63.3 2.741.456 5.485.895 8.229 1.335l.048.004.054-.001c.057-.004.128-.013.228-.018-.58-.6-1.09-1.124-1.585-1.634a.719.719 0 0 1 .147-.185.188.188 0 0 1 .072-.038l.045-.003c.047.005.096.033.151.09.268.271.57.515.801.815.526.683 1.16 1.127 1.936 1.307.243.056.501.086.774.09.296.003.59.1.886.145.164.025.33.033.616.06l-.123-.135c-.152-.165-.256-.281-.366-.392a4670.936 4670.936 0 0 0-4.586-4.61c-.38-.382-.71-.877-1.169-1.104-.48-.238-1.088-.218-1.64-.307l-.399-.058-.398-.055-.026.054-.022.048 3.296 3.347c-.1.08-.173.136-.242.19l-.069.055c-.245-.247-.49-.49-.736-.73-.743-.732-1.478-1.448-2.162-2.211-.581-.648-1.228-1.042-2.06-1.12l-.211-.013c-.281-.008-.56-.07-.84-.107l-.05.121c1.809 1.827 3.628 3.643 5.406 5.541a.797.797 0 0 1-.243.09l-.068.002-.06-.016c-.089-.044-.16-.127-.232-.207l-.073-.079-5.096-5.121c-.113-.114-.216-.245-.346-.332a.52.52 0 0 0-.196-.077l-.068-.004zm-6.3 2.543l-.073.004-.064.016c-.447.163-.885.35-1.441.574.17.157.315.326.453.476.185.199.358.364.563.426.79.237 1.628.313 2.446.454l.073-.136c-.588-.588-1.17-1.18-1.77-1.757-.038-.037-.113-.056-.188-.057zm-2.05.822c-.173-.003-.402.106-.76.354l1.345.225-.056-.094c-.164-.273-.285-.445-.466-.48l-.062-.005zm31.678.319l.238.055-.188-.044-.05-.011zm-.139-.03l.139.03-.015-.003-.124-.027zM6.185 3.604l.001.002.026.026.008.008.004.004.003.003.012.012.003.003.003.003.031.031.02.02.042.043-.023-.024.044.044h-.001l.021.021.002.002-.394-.396c.774.777 1.477 1.488 2.188 2.19.08.08.2.147.31.166l1.166.195.596.095.596.096.077-.13-3.224-3.315-1.374.565-.335.138.002.001.066.067.005.005.014.014.009.009.026.026.007.007.019.019.024.024.026.026zM188.366 59.04h-60.688c-2.557 0-4.656-2.061-4.656-4.593V14.649c0-2.532 2.099-4.61 4.656-4.61h60.688c2.557 0 4.656 2.078 4.656 4.61v39.798c0 2.532-2.099 4.592-4.656 4.592z"/>
        <path fill="#FEFEFE" d="M185.98 31.882c-1.234.22-2.052 1.427-1.838 2.645.217 1.242 1.395 2.097 2.63 1.877a2.308 2.308 0 0 0 1.861-2.675 2.29 2.29 0 0 0-2.653-1.847zm1.175-7.702a2.308 2.308 0 0 1-1.86 2.675c-1.235.22-2.414-.635-2.632-1.878-.212-1.216.605-2.425 1.84-2.644 1.26-.224 2.44.63 2.652 1.847zm-7.96 14.023c-2.894.487-4.657-.918-5.203-4.04l-1.223-6.983-2.075.369-.463-2.645 2.075-.368-.537-3.07 3.651-1.111.616 3.518 3.204-.569.096 2.71-2.837.504 1.209 6.903c.24 1.376.78 1.825 1.726 1.658.498-.089.97-.336 1.487-.783l1.709 2.18c-.9.895-2.2 1.508-3.435 1.727zm-10.111-9.169l1.788 10.21-3.73.662-1.677-9.574c-.282-1.614-.939-1.96-1.884-1.793-1.077.191-1.792 1.054-2.337 2.434l1.695 9.68-3.73.662-2.454-14.018 3.232-.574.598 1.72c.884-1.602 2.085-2.633 3.87-2.95 2.443-.433 4.166.896 4.629 3.541zm-17.805 5.044c-.371-2.116-1.32-3.365-3.107-3.048-1.47.261-2.214 1.43-1.935 4.107l5.07-.9-.028-.159zm4.064 1.87l-8.694 1.543c.735 2.652 2.135 3.221 3.921 2.904 1.182-.21 2.115-.757 3.175-1.819l1.92 1.841c-1.17 1.354-2.766 2.455-4.946 2.842-4.465.792-7.32-1.755-8.09-6.145-.74-4.232.944-7.913 5.015-8.636 3.94-.7 6.74 1.53 7.523 6 .084.477.132 1.068.176 1.47zm-23.395.499c.283 1.613 1.343 2.407 2.761 2.155 1.497-.266 2.128-1.305 1.827-3.024-.292-1.666-1.193-2.325-2.742-2.05-1.419.252-2.114 1.385-1.846 2.919zm5.043-4.304c1.84.463 2.893 1.368 3.203 3.14.478 2.724-1.355 5.094-4.901 5.724-.604.107-1.138.148-1.66.104-.28.267-.43.65-.364 1.02.083.476.398.883 1.764.64l2.128-.377c3.152-.56 5.47.774 5.878 3.101.495 2.83-1.646 4.983-6.295 5.808-5.096.905-6.78-.513-7.27-3.318l3.335-.592c.232 1.323.911 1.802 3.564 1.331 2.574-.457 3.132-1.292 2.957-2.297-.167-.952-.978-1.408-2.45-1.148l-2.048.364c-2.915.518-4.346-.536-4.605-2.018-.177-1.005.283-2.095 1.17-2.908-1.9-.644-2.853-1.757-3.168-3.555-.542-3.094 1.553-5.512 5.046-6.132 3.218-.49 4.703-1.6 6.218-2.85l1.424 2.72c-.955.578-2.245.944-3.926 1.243z"/>
    </g>
</svg>
