<svg xmlns="http://www.w3.org/2000/svg" width="193" height="54" viewBox="0 0 193 54">
    <path fill="#23333A" fill-rule="evenodd" d="M59.704 46.657c.103.005.224.16.293.272.84 1.352 1.672 2.71 2.507 4.065.074.119.152.235.288.442v-4.764H64.5V54h-2.055l-.032-.091-.04-.087c-.894-1.456-1.79-2.91-2.687-4.365-.027-.044-.063-.082-.112-.138l-.054-.063V54h-1.739l.013-6.833v-.522c.657 0 1.284-.013 1.91.012zm-16.346-.193c.614.077 1.214.308 1.807.509.224.076.41.266.645.425l-1.115 1.266c-.56-.502-1.2-.744-1.93-.65-1.306.166-2.117 1.37-1.88 2.76.25 1.466 1.705 2.276 3.122 1.726.093-.037.203-.173.21-.27.023-.365.009-.732.009-1.146h-1.372v-1.426h2.99v1.28c0 .736-.022 1.474.01 2.21.014.342-.112.503-.417.594-.237.07-.466.17-.698.258h-3.162c-.044-.026-.087-.059-.134-.078-1.94-.783-2.875-2.647-2.347-4.678.48-1.85 2.249-3.03 4.262-2.78zm10.967.207v1.457H51.14v1.386h2.996v1.423h-2.993v1.535h3.398V54h-5.138v-7.329h4.922zm18.98-.004v1.47h-2.058v.499l-.001 4.893c0 .157-.018.314-.027.471H69.48v-5.839h-2.043v-1.494h5.869zm111.096-12.502v.387c0 1.342-.004 2.685.001 4.027.005 1.266-.444 2.296-1.655 2.8-1.293.54-2.58.486-3.723-.424a2.327 2.327 0 0 1-.9-1.783c-.041-1.655-.013-3.31-.013-4.994h1.73v.873c0 1.106-.003 2.211.002 3.317 0 .21.015.421.052.627.138.764.656 1.147 1.474 1.105.694-.036 1.195-.513 1.228-1.247.037-.801.018-1.605.02-2.407.003-.747.001-1.494.001-2.28h1.783zm-64.044.242c.265.129.504.313.785.49l-1.121 1.278c-.575-.516-1.228-.753-1.974-.646-1.294.185-2.089 1.413-1.828 2.797.271 1.436 1.75 2.24 3.119 1.684.087-.035.193-.155.198-.24.021-.378.01-.757.01-1.185h-1.357v-1.394h2.947c.012.08.035.167.035.253.003 1.105.01 2.21-.007 3.316-.002.136-.101.346-.21.392-1.349.57-2.74.753-4.153.28-1.728-.577-2.687-2.194-2.486-4.106.185-1.754 1.482-3.076 3.236-3.322.979-.138 1.917-.03 2.806.403zm24.535.615l-1.173 1.146c-1.056-1.023-2.473-.612-3.054.063-.782.908-.743 2.467.102 3.285.825.798 2.046.747 3.01-.16l.59.545.597.56c-1.078 1.502-3.894 1.66-5.473.33-1.648-1.386-1.777-4.159-.265-5.697 1.47-1.495 4.36-1.543 5.666-.072zM30.095 23.902c1.444 8.333-4.165 16.227-12.498 17.59C9.393 42.835 1.65 37.304.227 29.082c-.085-.49-.152-.984-.227-1.476v-2.134c.127-.763.216-1.535.387-2.289a15.11 15.11 0 0 1 12.467-11.63c8.166-1.245 15.838 4.25 17.241 12.35zm32.121 11.12l-1.18 1.139c-1.024-1.001-2.43-.614-3.017.037-.786.87-.789 2.414.013 3.259.807.85 1.97.823 3.088-.091l1.165 1.09c-1.029 1.489-3.842 1.664-5.436.362-1.663-1.357-1.824-4.139-.329-5.692 1.466-1.524 4.373-1.589 5.696-.104zm27.408-1.058c1.785.214 2.99 1.156 3.407 2.663.749 2.708-1.04 5.062-3.85 5.066-3.244.015-4.679-2.91-3.73-5.428.6-1.591 2.33-2.523 4.173-2.301zm18.19 0c1.858.226 3.1 1.251 3.456 2.856.592 2.667-1.173 4.869-3.906 4.872-3.436.005-4.715-3.192-3.65-5.611.652-1.479 2.34-2.33 4.1-2.117zm84.805.634c.104.073.218.133.328.2v.078l-1.164 1.108c-.38-.349-.851-.615-1.438-.557-.167.017-.374.032-.483.133-.168.157-.357.383-.368.59-.01.182.168.443.338.551.283.18.626.264.944.387.306.119.622.217.919.354 1.757.815 1.356 2.996.236 3.734-1.281.843-3.503.608-4.582-.543l1.148-1.022c.39.178.834.418 1.306.578.217.075.496.023.734-.028.306-.065.5-.274.547-.6.045-.308-.062-.557-.325-.705-.25-.141-.522-.244-.79-.35-.354-.139-.722-.245-1.07-.4-.749-.333-1.18-.906-1.212-1.741-.031-.813.278-1.46.969-1.909 1.1-.713 2.82-.649 3.963.142zm-41.053-.377c.322.209.415.782.59 1.203.781 1.867 1.555 3.736 2.33 5.605.06.143.112.289.183.475-.622 0-1.198.01-1.773-.01-.092-.003-.215-.123-.26-.22a6.955 6.955 0 0 1-.354-.876c-.08-.247-.2-.353-.478-.345a43.8 43.8 0 0 1-2.21.002c-.241-.005-.352.082-.429.301-.134.382-.199.9-.477 1.089-.281.191-.787.054-1.194.06-.197.002-.394 0-.651 0 .047-.143.071-.23.105-.311.945-2.254 1.895-4.506 2.832-6.762.09-.22.208-.296.437-.286.458.022 1.022-.138 1.35.075zm12.007-.076c.733.016 1.467.005 2.223.005v7.325h-1.68v-5.011l-.072-.017c-.044.1-.093.198-.131.3-.542 1.467-1.089 2.932-1.617 4.404-.093.257-.2.368-.494.362-.88-.018-.88-.003-1.18-.843l-1.397-3.897c-.038-.106-.082-.21-.123-.316l-.066.018v5h-1.626V34.15h1.636c.875 0 .875 0 1.163.812l1.255 3.528c.04.11.083.217.154.402.105-.288.189-.505.264-.725.42-1.231.846-2.46 1.25-3.697.08-.242.185-.33.44-.325zm-86.504.02c.117.005.259.155.333.273.842 1.35 1.673 2.709 2.507 4.064.074.121.15.241.285.458v-4.787h1.667v7.33c-.619 0-1.234.013-1.848-.012-.102-.004-.225-.156-.294-.268-.84-1.352-1.672-2.71-2.506-4.065-.075-.121-.156-.239-.292-.447v4.77H75.22v-7.33c.64 0 1.246-.014 1.849.014zm49.41.01v7.315h-1.72v-7.314h1.72zm-74.11.005v1.448h-3.186v1.39h2.994v1.42h-2.99v1.558h3.358v1.493h-5.073V34.18h4.897zm14.565-.006v2.736h2.872v-2.73h1.76v7.299h-1.734v-3.03h-2.888v3.036h-1.75v-7.311h1.74zm68.103-.002v1.456h-3.183v1.388h3.005v1.426h-3.006V40h3.366v1.485h-5.078v-7.313h4.896zm-90.521.01v1.455h-2.047v5.842h-1.764V35.67h-2.082v-1.489h5.893zm128.598.085c1.494.181 2.222 1.438 1.782 2.875-.307 1-1.115 1.384-2.066 1.515-.519.073-1.047.073-1.633.11v2.71h-1.766v-7.254c.024-.019.044-.049.064-.049 1.207.022 2.426-.051 3.62.093zm-74.888-.099v5.774h2.837v1.529h-4.596v-7.303h1.759zm-9.042 1.373c-1.231-.01-2.117.936-2.115 2.26.003 1.33.88 2.288 2.097 2.29l.158-.006c1.147-.079 1.978-1.036 1.97-2.304-.01-1.29-.894-2.23-2.11-2.24zm18.147 0c-1.223.017-2.077.947-2.074 2.26.003 1.334.874 2.286 2.093 2.29l.159-.005c1.147-.078 1.976-1.033 1.969-2.304-.007-1.25-.842-2.175-1.988-2.238l-.159-.003zm43.449.686l-.094.004-.885 2.394h1.85l-.871-2.398zm20.438-.68v1.83l.384-.043c.38-.04.747-.074 1.101-.159.391-.094.534-.429.512-.827-.022-.38-.229-.632-.585-.688-.458-.073-.926-.078-1.412-.114zM15.155 15.993C9.35 15.993 4.634 20.72 4.64 26.534c.005 5.82 4.714 10.526 10.528 10.524l.285-.004c5.676-.154 10.241-4.818 10.24-10.532-.001-5.803-4.73-10.526-10.538-10.528zm80.272-1.5c.103.079.203.161.348.276.333-.863.652-1.67.95-2.483.081-.219.184-.307.425-.302.774.016 1.548.006 2.339.006v10.917c-.87 0-1.736.007-2.601-.014-.073-.002-.185-.191-.205-.306-.5-2.897-1.968-5.172-4.436-6.755-2.453-1.574-5.135-2.065-7.978-1.348-2.727.689-3.425 2.928-3.159 5.008.109.852.654 1.48 1.296 2.013.323.268.67.505 1.032.775l-3.769 4.237c-1.14-.743-2.013-1.7-2.684-2.856-1.886-3.25-1.354-9.101 4.054-11.2 5.118-1.986 9.968-1.302 14.388 2.033zM61.384.764v24.411c-.17-.19-.297-.328-.42-.469-1.72-1.96-3.414-3.945-5.166-5.875-1.495-1.648-3.231-2.981-5.39-3.668-1.523-.484-3.07-.61-4.635-.237-2.477.59-4.06 2.228-5.121 4.444-1.007 2.104-1.36 4.357-1.44 6.664-.005.142 0 .284 0 .468h-5.586c-.01-.106-.03-.206-.029-.306.049-2.87.633-5.617 1.97-8.172 1.663-3.177 4.126-5.456 7.687-6.231 4.083-.889 7.99-.392 11.498 2.07.557.39 1.042.884 1.583 1.35.01-.084.032-.178.032-.271 0-2.74.01-5.48-.011-8.219a5.18 5.18 0 0 0-.212-1.396c-.347-1.19-1.18-1.803-2.42-1.822-.895-.014-1.79-.004-2.687-.005h-.45V.763h10.797zm61.807 11.335c3.376 1.074 5.532 3.43 6.835 6.645.879 2.167 1.285 4.44 1.499 6.755.029.314.052.628.082.994h-26.994c-.016-.054-.04-.101-.041-.15-.03-2.616.284-5.177 1.31-7.607 1.605-3.798 4.506-6.048 8.488-6.907 2.95-.636 5.913-.656 8.821.27zm28.434-.336c4.006.84 6.622 3.323 8.11 7.069.814 2.046 1.218 4.186 1.431 6.368.04.416.069.834.106 1.285h-26.97c0-.748-.039-1.483.007-2.212.116-1.876.48-3.705 1.204-5.447 1.412-3.395 3.881-5.644 7.403-6.7a17.47 17.47 0 0 1 8.709-.363zm-4.877 2.494c-1.98.249-3.63 1.112-4.869 2.704-1 1.289-1.557 2.768-1.811 4.361-.126.785-.17 1.584-.255 2.401h15.832v-.286c-.018-1.404-.21-2.781-.668-4.11-.644-1.867-1.701-3.413-3.503-4.343-1.489-.768-3.086-.933-4.726-.727zm-34.445 2.592c-1.609 1.99-2.069 4.351-2.125 6.871h15.799c0-1.157-.111-2.276-.376-3.378-.786-3.258-2.82-5.884-6.722-6.133-2.598-.165-4.884.548-6.576 2.64zM70.587.184l.482.156c1.456.467 2.453 1.979 2.246 3.406-.234 1.616-1.536 2.81-3.092 2.835-1.626.027-2.953-1.057-3.244-2.649-.293-1.602.754-3.21 2.37-3.648.098-.026.193-.066.29-.1h.948z"/>
</svg>
