<svg xmlns="http://www.w3.org/2000/svg" width="158" height="120" viewBox="0 0 158 120">
    <path fill="#23333A" fill-rule="evenodd" d="M8.123 97.033c1.642 0 3.39.445 4.146.887v2.896c-.824-.477-2.4-.99-3.909-.99-3.701 0-5.106 1.364-5.106 8.692 0 7.257.996 8.754 4.217 8.754.993 0 1.816-.133 2.433-.306v-7.393H6.612v-2.658h6.445v11.96c-.652.41-3.257 1.125-5.553 1.125C1.473 120 0 116.865 0 108.518c0-8.724 2.33-11.485 8.123-11.485zm51.656.41v2.657h-4.833v19.49h-3.153V100.1h-4.798v-2.658h12.784zm-25.268 0l7.027 17.649c-.24-1.807-.445-3.917-.445-5.894V97.442h3.017v22.149h-3.634l-7.094-17.717c.273 1.803.513 3.95.513 5.963v11.754h-3.017V97.442h3.633zm-7.273 0v2.657h-7.266v6.782h5.861v2.623h-5.861v7.43h7.266v2.656h-10.42V97.442h10.42zm-23.4-31.257v15.607c0 3.273 1.129 4.225 3.426 4.225 2.296 0 3.428-.952 3.428-4.225V66.186h3.153v15.471c0 5.042-2.125 7.089-6.581 7.089-4.525 0-6.58-1.977-6.58-7.089V66.186h3.154zm91.688-.407c1.412 0 2.807.363 3.467.713l.115.066v2.823c-.601-.472-1.915-.924-3.307-.92-2.153.006-3.572.852-3.58 3.015-.005 1.755.835 2.668 2.201 3.844l.2.17 1.79 1.545c1.963 1.68 3.186 3.057 3.181 5.913-.005 3.43-2.306 5.785-6.478 5.795-1.82.005-3.195-.355-3.92-.726l-.122-.065v-2.874c.78.535 2.132.985 3.76.985 2.15 0 3.58-.854 3.58-3.01 0-1.757-.836-2.702-2.2-3.855l-.198-.166-1.794-1.542c-1.96-1.68-3.18-3.055-3.18-5.916 0-3.429 2.303-5.795 6.485-5.795zm40.044.407v2.66h-7.266v6.78h5.864v2.625h-5.864v7.428h7.266v2.66h-10.42V66.186h10.42zm-90.581 0l2.81 11.52c.411 1.738.924 4.667 1.232 6.988.31-2.321.824-5.25 1.304-6.988l2.776-11.52h3.186l-5.654 22.153h-3.292l-5.654-22.153h3.292zm113.011 0v2.66h-4.833v19.493h-3.153V68.846h-4.795v-2.66H158zm-136.447 0l7.029 17.654c-.24-1.806-.447-3.921-.447-5.898V66.186h3.016v22.153h-3.633l-7.094-17.722c.275 1.806.513 3.954.513 5.966v11.756h-3.014V66.186h3.63zm48.094 0v2.66h-7.266v6.78h5.861v2.625h-5.861v7.428h7.266v2.66h-10.42V66.186h10.42zm52.619 0v2.66h-4.83v19.493h-3.154V68.846h-4.8v-2.66h12.784zm-43.837 0c4.113 0 7.059 1.537 7.059 6.546 0 3.507-1.713 5.21-3.87 5.996l4.729 9.611h-3.6l-4.182-9.033h-2.124v9.033h-3.153V66.186h5.141zm63.902 0v22.15h-3.153v-22.15h3.153zm-103.562 0v22.15h-3.153v-22.15h3.153zm67.721 0v22.15h-3.153v-22.15h3.153zm-28.37 2.66h-1.68v7.805h1.68c2.47 0 4.114-.515 4.114-3.919 0-3.376-1.645-3.886-4.113-3.886zM54.398 50.524v3.134H.685v-3.134h53.712zm-3.15-6.265v3.135H3.835v-3.135h47.412zm-22.132-23.47v20.337h-3.15V20.79h3.15zm-6.301 0v20.337h-3.15V20.79h3.15zm-6.301 0v20.337h-3.15V20.79h3.15zm-6.301 0v20.337h-3.15V20.79h3.15zm25.204 0v20.337h-3.15V20.79h3.15zm6.301 0v20.337h-3.15V20.79h3.15zm6.303 0v20.337h-3.15V20.79h3.15zm3.151-6.265l-3.15 3.133H7.06l-3.15-3.133h47.26zM27.541 0l26.856 9.455v3.328L27.541 3.328.685 12.783V9.455L27.54 0z"/>
</svg>
