<svg xmlns="http://www.w3.org/2000/svg" width="132" height="100" viewBox="0 0 132 100">
    <path fill="#23333A" fill-opacity=".25" fill-rule="evenodd" d="M76.645 15.603a2.13 2.13 0 0 0-2.129-2.128H57.484a2.13 2.13 0 0 0-2.13 2.128 2.13 2.13 0 0 0 2.13 2.127h17.032a2.13 2.13 0 0 0 2.13-2.127zm4.258 0c0 3.519-2.865 6.383-6.387 6.383H57.484c-3.522 0-6.387-2.864-6.387-6.383 0-3.52 2.865-6.383 6.387-6.383h17.032c3.522 0 6.387 2.864 6.387 6.383zm9.936 49.645a2.13 2.13 0 0 0-4.258 0 20.431 20.431 0 0 1-6.028 14.543 2.126 2.126 0 0 0 1.504 3.632c.545 0 1.09-.207 1.506-.623 4.692-4.69 7.276-10.922 7.276-17.552zm36.903-40.425c0-4.301-3.503-7.802-7.807-7.802H94.387c-.917 0-1.73-.586-2.02-1.454-.037-.112-3.91-11.312-12.173-11.312H51.806c-8.263 0-12.136 11.2-12.175 11.315a2.132 2.132 0 0 1-2.018 1.451H12.065c-4.304 0-7.807 3.501-7.807 7.802v5.804c.223-.08.46-.13.71-.13H22a2.13 2.13 0 0 1 2.129 2.127A2.13 2.13 0 0 1 22 34.752H4.968c-.25 0-.487-.051-.71-.13v7.222h12.774a2.13 2.13 0 0 1 2.13 2.128 2.13 2.13 0 0 1-2.13 2.127H4.258v7.223c.223-.08.46-.13.71-.13h12.774a2.13 2.13 0 0 1 2.129 2.127 2.13 2.13 0 0 1-2.13 2.128H4.969c-.25 0-.487-.051-.71-.13v22.825c0 4.3 3.503 7.801 7.807 7.801h27.634c-5.273-6.093-8.473-14.025-8.473-22.695 0-19.163 15.599-34.752 34.774-34.752s34.774 15.59 34.774 34.752c0 8.67-3.2 16.602-8.473 22.695h27.634c4.304 0 7.807-3.5 7.807-7.801v-55.32zM66 95.745a30.379 30.379 0 0 0 19.343-6.93c.172-.235.39-.428.643-.575 6.437-5.595 10.53-13.816 10.53-22.992 0-16.815-13.69-30.496-30.516-30.496s-30.516 13.68-30.516 30.496c0 9.176 4.093 17.397 10.53 22.992.253.147.471.342.643.576A30.386 30.386 0 0 0 66 95.745zm39.742-82.979h8.516v-2.128a3.55 3.55 0 0 0-3.548-3.546h-1.42a3.55 3.55 0 0 0-3.548 3.546v2.128zM132 24.823v55.319c0 6.648-5.412 12.057-12.065 12.057H87.923C81.938 97.072 74.306 100 66 100c-8.306 0-15.938-2.928-21.923-7.801H12.065C5.412 92.199 0 86.79 0 80.142v-55.32c0-6.648 5.412-12.056 12.065-12.056h24.094C37.711 9.126 42.531 0 51.806 0h28.388c9.275 0 14.095 9.126 15.647 12.766h5.643v-2.128c0-4.3 3.503-7.801 7.806-7.801h1.42c4.303 0 7.806 3.5 7.806 7.801v2.128h1.42c6.652 0 12.064 5.408 12.064 12.057zm-63.871 17.73A2.13 2.13 0 0 1 66 44.681c-11.348 0-20.58 9.227-20.58 20.567a2.13 2.13 0 0 1-4.259 0c0-13.686 11.144-24.822 24.839-24.822a2.13 2.13 0 0 1 2.129 2.127z"/>
</svg>
