<svg width="168" height="168" viewBox="0 0 168 168" fill="none" xmlns="http://www.w3.org/2000/svg">
<circle cx="84" cy="84" r="84" fill="white"/>

<path d="M127.584 74.3817C125.28 71.2829 121.653 69.3818 117.803 69.2276C117.681 66.1171 116.438 63.0423 114.069 60.6728C111.769 58.3726 108.747 57.0573 105.514 56.933C105.364 53.0746 103.49 49.4841 100.359 47.156C98.1319 45.5003 95.4919 44.625 92.7244 44.625C88.6877 44.625 84.8411 46.5567 82.4358 49.7918C81.8956 50.5177 81.4298 51.3081 81.0509 52.1412L63.1907 87.8148L59.0179 91.9875L58.8458 92.0845L58.7726 92.2341C52.3646 98.789 52.4092 109.335 58.9079 115.834C62.078 119.004 66.2926 120.75 70.776 120.75C75.2593 120.75 79.4742 119.004 82.6442 115.834L86.9314 111.547L122.599 93.6896C123.432 93.3108 124.222 92.8448 124.948 92.3048C127.694 90.2633 129.481 87.2745 129.978 83.8891C130.476 80.5041 129.626 77.1274 127.584 74.3817Z" fill="#009DE0" fill-opacity=".1"/>
<g clip-path="url(#clip0_1879_33091)">
<path d="M72.7533 107.652C72.5019 107.401 72.0944 107.401 71.8429 107.652C70.1597 109.335 67.918 110.262 65.5306 110.262C63.5247 110.262 61.6218 109.608 60.0666 108.401C59.5731 108.017 58.8607 108.011 58.4189 108.453C57.9772 108.894 57.9739 109.616 58.4574 110.011C60.4472 111.64 62.9197 112.525 65.5308 112.525C68.5224 112.525 71.3323 111.362 73.4426 109.252C73.6939 109.001 73.694 108.593 73.4427 108.342L72.7533 107.652Z" fill="#223239"/>
<path d="M122.34 71.7567C120.036 68.6579 116.409 66.7568 112.559 66.6026C112.437 63.4921 111.194 60.4173 108.825 58.0478C106.524 55.7476 103.503 54.4323 100.27 54.308C100.12 50.4496 98.2457 46.8591 95.1144 44.531C92.8878 42.8753 90.2478 42 87.4802 42C83.4435 42 79.597 43.9317 77.1916 47.1668C76.6514 47.8927 76.1856 48.6831 75.8068 49.5162L57.9466 85.1898L53.7738 89.3625L53.6016 89.4595L53.5285 89.6091C47.1204 96.164 47.1651 106.71 53.6638 113.209C56.8338 116.379 61.0485 118.125 65.5318 118.125C70.0152 118.125 74.23 116.379 77.4001 113.209L81.6873 108.922L117.355 91.0646C118.188 90.6858 118.978 90.2198 119.704 89.6798C122.45 87.6383 124.236 84.6495 124.734 81.2641C125.232 77.8791 124.382 74.5024 122.34 71.7567ZM99.298 56.5701C99.4537 56.5634 99.6098 56.5588 99.7665 56.5588C102.584 56.5588 105.233 57.6559 107.225 59.6482C110.177 62.6003 111.01 66.8819 109.723 70.5843C109.715 70.6078 109.706 70.6309 109.697 70.6544C109.652 70.7828 109.604 70.9111 109.553 71.0381C109.532 71.0896 109.51 71.1404 109.489 71.1914C109.448 71.2894 109.406 71.3874 109.362 71.4843C109.332 71.5505 109.3 71.616 109.268 71.6818C109.229 71.7625 109.19 71.8429 109.149 71.9229C109.111 71.9968 109.072 72.0701 109.032 72.143C108.994 72.2139 108.955 72.2844 108.915 72.3541C108.871 72.431 108.826 72.5072 108.78 72.5829C108.739 72.6486 108.699 72.7142 108.657 72.7793C108.608 72.8552 108.559 72.931 108.509 73.0056C108.465 73.0707 108.42 73.1348 108.374 73.1992C108.323 73.2713 108.272 73.3433 108.219 73.4141C108.168 73.4821 108.115 73.5492 108.063 73.6164C108.012 73.6809 107.962 73.7458 107.91 73.8092C107.845 73.8875 107.778 73.9642 107.711 74.041C107.666 74.0916 107.624 74.143 107.578 74.1928C107.464 74.3189 107.346 74.4432 107.225 74.565C107.091 74.6988 106.953 74.8289 106.812 74.9557L91.917 60.0608C92.0439 59.9194 92.1741 59.7817 92.3079 59.6481C92.3258 59.6302 92.3446 59.6136 92.3625 59.5959C92.4636 59.4963 92.5654 59.3981 92.6697 59.3033C92.743 59.2367 92.8183 59.1727 92.8931 59.1084C92.942 59.0663 92.9902 59.0232 93.0397 58.9818C93.1396 58.8992 93.2413 58.8192 93.3439 58.7405C93.368 58.7219 93.3917 58.7026 93.416 58.6843C93.5366 58.5932 93.6588 58.5051 93.783 58.4195C93.788 58.4161 93.7931 58.4124 93.7983 58.409C95.3835 57.3205 97.2449 56.6813 99.1928 56.5759L99.298 56.5701ZM76.1621 82.468L82.6985 73.1228L93.7503 84.1746L84.405 90.7108L76.1621 82.468ZM82.5223 92.0278L73.1784 98.5631L68.31 93.6947L74.8454 84.3509L82.5223 92.0278ZM84.0154 71.24L90.5517 61.8948L104.978 76.3215L95.6332 82.8579L84.0154 71.24ZM87.4802 44.2625C89.7579 44.2625 91.931 44.9831 93.7647 46.3467C96.3477 48.2674 97.8918 51.2321 98.0103 54.4174C95.9621 54.6968 94.031 55.4636 92.3525 56.6602C92.3274 56.6781 92.3018 56.6954 92.2767 56.7135C92.1749 56.7873 92.0745 56.863 91.9744 56.94C91.9139 56.9865 91.8535 57.0336 91.7938 57.0812C91.7135 57.1453 91.6338 57.21 91.5547 57.2761C91.4701 57.3469 91.3871 57.4195 91.3042 57.4925C91.2457 57.5441 91.187 57.5946 91.1293 57.6471C90.9866 57.7775 90.8458 57.9107 90.7084 58.0481C90.5744 58.1821 90.4454 58.3208 90.3172 58.4605L79.6212 47.7644C81.6188 45.5278 84.4327 44.2625 87.4802 44.2625ZM77.8396 50.5096L77.8586 50.4696C77.9884 50.1827 78.1337 49.9036 78.2877 49.6305L88.927 60.2701L82.3907 69.6154L72.9838 60.2086L77.8396 50.5096ZM71.9164 62.3404L81.074 71.4981L74.5376 80.8434L66.618 72.9237L71.9164 62.3404ZM65.5503 75.0558L73.2206 82.7261L70.1493 87.1171L66.6852 92.0697L60.2525 85.637L65.5503 75.0558ZM75.8288 111.581L75.6205 111.761L75.609 111.797C72.8891 114.421 69.3211 115.862 65.5315 115.862C61.6526 115.862 58.006 114.352 55.2631 111.609C49.6138 105.96 49.6013 96.7755 55.2249 91.1104L58.8755 87.4602L65.3673 93.954L65.3671 93.9541L65.9437 94.5306L66.9916 95.5788L66.9917 95.5786L72.246 100.833V100.833L72.7764 101.363L72.9188 101.505L79.4123 107.997L75.8288 111.581ZM81.2341 106.619L74.803 100.188L84.1469 93.6523L91.8156 101.321L81.2341 106.619ZM93.948 100.253L86.0298 92.3354L95.3751 85.7992L104.531 94.955L93.948 100.253ZM116.401 89.0134L116.381 89.0224L106.663 93.8878L97.2578 84.4825L106.603 77.9462L117.241 88.5837C116.967 88.7379 116.688 88.8833 116.401 89.0134ZM122.496 80.9353C122.133 83.4 120.94 85.6082 119.106 87.249L108.412 76.5552C108.552 76.4272 108.691 76.2979 108.825 76.1642C108.966 76.0228 109.102 75.878 109.236 75.731C109.282 75.6801 109.327 75.6284 109.372 75.5771C109.458 75.48 109.542 75.3821 109.625 75.2828C109.676 75.2208 109.727 75.1584 109.777 75.0956C109.851 75.0033 109.923 74.9098 109.994 74.8157C110.043 74.7504 110.093 74.6856 110.141 74.6194C110.219 74.5113 110.295 74.4014 110.37 74.2913C110.424 74.211 110.478 74.1308 110.53 74.0497C110.61 73.9249 110.69 73.7993 110.766 73.6717C110.807 73.6029 110.846 73.5333 110.885 73.4637C110.943 73.3626 111 73.2612 111.055 73.1586C111.092 73.0895 111.128 73.02 111.164 72.9505C111.221 72.839 111.276 72.7268 111.33 72.6138C111.358 72.5548 111.386 72.4964 111.414 72.4372C111.483 72.2854 111.549 72.1326 111.612 71.9782C111.621 71.9579 111.63 71.9376 111.638 71.9173C112.033 70.9413 112.309 69.9156 112.455 68.861C115.671 68.979 118.595 70.5115 120.524 73.1064C122.206 75.3676 122.906 78.1478 122.496 80.9353Z" fill="#223239"/>
</g>
</svg>
