<svg width="164" height="164" viewBox="0 0 164 164" fill="none" xmlns="http://www.w3.org/2000/svg">
<g fill="none" fill-rule="evenodd">
<circle cx="82" cy="82" r="82" fill="white"/>
</g>
<circle cx="86.375" cy="80.5" r="38.5" fill="#009DE0" fill-opacity=".1"/>
<path fill-rule="evenodd" clip-rule="evenodd" d="M126.888 116.2C126.888 116.924 126.301 117.512 125.576 117.512H115.513C114.788 117.512 114.201 116.924 114.201 116.2C114.201 115.475 114.788 114.887 115.513 114.887H125.576C126.301 114.887 126.888 115.475 126.888 116.2ZM68.7092 97.389L74.262 90.9525H90.264L95.8167 97.389L90.9535 112.354L90.8581 112.377C88.0572 113.045 85.1654 113.382 82.263 113.382C79.3624 113.382 76.4696 113.045 73.6679 112.377L73.5716 112.354L68.7092 97.389ZM70.177 111.362L69.5619 111.144C69.1165 110.98 68.6737 110.808 68.2354 110.628L67.5817 110.35L66.9316 110.06L66.2885 109.759L65.6489 109.442L65.0154 109.115L64.3845 108.773L63.8586 108.474L63.1455 108.053L62.5278 107.67L61.8312 107.218L61.1164 106.732C60.9186 106.594 60.7235 106.455 60.5126 106.301C60.3263 106.166 60.1416 106.029 59.957 105.89L59.3944 105.455L58.8388 105.009L58.2919 104.552L57.7529 104.084L57.2218 103.606L56.6994 103.116L56.1831 102.615L55.6363 102.061L54.9896 101.376L54.6703 101.022L54.1304 100.406C54.1304 100.406 53.7358 99.9414 53.5844 99.7559L53.139 99.1994L52.5344 98.411H66.2622L70.5077 111.475L70.177 111.362ZM50.7472 95.7668L50.6964 95.6836C47.6777 90.753 45.841 85.097 45.386 79.3281L45.3782 79.231L58.0788 70.0041L67.261 74.2199L72.1707 89.3311L66.6179 95.7668H50.7472ZM45.2758 75.6697L45.2968 74.9505L45.3309 74.2338L45.3781 73.519L45.4394 72.8076L45.5138 72.098L45.6021 71.3883L45.7045 70.6831L45.8323 69.9052L45.9644 69.1973L46.1516 68.2943L46.2531 67.8568L46.485 66.9241C46.6049 66.4665 46.7344 66.0123 46.8718 65.5626L47.0844 64.888L47.3093 64.2212L47.5473 63.5588L47.7984 62.9L48.0626 62.2463L48.3391 61.5971L48.6296 60.9487L48.9665 60.2373L49.2824 59.6038L49.5816 59.0316L49.9308 58.3928L50.3368 57.6832C50.3368 57.6832 50.6474 57.1626 50.7883 56.9342C50.9143 56.7312 51.0429 56.5308 51.1724 56.3296L51.5661 55.7337L52.1305 54.9173L56.3743 67.975L45.5531 75.836L45.2705 76.0188L45.2758 75.6697ZM54.1587 52.3335C57.93 47.9314 62.7381 44.4331 68.0625 42.2194L68.1535 42.1818L80.9416 51.4725V62.4713L68.1876 71.7375L59.0062 67.5209L54.0948 52.4079L54.1587 52.3335ZM71.8838 40.8701L72.576 40.6759C72.576 40.6759 73.2436 40.4991 73.4711 40.444L74.1623 40.283L74.8588 40.1343L75.5553 40.0004L76.2991 39.8726L76.9606 39.7711L77.6676 39.6775L78.3798 39.5953L79.4053 39.5034L80.1176 39.4544L80.5498 39.4334L81.5473 39.4001C81.7853 39.3958 82.0242 39.3931 82.2631 39.3931C82.502 39.3931 82.7408 39.3958 82.9797 39.4001L83.6955 39.4203L84.4112 39.4553L85.1243 39.5034L85.8348 39.5646L86.5471 39.6399L87.122 39.7108L87.9821 39.8341L88.5377 39.9243L89.3865 40.08L90.1118 40.2288L90.8853 40.4038C90.8853 40.4038 91.511 40.5578 91.742 40.6181C91.742 40.6181 92.2337 40.7511 92.4262 40.8063L93.3773 41.0898L82.2631 49.166L71.1471 41.0889L71.8838 40.8701ZM96.3723 42.1818L96.4634 42.2194C101.789 44.4331 106.597 47.9314 110.367 52.3335L110.431 52.4079L105.52 67.5209L96.3382 71.7375L83.5842 62.4713V51.4725L96.3723 42.1818ZM112.809 55.515L113.354 56.3296C113.484 56.5308 113.613 56.7321 113.762 56.9745C113.879 57.1626 113.994 57.3525 114.107 57.5423L114.464 58.1566L114.809 58.7778L115.141 59.4043L115.461 60.0352L115.772 60.681L116.064 61.3171L116.347 61.9681L116.618 62.6252L116.877 63.2893L117.144 64.0182L117.365 64.6578L117.654 65.5608C117.792 66.0132 117.921 66.4665 118.042 66.9241L118.214 67.6075L118.374 68.2952L118.52 68.9856L118.653 69.6795L118.774 70.3786L118.882 71.0812L118.975 71.7864L119.055 72.497L119.129 73.2941L119.177 73.9311L119.216 74.6617L119.25 75.6942V76.0381L108.152 67.975L112.395 54.9173L112.809 55.515ZM89.9091 88.3091H74.6176L69.8918 73.7666L82.2634 64.7778L94.6333 73.7666L89.9091 88.3091ZM119.141 79.3281C118.687 85.0979 116.85 90.7539 113.831 95.6836L113.779 95.7668H97.9092L92.3565 89.3303L97.2661 74.2199L106.447 70.0041L119.148 79.231L119.141 79.3281ZM111.387 99.1985L110.942 99.755C110.791 99.9396 110.639 100.123 110.485 100.304C110.485 100.304 110.139 100.706 110.018 100.842L109.541 101.371L109.053 101.891L108.555 102.402L108.048 102.905L107.531 103.396L107.004 103.878L106.423 104.389L105.682 105.014L104.849 105.674L104.084 106.25C104.084 106.25 103.611 106.592 103.419 106.726L102.831 107.129L102.238 107.518L101.637 107.898L101.03 108.264L100.412 108.621L99.5021 109.119L98.8712 109.446L98.2333 109.761L97.1649 110.253L96.2891 110.629C96.0703 110.719 95.8507 110.806 95.6013 110.903C95.3896 110.985 95.1778 111.065 94.9652 111.143L94.0184 111.478L98.2639 98.411H111.99L111.387 99.1985ZM109.826 114.887H91.6626C91.8796 114.834 92.1001 114.795 92.3162 114.739C92.9996 114.562 93.6847 114.362 94.3532 114.147C94.6044 114.067 94.8537 113.985 95.1022 113.899C102.805 111.26 109.674 106.157 114.444 99.5319C114.841 98.9824 115.238 98.4005 115.622 97.8038C119.304 92.083 121.453 85.4636 121.836 78.6649C121.875 77.971 121.896 77.2728 121.899 76.5763L121.901 76.3873C121.901 68.283 119.474 60.4946 114.882 53.863C114.673 53.5611 114.461 53.261 114.213 52.9215C113.843 52.4184 113.462 51.9284 113.082 51.4603L112.934 51.2783C108.614 46.0038 102.99 41.9158 96.6702 39.4518C96.3491 39.3249 96.0219 39.2024 95.692 39.0834L95.6264 39.0598C95.3166 38.9486 95.0051 38.8419 94.6919 38.7378C91.9523 37.8339 89.1032 37.231 86.2236 36.9449C84.9129 36.8154 83.5802 36.7498 82.2634 36.7498C78.5525 36.7498 74.8784 37.2625 71.3434 38.2731C70.8376 38.4175 70.3354 38.5724 69.8349 38.7386C69.176 38.9548 68.511 39.1936 67.8591 39.45C61.5381 41.914 55.9128 46.0038 51.5911 51.2791L51.3321 51.5976C50.9882 52.0255 50.6461 52.4691 50.2839 52.9626C49.7694 53.6635 49.2654 54.4029 48.7841 55.1589C45.047 61.0293 42.9286 67.821 42.6556 74.8C42.6355 75.3268 42.625 75.857 42.625 76.3873L42.6268 76.5789C42.6285 76.921 42.6346 77.2684 42.6451 77.6166L42.6898 78.6658C43.0748 85.4645 45.2238 92.0821 48.9031 97.802C49.2706 98.3751 49.667 98.957 50.0809 99.531C50.3898 99.9598 50.7074 100.383 51.0329 100.798C51.3584 101.215 51.6926 101.622 52.0347 102.025C52.376 102.426 52.726 102.821 53.0839 103.208C57.766 108.286 63.6749 112.069 70.1709 114.147C70.5051 114.254 70.8438 114.358 71.1894 114.458C71.528 114.556 71.8684 114.649 72.2114 114.739C72.4275 114.795 72.648 114.834 72.865 114.887H48.5759C47.8505 114.887 47.2634 115.475 47.2634 116.2C47.2634 116.924 47.8505 117.512 48.5759 117.512H109.826C110.551 117.512 111.138 116.924 111.138 116.2C111.138 115.475 110.551 114.887 109.826 114.887Z" fill="#223239"/>
</svg>
