<?xml version="1.0" encoding="UTF-8"?>
<svg width="160px" height="160px" viewBox="0 0 160 160" version="1.1" xmlns="http://www.w3.org/2000/svg" xmlns:xlink="http://www.w3.org/1999/xlink">
    <!-- Generator: Sketch 52.2 (67145) - http://www.bohemiancoding.com/sketch -->
    <title>calendar</title>
    <desc>Created with Sketch.</desc>
    <g id="Symbols" stroke="none" stroke-width="1" fill="none" fill-rule="evenodd">
        <g id="various/spot/calendar/negative-copy">
            <g id="calendar">
                <circle id="Oval" fill="#FFFFFF" cx="80" cy="80" r="80"/>
                <g id="Group-3" transform="translate(33.000000, 37.000000)">
                    <path d="M97.8199158,70.8962759 C97.7662737,70.9947586 97.7030526,71.0874483 97.6292947,71.1704828 C97.6197158,71.1801379 97.6158842,71.1926897 97.6063053,71.2033103 L80.3642,89.5481379 C80.0873684,89.8416552 79.7080421,90 79.3210526,90 C79.163,90 79.0039895,89.9633103 78.8507263,89.9092414 C78.6974632,89.9642759 78.5355789,90 78.3631579,90 L16.1,90 C11.0825474,90 7,85.8849655 7,80.8275862 L7,24.8275862 C7,19.7702069 11.0825474,15.6551724 16.1,15.6551724 L26.1578947,15.6551724 L26.1578947,11.3103448 C26.1578947,8.38193103 28.5219789,6 31.4263158,6 C34.3316105,6 36.6947368,8.38193103 36.6947368,11.3103448 L36.6947368,15.6551724 L68.3052632,15.6551724 L68.3052632,11.3103448 C68.3052632,8.38193103 70.6693474,6 73.5736842,6 C76.4789789,6 78.8421053,8.38193103 78.8421053,11.3103448 L78.8421053,15.6551724 L88.9,15.6551724 C93.9184105,15.6551724 98,19.7702069 98,24.8275862 L98,70.2068966 C98,70.2783448 97.9894632,70.3468966 97.9789263,70.4154483 C97.9760526,70.4347586 97.9770105,70.4550345 97.9731789,70.4743448 C97.9511474,70.597931 97.9109158,70.7137931 97.8582316,70.8248276 C97.8467368,70.849931 97.8323684,70.8721379 97.8199158,70.8962759 Z" id="Path" fill-opacity="0.1" fill="#009DE0"/>
                    <path d="M90.0127,68 L83.4997,68 C79.9157,68 76.9997,70.916 76.9997,74.5 L76.9997,81.736 L90.0127,68 Z M83.4997,65 L91.9997,65 L91.9997,36 L2.9997,36 L2.9997,77.5 C2.9997,81.084 5.9157,84 9.4997,84 L73.9997,84 L73.9997,74.5 C73.9997,69.262 78.2617,65 83.4997,65 Z M2.9997,19.5 L2.9997,33 L91.9997,33 L91.9997,19.5 C91.9997,15.916 89.0837,13 85.4997,13 L74.9997,13 L74.9997,17.5 C74.9997,17.509 74.9987,17.519 74.9987,17.528 C75.1557,17.621 75.2997,17.741 75.4187,17.894 C76.4527,19.222 76.9997,20.814 76.9997,22.5 C76.9997,26.636 73.6357,30 69.4997,30 C65.3647,30 61.9997,26.636 61.9997,22.5 C61.9997,20.67 62.6667,18.908 63.8767,17.537 C63.9147,17.494 63.9587,17.46 63.9997,17.423 L63.9997,13 L30.9997,13 L30.9997,17.413 C32.2867,18.804 32.9997,20.595 32.9997,22.5 C32.9997,26.636 29.6357,30 25.4997,30 C21.3647,30 17.9997,26.636 17.9997,22.5 C17.9997,20.598 18.7127,18.8 19.9997,17.41 L19.9997,13 L9.4997,13 C5.9157,13 2.9997,15.916 2.9997,19.5 Z M22.9997,17.5 C22.9997,18.878 24.1217,20 25.4997,20 C26.8787,20 27.9997,18.878 27.9997,17.5 L27.9997,5.5 C27.9997,4.122 26.8787,3 25.4997,3 C24.1217,3 22.9997,4.122 22.9997,5.5 L22.9997,17.5 Z M29.7297,21.01 C28.7207,22.225 27.1997,23 25.4997,23 C23.7997,23 22.2787,22.224 21.2687,21.009 C21.1017,21.483 20.9997,21.983 20.9997,22.5 C20.9997,24.981 23.0187,27 25.4997,27 C27.9817,27 29.9997,24.981 29.9997,22.5 C29.9997,21.982 29.8967,21.484 29.7297,21.01 Z M66.9997,17.5 C66.9997,18.878 68.1217,20 69.4997,20 C70.8787,20 71.9997,18.878 71.9997,17.5 L71.9997,5.5 C71.9997,4.122 70.8787,3 69.4997,3 C68.1217,3 66.9997,4.122 66.9997,5.5 L66.9997,17.5 Z M73.7417,20.998 C72.7317,22.22 71.2047,23 69.4997,23 C67.7977,23 66.2737,22.222 65.2637,21.003 C65.0957,21.48 64.9997,21.984 64.9997,22.5 C64.9997,24.981 67.0187,27 69.4997,27 C71.9817,27 73.9997,24.981 73.9997,22.5 C73.9997,21.979 73.9097,21.475 73.7417,20.998 Z M94.8117,67.214 C94.7557,67.316 94.6897,67.412 94.6127,67.498 C94.6027,67.508 94.5987,67.521 94.5887,67.532 L76.5887,86.532 C76.2997,86.836 75.9037,87 75.4997,87 C75.3347,87 75.1687,86.962 75.0087,86.906 C74.8487,86.963 74.6797,87 74.4997,87 L9.4997,87 C4.2617,87 -0.0003,82.738 -0.0003,77.5 L-0.0003,19.5 C-0.0003,14.262 4.2617,10 9.4997,10 L19.9997,10 L19.9997,5.5 C19.9997,2.467 22.4677,0 25.4997,0 C28.5327,0 30.9997,2.467 30.9997,5.5 L30.9997,10 L63.9997,10 L63.9997,5.5 C63.9997,2.467 66.4677,0 69.4997,0 C72.5327,0 74.9997,2.467 74.9997,5.5 L74.9997,10 L85.4997,10 C90.7387,10 94.9997,14.262 94.9997,19.5 L94.9997,66.5 C94.9997,66.574 94.9887,66.645 94.9777,66.716 C94.9747,66.736 94.9757,66.757 94.9717,66.777 C94.9487,66.905 94.9067,67.025 94.8517,67.14 C94.8397,67.166 94.8247,67.189 94.8117,67.214 Z M85.1667,51 C85.1667,50.171 84.4947,49.5 83.6667,49.5 L73.6667,49.5 C72.8377,49.5 72.1667,50.171 72.1667,51 C72.1667,51.829 72.8377,52.5 73.6667,52.5 L83.6667,52.5 C84.4947,52.5 85.1667,51.829 85.1667,51 Z M62.8887,67.5 L52.8887,67.5 C52.0597,67.5 51.3887,68.171 51.3887,69 C51.3887,69.829 52.0597,70.5 52.8887,70.5 L62.8887,70.5 C63.7177,70.5 64.3887,69.829 64.3887,69 C64.3887,68.171 63.7177,67.5 62.8887,67.5 Z M42.1107,67.5 L32.1107,67.5 C31.2827,67.5 30.6107,68.171 30.6107,69 C30.6107,69.829 31.2827,70.5 32.1107,70.5 L42.1107,70.5 C42.9397,70.5 43.6107,69.829 43.6107,69 C43.6107,68.171 42.9397,67.5 42.1107,67.5 Z M21.3327,67.5 L11.3327,67.5 C10.5047,67.5 9.8327,68.171 9.8327,69 C9.8327,69.829 10.5047,70.5 11.3327,70.5 L21.3327,70.5 C22.1617,70.5 22.8327,69.829 22.8327,69 C22.8327,68.171 22.1617,67.5 21.3327,67.5 Z M62.8887,49.5 L52.8887,49.5 C52.0597,49.5 51.3887,50.171 51.3887,51 C51.3887,51.829 52.0597,52.5 52.8887,52.5 L62.8887,52.5 C63.7177,52.5 64.3887,51.829 64.3887,51 C64.3887,50.171 63.7177,49.5 62.8887,49.5 Z M42.1107,49.5 L32.1107,49.5 C31.2827,49.5 30.6107,50.171 30.6107,51 C30.6107,51.829 31.2827,52.5 32.1107,52.5 L42.1107,52.5 C42.9397,52.5 43.6107,51.829 43.6107,51 C43.6107,50.171 42.9397,49.5 42.1107,49.5 Z M22.8327,51 C22.8327,51.829 22.1617,52.5 21.3327,52.5 L11.3327,52.5 C10.5047,52.5 9.8327,51.829 9.8327,51 C9.8327,50.171 10.5047,49.5 11.3327,49.5 L21.3327,49.5 C22.1617,49.5 22.8327,50.171 22.8327,51 Z" id="Fill-1" fill="#23333A"/>
                </g>
            </g>
        </g>
    </g>
</svg>
