<svg xmlns="http://www.w3.org/2000/svg" width="160" height="160" viewBox="0 0 160 160">
  <g fill="none" fill-rule="evenodd">
    <circle cx="80" cy="80" r="80" fill="#FFF"/>
    <path fill="#009DE0" fill-opacity=".1" d="m 115.99139,45.44276 h -9.51089 v -1.685877 c 0,-1.854465 -1.51056,-3.371753 -3.35679,-3.371753 H 95.8227 c 0.01117,-0.18657 0.02797,-0.372017 0.02797,-0.56196 4e-6,-4.965468 -4.007999,-8.991342 -8.951427,-8.991342 -4.943429,0 -8.951431,4.025874 -8.951431,8.991342 0,0.189943 0.01678,0.37539 0.02797,0.56196 h -7.301011 c -1.846233,0 -3.356787,1.517288 -3.356787,3.371753 v 1.685877 h -0.3726 -9.138291 c -3.692466,0 -6.713574,3.034578 -6.713574,6.743507 v 71.930743 c 0,3.70894 3.021108,6.74351 6.713574,6.74351 h 58.184297 c 3.69246,0 6.71358,-3.03457 6.71358,-6.74351 V 120.93296 95.4571 52.186267 c 0,-3.708929 -3.02112,-6.743507 -6.71358,-6.743507"/>
    <path fill="#23333A" d="m 59.050345,104.52683 c -0.940042,0 -1.705035,0.76499 -1.705035,1.70503 0,0.94005 0.764993,1.70504 1.705035,1.70504 0.940042,0 1.705034,-0.76499 1.705034,-1.70504 0,-0.94004 -0.764992,-1.70503 -1.705034,-1.70503 z m 0,6.82014 c -2.820127,0 -5.115104,-2.29498 -5.115104,-5.11511 0,-2.82012 2.294977,-5.1151 5.115104,-5.1151 2.820127,0 5.115103,2.29498 5.115103,5.1151 0,2.82013 -2.294976,5.11511 -5.115103,5.11511 z m 0,-27.280556 c -0.940042,0 -1.705035,0.764993 -1.705035,1.705035 0,0.940042 0.764993,1.705034 1.705035,1.705034 0.940042,0 1.705034,-0.764992 1.705034,-1.705034 0,-0.940042 -0.764992,-1.705035 -1.705034,-1.705035 z m 0,6.820138 c -2.820127,0 -5.115104,-2.294976 -5.115104,-5.115103 0,-2.820127 2.294977,-5.115103 5.115104,-5.115103 2.820127,0 5.115103,2.294976 5.115103,5.115103 0,2.820127 -2.294976,5.115103 -5.115103,5.115103 z m 0,-26.900897 c -0.940042,0 -1.705035,0.764992 -1.705035,1.705034 0,0.940043 0.764993,1.705035 1.705035,1.705035 0.940042,0 1.705034,-0.764992 1.705034,-1.705035 0,-0.940042 -0.764992,-1.705034 -1.705034,-1.705034 z m 0,6.820138 c -2.820127,0 -5.115104,-2.294977 -5.115104,-5.115104 0,-2.820127 2.294977,-5.115103 5.115104,-5.115103 2.820127,0 5.115103,2.294976 5.115103,5.115103 0,2.820127 -2.294976,5.115104 -5.115103,5.115104 z M 80.079104,31.968517 c 0.940042,0 1.705034,0.764992 1.705034,1.705035 0,0.940042 -0.764992,1.705034 -1.705034,1.705034 -0.940043,0 -1.705035,-0.764992 -1.705035,-1.705034 0,-0.940043 0.764992,-1.705035 1.705035,-1.705035 z m 0,6.820138 c 2.820127,0 5.115103,-2.294976 5.115103,-5.115103 0,-2.820127 -2.294976,-5.115104 -5.115103,-5.115104 -2.820127,0 -5.115104,2.294977 -5.115104,5.115104 0,2.820127 2.294977,5.115103 5.115104,5.115103 z m 47.908066,51.680732 -18.18704,21.597103 c -0.30691,0.36488 -0.75476,0.58426 -1.23104,0.60586 -0.0239,0.001 -0.0489,0.001 -0.0727,0.001 -0.45013,0 -0.88435,-0.17846 -1.20603,-0.499 L 94.786731,99.67089 c -0.664963,-0.6661 -0.664963,-1.74596 0,-2.41206 0.6661,-0.66496 1.745955,-0.66496 2.412056,0 l 11.189573,11.19071 16.99124,-20.176237 c 0.60698,-0.719525 1.68116,-0.815007 2.40182,-0.205741 0.72066,0.606992 0.81274,1.682301 0.20575,2.401825 z M 84.057517,104.71666 c 0.941179,0 1.705035,0.76385 1.705035,1.70503 0,0.94118 -0.763856,1.70503 -1.705035,1.70503 H 72.122276 c -0.941179,0 -1.705034,-0.76385 -1.705034,-1.70503 0,-0.94118 0.763855,-1.70503 1.705034,-1.70503 z M 101.67621,87.666311 H 72.122276 c -0.941179,0 -1.705034,-0.763856 -1.705034,-1.705035 0,-0.941179 0.763855,-1.705034 1.705034,-1.705034 h 29.553934 c 0.94118,0 1.70503,0.763855 1.70503,1.705034 0,0.941179 -0.76385,1.705035 -1.70503,1.705035 z m 1.70503,-22.165449 c 0,0.941179 -0.76385,1.705035 -1.70503,1.705035 H 72.122276 c -0.941179,0 -1.705034,-0.763856 -1.705034,-1.705035 0,-0.941179 0.763855,-1.705034 1.705034,-1.705034 h 29.553934 c 0.94118,0 1.70503,0.763855 1.70503,1.705034 z M 61.892069,37.651966 c 0,-0.940043 0.764992,-1.705035 1.705035,-1.705035 h 7.4169 c 0.471726,0 0.921855,-0.195511 1.244675,-0.539927 0.321683,-0.342144 0.48764,-0.804777 0.456949,-1.275366 l -0.0079,-0.12731 c -0.008,-0.110258 -0.01708,-0.218244 -0.01708,-0.330776 0,-4.073896 3.314587,-7.388483 7.388483,-7.388483 4.073895,0 7.388482,3.314587 7.388482,7.388483 0,0.112526 -0.0091,0.220518 -0.01706,0.330776 l -0.0079,0.12731 c -0.03068,0.470589 0.135266,0.933222 0.456949,1.275366 0.32282,0.344416 0.772949,0.539927 1.244676,0.539927 h 7.416874 c 0.940042,0 1.705034,0.764992 1.705034,1.705035 v 9.093517 c 0,0.940042 -0.764992,1.705034 -1.705034,1.705034 h -32.964 c -0.940043,0 -1.705035,-0.764992 -1.705035,-1.705034 z M 116.45317,114 c -0.94118,0 -1.70503,0.76386 -1.70503,1.70503 v 3.22025 c 0,2.82012 -2.29498,5.1151 -5.11511,5.1151 H 50.525172 c -2.820127,0 -5.115103,-2.29498 -5.115103,-5.1151 V 46.177138 c 0,-2.820127 2.294976,-5.115103 5.115103,-5.115103 H 58.482 v 5.683448 c 0,2.820127 2.294976,5.115103 5.115104,5.115103 h 32.964 c 2.820127,0 5.115106,-2.294976 5.115106,-5.115103 v -5.683448 h 7.95682 c 2.82013,0 5.11511,2.294976 5.11511,5.115103 V 89.93969 c 0,0.941179 0.76385,1.705034 1.70503,1.705034 0.94118,0 1.70504,-0.763855 1.70504,-1.705034 V 46.177138 c 0,-4.701348 -3.82383,-8.525172 -8.52518,-8.525172 h -7.95682 c 0,-2.820127 -2.294979,-5.115104 -5.115106,-5.115104 H 90.817411 C 90.247929,27.113716 85.648883,22.875 80.079104,22.875 c -5.56978,0 -10.168826,4.238716 -10.738308,9.661862 h -5.743692 c -2.820128,0 -5.115104,2.294977 -5.115104,5.115104 H 50.525172 C 45.823824,37.651966 42,41.47579 42,46.177138 v 72.748142 c 0,4.70134 3.823824,8.52517 8.525172,8.52517 h 59.107858 c 4.70135,0 8.52518,-3.82383 8.52518,-8.52517 v -3.22025 c 0,-0.94117 -0.76386,-1.70503 -1.70504,-1.70503 z"/>
  </g>
</svg>
