<svg xmlns="http://www.w3.org/2000/svg" width="160" height="160" viewBox="0 0 160 160">
    <g fill="none" fill-rule="evenodd">
        <circle cx="80" cy="80" r="80" fill="#FFF"/>
        <circle cx="80" cy="80" r="80" fill="#009DE0" fill-opacity=".1"/>
        <path fill="#FFF" d="M101.342 36c-17.148 0-31.1 11.726-31.1 26.139 0 6.981 3.297 13.614 9.12 18.498l-3.386 9.545a2.997 2.997 0 0 0 2.828 4.003c.429 0 .86-.092 1.267-.281L93.813 87.5c2.466.516 4.994.776 7.529.776 17.148 0 31.099-11.725 31.099-26.137C132.44 47.726 118.49 36 101.34 36m-18.33 77.681l5.316-5.703a4.827 4.827 0 0 1 6.828 0l13.656 10.242a4.829 4.829 0 0 1 0 6.828l-8.535 8.535c-3.77 3.77-10.21 1.92-11.762 1.307-5.886-2.324-20.494-9.665-32.762-21.934C40.14 97.345 33.996 80.372 33.996 80.372c-.612-1.553-2.462-7.992 1.307-11.762l8.536-8.535a4.826 4.826 0 0 1 6.827 0l10.242 13.656a4.827 4.827 0 0 1 0 6.828l-5.897 5.956s9.833 17.5 28 27.166"/>
        <path fill="#23333A" d="M79.903 51.641c-.916 0-1.66-.74-1.66-1.65 0-.912.744-1.651 1.66-1.651h12.252c.916 0 1.661.739 1.661 1.651 0 .91-.745 1.65-1.66 1.65H79.902zm0 8.669a1.657 1.657 0 0 1-1.66-1.65c0-.911.744-1.651 1.66-1.651h28.102c.916 0 1.66.74 1.66 1.651s-.744 1.65-1.66 1.65H79.903zm0 8.67c-.916 0-1.66-.74-1.66-1.651s.744-1.651 1.66-1.651h28.102c.916 0 1.66.74 1.66 1.651s-.744 1.651-1.66 1.651H79.903zM93.85 81.277c-2.734 0-5.373-.328-7.87-.927L71.31 87.185l4.111-11.587c-5.923-4.242-9.67-10.488-9.67-17.459C65.75 45.36 78.33 35 93.848 35c15.518 0 28.1 10.36 28.1 23.139 0 12.778-12.582 23.138-28.1 23.138zm0-49.277C76.701 32 62.75 43.726 62.75 58.139c0 6.981 3.296 13.614 9.12 18.498l-3.387 9.545a2.999 2.999 0 0 0 4.094 3.723L86.32 83.5c2.466.516 4.994.777 7.53.777 17.147 0 31.098-11.726 31.098-26.138C124.948 43.726 110.998 32 93.85 32zm6.41 87.988l-8.537 8.535c-2.929 2.929-8.32 1.693-10.15.972-6.538-2.581-20.687-10.033-32.253-21.599C34.147 92.724 27.974 76.028 27.9 75.822c-.723-1.83-1.956-7.222.972-10.151l8.535-8.535c1.235-1.235 3.374-1.261 4.637-.067l10.172 13.563.14.16c.63.629.975 1.464.975 2.353 0 .89-.346 1.725-.98 2.358l-4.432 4.476c-1.603-2.824-2.445-4.682-2.465-4.728a1.499 1.499 0 1 0-2.739 1.223c.222.499 5.567 12.335 15.68 22.448 10.11 10.109 22.116 15.63 22.623 15.86a1.499 1.499 0 0 0 1.986-.745 1.5 1.5 0 0 0-.745-1.986c-.046-.021-1.862-.857-4.63-2.434l4.267-4.579c1.257-1.257 3.448-1.257 4.706 0l13.724 10.312a3.334 3.334 0 0 1-.067 4.638zm-11.617-17.151a6.288 6.288 0 0 0-4.394-1.773c-1.69 0-3.28.658-4.51 1.891l-4.75 5.096c-4.206-2.589-9.61-6.388-14.473-11.25-4.77-4.77-8.474-10.025-11.017-14.154l4.978-5.027a6.287 6.287 0 0 0 1.854-4.475c0-1.652-.63-3.208-1.775-4.393L44.373 55.175c-1.334-1.355-2.924-2.013-4.614-2.013s-3.279.658-4.474 1.853L26.75 63.55c-4.906 4.905-1.778 13.029-1.658 13.333.256.706 6.438 17.467 22.106 33.134 11.913 11.914 26.52 19.603 33.272 22.269.194.076 2.868 1.107 6.044 1.107 2.448 0 5.194-.613 7.33-2.749l8.535-8.535a6.337 6.337 0 0 0 0-8.949l-13.737-10.323z"/>
    </g>
</svg>
