<svg xmlns="http://www.w3.org/2000/svg" width="160" height="160" viewBox="0 0 160 160">
	<g fill="none" fill-rule="evenodd">
		<circle cx="80" cy="80" r="80" fill="#fff"/>
		<path fill="#009DE0" fill-opacity=".1" d="M68.8,45.5c-1.1-2.3-1-5,0.5-7.3c2.3-3.3,6.8-4.2,10.1-1.9
						l18,12.3c3.3,2.3,4.2,6.8,1.9,10.1c-1.7,2.5-4.6,3.6-7.3,3.1l-2,3.1l47,32.5c3.2,2.2,4,6.5,1.8,9.7s-6.5,4-9.7,1.8l-46.7-32
						l-1.8,2.8c1.1,2.3,1,5.1-0.5,7.4c-2.3,3.3-6.8,4.2-10.1,1.9L52,76.7c-3.3-2.3-4.2-6.8-1.9-10.1c1.5-2.2,4-3.3,6.4-3.2L68.8,45.5z
						 M43.2,114.4c-2.4,0.3-4.2,2.3-4.2,4.8c0,2.7,2.1,4.8,4.8,4.8h60.3c2.6,0,4.8-2.1,4.8-4.8c0-2.5-1.8-4.5-4.2-4.8
						c-0.4-5.4-4.8-9.6-10.2-9.6h-41C48,104.8,43.6,109.1,43.2,114.4z"/>
		<path style="fill:#223239;" d="M133.5,91.8L85.2,58.7l2-3.2c0.5,0.1,0.9,0.2,1.4,0.2c2.3,0,4.6-1.1,6-3.2c2.2-3.4,1.4-7.8-1.9-10.1
						L74.2,29.9c-3.4-2.2-7.8-1.4-10.1,1.9c0,0,0,0,0,0c-1.5,2.2-1.6,4.9-0.6,7.2L50.8,57.4c-2.4-0.1-4.8,1-6.3,3.1c0,0,0,0,0,0
						c-2.2,3.4-1.4,7.8,1.9,10.1l18.5,12.6c1.3,0.8,2.7,1.3,4.1,1.3c2.3,0,4.6-1.1,6-3.2c1.5-2.3,1.6-5.1,0.5-7.3l1.8-2.8l48,32.8l0-0.1
						c3.3,2.3,7.9,1.4,10.2-1.9l-2.8-1.9c-1.2,1.8-3.7,2.2-5.4,1l-0.6,0.9l0.5-0.8l-48-32.9l4.3-6.7l48.2,33.1l0-0.1
						c1.8,1.2,2.1,3.7,1,5.4l2.8,2C137.7,98.7,136.8,94.1,133.5,91.8z M66.6,33.5c1.3-1.9,4-2.4,5.9-1.1L91,44.9c1.9,1.3,2.4,4,1.1,5.9
						c-1.3,1.9-4,2.4-5.9,1.1L67.8,39.4C65.8,38,65.3,35.4,66.6,33.5z M72.5,79.6c-1.3,1.9-4,2.4-5.9,1.1L48.1,68.2
						c-1.9-1.3-2.4-3.9-1.1-5.9c1.3-1.9,3.9-2.4,5.9-1.1l18.5,12.6C73.3,75.1,73.8,77.7,72.5,79.6z M73.4,71.6c-0.1-0.1-0.3-0.2-0.4-0.3
						L54.5,58.7c-0.2-0.2-0.5-0.3-0.7-0.4l11.7-16.8c0.2,0.1,0.4,0.3,0.6,0.4l18.4,12.5L73.4,71.6z M101.1,109.6
						c-0.3-5.5-4.9-10-10.5-10h-42c-5.6,0-10.2,4.4-10.5,10c-2.4,0.3-4.1,2.2-4.1,4.6c0,2.6,2.1,4.7,4.7,4.7h61.8c2.6,0,4.7-2.1,4.7-4.7
						C105.2,111.8,103.4,109.8,101.1,109.6z M48.6,102.6h42c4,0,7.2,3,7.5,6.9H41.1C41.4,105.6,44.6,102.6,48.6,102.6z M100.5,115.9
						H38.7c-1,0-1.7-0.7-1.7-1.7s0.7-1.7,1.7-1.7h61.8c1,0,1.7,0.7,1.7,1.7S101.5,115.9,100.5,115.9z"/>
	</g>
</svg>
