<svg xmlns="http://www.w3.org/2000/svg" width="160" height="160" viewBox="0 0 160 160">
    <g fill="none" fill-rule="evenodd">
        <circle cx="80" cy="80" r="80" fill="#FFF"/>
        <circle cx="80" cy="80" r="80" fill="#FFF"/>
        <path fill="#009DE0" fill-opacity=".1" fill-rule="nonzero" d="M96.545 121.966a1.693 1.693 0 0 1-2.313-.626l-8.63-15a1.71 1.71 0 0 1-.17-1.288 1.692 1.692 0 0 1 3.101-.41l8.635 15a1.708 1.708 0 0 1-.623 2.324zm11.467-28.578l10.75 18.071c.467.82.186 1.862-.623 2.328a1.68 1.68 0 0 1-2.311-.628L105.08 95.09a1.701 1.701 0 0 1 .62-2.322 1.69 1.69 0 0 1 2.31.62zm-5.356 35.624c.47.82.19 1.863-.62 2.33a1.694 1.694 0 0 1-2.313-.626l-2.242-3.75a1.692 1.692 0 0 1-.174-1.295h.001c.118-.439.4-.804.792-1.029a1.69 1.69 0 0 1 2.312.622l2.244 3.748zm16.266 5.47a1.703 1.703 0 0 1-1.49 2.518 1.682 1.682 0 0 1-1.435-.808L95.34 100.716a1.717 1.717 0 0 1-.17-1.291h.002c.118-.44.398-.805.79-1.03a1.701 1.701 0 0 1 2.311.62l20.649 35.468zm9.127-104.627c1.836 3.185.948 7.026-2.098 9.25 1.056 3.198.067 6.828-2.362 8.682.916 3.112-.501 6.446-3.519 8.194l-.298.17a10.027 10.027 0 0 1-7.686 1.03 10.083 10.083 0 0 1-6.162-4.735c-2.802-4.86-1.149-11.102 3.687-13.92l16.096-9.302a1.727 1.727 0 0 1 2.342.631zM47.126 80.447a10.218 10.218 0 0 1 5.104 8.85 10.216 10.216 0 0 1-5.118 8.84l-.293.169a7.732 7.732 0 0 1-3.87 1.064c-1.866 0-3.658-.722-4.977-2.11-2.817 1.182-6.454.221-8.695-2.295-3.45 1.529-7.215.377-9.048-2.8a1.739 1.739 0 0 1-.171-1.308c.12-.444.403-.814.8-1.042l16.093-9.303a10.11 10.11 0 0 1 10.175-.065zm68.468-1.366a5.616 5.616 0 0 1-2.601 3.393l-39.331 22.728a5.526 5.526 0 0 1-2.776.744 5.602 5.602 0 0 1-4.85-2.79L52.41 79.54a5.656 5.656 0 0 1-.555-4.248 5.553 5.553 0 0 1 2.6-3.394l39.33-22.727c2.66-1.532 6.081-.615 7.63 2.044l13.622 23.62a5.641 5.641 0 0 1 .557 4.246z"/>
        <path fill="#23333A" d="M91.545 119.966a1.693 1.693 0 0 1-2.313-.626l-8.63-15a1.71 1.71 0 0 1-.17-1.288 1.692 1.692 0 0 1 3.101-.41l8.635 15a1.708 1.708 0 0 1-.623 2.324zm11.467-28.578l10.75 18.071c.467.82.186 1.862-.623 2.328a1.68 1.68 0 0 1-2.311-.628L100.08 93.09a1.701 1.701 0 0 1 .62-2.322 1.69 1.69 0 0 1 2.31.62zm-5.356 35.624c.47.82.19 1.863-.62 2.33a1.694 1.694 0 0 1-2.313-.626l-2.242-3.75a1.692 1.692 0 0 1-.174-1.295h.001c.118-.439.4-.804.792-1.029a1.69 1.69 0 0 1 2.312.622l2.244 3.748zm16.266 5.47a1.703 1.703 0 0 1-1.49 2.518 1.682 1.682 0 0 1-1.435-.808L90.34 98.716a1.717 1.717 0 0 1-.17-1.291h.002c.118-.44.398-.805.79-1.03a1.701 1.701 0 0 1 2.311.62l20.649 35.468zm3.868-97.5l-5.046 2.914a1.502 1.502 0 0 0-.545 2.047c.412.71 1.325.956 2.035.547l3.518-2.032c.45 1.738.034 3.878-1.533 4.784l-.64.37a1.679 1.679 0 0 0-.367.286l-3.138 1.812a1.502 1.502 0 0 0-.542 2.045c.412.716 1.324.961 2.035.548l1.83-1.057c.22 1.454-.546 2.888-2.045 3.756l-.297.17a6.635 6.635 0 0 1-5.09.683 6.67 6.67 0 0 1-4.08-3.134 6.726 6.726 0 0 1-.679-5.115 6.692 6.692 0 0 1 3.118-4.098l14.225-8.218c.006 1.31-.763 2.57-2.07 3.325l-.4.243c-.096.029-.193.07-.289.124zm5.259-7.127a1.727 1.727 0 0 0-2.342-.63l-16.096 9.302c-4.836 2.817-6.49 9.06-3.687 13.919a10.083 10.083 0 0 0 6.162 4.735 10.027 10.027 0 0 0 7.686-1.03l.298-.17c3.018-1.748 4.435-5.082 3.519-8.194 2.429-1.854 3.418-5.484 2.362-8.683 3.046-2.223 3.934-6.064 2.098-9.249zm-85.112 64.15a1.502 1.502 0 0 0 .002-2.6 1.484 1.484 0 0 0-1.493.006l-3.422 1.976a1.832 1.832 0 0 0-.426.173l-.642.372c-1.566.903-3.627.196-4.907-1.062l3.405-1.968a1.499 1.499 0 1 0 .002-2.599 1.484 1.484 0 0 0-1.493.008l-5.047 2.916a1.264 1.264 0 0 0-.212.153l-.34.195c-1.309.755-2.786.792-3.917.134l14.22-8.217c3.2-1.862 7.313-.763 9.168 2.45 1.855 3.217.762 7.349-2.437 9.213l-.295.17c-1.499.868-3.123.813-4.274-.102l2.108-1.218zm4.189-13.558a10.11 10.11 0 0 0-10.175.065l-16.093 9.303c-.397.228-.68.598-.8 1.042-.117.437-.055.913.171 1.307 1.833 3.178 5.598 4.33 9.048 2.8 2.241 2.517 5.878 3.478 8.695 2.295 1.319 1.389 3.11 2.11 4.978 2.11a7.732 7.732 0 0 0 3.87-1.063l.292-.169a10.216 10.216 0 0 0 5.118-8.84 10.218 10.218 0 0 0-5.104-8.85zm60.423-5.097a1.709 1.709 0 0 1-.49 1.63 1.683 1.683 0 0 1-1.65.384l-12.592-2.591-2.125 6.84a5.61 5.61 0 0 1-2.572 3.204 5.665 5.665 0 0 1-4.093.629l-6.955-1.576-4.032 12.183a1.69 1.69 0 0 1-2.33 1.19 1.687 1.687 0 0 1-.902-.936 1.692 1.692 0 0 1 .025-1.3l3.94-11.876-12.444-2.822a1.72 1.72 0 0 1-1.076-.751 1.704 1.704 0 0 1 1.83-2.565l22.685 5.142A2.21 2.21 0 0 0 82.45 78.6l6.927-22.266c.1-.399.36-.76.723-.995.448-.28.983-.341 1.477-.171.43.152.771.46.966.871.191.405.214.878.064 1.299l-3.794 12.185 12.257 2.529a1.703 1.703 0 0 1 1.48 1.3zm4.8 2.857a2.158 2.158 0 0 1-1.047 1.328l-39.34 22.732a2.143 2.143 0 0 1-2.997-.811L50.34 75.832a2.153 2.153 0 0 1-.238-1.668 2.15 2.15 0 0 1 1.047-1.328l39.34-22.73a2.14 2.14 0 0 1 1.665-.24c.56.15 1.043.53 1.33 1.05l13.624 23.616.004.007c.302.498.387 1.106.237 1.668zm3.245.874a5.641 5.641 0 0 0-.557-4.247L96.415 49.215c-1.549-2.66-4.97-3.576-7.63-2.044l-39.33 22.727a5.553 5.553 0 0 0-2.6 3.394 5.656 5.656 0 0 0 .555 4.248l13.625 23.616a5.602 5.602 0 0 0 4.851 2.79c.946 0 1.902-.24 2.776-.744l39.33-22.728a5.616 5.616 0 0 0 2.602-3.393z"/>
    </g>
</svg>