<svg xmlns="http://www.w3.org/2000/svg" width="160" height="160" viewBox="0 0 160 160">
    <g fill="none" fill-rule="evenodd">
        <circle cx="80" cy="80" r="80" fill="#FFF"/>
        <circle cx="80" cy="80" r="80" fill="#009DE0" fill-opacity=".1"/>
        <path fill="#FFF" d="M70.84 57.242c-12.667 7.313-16.928 23.733-9.498 36.602 4.69 8.124 13.056 13.185 22.376 13.536l.92.035 4.782 8.282c3.071 5.32 9.422 7.605 15.13 5.837.028.055.054.11.085.165.797 1.38 2.576 1.847 3.972 1.04 1.397-.806 1.882-2.579 1.085-3.96-.028-.049-.06-.094-.092-.141 4.431-4.055 5.653-10.733 2.57-16.075l-4.778-8.285.43-.814c4.356-8.247 4.156-18.022-.535-26.147-7.43-12.869-23.78-17.389-36.447-10.075z"/>
        <path fill="#FFF" fill-opacity=".8" d="M49.306 89.355a1.588 1.588 0 0 1-.588 2.168l-11.216 6.475a1.588 1.588 0 0 1-2.17-.574 1.588 1.588 0 0 1 .587-2.168l11.216-6.475a1.588 1.588 0 0 1 2.17.574zM33.968 65.35a1.577 1.577 0 0 1-1.12-1.939 1.599 1.599 0 0 1 1.951-1.126l12.637 3.347a1.577 1.577 0 0 1 1.12 1.939c-.115.423-.39.76-.744.964a1.593 1.593 0 0 1-1.207.162L33.968 65.35zm88.467-18.216a1.588 1.588 0 0 1-.587 2.168l-11.216 6.475a1.588 1.588 0 0 1-2.171-.575 1.588 1.588 0 0 1 .587-2.167l11.216-6.476a1.588 1.588 0 0 1 2.171.575zM89.97 43.661a1.577 1.577 0 0 1-1.12-1.94l3.42-12.617a1.599 1.599 0 0 1 1.951-1.126 1.577 1.577 0 0 1 1.12 1.939l-3.42 12.617c-.116.424-.391.761-.744.965a1.592 1.592 0 0 1-1.207.162zm-26.364 5.47L56.57 36.943a1.588 1.588 0 0 1 .588-2.168 1.588 1.588 0 0 1 2.17.575l7.038 12.189a1.588 1.588 0 0 1-.588 2.167 1.588 1.588 0 0 1-2.17-.575z"/>
        <path fill="#23333A" d="M44.987 90.718a1.59 1.59 0 0 1-.585 2.171l-11.216 6.476a1.59 1.59 0 0 1-2.173-.579 1.59 1.59 0 0 1 .586-2.171l11.215-6.476a1.59 1.59 0 0 1 2.173.58zM29.612 66.647a1.584 1.584 0 0 1-1.123-1.945 1.596 1.596 0 0 1 1.95-1.126l12.65 3.368a1.584 1.584 0 0 1 1.123 1.945 1.59 1.59 0 0 1-.743.965 1.59 1.59 0 0 1-1.208.16l-12.65-3.367zm88.505-18.15a1.59 1.59 0 0 1-.585 2.17l-11.216 6.476a1.59 1.59 0 0 1-2.174-.578 1.59 1.59 0 0 1 .586-2.171l11.216-6.476a1.59 1.59 0 0 1 2.173.579zm-32.492-3.519a1.585 1.585 0 0 1-1.122-1.944l3.408-12.64a1.596 1.596 0 0 1 1.95-1.125 1.584 1.584 0 0 1 1.123 1.944l-3.408 12.64c-.114.423-.39.761-.743.965a1.59 1.59 0 0 1-1.208.16zM59.251 50.43l-7.056-12.221a1.59 1.59 0 0 1 .585-2.171 1.59 1.59 0 0 1 2.173.578l7.056 12.222a1.59 1.59 0 0 1-.585 2.171 1.59 1.59 0 0 1-2.173-.579zm7.09 16.942c.69.621.773 1.672.185 2.343-2.271 2.593-3.3 6.069-2.822 9.536.09.656-.208 1.285-.76 1.603a1.47 1.47 0 0 1-.572.193c-.897.108-1.726-.553-1.852-1.472-.606-4.415.697-8.83 3.576-12.114.114-.131.243-.237.385-.32.585-.337 1.332-.244 1.86.23zm8.823 17.238l1.312 2.273-2.28 1.316a2.504 2.504 0 0 1-3.422-.911 2.628 2.628 0 0 1 .967-3.59 2.504 2.504 0 0 1 3.423.912zm9.801-2.629l-1.312-2.272a2.504 2.504 0 0 1 .922-3.42 2.629 2.629 0 0 1 3.592.957 2.504 2.504 0 0 1-.922 3.419l-2.28 1.316zm13.355 8.535l-1.268 2.42 2.753 4.769-4.321 2.495-8.931-15.469 2.28-1.316c2.718-1.57 3.657-5.052 2.093-7.762-1.6-2.77-5.16-3.717-7.938-2.113-2.72 1.57-3.658 5.051-2.094 7.761l1.313 2.273.014.025-2.972 1.716-.015-.025-1.312-2.273c-1.565-2.71-5.05-3.638-7.768-2.068-2.778 1.604-3.738 5.162-2.139 7.931 1.565 2.71 5.05 3.638 7.769 2.069l2.28-1.317 8.93 15.47-4.322 2.495-2.753-4.77-2.733-.11c-8.15-.335-15.475-4.792-19.591-11.922-6.532-11.313-2.829-25.722 8.254-32.121 11.083-6.399 25.413-2.4 31.944 8.912 4.116 7.129 4.313 15.7.527 22.93zm-8.567 12.993l2.972-1.716-8.916-15.444-2.972 1.716 8.916 15.444zm9.386 12.833c-4.732 2.732-10.789 1.13-13.502-3.57l-.17-.335-1.193-2.067 17.133-9.892 1.193 2.067.2.319c2.713 4.7 1.07 10.746-3.661 13.478zM64.183 55.787c-12.599 7.274-16.787 23.69-9.337 36.594 4.703 8.147 13.058 13.24 22.348 13.624l.917.038 4.795 8.305c3.08 5.334 9.417 7.643 15.1 5.893.028.056.053.112.085.166a2.9 2.9 0 0 0 3.962 1.055 2.9 2.9 0 0 0 1.068-3.959c-.029-.049-.061-.095-.092-.142 4.401-4.042 5.596-10.72 2.503-16.076l-4.79-8.308.425-.813c4.313-8.238 4.08-18.02-.624-26.166-7.45-12.904-23.761-17.485-36.36-10.21z"/>
    </g>
</svg>
