<svg xmlns="http://www.w3.org/2000/svg" width="160" height="160" viewBox="0 0 160 160">
    <g fill="none" fill-rule="evenodd">
        <circle cx="80" cy="80" r="80" fill="#FFF"/>
        <path fill="#FFF" d="M91.267 50.978C94.359 46.748 99.359 44 105 44c9.389 0 17 7.611 17 17a16.96 16.96 0 0 1-5.849 12.832L77.427 113l-.311-.336A16.924 16.924 0 0 1 67 116c-9.389 0-17-7.611-17-17 0-5.699 2.804-10.743 7.108-13.827l34.159-34.195z"/>
        <path fill="#009DE0" fill-opacity=".1" d="M91.267 50.978C94.359 46.748 99.359 44 105 44c9.389 0 17 7.611 17 17a16.96 16.96 0 0 1-5.849 12.832L77.427 113l-.311-.336A16.924 16.924 0 0 1 67 116c-9.389 0-17-7.611-17-17 0-5.699 2.804-10.743 7.108-13.827l34.159-34.195z"/>
        <g stroke="#23333A" stroke-width="3.5">
            <path d="M111.552 72.466A16.939 16.939 0 0 0 116 61c0-9.389-7.611-17-17-17a16.94 16.94 0 0 0-11.527 4.505M48.532 87.444A16.94 16.94 0 0 0 44 99c0 9.389 7.611 17 17 17 4.388 0 8.387-1.662 11.403-4.391"/>
            <path stroke-linecap="round" d="M74.78 61c-2.884 3.046-5.098 7.42-5.098 11.946 0 7.213 3.735 13.293 10.832 16.146M85.234 99.092c2.884-3.046 5.098-7.42 5.098-11.946 0-7.213-3.734-13.293-10.832-16.146M61.3 74.5l-12.8 13M112.1 72L99 85.5M88.4 47.5L74.404 61.304M85.3 98.914l-14.1 13.804"/>
        </g>
    </g>
</svg>
