<svg width="120" height="120" viewBox="0 0 120 120" fill="none" xmlns="http://www.w3.org/2000/svg">
<circle cx="60" cy="60" r="60" fill="white"/>
<circle cx="60" cy="60" r="60" fill="#009DE0" fill-opacity=".1"/>
<rect x="78" y="30.75" width="27.0101" height="58.5" rx="13.505" transform="rotate(45 78 30.75)" fill="white"/>
<path d="M76.5 67.5L60.5602 82.5548C54.8478 87.9501 45.8769 87.812 40.3333 82.2434V82.2434C34.6437 76.5282 34.7122 67.2683 40.4857 61.6379L66.9872 35.7934C71.1301 31.7533 77.7535 31.8023 81.8361 35.9033V35.9033C85.9359 40.0215 85.9356 46.6791 81.8354 50.7969L55.743 77.0013C53.1333 79.6222 48.8902 79.622 46.2808 77.0008V77.0008C43.6822 74.3906 43.6884 70.1691 46.2946 67.5665L68.7673 45.1249" stroke="#223239" stroke-width="3" stroke-linecap="round"/>
<path d="M81.0434 63.4166L85.0831 59.208" stroke="#223239" stroke-width="3" stroke-linecap="round"/>
</svg>
