<svg width="160" height="160" viewBox="0 0 160 160" fill="none" xmlns="http://www.w3.org/2000/svg">
<circle cx="80" cy="80" r="80" fill="white"/>

<path fill-rule="evenodd" clip-rule="evenodd" d="M86.8125 121.321C86.5918 121.321 86.372 121.264 86.175 121.15L53.7507 102.309C53.3625 102.084 53.125 101.671 53.125 101.224V63.5429C53.125 63.0966 53.3625 62.6838 53.7507 62.4585L86.175 43.6177C86.5691 43.3891 87.0559 43.3891 87.45 43.6177L119.874 62.4585C120.262 62.6838 120.5 63.0966 120.5 63.5429V101.224C120.5 101.671 120.262 102.084 119.874 102.309L87.45 121.15C87.253 121.264 87.0323 121.321 86.8125 121.321Z" fill="#009DE0" fill-opacity=".1"/>
<path fill-rule="evenodd" clip-rule="evenodd" d="M90.519 61.8858C88.8784 60.3616 86.6988 59.5889 84.0423 59.5889C81.9668 59.5889 80.11 59.9853 78.5254 60.7676C76.9924 61.5253 75.511 62.7206 74.1189 64.3078C74.1101 64.3174 74.1014 64.3271 74.0926 64.3367C74.069 64.3638 74.0436 64.3857 74.0209 64.4137C74.0121 64.4224 74.0104 64.4356 74.0025 64.4452C73.8336 64.6648 73.7286 64.9369 73.7286 65.2353C73.7286 65.9528 74.3105 66.5347 75.028 66.5347C75.4034 66.5347 75.7376 66.3737 75.9756 66.1199C75.9931 66.1024 76.0168 66.0946 76.0334 66.0753C77.2496 64.7243 78.4904 63.7268 79.7206 63.1117C80.9299 62.5071 82.3841 62.2008 84.0423 62.2008C85.9375 62.2008 87.4198 62.6987 88.5713 63.7224C89.6974 64.7234 90.2443 66.0079 90.2443 67.6521C90.2443 68.5988 90.0728 69.4213 89.735 70.0959C89.3868 70.7942 88.9475 71.3857 88.4313 71.8547C87.8634 72.3709 87.0645 73.0027 86.0591 73.7307C84.8945 74.5681 83.9408 75.3276 83.225 75.9891C82.4576 76.6969 81.804 77.6148 81.2816 78.7182C80.7514 79.8364 80.4836 81.2014 80.4836 82.7756V86.5827C80.4836 86.5879 80.4863 86.5932 80.4863 86.5984C80.4863 86.6116 80.4827 86.6238 80.4827 86.6369C80.4827 87.3754 81.0813 87.9731 81.8198 87.9731C82.5574 87.9731 83.1559 87.3754 83.1559 86.6369C83.1559 86.6151 83.1506 86.5941 83.1498 86.5722V82.8823C83.1498 81.6836 83.3571 80.6528 83.7684 79.8163C84.1901 78.9562 84.7038 78.2369 85.2953 77.6761C85.9261 77.0793 86.7915 76.3898 87.8756 75.6198C88.9598 74.8262 89.8479 74.1131 90.5155 73.5023C91.2251 72.8513 91.8228 72.0454 92.2926 71.1066C92.7739 70.1449 93.0171 68.9821 93.0171 67.6521C93.0171 65.3657 92.1771 63.4249 90.519 61.8858ZM83.9072 94.6957C83.566 94.3247 82.9386 93.8837 81.8965 93.8837C81.1352 93.8837 80.4632 94.1532 79.9505 94.665C79.4386 95.1769 79.1682 95.8752 79.1682 96.6854C79.1682 97.4003 79.4386 98.0487 79.9505 98.5579C80.4615 99.0698 81.1352 99.3393 81.8965 99.3393C82.9403 99.3393 83.5668 98.8974 83.9072 98.5273C84.3762 98.0207 84.6247 97.3837 84.6247 96.6854C84.6247 95.8813 84.3841 95.2119 83.909 94.6965C83.909 94.6957 83.9081 94.6957 83.9072 94.6957ZM49.625 96.9427L82 115.864L114.375 96.9427V59.0744L82 40.1543L49.625 59.0744V96.9427ZM82 118.696C81.7707 118.696 81.5424 118.637 81.3376 118.517L47.6501 98.8292C47.2467 98.5938 47 98.1624 47 97.6961V58.3211C47 57.8547 47.2467 57.4233 47.6501 57.1879L81.3376 37.5004C81.7471 37.2616 82.2529 37.2616 82.6624 37.5004L116.35 57.1879C116.752 57.4233 117 57.8547 117 58.3211V97.6961C117 98.1624 116.752 98.5938 116.35 98.8292L82.6624 118.517C82.4576 118.637 82.2284 118.696 82 118.696Z" fill="#223239"/>
</svg>
