<svg width="59" height="45" viewBox="0 0 59 45" fill="none" xmlns="http://www.w3.org/2000/svg">
<path d="M8.81183 18.8297C10.1956 18.3234 11.6647 18 13.2177 18C20.515 18 26.4355 24.0441 26.4355 31.5C26.4355 38.9559 20.5178 45 13.2177 45C5.9177 45 0 38.9559 0 31.5V18C0 8.07188 7.90587 0 17.6237 0C20.0607 0 22.0296 2.01516 22.0296 4.5C22.0296 6.98484 20.0566 9 17.6237 9C12.7634 9 8.81183 13.0359 8.81183 18V18.8297Z" fill="#7ED9FF"/>
<path d="M40.7547 18.8267C42.1385 18.3241 43.6076 18 45.1606 18C52.4579 18 58.3784 24.0441 58.3784 31.5C58.3784 38.9559 52.4607 45 45.1606 45C37.8606 45 31.9429 38.9559 31.9429 31.5V18C31.9429 8.07469 39.8488 0 49.5666 0C51.9994 0 53.9725 2.01516 53.9725 4.5C53.9725 6.98484 51.9994 9 49.5666 9C44.7063 9 40.7547 13.0359 40.7547 18V18.8267Z" fill="#7ED9FF"/>
</svg>
