<svg xmlns="http://www.w3.org/2000/svg" width="160" height="160" viewBox="0 0 160 160">
    <g fill="none" fill-rule="evenodd">
        <circle cx="80" cy="80" r="80" fill="#FFF"/>
        <path fill="#009DE0" fill-opacity=".1" d="M114.512 73.279c-3.476-14.405-10.277-29.908-16.994-29.908-.332 0-.666.04-.984.116-1.465.354-2.631 1.472-3.486 3.286-.092.072-.191.127-.266.223C89.02 51.812 75.554 67.72 60.189 71.44l-11.738 3.034c-.047.011-.093.025-.138.04a14.573 14.573 0 0 0-8.587 6.421 14.398 14.398 0 0 0-1.75 11.024c.917 3.796 3.254 6.995 6.583 9.006 3.313 2 7.23 2.597 11.027 1.679l2.433-.59h.004l2.929-.709 9.714 19.996a7.318 7.318 0 0 0 6.584 4.118 7.26 7.26 0 0 0 3.188-.738c3.624-1.768 5.138-6.16 3.373-9.79l-7.855-16.168c14.024-.118 28.346 6.411 31.618 8.001 1.171.875 2.36 1.36 3.544 1.36.331 0 .665-.04.983-.119 3.102-.75 4.883-4.88 5.155-11.944.244-6.344-.731-14.435-2.744-22.783z"/>
        <path fill="#23333A" d="M130.486 88.944c-.205.035-.42.03-.635-.024l-11.256-2.785a1.555 1.555 0 0 1-1.135-1.884 1.546 1.546 0 0 1 1.88-1.138l11.256 2.786a1.555 1.555 0 0 1 1.134 1.884c-.15.619-.654 1.06-1.244 1.161zm-21.36-38.429a1.559 1.559 0 0 1-.938-2.741l9.154-7.8a1.553 1.553 0 0 1 2.19.176 1.559 1.559 0 0 1-.178 2.196l-9.155 7.8c-.31.266-.696.386-1.074.37zm7.69 17.013a1.556 1.556 0 0 1-.335-3.07l10.153-2.495a1.554 1.554 0 0 1 1.88 1.141 1.558 1.558 0 0 1-1.14 1.883l-10.153 2.496c-.136.033-.27.049-.405.045zM104.59 91.151c-.227 5.834-1.56 8.744-2.78 9.04-.083.02-.167.028-.254.028-.276 0-.581-.085-.915-.249a1.515 1.515 0 0 0-.49-.408c-.064-.034-.23-.12-.482-.245-2.248-1.858-5.283-6.558-8.104-13.785 3.502-2.155 5.029-8.009 3.487-14.4-1.55-6.423-5.597-10.953-9.729-11.223-.358-3.309-.505-6.41-.4-9.148.224-5.834 1.558-8.742 2.778-9.038.081-.02.166-.029.255-.029 2.997 0 9.696 9.802 13.972 27.526 1.95 8.078 2.894 15.866 2.662 21.931zM85.732 63.143c2.342.645 5.122 3.847 6.298 8.723 1.169 4.845.178 8.94-1.594 10.609a105.155 105.155 0 0 1-2.854-9.782 106.11 106.11 0 0 1-1.85-9.55zM57.348 91.91l-8.109 1.962-5.358-22.201 7.479-1.815c12.919-3.128 24.406-14.214 30.585-21.198-.055.636-.1 1.292-.129 1.984-.126 3.303.083 7.086.592 11.127.007.057-.007.113.006.171.005.02.02.033.025.052a106.763 106.763 0 0 0 2.122 11.434 109.04 109.04 0 0 0 3.43 11.454c.008.073-.009.142.01.215.052.212.152.393.274.557 1.535 4.117 3.284 7.895 5.15 10.898-8.357-3.32-23.077-7.79-36.077-4.64zm9.325 9.755l-7.663 3.467-4.529-9.324 3.6-.872a34.029 34.029 0 0 1 4.935-.799l3.657 7.528zm2.843 15.468a4.206 4.206 0 0 1-5.62-1.944l-3.524-7.256 7.66-3.468 3.42 7.04a4.218 4.218 0 0 1-1.936 5.628zM45.29 94.828c-2.993.727-6.081.257-8.692-1.32a11.283 11.283 0 0 1-5.164-7.071 11.302 11.302 0 0 1 1.372-8.656c1.58-2.564 4.07-4.384 7.02-5.127l1.034-.252 5.356 22.2-.926.226zm59.658-26.34C101.472 54.085 94.672 38.58 87.955 38.58c-.333 0-.666.04-.984.116-1.466.355-2.631 1.472-3.486 3.287-.092.071-.191.127-.266.222-3.761 4.817-17.229 20.726-32.593 24.445l-11.738 3.035c-.048.01-.093.025-.138.04a14.573 14.573 0 0 0-8.587 6.42 14.398 14.398 0 0 0-1.75 11.025c.917 3.796 3.254 6.995 6.583 9.005 3.312 2.001 7.23 2.598 11.026 1.68l2.434-.59h.003l2.93-.709 9.713 19.996a7.318 7.318 0 0 0 6.585 4.117 7.26 7.26 0 0 0 3.188-.737c3.624-1.768 5.138-6.16 3.373-9.79l-7.855-16.168c14.023-.118 28.346 6.41 31.617 8.001 1.172.874 2.36 1.36 3.545 1.36.33 0 .664-.04.982-.12 3.102-.749 4.884-4.88 5.156-11.944.244-6.343-.731-14.434-2.744-22.782z"/>
    </g>
</svg>
