<?xml version="1.0" encoding="utf-8"?>
<!-- Generator: Adobe Illustrator 16.0.3, SVG Export Plug-In . SVG Version: 6.00 Build 0)  -->
<!DOCTYPE svg PUBLIC "-//W3C//DTD SVG 1.1//EN" "http://www.w3.org/Graphics/SVG/1.1/DTD/svg11.dtd">
<svg version="1.1" id="Layer_1" xmlns:sketch="http://www.bohemiancoding.com/sketch/ns" xmlns="http://www.w3.org/2000/svg" xmlns:xlink="http://www.w3.org/1999/xlink" x="0px" y="0px" width="400px" height="259.683px" viewBox="7 80.159 400 259.683" enable-background="new 7 80.159 400 259.683" xml:space="preserve">
<g id="Page-1" sketch:type="MSPage">
	<g id="logo--footer" sketch:type="MSArtboardGroup">
		<g id="logo-old-grey" transform="translate(7.000000, 10.000000)" sketch:type="MSLayerGroup">
			<path id="Shape" sketch:type="MSShapeGroup" fill="#9DA8AF" d="M164.445,185.714v-77.778c0-2.222,1.589-4.127,3.492-4.127
				c1.904,0,3.492,1.905,3.492,4.127v77.778H164.445L164.445,185.714z M182.222,185.714v-77.778c0-2.222-1.587-4.127-3.492-4.127
				c-1.902,0-3.491,1.905-3.491,4.127v77.778H182.222L182.222,185.714z M210.793,185.397V142.54c0-2.222-1.587-3.81-3.174-3.81
				c-1.905,0-3.177,1.587-3.177,3.81v42.857H210.793L210.793,185.397z M236.825,185.397v-17.46c0-1.905-1.271-3.492-3.177-3.492
				c-1.902,0-3.175,1.587-3.175,3.492v17.46H236.825L236.825,185.397z M148.572,98.73h10.796l-5.397-10.793L148.572,98.73
				L148.572,98.73z M157.778,98.73h31.111l-15.556-28.571L157.778,98.73L157.778,98.73z M197.778,131.746h19.365l-9.521-43.81
				L197.778,131.746L197.778,131.746z M198.095,98.73l-5.396-10.793L187.62,98.73h0.635v205.081h9.841L198.095,98.73L198.095,98.73z
				 M249.206,159.048l-3.177-16.826l-3.49,16.826h0.315v62.856h6.032L249.206,159.048L249.206,159.048L249.206,159.048z
				 M242.857,159.048l-0.952-6.032h-18.729v6.032H242.857L242.857,159.048z M224.762,131.746l-3.81-16.826l-3.812,16.826l0,0
				v128.889h7.938V131.746H224.762z M74.285,329.842L74.285,329.842c9.207,0,16.188-2.539,20.315-4.127s10.479-3.811,19.048-3.811
				c8.571,0,14.921,2.223,19.049,3.811s11.11,4.127,20.316,4.127s16.19-2.539,20-4.127c3.812-1.588,11.429-3.811,20.317-3.811
				c8.569,0,16.188,2.223,20.315,3.811s11.111,4.127,20,4.127c9.206,0,16.19-2.539,20.317-4.127s10.477-3.811,19.048-3.811
				s14.921,2.223,19.048,3.811s11.11,4.127,20.317,4.127h1.587v-3.176h-1.587c-8.572,0-14.923-2.223-19.05-3.809
				c-4.125-1.588-11.109-4.127-19.998-4.127c-9.206,0-16.19,2.539-20.317,4.127c-4.127,1.586-10.477,3.809-19.048,3.809
				s-14.92-2.223-19.048-3.809c-4.127-1.588-12.063-4.127-21.271-4.127s-17.143,2.539-21.27,4.127
				c-4.127,1.586-10.479,3.809-19.048,3.809c-8.571,0-14.922-2.223-19.05-3.809c-4.127-1.588-11.108-4.127-20.315-4.127
				c-9.206,0-16.19,2.539-20,4.127c-4.127,1.586-10.478,3.809-19.048,3.809H73.33v3.176H74.285L74.285,329.842z M74.285,324.127
				L74.285,324.127c9.207,0,16.188-2.539,20.315-4.127s10.479-3.811,19.048-3.811c8.571,0,14.921,2.223,19.049,3.811
				s11.11,4.127,20.316,4.127s16.19-2.539,20.317-4.127c3.81-1.588,11.429-3.811,20.315-3.811c8.571,0,16.19,2.223,20.317,3.811
				s11.111,4.127,20,4.127c9.207,0,16.189-2.539,20.316-4.127c4.128-1.588,10.478-3.811,19.049-3.811
				c8.569,0,14.921,2.223,19.048,3.811s11.108,4.127,20.315,4.127h1.587v-3.174h-1.587c-8.57,0-14.921-2.223-19.048-3.811
				s-11.109-4.127-20-4.127c-9.206,0-16.188,2.539-20.315,4.127s-10.479,3.811-19.049,3.811s-14.921-2.223-19.048-3.811
				s-12.063-4.127-21.271-4.127c-9.206,0-17.145,2.539-21.271,4.127s-10.477,3.811-19.048,3.811c-8.57,0-14.921-2.223-19.048-3.811
				s-11.11-4.127-20-4.127c-9.206,0-16.189,2.539-20.316,4.127c-4.128,1.588-10.477,3.811-19.048,3.811h-1.588v3.174H74.285
				L74.285,324.127z M294.603,275.557v-10.795h14.286v-4.443h-14.286v-9.523h19.365v-4.441h-26.984l0,0h-6.666v3.809h6.666l0,0
				v29.523h27.302v-4.443L294.603,275.557L294.603,275.557L294.603,275.557z M141.27,246.35c16.19,0,21.587,4.762,21.587,16.508
				c0,15.557-11.108,16.826-21.587,16.826h-12.698V250.16h-6.667v-3.811h14.604H141.27L141.27,246.35z M141.27,275.557
				c8.571,0,13.018-2.541,13.018-12.699c0-8.254-2.224-12.697-13.018-12.697h-4.762v25.396H141.27L141.27,275.557z M10.476,253.969
				c0-2.857,3.812-4.127,8.254-4.127c3.812,0,7.304,0.635,10.159,1.27v6.352H32.7v-10.795c-1.905,0-7.304-0.951-13.65-0.951
				C8.572,245.715,0,248.254,0,254.285c0,9.523,26.666,9.842,26.666,17.145c0,2.221-2.224,4.762-9.841,4.762
				c-6.984,0-12.383-1.904-15.873-3.176v5.715c1.587,0.317,8.254,1.271,15.556,1.271c12.063,0,20.635-3.174,20.635-9.521
				C36.825,260.635,10.476,260,10.476,253.969L10.476,253.969z M354.283,246.35v24.443l0,0l-17.775-24.443h-9.844l0,0h-7.302v3.811
				h7.302v29.523h7.304v-25.715l0,0l18.729,25.715h8.891V246.35H354.283L354.283,246.35z M368.889,246.35v0.316v10.795h3.81v-6.668
				h7.619V280h7.938v-29.207H400v-4.443H368.889L368.889,246.35z M42.857,246.35v4.443l0,0v6.668h3.812v-6.668h7.619v28.891h7.937
				v-29.207H73.97v-4.445H42.857V246.35z M258.412,260.953v4.127h6.667v10.793c-0.637,0.635-2.857,1.27-6.667,1.27
				c-9.523,0-11.11-7.301-11.11-13.332c0-6.668,1.587-12.699,8.889-13.018h14.285v-4.127h-14.603l0,0
				c-12.381,0.318-17.146,6.668-17.146,17.145c0,9.84,6.032,17.145,19.685,17.145c7.302,0,12.697-2.225,14.604-3.178v-16.822
				L258.412,260.953L258.412,260.953z M117.46,279.684h-8.254l-4.127-8.891H88.254l-3.492,8.891h-8.254l13.968-29.523H83.81v-3.811
				h8.571l0,0h9.521L117.46,279.684L117.46,279.684z M103.492,266.35l-6.352-14.604l0,0l-6.35,14.604H103.492L103.492,266.35z"/>
		</g>
	</g>
</g>
</svg>
