<svg xmlns="http://www.w3.org/2000/svg" width="160" height="160" viewBox="0 0 160 160">
    <g fill="none" fill-rule="evenodd">
        <circle cx="80" cy="80" r="80" fill="#FFF"/>
        <path fill="#009DE0" fill-opacity=".1" d="M116.726 115.85C129.743 114.746 140 103.856 140 90.564c0-13.297-10.264-24.19-23.3-25.204-.542-12.991-11.242-23.36-24.367-23.36-9.384 0-17.526 5.304-21.606 13.073a18.683 18.683 0 0 0-8.158-1.882c-10.382 0-18.8 8.416-18.8 18.798 0 1.305.136 2.578.389 3.808C35.434 78.096 29 86.039 29 95.486c0 11.247 9.118 20.365 20.365 20.365h67.36z"/>
        <path fill="#23333A" d="M81.623 47.003a12.335 12.335 0 0 1 9.48-.702 12.34 12.34 0 0 1 7.2 6.207 1.5 1.5 0 1 0 2.679-1.35c-3.825-7.593-13.114-10.659-20.709-6.835a1.5 1.5 0 0 0 1.35 2.68zm10.752 47.402a1.496 1.496 0 0 0 2.121 0 1.5 1.5 0 0 0 0-2.121L80 77.789 65.505 92.284a1.5 1.5 0 1 0 2.121 2.121L78.5 83.531v35.314a1.5 1.5 0 0 0 3 0V83.531l10.875 10.874zM80 123.845a1.5 1.5 0 0 0-1.5 1.5v8.5a1.5 1.5 0 0 0 3 0v-8.5a1.5 1.5 0 0 0-1.5-1.5zm55-42.532c0 13.415-10.468 24.743-23.832 25.789l-.966.088H92a1.5 1.5 0 0 1 0-3h18.129l.776-.076C122.747 103.186 132 93.172 132 81.313c0-11.865-9.258-21.88-21.077-22.8l-1.327-.103-.055-1.33A21.95 21.95 0 0 0 87.551 36a21.971 21.971 0 0 0-19.499 11.798l-.675 1.285-1.306-.631a16.453 16.453 0 0 0-7.212-1.666c-9.165 0-16.621 7.456-16.621 16.621 0 1.133.115 2.266.343 3.368l.286 1.391-1.373.362C33.549 70.624 28 77.833 28 86.059c0 5.447 1.852 10.274 5.213 13.591 3.074 3.033 7.246 4.605 12.035 4.54l2.307-.014.002.014H68a1.5 1.5 0 1 1 0 3H45.278l-.316.001c-5.482.001-10.269-1.865-13.857-5.406C27.168 97.9 25 92.315 25 86.059c0-9.125 5.86-17.177 14.412-20.038a19.686 19.686 0 0 1-.174-2.614c0-10.819 8.802-19.621 19.621-19.621 2.487 0 4.91.468 7.223 1.394A24.953 24.953 0 0 1 87.551 33c13.014 0 23.712 9.85 24.9 22.656C125.197 57.302 135 68.328 135 81.313z"/>
    </g>
</svg>
