<svg xmlns="http://www.w3.org/2000/svg" width="160" height="160" viewBox="0 0 160 160">
    <g fill="none" fill-rule="evenodd">
        <circle cx="80" cy="80" r="80" fill="#FFF"/>
        <circle cx="80" cy="80" r="80" fill="#009DE0" fill-opacity=".1"/>
        <path fill="#FFF" d="M89.949 111.259c-5.123-1.089-9.294-5.226-10.167-10.707-1.133-7.11 3.714-13.794 10.825-14.928 1.63-.26 3.237-.205 4.76.119 5.124 1.089 9.294 5.224 10.167 10.707 1.133 7.112-3.713 13.795-10.825 14.927-1.628.26-3.236.206-4.76-.118zm35.886-12.903a12.772 12.772 0 0 0-2.675-.267 30.84 30.84 0 0 0-.38-4.386c-1.875-11.769-10.617-21.433-22.007-24.595-.192-.087-13.814-3.009-13.814-3.009l-5.82 3.333-3.962-5.412-42.55-9.044a3.003 3.003 0 0 0-2.767.835 3.002 3.002 0 0 0-.777 2.784l2.334 17.876a3 3 0 0 0 2.298 2.25l11.647 2.476c2.171.675 13.198 3.285 14.67 17.117.036.338.178 1.918.209 2.362.06.87.156 1.745.296 2.623 1.972 12.375 11.53 22.44 23.784 25.044 3.662.778 7.409.872 11.136.28 8.045-1.282 15.11-5.621 19.893-12.216a30.879 30.879 0 0 0 3.04-5.185c.786.353 1.634.639 2.537.83.996.212 2.005.305 2.998.278 2.965-.083 5.426-1.237 6.75-3.167 1.031-1.503 1.267-3.372.644-5.13-.965-2.726-3.832-4.9-7.484-5.677z"/>
        <path fill="#23333A" d="M122.4 101.474a9.573 9.573 0 0 1-4.33-.9 30.102 30.102 0 0 0 1.547-7.349c.727-.009 1.454.06 2.153.208 2.501.532 4.658 1.986 5.28 3.744.806 2.28-1.275 4.203-4.65 4.297zm-10.92 5.315c-4.313 5.946-10.683 9.857-17.937 11.013-3.362.535-6.74.45-10.04-.25-11.049-2.35-19.667-11.423-21.445-22.582-.12-.76-.21-1.555-.266-2.358-.034-.488-.178-2.092-.218-2.473-.738-6.924-4.188-15.937-16.44-19.568l-.321-.096a2.838 2.838 0 0 0-.269-.07l-11.632-2.472-2.296-17.583c-.013-.1-.03-.199-.054-.297l41.429 8.806 3.285 4.487a2.994 2.994 0 0 0 3.911.832l4.823-2.761c4.852 1.042 11.677 2.517 12.484 2.715a.434.434 0 0 0 .035.01c10.368 2.877 18.159 11.58 19.847 22.175 1.155 7.254-.584 14.525-4.896 20.472zm18.397-10.613c-.964-2.726-3.832-4.901-7.483-5.677a12.772 12.772 0 0 0-2.676-.267 30.84 30.84 0 0 0-.38-4.386c-1.875-11.769-10.616-21.434-22.007-24.595-.192-.087-13.814-3.009-13.814-3.009l-5.82 3.333-3.962-5.412-42.549-9.044a3.003 3.003 0 0 0-2.768.834 3.002 3.002 0 0 0-.777 2.785l2.335 17.876a3 3 0 0 0 2.297 2.25l11.648 2.475c2.17.676 13.197 3.286 14.67 17.117.035.338.178 1.918.208 2.362.06.871.156 1.746.296 2.623 1.972 12.376 11.53 22.44 23.785 25.045 3.661.778 7.408.872 11.135.279 8.045-1.281 15.11-5.62 19.893-12.215a30.879 30.879 0 0 0 3.04-5.185 12.766 12.766 0 0 0 5.536 1.108c2.965-.083 5.425-1.237 6.75-3.167 1.03-1.503 1.266-3.372.643-5.13zM65.784 40.37a1.502 1.502 0 0 1 2.698-1.314l4.096 8.41a1.501 1.501 0 0 1-2.698 1.314l-4.096-8.41zM88.11 50.768l7.163-6.018a1.502 1.502 0 0 1 1.93 2.298l-7.162 6.017a1.499 1.499 0 0 1-2.114-.183 1.501 1.501 0 0 1 .183-2.114zm-8.762-4.177l1.871-8.804a1.5 1.5 0 1 1 2.935.624l-1.871 8.803a1.5 1.5 0 0 1-2.935-.623zm11.92 56.929c-1.629.259-3.237.205-4.76-.118-5.123-1.09-9.295-5.226-10.168-10.707-1.132-7.111 3.714-13.794 10.825-14.928 1.63-.26 3.238-.205 4.76.119 5.124 1.089 9.294 5.224 10.168 10.706 1.133 7.112-3.714 13.796-10.826 14.928zM92.55 74.95a15.96 15.96 0 0 0-5.856-.147 15.936 15.936 0 0 0-10.461 6.424 15.936 15.936 0 0 0-2.856 11.938c1.037 6.508 6.063 11.8 12.506 13.17a15.97 15.97 0 0 0 5.857.146 15.933 15.933 0 0 0 10.461-6.424 15.931 15.931 0 0 0 2.855-11.938c-1.037-6.507-6.063-11.8-12.506-13.169z"/>
    </g>
</svg>
