<?xml version="1.0" standalone="no"?>
<!DOCTYPE svg PUBLIC "-//W3C//DTD SVG 20010904//EN"
 "http://www.w3.org/TR/2001/REC-SVG-20010904/DTD/svg10.dtd">
<svg version="1.0" xmlns="http://www.w3.org/2000/svg"
 width="700.000000pt" height="700.000000pt" viewBox="0 0 700.000000 700.000000"
 preserveAspectRatio="xMidYMid meet">
<metadata>
Created by potrace 1.11, written by Peter Selinger 2001-2013
</metadata>
<g transform="translate(0.000000,700.000000) scale(0.100000,-0.100000)"
fill="#000000" stroke="none">
<path d="M3324 6033 c-191 -151 -387 -272 -564 -348 -174 -75 -454 -156 -618
-181 -213 -32 -415 -89 -577 -165 -44 -20 -183 -100 -210 -121 -128 -97 -228
-196 -295 -293 -149 -217 -211 -483 -174 -745 20 -139 25 -161 55 -250 95
-282 287 -472 597 -591 34 -13 62 -27 62 -31 0 -3 -17 -24 -38 -45 -162 -161
-249 -400 -217 -598 37 -237 230 -417 503 -470 121 -23 354 -23 467 0 11 3 38
7 60 10 22 3 112 19 200 35 88 15 178 31 200 34 22 4 67 11 100 17 88 16 225
13 292 -6 152 -44 233 -148 239 -310 6 -152 -75 -258 -261 -344 -183 -85 -562
-158 -802 -154 -232 4 -350 84 -398 271 -8 30 -17 57 -19 60 -4 4 -30 0 -156
-23 -14 -2 -104 -18 -200 -34 -96 -17 -187 -33 -203 -36 -15 -3 -39 -7 -55
-10 -15 -3 -41 -8 -57 -10 -17 -3 -42 -9 -56 -13 l-26 -7 28 -105 c67 -255
148 -388 314 -516 66 -52 220 -121 306 -138 13 -3 47 -9 75 -15 72 -14 212
-25 324 -24 96 0 310 12 320 18 3 1 36 6 75 10 38 4 72 8 75 10 3 2 33 7 65
10 33 4 63 9 66 11 4 2 24 7 45 10 22 3 44 7 49 9 6 1 28 5 50 10 186 36 441
119 613 201 335 158 560 385 641 647 29 95 35 146 34 272 -6 481 -342 814
-878 871 -103 11 -370 4 -394 -10 -3 -2 -28 -6 -56 -10 -27 -3 -111 -17 -185
-31 -74 -14 -149 -27 -165 -30 -17 -2 -71 -11 -120 -20 -290 -55 -429 9 -421
191 2 60 34 134 68 161 7 6 76 13 153 17 151 7 164 8 246 25 30 6 64 13 76 16
59 11 215 57 273 81 426 173 682 455 751 829 12 67 15 248 5 310 -63 387 -252
603 -631 721 -96 30 -96 33 5 50 40 7 42 8 90 18 236 52 431 112 565 175 135
63 130 57 94 127 -48 93 -168 319 -226 428 -29 55 -53 103 -53 108 0 18 -21 5
-126 -79z m-914 -1105 c181 -45 287 -167 347 -397 35 -136 37 -322 5 -426 -48
-153 -169 -259 -349 -306 -88 -23 -212 -27 -288 -9 -235 53 -398 305 -398 615
-1 244 102 404 310 488 41 16 60 21 153 36 43 8 188 6 220 -1z"/>
<path d="M5010 5685 c-139 -30 -242 -84 -332 -177 -181 -186 -231 -452 -131
-697 63 -153 224 -298 393 -353 133 -43 326 -30 457 32 222 103 370 338 364
575 -3 126 -43 265 -102 350 -80 118 -223 220 -374 267 -46 15 -214 17 -275 3z"/>
<path d="M5547 3314 c-1 -1 -29 -4 -62 -8 -188 -19 -341 -108 -452 -263 -111
-155 -143 -336 -94 -526 71 -274 317 -468 595 -470 257 -2 457 117 579 343 77
143 90 322 36 495 -66 211 -277 389 -499 421 -51 7 -99 11 -103 8z"/>
</g>
</svg>
